G04 Layer_Color=2752767*
%FSLAX24Y24*%
%MOIN*%
G70*
G01*
G75*
%ADD40C,0.0100*%
%ADD41C,0.0160*%
%ADD42C,0.0140*%
%ADD98C,0.0150*%
%ADD103C,0.0020*%
D40*
X431Y20673D02*
G03*
X431Y20673I-333J0D01*
G01*
X97Y21840D02*
X431Y22507D01*
X-236D02*
X431D01*
X-236D02*
X97Y21840D01*
X-236Y19007D02*
X-69D01*
X-236D02*
Y19340D01*
X-69D01*
Y19507D01*
X264D01*
Y19340D02*
Y19507D01*
Y19340D02*
X431D01*
Y19007D02*
Y19340D01*
X264Y19007D02*
X431D01*
X264Y18840D02*
Y19007D01*
X-69Y18840D02*
X264D01*
X-69D02*
Y19007D01*
X-236Y17340D02*
X97Y17507D01*
X431Y17340D01*
X264Y17673D02*
X431Y17340D01*
X264Y17673D02*
X431Y18007D01*
X97Y17840D02*
X431Y18007D01*
X-236D02*
X97Y17840D01*
X-236Y18007D02*
X-69Y17673D01*
X-236Y17340D02*
X-69Y17673D01*
X-236Y16173D02*
X97Y15840D01*
X431Y16173D01*
X97Y16507D02*
X431Y16173D01*
X-236D02*
X97Y16507D01*
X-236Y14340D02*
X431D01*
Y15007D01*
X-236D02*
X431D01*
X-236Y14340D02*
Y15007D01*
Y12840D02*
Y13007D01*
X-69Y13173D01*
X-236Y13340D02*
X-69Y13173D01*
X-236Y13340D02*
Y13507D01*
X-69D01*
X97Y13340D01*
X264Y13507D01*
X431D01*
Y13340D02*
Y13507D01*
X264Y13173D02*
X431Y13340D01*
X264Y13173D02*
X431Y13007D01*
Y12840D02*
Y13007D01*
X264Y12840D02*
X431D01*
X97Y13007D02*
X264Y12840D01*
X-69D02*
X97Y13007D01*
X-236Y12840D02*
X-69D01*
X63269Y22240D02*
Y21840D01*
Y22040D01*
X63369Y22140D01*
X63469Y22240D01*
X63569D01*
X63869Y21840D02*
X64068D01*
X63969D01*
Y22440D01*
X63869Y22340D01*
X64668Y21840D02*
Y22440D01*
X64368Y22140D01*
X64768D01*
X64968Y22340D02*
X65068Y22440D01*
X65268D01*
X65368Y22340D01*
Y21940D01*
X65268Y21840D01*
X65068D01*
X64968Y21940D01*
Y22340D01*
X65568Y21740D02*
X65968D01*
X66168Y21840D02*
X66368D01*
X66268D01*
Y22440D01*
X66168Y22340D01*
X66668D02*
X66768Y22440D01*
X66968D01*
X67068Y22340D01*
Y21940D01*
X66968Y21840D01*
X66768D01*
X66668Y21940D01*
Y22340D01*
X67267D02*
X67367Y22440D01*
X67567D01*
X67667Y22340D01*
Y21940D01*
X67567Y21840D01*
X67367D01*
X67267Y21940D01*
Y22340D01*
X67867Y22440D02*
Y21840D01*
Y22140D01*
X67967Y22240D01*
X68167D01*
X68267Y22140D01*
Y21840D01*
X68867Y22440D02*
X68667Y22340D01*
X68467Y22140D01*
Y21940D01*
X68567Y21840D01*
X68767D01*
X68867Y21940D01*
Y22040D01*
X68767Y22140D01*
X68467D01*
X69467Y22440D02*
X69067D01*
Y22140D01*
X69267Y22240D01*
X69367D01*
X69467Y22140D01*
Y21940D01*
X69367Y21840D01*
X69167D01*
X69067Y21940D01*
X69667Y21740D02*
X70067D01*
X70266Y21840D02*
X70466D01*
X70366D01*
Y22440D01*
X70266Y22340D01*
X70766D02*
X70866Y22440D01*
X71066D01*
X71166Y22340D01*
Y21940D01*
X71066Y21840D01*
X70866D01*
X70766Y21940D01*
Y22340D01*
X71766Y22440D02*
X71366D01*
Y22140D01*
X71566Y22240D01*
X71666D01*
X71766Y22140D01*
Y21940D01*
X71666Y21840D01*
X71466D01*
X71366Y21940D01*
X71966Y22240D02*
Y21840D01*
Y22040D01*
X72066Y22140D01*
X72166Y22240D01*
X72266D01*
X72566Y21840D02*
X72766D01*
X72666D01*
Y22440D01*
X72566Y22340D01*
X73066D02*
X73166Y22440D01*
X73365D01*
X73465Y22340D01*
Y21940D01*
X73365Y21840D01*
X73166D01*
X73066Y21940D01*
Y22340D01*
X73665D02*
X73765Y22440D01*
X73965D01*
X74065Y22340D01*
Y21940D01*
X73965Y21840D01*
X73765D01*
X73665Y21940D01*
Y22340D01*
X63269Y20740D02*
Y20340D01*
Y20540D01*
X63369Y20640D01*
X63469Y20740D01*
X63569D01*
X63869Y20340D02*
X64068D01*
X63969D01*
Y20940D01*
X63869Y20840D01*
X64368Y20940D02*
X64768D01*
Y20840D01*
X64368Y20440D01*
Y20340D01*
X64968Y20840D02*
X65068Y20940D01*
X65268D01*
X65368Y20840D01*
Y20440D01*
X65268Y20340D01*
X65068D01*
X64968Y20440D01*
Y20840D01*
X65568Y20240D02*
X65968D01*
X66168Y20340D02*
X66368D01*
X66268D01*
Y20940D01*
X66168Y20840D01*
X67068Y20340D02*
X66668D01*
X67068Y20740D01*
Y20840D01*
X66968Y20940D01*
X66768D01*
X66668Y20840D01*
X67267D02*
X67367Y20940D01*
X67567D01*
X67667Y20840D01*
Y20440D01*
X67567Y20340D01*
X67367D01*
X67267Y20440D01*
Y20840D01*
X67867Y20940D02*
Y20340D01*
Y20640D01*
X67967Y20740D01*
X68167D01*
X68267Y20640D01*
Y20340D01*
X68467Y20940D02*
X68867D01*
Y20840D01*
X68467Y20440D01*
Y20340D01*
X69067Y20840D02*
X69167Y20940D01*
X69367D01*
X69467Y20840D01*
Y20440D01*
X69367Y20340D01*
X69167D01*
X69067Y20440D01*
Y20840D01*
X69667Y20240D02*
X70067D01*
X70266Y20340D02*
X70466D01*
X70366D01*
Y20940D01*
X70266Y20840D01*
X71166Y20340D02*
X70766D01*
X71166Y20740D01*
Y20840D01*
X71066Y20940D01*
X70866D01*
X70766Y20840D01*
X71366D02*
X71466Y20940D01*
X71666D01*
X71766Y20840D01*
Y20440D01*
X71666Y20340D01*
X71466D01*
X71366Y20440D01*
Y20840D01*
X71966Y20740D02*
Y20340D01*
Y20540D01*
X72066Y20640D01*
X72166Y20740D01*
X72266D01*
X72566Y20340D02*
X72766D01*
X72666D01*
Y20940D01*
X72566Y20840D01*
X73066D02*
X73166Y20940D01*
X73365D01*
X73465Y20840D01*
Y20440D01*
X73365Y20340D01*
X73166D01*
X73066Y20440D01*
Y20840D01*
X73665D02*
X73765Y20940D01*
X73965D01*
X74065Y20840D01*
Y20440D01*
X73965Y20340D01*
X73765D01*
X73665Y20440D01*
Y20840D01*
X63669Y19240D02*
X63369D01*
X63269Y19140D01*
Y18940D01*
X63369Y18840D01*
X63669D01*
X64268D02*
X63869D01*
X64268Y19240D01*
Y19340D01*
X64168Y19440D01*
X63969D01*
X63869Y19340D01*
X64468D02*
X64568Y19440D01*
X64768D01*
X64868Y19340D01*
Y18940D01*
X64768Y18840D01*
X64568D01*
X64468Y18940D01*
Y19340D01*
X65068D02*
X65168Y19440D01*
X65368D01*
X65468Y19340D01*
Y19240D01*
X65368Y19140D01*
X65268D01*
X65368D01*
X65468Y19040D01*
Y18940D01*
X65368Y18840D01*
X65168D01*
X65068Y18940D01*
X65668Y19440D02*
Y18840D01*
Y19140D01*
X65768Y19240D01*
X65968D01*
X66068Y19140D01*
Y18840D01*
X66268D02*
Y19240D01*
X66568D01*
X66668Y19140D01*
Y18840D01*
X67267D02*
X66868D01*
X67267Y19240D01*
Y19340D01*
X67167Y19440D01*
X66968D01*
X66868Y19340D01*
X67467D02*
X67567Y19440D01*
X67767D01*
X67867Y19340D01*
Y18940D01*
X67767Y18840D01*
X67567D01*
X67467Y18940D01*
Y19340D01*
X68067D02*
X68167Y19440D01*
X68367D01*
X68467Y19340D01*
Y19240D01*
X68367Y19140D01*
X68267D01*
X68367D01*
X68467Y19040D01*
Y18940D01*
X68367Y18840D01*
X68167D01*
X68067Y18940D01*
X68667Y18840D02*
Y19240D01*
X68767D01*
X68867Y19140D01*
Y18840D01*
Y19140D01*
X68967Y19240D01*
X69067Y19140D01*
Y18840D01*
X69267D02*
X69467D01*
X69367D01*
Y19440D01*
X69267Y19340D01*
X69767D02*
X69867Y19440D01*
X70067D01*
X70167Y19340D01*
Y18940D01*
X70067Y18840D01*
X69867D01*
X69767Y18940D01*
Y19340D01*
X70366D02*
X70466Y19440D01*
X70666D01*
X70766Y19340D01*
Y19240D01*
X70666Y19140D01*
X70566D01*
X70666D01*
X70766Y19040D01*
Y18940D01*
X70666Y18840D01*
X70466D01*
X70366Y18940D01*
X70966Y18640D02*
Y19240D01*
X71266D01*
X71366Y19140D01*
Y18940D01*
X71266Y18840D01*
X70966D01*
X71566Y19340D02*
X71666Y19440D01*
X71866D01*
X71966Y19340D01*
Y19240D01*
X71866Y19140D01*
X71766D01*
X71866D01*
X71966Y19040D01*
Y18940D01*
X71866Y18840D01*
X71666D01*
X71566Y18940D01*
X72166Y19340D02*
X72266Y19440D01*
X72466D01*
X72566Y19340D01*
Y18940D01*
X72466Y18840D01*
X72266D01*
X72166Y18940D01*
Y19340D01*
X72766D02*
X72866Y19440D01*
X73066D01*
X73166Y19340D01*
Y19240D01*
X73066Y19140D01*
X72966D01*
X73066D01*
X73166Y19040D01*
Y18940D01*
X73066Y18840D01*
X72866D01*
X72766Y18940D01*
X63669Y17740D02*
X63369D01*
X63269Y17640D01*
Y17440D01*
X63369Y17340D01*
X63669D01*
X63869Y17840D02*
X63969Y17940D01*
X64168D01*
X64268Y17840D01*
Y17740D01*
X64168Y17640D01*
X64068D01*
X64168D01*
X64268Y17540D01*
Y17440D01*
X64168Y17340D01*
X63969D01*
X63869Y17440D01*
X64468Y17340D02*
X64668D01*
X64568D01*
Y17940D01*
X64468Y17840D01*
X64968D02*
X65068Y17940D01*
X65268D01*
X65368Y17840D01*
Y17740D01*
X65268Y17640D01*
X65368Y17540D01*
Y17440D01*
X65268Y17340D01*
X65068D01*
X64968Y17440D01*
Y17540D01*
X65068Y17640D01*
X64968Y17740D01*
Y17840D01*
X65068Y17640D02*
X65268D01*
X65568Y17940D02*
Y17340D01*
Y17640D01*
X65668Y17740D01*
X65868D01*
X65968Y17640D01*
Y17340D01*
X66568D02*
X66168D01*
X66568Y17740D01*
Y17840D01*
X66468Y17940D01*
X66268D01*
X66168Y17840D01*
X67167Y17940D02*
X66768D01*
Y17640D01*
X66968Y17740D01*
X67068D01*
X67167Y17640D01*
Y17440D01*
X67068Y17340D01*
X66868D01*
X66768Y17440D01*
X67667Y17340D02*
Y17940D01*
X67367Y17640D01*
X67767D01*
X67967Y17140D02*
Y17740D01*
X68267D01*
X68367Y17640D01*
Y17440D01*
X68267Y17340D01*
X67967D01*
X68867D02*
Y17940D01*
X68567Y17640D01*
X68967D01*
X69167Y17340D02*
X69367D01*
X69267D01*
Y17940D01*
X69167Y17840D01*
X69667D02*
X69767Y17940D01*
X69967D01*
X70067Y17840D01*
Y17740D01*
X69967Y17640D01*
X70067Y17540D01*
Y17440D01*
X69967Y17340D01*
X69767D01*
X69667Y17440D01*
Y17540D01*
X69767Y17640D01*
X69667Y17740D01*
Y17840D01*
X69767Y17640D02*
X69967D01*
X63669Y16240D02*
X63369D01*
X63269Y16140D01*
Y15940D01*
X63369Y15840D01*
X63669D01*
X63869D02*
X64068D01*
X63969D01*
Y16440D01*
X63869Y16340D01*
X64368D02*
X64468Y16440D01*
X64668D01*
X64768Y16340D01*
Y15940D01*
X64668Y15840D01*
X64468D01*
X64368Y15940D01*
Y16340D01*
X64968D02*
X65068Y16440D01*
X65268D01*
X65368Y16340D01*
Y15940D01*
X65268Y15840D01*
X65068D01*
X64968Y15940D01*
Y16340D01*
X65568Y16440D02*
Y15840D01*
Y16140D01*
X65668Y16240D01*
X65868D01*
X65968Y16140D01*
Y15840D01*
X66168Y16440D02*
X66568D01*
Y16340D01*
X66168Y15940D01*
Y15840D01*
X66768Y16340D02*
X66868Y16440D01*
X67068D01*
X67167Y16340D01*
Y15940D01*
X67068Y15840D01*
X66868D01*
X66768Y15940D01*
Y16340D01*
X63269Y14740D02*
Y14340D01*
Y14540D01*
X63369Y14640D01*
X63469Y14740D01*
X63569D01*
X63869Y14340D02*
X64068D01*
X63969D01*
Y14940D01*
X63869Y14840D01*
X64368D02*
X64468Y14940D01*
X64668D01*
X64768Y14840D01*
Y14740D01*
X64668Y14640D01*
X64768Y14540D01*
Y14440D01*
X64668Y14340D01*
X64468D01*
X64368Y14440D01*
Y14540D01*
X64468Y14640D01*
X64368Y14740D01*
Y14840D01*
X64468Y14640D02*
X64668D01*
X64968Y14840D02*
X65068Y14940D01*
X65268D01*
X65368Y14840D01*
Y14440D01*
X65268Y14340D01*
X65068D01*
X64968Y14440D01*
Y14840D01*
X65568Y14240D02*
X65968D01*
X66168Y14340D02*
X66368D01*
X66268D01*
Y14940D01*
X66168Y14840D01*
X66668Y14340D02*
X66868D01*
X66768D01*
Y14940D01*
X66668Y14840D01*
X67167D02*
X67267Y14940D01*
X67467D01*
X67567Y14840D01*
Y14440D01*
X67467Y14340D01*
X67267D01*
X67167Y14440D01*
Y14840D01*
X67767Y14940D02*
Y14340D01*
Y14640D01*
X67867Y14740D01*
X68067D01*
X68167Y14640D01*
Y14340D01*
X68367Y14440D02*
X68467Y14340D01*
X68667D01*
X68767Y14440D01*
Y14840D01*
X68667Y14940D01*
X68467D01*
X68367Y14840D01*
Y14740D01*
X68467Y14640D01*
X68767D01*
X68967Y14840D02*
X69067Y14940D01*
X69267D01*
X69367Y14840D01*
Y14440D01*
X69267Y14340D01*
X69067D01*
X68967Y14440D01*
Y14840D01*
X69567Y14740D02*
Y14340D01*
Y14540D01*
X69667Y14640D01*
X69767Y14740D01*
X69867D01*
X70167Y14340D02*
X70366D01*
X70266D01*
Y14940D01*
X70167Y14840D01*
X70666D02*
X70766Y14940D01*
X70966D01*
X71066Y14840D01*
Y14440D01*
X70966Y14340D01*
X70766D01*
X70666Y14440D01*
Y14840D01*
X71266D02*
X71366Y14940D01*
X71566D01*
X71666Y14840D01*
Y14440D01*
X71566Y14340D01*
X71366D01*
X71266Y14440D01*
Y14840D01*
X63269Y13240D02*
X63469Y12840D01*
X63669Y13240D01*
X64168Y12840D02*
Y13440D01*
X63869Y13140D01*
X64268D01*
X64868Y13440D02*
X64668Y13340D01*
X64468Y13140D01*
Y12940D01*
X64568Y12840D01*
X64768D01*
X64868Y12940D01*
Y13040D01*
X64768Y13140D01*
X64468D01*
X65068Y13440D02*
Y12840D01*
Y13140D01*
X65168Y13240D01*
X65368D01*
X65468Y13140D01*
Y12840D01*
X66068D02*
X65668D01*
X66068Y13240D01*
Y13340D01*
X65968Y13440D01*
X65768D01*
X65668Y13340D01*
X66668Y13440D02*
X66268D01*
Y13140D01*
X66468Y13240D01*
X66568D01*
X66668Y13140D01*
Y12940D01*
X66568Y12840D01*
X66368D01*
X66268Y12940D01*
X66868Y12840D02*
Y13240D01*
X66968D01*
X67068Y13140D01*
Y12840D01*
Y13140D01*
X67167Y13240D01*
X67267Y13140D01*
Y12840D01*
X67467Y13340D02*
X67567Y13440D01*
X67767D01*
X67867Y13340D01*
Y12940D01*
X67767Y12840D01*
X67567D01*
X67467Y12940D01*
Y13340D01*
X68067Y12840D02*
Y13240D01*
X68167D01*
X68267Y13140D01*
Y12840D01*
Y13140D01*
X68367Y13240D01*
X68467Y13140D01*
Y12840D01*
X68667Y13240D02*
X69067Y12840D01*
X68867Y13040D01*
X69067Y13240D01*
X68667Y12840D01*
X69267Y13340D02*
X69367Y13440D01*
X69567D01*
X69667Y13340D01*
Y12940D01*
X69567Y12840D01*
X69367D01*
X69267Y12940D01*
Y13340D01*
X55811Y21840D02*
Y22440D01*
X56111D01*
X56211Y22340D01*
Y22140D01*
X56111Y22040D01*
X55811D01*
X56011D02*
X56211Y21840D01*
X56511D02*
X56710D01*
X56810Y21940D01*
Y22140D01*
X56710Y22240D01*
X56511D01*
X56411Y22140D01*
Y21940D01*
X56511Y21840D01*
X57010Y22240D02*
Y21940D01*
X57110Y21840D01*
X57410D01*
Y22240D01*
X57610Y21840D02*
Y22240D01*
X57910D01*
X58010Y22140D01*
Y21840D01*
X58610Y22440D02*
Y21840D01*
X58310D01*
X58210Y21940D01*
Y22140D01*
X58310Y22240D01*
X58610D01*
X59110Y21840D02*
X58910D01*
X58810Y21940D01*
Y22140D01*
X58910Y22240D01*
X59110D01*
X59210Y22140D01*
Y22040D01*
X58810D01*
X59809Y22440D02*
Y21840D01*
X59510D01*
X59410Y21940D01*
Y22140D01*
X59510Y22240D01*
X59809D01*
X55811Y20340D02*
Y20940D01*
X56111D01*
X56211Y20840D01*
Y20640D01*
X56111Y20540D01*
X55811D01*
X56011D02*
X56211Y20340D01*
X56511D02*
X56710D01*
X56810Y20440D01*
Y20640D01*
X56710Y20740D01*
X56511D01*
X56411Y20640D01*
Y20440D01*
X56511Y20340D01*
X57010Y20740D02*
Y20440D01*
X57110Y20340D01*
X57410D01*
Y20740D01*
X57610Y20340D02*
Y20740D01*
X57910D01*
X58010Y20640D01*
Y20340D01*
X58610Y20940D02*
Y20340D01*
X58310D01*
X58210Y20440D01*
Y20640D01*
X58310Y20740D01*
X58610D01*
X59110Y20340D02*
X58910D01*
X58810Y20440D01*
Y20640D01*
X58910Y20740D01*
X59110D01*
X59210Y20640D01*
Y20540D01*
X58810D01*
X59809Y20940D02*
Y20340D01*
X59510D01*
X59410Y20440D01*
Y20640D01*
X59510Y20740D01*
X59809D01*
X55811Y18840D02*
Y19440D01*
X56111D01*
X56211Y19340D01*
Y19140D01*
X56111Y19040D01*
X55811D01*
X56011D02*
X56211Y18840D01*
X56511D02*
X56710D01*
X56810Y18940D01*
Y19140D01*
X56710Y19240D01*
X56511D01*
X56411Y19140D01*
Y18940D01*
X56511Y18840D01*
X57010Y19240D02*
Y18940D01*
X57110Y18840D01*
X57410D01*
Y19240D01*
X57610Y18840D02*
Y19240D01*
X57910D01*
X58010Y19140D01*
Y18840D01*
X58610Y19440D02*
Y18840D01*
X58310D01*
X58210Y18940D01*
Y19140D01*
X58310Y19240D01*
X58610D01*
X59110Y18840D02*
X58910D01*
X58810Y18940D01*
Y19140D01*
X58910Y19240D01*
X59110D01*
X59210Y19140D01*
Y19040D01*
X58810D01*
X59809Y19440D02*
Y18840D01*
X59510D01*
X59410Y18940D01*
Y19140D01*
X59510Y19240D01*
X59809D01*
X55811Y17340D02*
Y17940D01*
X56111D01*
X56211Y17840D01*
Y17640D01*
X56111Y17540D01*
X55811D01*
X56011D02*
X56211Y17340D01*
X56511D02*
X56710D01*
X56810Y17440D01*
Y17640D01*
X56710Y17740D01*
X56511D01*
X56411Y17640D01*
Y17440D01*
X56511Y17340D01*
X57010Y17740D02*
Y17440D01*
X57110Y17340D01*
X57410D01*
Y17740D01*
X57610Y17340D02*
Y17740D01*
X57910D01*
X58010Y17640D01*
Y17340D01*
X58610Y17940D02*
Y17340D01*
X58310D01*
X58210Y17440D01*
Y17640D01*
X58310Y17740D01*
X58610D01*
X59110Y17340D02*
X58910D01*
X58810Y17440D01*
Y17640D01*
X58910Y17740D01*
X59110D01*
X59210Y17640D01*
Y17540D01*
X58810D01*
X59809Y17940D02*
Y17340D01*
X59510D01*
X59410Y17440D01*
Y17640D01*
X59510Y17740D01*
X59809D01*
X55811Y15840D02*
Y16440D01*
X56111D01*
X56211Y16340D01*
Y16140D01*
X56111Y16040D01*
X55811D01*
X56011D02*
X56211Y15840D01*
X56511D02*
X56710D01*
X56810Y15940D01*
Y16140D01*
X56710Y16240D01*
X56511D01*
X56411Y16140D01*
Y15940D01*
X56511Y15840D01*
X57010Y16240D02*
Y15940D01*
X57110Y15840D01*
X57410D01*
Y16240D01*
X57610Y15840D02*
Y16240D01*
X57910D01*
X58010Y16140D01*
Y15840D01*
X58610Y16440D02*
Y15840D01*
X58310D01*
X58210Y15940D01*
Y16140D01*
X58310Y16240D01*
X58610D01*
X59110Y15840D02*
X58910D01*
X58810Y15940D01*
Y16140D01*
X58910Y16240D01*
X59110D01*
X59210Y16140D01*
Y16040D01*
X58810D01*
X59809Y16440D02*
Y15840D01*
X59510D01*
X59410Y15940D01*
Y16140D01*
X59510Y16240D01*
X59809D01*
X55811Y14340D02*
Y14940D01*
X56111D01*
X56211Y14840D01*
Y14640D01*
X56111Y14540D01*
X55811D01*
X56011D02*
X56211Y14340D01*
X56511D02*
X56710D01*
X56810Y14440D01*
Y14640D01*
X56710Y14740D01*
X56511D01*
X56411Y14640D01*
Y14440D01*
X56511Y14340D01*
X57010Y14740D02*
Y14440D01*
X57110Y14340D01*
X57410D01*
Y14740D01*
X57610Y14340D02*
Y14740D01*
X57910D01*
X58010Y14640D01*
Y14340D01*
X58610Y14940D02*
Y14340D01*
X58310D01*
X58210Y14440D01*
Y14640D01*
X58310Y14740D01*
X58610D01*
X59110Y14340D02*
X58910D01*
X58810Y14440D01*
Y14640D01*
X58910Y14740D01*
X59110D01*
X59210Y14640D01*
Y14540D01*
X58810D01*
X59809Y14940D02*
Y14340D01*
X59510D01*
X59410Y14440D01*
Y14640D01*
X59510Y14740D01*
X59809D01*
X55811Y12840D02*
Y13440D01*
X56111D01*
X56211Y13340D01*
Y13140D01*
X56111Y13040D01*
X55811D01*
X56011D02*
X56211Y12840D01*
X56511D02*
X56710D01*
X56810Y12940D01*
Y13140D01*
X56710Y13240D01*
X56511D01*
X56411Y13140D01*
Y12940D01*
X56511Y12840D01*
X57010Y13240D02*
Y12940D01*
X57110Y12840D01*
X57410D01*
Y13240D01*
X57610Y12840D02*
Y13240D01*
X57910D01*
X58010Y13140D01*
Y12840D01*
X58610Y13440D02*
Y12840D01*
X58310D01*
X58210Y12940D01*
Y13140D01*
X58310Y13240D01*
X58610D01*
X59110Y12840D02*
X58910D01*
X58810Y12940D01*
Y13140D01*
X58910Y13240D01*
X59110D01*
X59210Y13140D01*
Y13040D01*
X58810D01*
X59809Y13440D02*
Y12840D01*
X59510D01*
X59410Y12940D01*
Y13140D01*
X59510Y13240D01*
X59809D01*
X49912Y21840D02*
Y22440D01*
X50212D01*
X50312Y22340D01*
Y22140D01*
X50212Y22040D01*
X49912D01*
X50612Y22240D02*
X50812D01*
X50912Y22140D01*
Y21840D01*
X50612D01*
X50512Y21940D01*
X50612Y22040D01*
X50912D01*
X51512Y22440D02*
Y21840D01*
X51212D01*
X51112Y21940D01*
Y22140D01*
X51212Y22240D01*
X51512D01*
X49912Y20340D02*
Y20940D01*
X50212D01*
X50312Y20840D01*
Y20640D01*
X50212Y20540D01*
X49912D01*
X50612Y20740D02*
X50812D01*
X50912Y20640D01*
Y20340D01*
X50612D01*
X50512Y20440D01*
X50612Y20540D01*
X50912D01*
X51512Y20940D02*
Y20340D01*
X51212D01*
X51112Y20440D01*
Y20640D01*
X51212Y20740D01*
X51512D01*
X49912Y18840D02*
Y19440D01*
X50212D01*
X50312Y19340D01*
Y19140D01*
X50212Y19040D01*
X49912D01*
X50612Y19240D02*
X50812D01*
X50912Y19140D01*
Y18840D01*
X50612D01*
X50512Y18940D01*
X50612Y19040D01*
X50912D01*
X51512Y19440D02*
Y18840D01*
X51212D01*
X51112Y18940D01*
Y19140D01*
X51212Y19240D01*
X51512D01*
X49912Y17340D02*
Y17940D01*
X50212D01*
X50312Y17840D01*
Y17640D01*
X50212Y17540D01*
X49912D01*
X50612Y17740D02*
X50812D01*
X50912Y17640D01*
Y17340D01*
X50612D01*
X50512Y17440D01*
X50612Y17540D01*
X50912D01*
X51512Y17940D02*
Y17340D01*
X51212D01*
X51112Y17440D01*
Y17640D01*
X51212Y17740D01*
X51512D01*
X49912Y15840D02*
Y16440D01*
X50212D01*
X50312Y16340D01*
Y16140D01*
X50212Y16040D01*
X49912D01*
X50612Y16240D02*
X50812D01*
X50912Y16140D01*
Y15840D01*
X50612D01*
X50512Y15940D01*
X50612Y16040D01*
X50912D01*
X51512Y16440D02*
Y15840D01*
X51212D01*
X51112Y15940D01*
Y16140D01*
X51212Y16240D01*
X51512D01*
X49912Y14340D02*
Y14940D01*
X50212D01*
X50312Y14840D01*
Y14640D01*
X50212Y14540D01*
X49912D01*
X50612Y14740D02*
X50812D01*
X50912Y14640D01*
Y14340D01*
X50612D01*
X50512Y14440D01*
X50612Y14540D01*
X50912D01*
X51512Y14940D02*
Y14340D01*
X51212D01*
X51112Y14440D01*
Y14640D01*
X51212Y14740D01*
X51512D01*
X49912Y13440D02*
Y13040D01*
X50112Y12840D01*
X50312Y13040D01*
Y13440D01*
X50512Y12840D02*
X50712D01*
X50612D01*
Y13240D01*
X50512D01*
X51112D02*
X51312D01*
X51412Y13140D01*
Y12840D01*
X51112D01*
X51012Y12940D01*
X51112Y13040D01*
X51412D01*
X34917Y22440D02*
X35317D01*
X35117D01*
Y21840D01*
X35617D02*
X35816D01*
X35916Y21940D01*
Y22140D01*
X35816Y22240D01*
X35617D01*
X35517Y22140D01*
Y21940D01*
X35617Y21840D01*
X36116Y21640D02*
Y22240D01*
X36416D01*
X36516Y22140D01*
Y21940D01*
X36416Y21840D01*
X36116D01*
X37316Y22440D02*
Y21840D01*
X37716D01*
X38016Y22240D02*
X38216D01*
X38316Y22140D01*
Y21840D01*
X38016D01*
X37916Y21940D01*
X38016Y22040D01*
X38316D01*
X38516Y22240D02*
Y21940D01*
X38616Y21840D01*
X38915D01*
Y21740D01*
X38816Y21640D01*
X38716D01*
X38915Y21840D02*
Y22240D01*
X39415Y21840D02*
X39215D01*
X39115Y21940D01*
Y22140D01*
X39215Y22240D01*
X39415D01*
X39515Y22140D01*
Y22040D01*
X39115D01*
X39715Y22240D02*
Y21840D01*
Y22040D01*
X39815Y22140D01*
X39915Y22240D01*
X40015D01*
X40915Y22140D02*
X41315D01*
X42114Y22440D02*
Y21840D01*
X42414D01*
X42514Y21940D01*
Y22040D01*
X42414Y22140D01*
X42114D01*
X42414D01*
X42514Y22240D01*
Y22340D01*
X42414Y22440D01*
X42114D01*
X42814Y21840D02*
X43014D01*
X43114Y21940D01*
Y22140D01*
X43014Y22240D01*
X42814D01*
X42714Y22140D01*
Y21940D01*
X42814Y21840D01*
X43414Y22340D02*
Y22240D01*
X43314D01*
X43514D01*
X43414D01*
Y21940D01*
X43514Y21840D01*
X43914Y22340D02*
Y22240D01*
X43814D01*
X44014D01*
X43914D01*
Y21940D01*
X44014Y21840D01*
X44414D02*
X44614D01*
X44714Y21940D01*
Y22140D01*
X44614Y22240D01*
X44414D01*
X44314Y22140D01*
Y21940D01*
X44414Y21840D01*
X44914D02*
Y22240D01*
X45014D01*
X45113Y22140D01*
Y21840D01*
Y22140D01*
X45213Y22240D01*
X45313Y22140D01*
Y21840D01*
X46113Y22440D02*
Y21840D01*
X46513D01*
X46813Y22240D02*
X47013D01*
X47113Y22140D01*
Y21840D01*
X46813D01*
X46713Y21940D01*
X46813Y22040D01*
X47113D01*
X47313Y22240D02*
Y21940D01*
X47413Y21840D01*
X47713D01*
Y21740D01*
X47613Y21640D01*
X47513D01*
X47713Y21840D02*
Y22240D01*
X48212Y21840D02*
X48013D01*
X47913Y21940D01*
Y22140D01*
X48013Y22240D01*
X48212D01*
X48312Y22140D01*
Y22040D01*
X47913D01*
X48512Y22240D02*
Y21840D01*
Y22040D01*
X48612Y22140D01*
X48712Y22240D01*
X48812D01*
X34917Y20940D02*
X35317D01*
X35117D01*
Y20340D01*
X35617D02*
X35816D01*
X35916Y20440D01*
Y20640D01*
X35816Y20740D01*
X35617D01*
X35517Y20640D01*
Y20440D01*
X35617Y20340D01*
X36116Y20140D02*
Y20740D01*
X36416D01*
X36516Y20640D01*
Y20440D01*
X36416Y20340D01*
X36116D01*
X37316Y20940D02*
Y20340D01*
X37716D01*
X38016Y20740D02*
X38216D01*
X38316Y20640D01*
Y20340D01*
X38016D01*
X37916Y20440D01*
X38016Y20540D01*
X38316D01*
X38516Y20740D02*
Y20440D01*
X38616Y20340D01*
X38915D01*
Y20240D01*
X38816Y20140D01*
X38716D01*
X38915Y20340D02*
Y20740D01*
X39415Y20340D02*
X39215D01*
X39115Y20440D01*
Y20640D01*
X39215Y20740D01*
X39415D01*
X39515Y20640D01*
Y20540D01*
X39115D01*
X39715Y20740D02*
Y20340D01*
Y20540D01*
X39815Y20640D01*
X39915Y20740D01*
X40015D01*
X40915Y20640D02*
X41315D01*
X42114Y20940D02*
Y20340D01*
X42414D01*
X42514Y20440D01*
Y20540D01*
X42414Y20640D01*
X42114D01*
X42414D01*
X42514Y20740D01*
Y20840D01*
X42414Y20940D01*
X42114D01*
X42814Y20340D02*
X43014D01*
X43114Y20440D01*
Y20640D01*
X43014Y20740D01*
X42814D01*
X42714Y20640D01*
Y20440D01*
X42814Y20340D01*
X43414Y20840D02*
Y20740D01*
X43314D01*
X43514D01*
X43414D01*
Y20440D01*
X43514Y20340D01*
X43914Y20840D02*
Y20740D01*
X43814D01*
X44014D01*
X43914D01*
Y20440D01*
X44014Y20340D01*
X44414D02*
X44614D01*
X44714Y20440D01*
Y20640D01*
X44614Y20740D01*
X44414D01*
X44314Y20640D01*
Y20440D01*
X44414Y20340D01*
X44914D02*
Y20740D01*
X45014D01*
X45113Y20640D01*
Y20340D01*
Y20640D01*
X45213Y20740D01*
X45313Y20640D01*
Y20340D01*
X46113Y20940D02*
Y20340D01*
X46513D01*
X46813Y20740D02*
X47013D01*
X47113Y20640D01*
Y20340D01*
X46813D01*
X46713Y20440D01*
X46813Y20540D01*
X47113D01*
X47313Y20740D02*
Y20440D01*
X47413Y20340D01*
X47713D01*
Y20240D01*
X47613Y20140D01*
X47513D01*
X47713Y20340D02*
Y20740D01*
X48212Y20340D02*
X48013D01*
X47913Y20440D01*
Y20640D01*
X48013Y20740D01*
X48212D01*
X48312Y20640D01*
Y20540D01*
X47913D01*
X48512Y20740D02*
Y20340D01*
Y20540D01*
X48612Y20640D01*
X48712Y20740D01*
X48812D01*
X34917Y19440D02*
X35317D01*
X35117D01*
Y18840D01*
X35617D02*
X35816D01*
X35916Y18940D01*
Y19140D01*
X35816Y19240D01*
X35617D01*
X35517Y19140D01*
Y18940D01*
X35617Y18840D01*
X36116Y18640D02*
Y19240D01*
X36416D01*
X36516Y19140D01*
Y18940D01*
X36416Y18840D01*
X36116D01*
X37316Y19440D02*
Y18840D01*
X37716D01*
X38016Y19240D02*
X38216D01*
X38316Y19140D01*
Y18840D01*
X38016D01*
X37916Y18940D01*
X38016Y19040D01*
X38316D01*
X38516Y19240D02*
Y18940D01*
X38616Y18840D01*
X38915D01*
Y18740D01*
X38816Y18640D01*
X38716D01*
X38915Y18840D02*
Y19240D01*
X39415Y18840D02*
X39215D01*
X39115Y18940D01*
Y19140D01*
X39215Y19240D01*
X39415D01*
X39515Y19140D01*
Y19040D01*
X39115D01*
X39715Y19240D02*
Y18840D01*
Y19040D01*
X39815Y19140D01*
X39915Y19240D01*
X40015D01*
X40915Y19140D02*
X41315D01*
X42114Y19440D02*
Y18840D01*
X42414D01*
X42514Y18940D01*
Y19040D01*
X42414Y19140D01*
X42114D01*
X42414D01*
X42514Y19240D01*
Y19340D01*
X42414Y19440D01*
X42114D01*
X42814Y18840D02*
X43014D01*
X43114Y18940D01*
Y19140D01*
X43014Y19240D01*
X42814D01*
X42714Y19140D01*
Y18940D01*
X42814Y18840D01*
X43414Y19340D02*
Y19240D01*
X43314D01*
X43514D01*
X43414D01*
Y18940D01*
X43514Y18840D01*
X43914Y19340D02*
Y19240D01*
X43814D01*
X44014D01*
X43914D01*
Y18940D01*
X44014Y18840D01*
X44414D02*
X44614D01*
X44714Y18940D01*
Y19140D01*
X44614Y19240D01*
X44414D01*
X44314Y19140D01*
Y18940D01*
X44414Y18840D01*
X44914D02*
Y19240D01*
X45014D01*
X45113Y19140D01*
Y18840D01*
Y19140D01*
X45213Y19240D01*
X45313Y19140D01*
Y18840D01*
X46113Y19440D02*
Y18840D01*
X46513D01*
X46813Y19240D02*
X47013D01*
X47113Y19140D01*
Y18840D01*
X46813D01*
X46713Y18940D01*
X46813Y19040D01*
X47113D01*
X47313Y19240D02*
Y18940D01*
X47413Y18840D01*
X47713D01*
Y18740D01*
X47613Y18640D01*
X47513D01*
X47713Y18840D02*
Y19240D01*
X48212Y18840D02*
X48013D01*
X47913Y18940D01*
Y19140D01*
X48013Y19240D01*
X48212D01*
X48312Y19140D01*
Y19040D01*
X47913D01*
X48512Y19240D02*
Y18840D01*
Y19040D01*
X48612Y19140D01*
X48712Y19240D01*
X48812D01*
X34917Y17940D02*
X35317D01*
X35117D01*
Y17340D01*
X35617D02*
X35816D01*
X35916Y17440D01*
Y17640D01*
X35816Y17740D01*
X35617D01*
X35517Y17640D01*
Y17440D01*
X35617Y17340D01*
X36116Y17140D02*
Y17740D01*
X36416D01*
X36516Y17640D01*
Y17440D01*
X36416Y17340D01*
X36116D01*
X37316Y17940D02*
Y17340D01*
X37716D01*
X38016Y17740D02*
X38216D01*
X38316Y17640D01*
Y17340D01*
X38016D01*
X37916Y17440D01*
X38016Y17540D01*
X38316D01*
X38516Y17740D02*
Y17440D01*
X38616Y17340D01*
X38915D01*
Y17240D01*
X38816Y17140D01*
X38716D01*
X38915Y17340D02*
Y17740D01*
X39415Y17340D02*
X39215D01*
X39115Y17440D01*
Y17640D01*
X39215Y17740D01*
X39415D01*
X39515Y17640D01*
Y17540D01*
X39115D01*
X39715Y17740D02*
Y17340D01*
Y17540D01*
X39815Y17640D01*
X39915Y17740D01*
X40015D01*
X40915Y17640D02*
X41315D01*
X42114Y17940D02*
Y17340D01*
X42414D01*
X42514Y17440D01*
Y17540D01*
X42414Y17640D01*
X42114D01*
X42414D01*
X42514Y17740D01*
Y17840D01*
X42414Y17940D01*
X42114D01*
X42814Y17340D02*
X43014D01*
X43114Y17440D01*
Y17640D01*
X43014Y17740D01*
X42814D01*
X42714Y17640D01*
Y17440D01*
X42814Y17340D01*
X43414Y17840D02*
Y17740D01*
X43314D01*
X43514D01*
X43414D01*
Y17440D01*
X43514Y17340D01*
X43914Y17840D02*
Y17740D01*
X43814D01*
X44014D01*
X43914D01*
Y17440D01*
X44014Y17340D01*
X44414D02*
X44614D01*
X44714Y17440D01*
Y17640D01*
X44614Y17740D01*
X44414D01*
X44314Y17640D01*
Y17440D01*
X44414Y17340D01*
X44914D02*
Y17740D01*
X45014D01*
X45113Y17640D01*
Y17340D01*
Y17640D01*
X45213Y17740D01*
X45313Y17640D01*
Y17340D01*
X46113Y17940D02*
Y17340D01*
X46513D01*
X46813Y17740D02*
X47013D01*
X47113Y17640D01*
Y17340D01*
X46813D01*
X46713Y17440D01*
X46813Y17540D01*
X47113D01*
X47313Y17740D02*
Y17440D01*
X47413Y17340D01*
X47713D01*
Y17240D01*
X47613Y17140D01*
X47513D01*
X47713Y17340D02*
Y17740D01*
X48212Y17340D02*
X48013D01*
X47913Y17440D01*
Y17640D01*
X48013Y17740D01*
X48212D01*
X48312Y17640D01*
Y17540D01*
X47913D01*
X48512Y17740D02*
Y17340D01*
Y17540D01*
X48612Y17640D01*
X48712Y17740D01*
X48812D01*
X34917Y16440D02*
X35317D01*
X35117D01*
Y15840D01*
X35617D02*
X35816D01*
X35916Y15940D01*
Y16140D01*
X35816Y16240D01*
X35617D01*
X35517Y16140D01*
Y15940D01*
X35617Y15840D01*
X36116Y15640D02*
Y16240D01*
X36416D01*
X36516Y16140D01*
Y15940D01*
X36416Y15840D01*
X36116D01*
X37316Y16440D02*
Y15840D01*
X37716D01*
X38016Y16240D02*
X38216D01*
X38316Y16140D01*
Y15840D01*
X38016D01*
X37916Y15940D01*
X38016Y16040D01*
X38316D01*
X38516Y16240D02*
Y15940D01*
X38616Y15840D01*
X38915D01*
Y15740D01*
X38816Y15640D01*
X38716D01*
X38915Y15840D02*
Y16240D01*
X39415Y15840D02*
X39215D01*
X39115Y15940D01*
Y16140D01*
X39215Y16240D01*
X39415D01*
X39515Y16140D01*
Y16040D01*
X39115D01*
X39715Y16240D02*
Y15840D01*
Y16040D01*
X39815Y16140D01*
X39915Y16240D01*
X40015D01*
X40915Y16140D02*
X41315D01*
X42114Y16440D02*
Y15840D01*
X42414D01*
X42514Y15940D01*
Y16040D01*
X42414Y16140D01*
X42114D01*
X42414D01*
X42514Y16240D01*
Y16340D01*
X42414Y16440D01*
X42114D01*
X42814Y15840D02*
X43014D01*
X43114Y15940D01*
Y16140D01*
X43014Y16240D01*
X42814D01*
X42714Y16140D01*
Y15940D01*
X42814Y15840D01*
X43414Y16340D02*
Y16240D01*
X43314D01*
X43514D01*
X43414D01*
Y15940D01*
X43514Y15840D01*
X43914Y16340D02*
Y16240D01*
X43814D01*
X44014D01*
X43914D01*
Y15940D01*
X44014Y15840D01*
X44414D02*
X44614D01*
X44714Y15940D01*
Y16140D01*
X44614Y16240D01*
X44414D01*
X44314Y16140D01*
Y15940D01*
X44414Y15840D01*
X44914D02*
Y16240D01*
X45014D01*
X45113Y16140D01*
Y15840D01*
Y16140D01*
X45213Y16240D01*
X45313Y16140D01*
Y15840D01*
X46113Y16440D02*
Y15840D01*
X46513D01*
X46813Y16240D02*
X47013D01*
X47113Y16140D01*
Y15840D01*
X46813D01*
X46713Y15940D01*
X46813Y16040D01*
X47113D01*
X47313Y16240D02*
Y15940D01*
X47413Y15840D01*
X47713D01*
Y15740D01*
X47613Y15640D01*
X47513D01*
X47713Y15840D02*
Y16240D01*
X48212Y15840D02*
X48013D01*
X47913Y15940D01*
Y16140D01*
X48013Y16240D01*
X48212D01*
X48312Y16140D01*
Y16040D01*
X47913D01*
X48512Y16240D02*
Y15840D01*
Y16040D01*
X48612Y16140D01*
X48712Y16240D01*
X48812D01*
X34917Y14940D02*
X35317D01*
X35117D01*
Y14340D01*
X35617D02*
X35816D01*
X35916Y14440D01*
Y14640D01*
X35816Y14740D01*
X35617D01*
X35517Y14640D01*
Y14440D01*
X35617Y14340D01*
X36116Y14140D02*
Y14740D01*
X36416D01*
X36516Y14640D01*
Y14440D01*
X36416Y14340D01*
X36116D01*
X37316Y14940D02*
Y14340D01*
X37716D01*
X38016Y14740D02*
X38216D01*
X38316Y14640D01*
Y14340D01*
X38016D01*
X37916Y14440D01*
X38016Y14540D01*
X38316D01*
X38516Y14740D02*
Y14440D01*
X38616Y14340D01*
X38915D01*
Y14240D01*
X38816Y14140D01*
X38716D01*
X38915Y14340D02*
Y14740D01*
X39415Y14340D02*
X39215D01*
X39115Y14440D01*
Y14640D01*
X39215Y14740D01*
X39415D01*
X39515Y14640D01*
Y14540D01*
X39115D01*
X39715Y14740D02*
Y14340D01*
Y14540D01*
X39815Y14640D01*
X39915Y14740D01*
X40015D01*
X40915Y14640D02*
X41315D01*
X42114Y14940D02*
Y14340D01*
X42414D01*
X42514Y14440D01*
Y14540D01*
X42414Y14640D01*
X42114D01*
X42414D01*
X42514Y14740D01*
Y14840D01*
X42414Y14940D01*
X42114D01*
X42814Y14340D02*
X43014D01*
X43114Y14440D01*
Y14640D01*
X43014Y14740D01*
X42814D01*
X42714Y14640D01*
Y14440D01*
X42814Y14340D01*
X43414Y14840D02*
Y14740D01*
X43314D01*
X43514D01*
X43414D01*
Y14440D01*
X43514Y14340D01*
X43914Y14840D02*
Y14740D01*
X43814D01*
X44014D01*
X43914D01*
Y14440D01*
X44014Y14340D01*
X44414D02*
X44614D01*
X44714Y14440D01*
Y14640D01*
X44614Y14740D01*
X44414D01*
X44314Y14640D01*
Y14440D01*
X44414Y14340D01*
X44914D02*
Y14740D01*
X45014D01*
X45113Y14640D01*
Y14340D01*
Y14640D01*
X45213Y14740D01*
X45313Y14640D01*
Y14340D01*
X46113Y14940D02*
Y14340D01*
X46513D01*
X46813Y14740D02*
X47013D01*
X47113Y14640D01*
Y14340D01*
X46813D01*
X46713Y14440D01*
X46813Y14540D01*
X47113D01*
X47313Y14740D02*
Y14440D01*
X47413Y14340D01*
X47713D01*
Y14240D01*
X47613Y14140D01*
X47513D01*
X47713Y14340D02*
Y14740D01*
X48212Y14340D02*
X48013D01*
X47913Y14440D01*
Y14640D01*
X48013Y14740D01*
X48212D01*
X48312Y14640D01*
Y14540D01*
X47913D01*
X48512Y14740D02*
Y14340D01*
Y14540D01*
X48612Y14640D01*
X48712Y14740D01*
X48812D01*
X34917Y13440D02*
X35317D01*
X35117D01*
Y12840D01*
X35617D02*
X35816D01*
X35916Y12940D01*
Y13140D01*
X35816Y13240D01*
X35617D01*
X35517Y13140D01*
Y12940D01*
X35617Y12840D01*
X36116Y12640D02*
Y13240D01*
X36416D01*
X36516Y13140D01*
Y12940D01*
X36416Y12840D01*
X36116D01*
X37316Y13440D02*
Y12840D01*
X37716D01*
X38016Y13240D02*
X38216D01*
X38316Y13140D01*
Y12840D01*
X38016D01*
X37916Y12940D01*
X38016Y13040D01*
X38316D01*
X38516Y13240D02*
Y12940D01*
X38616Y12840D01*
X38915D01*
Y12740D01*
X38816Y12640D01*
X38716D01*
X38915Y12840D02*
Y13240D01*
X39415Y12840D02*
X39215D01*
X39115Y12940D01*
Y13140D01*
X39215Y13240D01*
X39415D01*
X39515Y13140D01*
Y13040D01*
X39115D01*
X39715Y13240D02*
Y12840D01*
Y13040D01*
X39815Y13140D01*
X39915Y13240D01*
X40015D01*
X40915Y13140D02*
X41315D01*
X42114Y13440D02*
Y12840D01*
X42414D01*
X42514Y12940D01*
Y13040D01*
X42414Y13140D01*
X42114D01*
X42414D01*
X42514Y13240D01*
Y13340D01*
X42414Y13440D01*
X42114D01*
X42814Y12840D02*
X43014D01*
X43114Y12940D01*
Y13140D01*
X43014Y13240D01*
X42814D01*
X42714Y13140D01*
Y12940D01*
X42814Y12840D01*
X43414Y13340D02*
Y13240D01*
X43314D01*
X43514D01*
X43414D01*
Y12940D01*
X43514Y12840D01*
X43914Y13340D02*
Y13240D01*
X43814D01*
X44014D01*
X43914D01*
Y12940D01*
X44014Y12840D01*
X44414D02*
X44614D01*
X44714Y12940D01*
Y13140D01*
X44614Y13240D01*
X44414D01*
X44314Y13140D01*
Y12940D01*
X44414Y12840D01*
X44914D02*
Y13240D01*
X45014D01*
X45113Y13140D01*
Y12840D01*
Y13140D01*
X45213Y13240D01*
X45313Y13140D01*
Y12840D01*
X46113Y13440D02*
Y12840D01*
X46513D01*
X46813Y13240D02*
X47013D01*
X47113Y13140D01*
Y12840D01*
X46813D01*
X46713Y12940D01*
X46813Y13040D01*
X47113D01*
X47313Y13240D02*
Y12940D01*
X47413Y12840D01*
X47713D01*
Y12740D01*
X47613Y12640D01*
X47513D01*
X47713Y12840D02*
Y13240D01*
X48212Y12840D02*
X48013D01*
X47913Y12940D01*
Y13140D01*
X48013Y13240D01*
X48212D01*
X48312Y13140D01*
Y13040D01*
X47913D01*
X48512Y13240D02*
Y12840D01*
Y13040D01*
X48612Y13140D01*
X48712Y13240D01*
X48812D01*
X27979Y22340D02*
X27879Y22440D01*
X27679D01*
X27579Y22340D01*
Y22240D01*
X27679Y22140D01*
X27879D01*
X27979Y22040D01*
Y21940D01*
X27879Y21840D01*
X27679D01*
X27579Y21940D01*
X28179Y21840D02*
X28379D01*
X28279D01*
Y22440D01*
X28179D01*
X28778Y21840D02*
X28978D01*
X29078Y21940D01*
Y22140D01*
X28978Y22240D01*
X28778D01*
X28678Y22140D01*
Y21940D01*
X28778Y21840D01*
X29378Y22340D02*
Y22240D01*
X29278D01*
X29478D01*
X29378D01*
Y21940D01*
X29478Y21840D01*
X27979Y20840D02*
X27879Y20940D01*
X27679D01*
X27579Y20840D01*
Y20740D01*
X27679Y20640D01*
X27879D01*
X27979Y20540D01*
Y20440D01*
X27879Y20340D01*
X27679D01*
X27579Y20440D01*
X28179Y20340D02*
X28379D01*
X28279D01*
Y20940D01*
X28179D01*
X28778Y20340D02*
X28978D01*
X29078Y20440D01*
Y20640D01*
X28978Y20740D01*
X28778D01*
X28678Y20640D01*
Y20440D01*
X28778Y20340D01*
X29378Y20840D02*
Y20740D01*
X29278D01*
X29478D01*
X29378D01*
Y20440D01*
X29478Y20340D01*
X27579Y18840D02*
Y19440D01*
X27879D01*
X27979Y19340D01*
Y19140D01*
X27879Y19040D01*
X27579D01*
X27779D02*
X27979Y18840D01*
X28279D02*
X28478D01*
X28578Y18940D01*
Y19140D01*
X28478Y19240D01*
X28279D01*
X28179Y19140D01*
Y18940D01*
X28279Y18840D01*
X28778Y19240D02*
Y18940D01*
X28878Y18840D01*
X29178D01*
Y19240D01*
X29378Y18840D02*
Y19240D01*
X29678D01*
X29778Y19140D01*
Y18840D01*
X30378Y19440D02*
Y18840D01*
X30078D01*
X29978Y18940D01*
Y19140D01*
X30078Y19240D01*
X30378D01*
X27579Y17340D02*
Y17940D01*
X27879D01*
X27979Y17840D01*
Y17640D01*
X27879Y17540D01*
X27579D01*
X27779D02*
X27979Y17340D01*
X28279D02*
X28478D01*
X28578Y17440D01*
Y17640D01*
X28478Y17740D01*
X28279D01*
X28179Y17640D01*
Y17440D01*
X28279Y17340D01*
X28778Y17740D02*
Y17440D01*
X28878Y17340D01*
X29178D01*
Y17740D01*
X29378Y17340D02*
Y17740D01*
X29678D01*
X29778Y17640D01*
Y17340D01*
X30378Y17940D02*
Y17340D01*
X30078D01*
X29978Y17440D01*
Y17640D01*
X30078Y17740D01*
X30378D01*
X27579Y15840D02*
Y16440D01*
X27879D01*
X27979Y16340D01*
Y16140D01*
X27879Y16040D01*
X27579D01*
X27779D02*
X27979Y15840D01*
X28279D02*
X28478D01*
X28578Y15940D01*
Y16140D01*
X28478Y16240D01*
X28279D01*
X28179Y16140D01*
Y15940D01*
X28279Y15840D01*
X28778Y16240D02*
Y15940D01*
X28878Y15840D01*
X29178D01*
Y16240D01*
X29378Y15840D02*
Y16240D01*
X29678D01*
X29778Y16140D01*
Y15840D01*
X30378Y16440D02*
Y15840D01*
X30078D01*
X29978Y15940D01*
Y16140D01*
X30078Y16240D01*
X30378D01*
X27579Y14340D02*
Y14940D01*
X27879D01*
X27979Y14840D01*
Y14640D01*
X27879Y14540D01*
X27579D01*
X27779D02*
X27979Y14340D01*
X28279D02*
X28478D01*
X28578Y14440D01*
Y14640D01*
X28478Y14740D01*
X28279D01*
X28179Y14640D01*
Y14440D01*
X28279Y14340D01*
X28778Y14740D02*
Y14440D01*
X28878Y14340D01*
X29178D01*
Y14740D01*
X29378Y14340D02*
Y14740D01*
X29678D01*
X29778Y14640D01*
Y14340D01*
X30378Y14940D02*
Y14340D01*
X30078D01*
X29978Y14440D01*
Y14640D01*
X30078Y14740D01*
X30378D01*
X27579Y12840D02*
Y13440D01*
X27879D01*
X27979Y13340D01*
Y13140D01*
X27879Y13040D01*
X27579D01*
X27779D02*
X27979Y12840D01*
X28279D02*
X28478D01*
X28578Y12940D01*
Y13140D01*
X28478Y13240D01*
X28279D01*
X28179Y13140D01*
Y12940D01*
X28279Y12840D01*
X28778Y13240D02*
Y12940D01*
X28878Y12840D01*
X29178D01*
Y13240D01*
X29378Y12840D02*
Y13240D01*
X29678D01*
X29778Y13140D01*
Y12840D01*
X30378Y13440D02*
Y12840D01*
X30078D01*
X29978Y12940D01*
Y13140D01*
X30078Y13240D01*
X30378D01*
X22520Y21840D02*
Y22440D01*
X22820D01*
X22920Y22340D01*
Y22140D01*
X22820Y22040D01*
X22520D01*
X23120Y22440D02*
X23520D01*
X23320D01*
Y21840D01*
X23720Y22440D02*
Y21840D01*
Y22140D01*
X24119D01*
Y22440D01*
Y21840D01*
X22520Y20340D02*
Y20940D01*
X22820D01*
X22920Y20840D01*
Y20640D01*
X22820Y20540D01*
X22520D01*
X23120Y20940D02*
X23520D01*
X23320D01*
Y20340D01*
X23720Y20940D02*
Y20340D01*
Y20640D01*
X24119D01*
Y20940D01*
Y20340D01*
X22520Y18840D02*
Y19440D01*
X22920Y18840D01*
Y19440D01*
X23120Y18840D02*
Y19440D01*
X23420D01*
X23520Y19340D01*
Y19140D01*
X23420Y19040D01*
X23120D01*
X23720Y19440D02*
X24119D01*
X23920D01*
Y18840D01*
X24319Y19440D02*
Y18840D01*
Y19140D01*
X24719D01*
Y19440D01*
Y18840D01*
X22520Y17340D02*
Y17940D01*
X22820D01*
X22920Y17840D01*
Y17640D01*
X22820Y17540D01*
X22520D01*
X23120Y17940D02*
X23520D01*
X23320D01*
Y17340D01*
X23720Y17940D02*
Y17340D01*
Y17640D01*
X24119D01*
Y17940D01*
Y17340D01*
X22520Y15840D02*
Y16440D01*
X22820D01*
X22920Y16340D01*
Y16140D01*
X22820Y16040D01*
X22520D01*
X23120Y16440D02*
X23520D01*
X23320D01*
Y15840D01*
X23720Y16440D02*
Y15840D01*
Y16140D01*
X24119D01*
Y16440D01*
Y15840D01*
X22520Y14340D02*
Y14940D01*
X22820D01*
X22920Y14840D01*
Y14640D01*
X22820Y14540D01*
X22520D01*
X23120Y14940D02*
X23520D01*
X23320D01*
Y14340D01*
X23720Y14940D02*
Y14340D01*
Y14640D01*
X24119D01*
Y14940D01*
Y14340D01*
X22520Y12840D02*
Y13440D01*
X22820D01*
X22920Y13340D01*
Y13140D01*
X22820Y13040D01*
X22520D01*
X23120Y13440D02*
X23520D01*
X23320D01*
Y12840D01*
X23720Y13440D02*
Y12840D01*
Y13140D01*
X24119D01*
Y13440D01*
Y12840D01*
X11423Y21840D02*
X11023D01*
X11423Y22240D01*
Y22340D01*
X11323Y22440D01*
X11123D01*
X11023Y22340D01*
X12023Y22440D02*
X11623D01*
Y22140D01*
X11823Y22240D01*
X11923D01*
X12023Y22140D01*
Y21940D01*
X11923Y21840D01*
X11723D01*
X11623Y21940D01*
X12223Y21840D02*
Y21940D01*
X12323D01*
Y21840D01*
X12223D01*
X13123Y22440D02*
X12723D01*
Y22140D01*
X12923Y22240D01*
X13023D01*
X13123Y22140D01*
Y21940D01*
X13023Y21840D01*
X12823D01*
X12723Y21940D01*
X13323D02*
X13423Y21840D01*
X13623D01*
X13722Y21940D01*
Y22340D01*
X13623Y22440D01*
X13423D01*
X13323Y22340D01*
Y22240D01*
X13423Y22140D01*
X13722D01*
X13922Y21840D02*
Y22240D01*
X14022D01*
X14122Y22140D01*
Y21840D01*
Y22140D01*
X14222Y22240D01*
X14322Y22140D01*
Y21840D01*
X14522D02*
X14722D01*
X14622D01*
Y22240D01*
X14522D01*
X15022Y21840D02*
X15222D01*
X15122D01*
Y22440D01*
X15022D01*
X16322Y21840D02*
X16122Y22040D01*
Y22240D01*
X16322Y22440D01*
X16622Y22340D02*
X16722Y22440D01*
X16921D01*
X17021Y22340D01*
Y21940D01*
X16921Y21840D01*
X16722D01*
X16622Y21940D01*
Y22340D01*
X17221Y21840D02*
Y21940D01*
X17321D01*
Y21840D01*
X17221D01*
X18121Y22440D02*
X17921Y22340D01*
X17721Y22140D01*
Y21940D01*
X17821Y21840D01*
X18021D01*
X18121Y21940D01*
Y22040D01*
X18021Y22140D01*
X17721D01*
X18721Y22440D02*
X18321D01*
Y22140D01*
X18521Y22240D01*
X18621D01*
X18721Y22140D01*
Y21940D01*
X18621Y21840D01*
X18421D01*
X18321Y21940D01*
X18921Y22340D02*
X19021Y22440D01*
X19221D01*
X19321Y22340D01*
Y21940D01*
X19221Y21840D01*
X19021D01*
X18921Y21940D01*
Y22340D01*
X19521Y21840D02*
Y22240D01*
X19621D01*
X19721Y22140D01*
Y21840D01*
Y22140D01*
X19821Y22240D01*
X19920Y22140D01*
Y21840D01*
X20120D02*
Y22240D01*
X20220D01*
X20320Y22140D01*
Y21840D01*
Y22140D01*
X20420Y22240D01*
X20520Y22140D01*
Y21840D01*
X20720D02*
X20920Y22040D01*
Y22240D01*
X20720Y22440D01*
X11423Y20340D02*
X11023D01*
X11423Y20740D01*
Y20840D01*
X11323Y20940D01*
X11123D01*
X11023Y20840D01*
X11623Y20940D02*
X12023D01*
Y20840D01*
X11623Y20440D01*
Y20340D01*
X12223D02*
Y20440D01*
X12323D01*
Y20340D01*
X12223D01*
X13123Y20940D02*
X12723D01*
Y20640D01*
X12923Y20740D01*
X13023D01*
X13123Y20640D01*
Y20440D01*
X13023Y20340D01*
X12823D01*
X12723Y20440D01*
X13722Y20940D02*
X13523Y20840D01*
X13323Y20640D01*
Y20440D01*
X13423Y20340D01*
X13623D01*
X13722Y20440D01*
Y20540D01*
X13623Y20640D01*
X13323D01*
X13922Y20340D02*
Y20740D01*
X14022D01*
X14122Y20640D01*
Y20340D01*
Y20640D01*
X14222Y20740D01*
X14322Y20640D01*
Y20340D01*
X14522D02*
X14722D01*
X14622D01*
Y20740D01*
X14522D01*
X15022Y20340D02*
X15222D01*
X15122D01*
Y20940D01*
X15022D01*
X16322Y20340D02*
X16122Y20540D01*
Y20740D01*
X16322Y20940D01*
X16622Y20840D02*
X16722Y20940D01*
X16921D01*
X17021Y20840D01*
Y20440D01*
X16921Y20340D01*
X16722D01*
X16622Y20440D01*
Y20840D01*
X17221Y20340D02*
Y20440D01*
X17321D01*
Y20340D01*
X17221D01*
X17721Y20940D02*
X18121D01*
Y20840D01*
X17721Y20440D01*
Y20340D01*
X18321Y20840D02*
X18421Y20940D01*
X18621D01*
X18721Y20840D01*
Y20440D01*
X18621Y20340D01*
X18421D01*
X18321Y20440D01*
Y20840D01*
X18921D02*
X19021Y20940D01*
X19221D01*
X19321Y20840D01*
Y20440D01*
X19221Y20340D01*
X19021D01*
X18921Y20440D01*
Y20840D01*
X19521Y20340D02*
Y20740D01*
X19621D01*
X19721Y20640D01*
Y20340D01*
Y20640D01*
X19821Y20740D01*
X19920Y20640D01*
Y20340D01*
X20120D02*
Y20740D01*
X20220D01*
X20320Y20640D01*
Y20340D01*
Y20640D01*
X20420Y20740D01*
X20520Y20640D01*
Y20340D01*
X20720D02*
X20920Y20540D01*
Y20740D01*
X20720Y20940D01*
X11023Y19340D02*
X11123Y19440D01*
X11323D01*
X11423Y19340D01*
Y19240D01*
X11323Y19140D01*
X11423Y19040D01*
Y18940D01*
X11323Y18840D01*
X11123D01*
X11023Y18940D01*
Y19040D01*
X11123Y19140D01*
X11023Y19240D01*
Y19340D01*
X11123Y19140D02*
X11323D01*
X11623Y19340D02*
X11723Y19440D01*
X11923D01*
X12023Y19340D01*
Y18940D01*
X11923Y18840D01*
X11723D01*
X11623Y18940D01*
Y19340D01*
X12223Y18840D02*
Y18940D01*
X12323D01*
Y18840D01*
X12223D01*
X12723Y19340D02*
X12823Y19440D01*
X13023D01*
X13123Y19340D01*
Y18940D01*
X13023Y18840D01*
X12823D01*
X12723Y18940D01*
Y19340D01*
X13323D02*
X13423Y19440D01*
X13623D01*
X13722Y19340D01*
Y18940D01*
X13623Y18840D01*
X13423D01*
X13323Y18940D01*
Y19340D01*
X13922Y18840D02*
Y19240D01*
X14022D01*
X14122Y19140D01*
Y18840D01*
Y19140D01*
X14222Y19240D01*
X14322Y19140D01*
Y18840D01*
X14522D02*
X14722D01*
X14622D01*
Y19240D01*
X14522D01*
X15022Y18840D02*
X15222D01*
X15122D01*
Y19440D01*
X15022D01*
X16322Y18840D02*
X16122Y19040D01*
Y19240D01*
X16322Y19440D01*
X17021Y18840D02*
X16622D01*
X17021Y19240D01*
Y19340D01*
X16921Y19440D01*
X16722D01*
X16622Y19340D01*
X17221Y18840D02*
Y18940D01*
X17321D01*
Y18840D01*
X17221D01*
X17721Y19340D02*
X17821Y19440D01*
X18021D01*
X18121Y19340D01*
Y18940D01*
X18021Y18840D01*
X17821D01*
X17721Y18940D01*
Y19340D01*
X18321D02*
X18421Y19440D01*
X18621D01*
X18721Y19340D01*
Y19240D01*
X18621Y19140D01*
X18521D01*
X18621D01*
X18721Y19040D01*
Y18940D01*
X18621Y18840D01*
X18421D01*
X18321Y18940D01*
X19321Y18840D02*
X18921D01*
X19321Y19240D01*
Y19340D01*
X19221Y19440D01*
X19021D01*
X18921Y19340D01*
X19521Y18840D02*
Y19240D01*
X19621D01*
X19721Y19140D01*
Y18840D01*
Y19140D01*
X19821Y19240D01*
X19920Y19140D01*
Y18840D01*
X20120D02*
Y19240D01*
X20220D01*
X20320Y19140D01*
Y18840D01*
Y19140D01*
X20420Y19240D01*
X20520Y19140D01*
Y18840D01*
X20720D02*
X20920Y19040D01*
Y19240D01*
X20720Y19440D01*
X11023Y17340D02*
X11223D01*
X11123D01*
Y17940D01*
X11023Y17840D01*
X11523D02*
X11623Y17940D01*
X11823D01*
X11923Y17840D01*
Y17440D01*
X11823Y17340D01*
X11623D01*
X11523Y17440D01*
Y17840D01*
X12123D02*
X12223Y17940D01*
X12423D01*
X12523Y17840D01*
Y17440D01*
X12423Y17340D01*
X12223D01*
X12123Y17440D01*
Y17840D01*
X12723Y17340D02*
Y17440D01*
X12823D01*
Y17340D01*
X12723D01*
X13223Y17840D02*
X13323Y17940D01*
X13523D01*
X13623Y17840D01*
Y17440D01*
X13523Y17340D01*
X13323D01*
X13223Y17440D01*
Y17840D01*
X13822D02*
X13922Y17940D01*
X14122D01*
X14222Y17840D01*
Y17440D01*
X14122Y17340D01*
X13922D01*
X13822Y17440D01*
Y17840D01*
X14422Y17340D02*
Y17740D01*
X14522D01*
X14622Y17640D01*
Y17340D01*
Y17640D01*
X14722Y17740D01*
X14822Y17640D01*
Y17340D01*
X15022D02*
X15222D01*
X15122D01*
Y17740D01*
X15022D01*
X15522Y17340D02*
X15722D01*
X15622D01*
Y17940D01*
X15522D01*
X16821Y17340D02*
X16622Y17540D01*
Y17740D01*
X16821Y17940D01*
X17521Y17340D02*
X17121D01*
X17521Y17740D01*
Y17840D01*
X17421Y17940D01*
X17221D01*
X17121Y17840D01*
X17721Y17340D02*
Y17440D01*
X17821D01*
Y17340D01*
X17721D01*
X18621Y17940D02*
X18221D01*
Y17640D01*
X18421Y17740D01*
X18521D01*
X18621Y17640D01*
Y17440D01*
X18521Y17340D01*
X18321D01*
X18221Y17440D01*
X19121Y17340D02*
Y17940D01*
X18821Y17640D01*
X19221D01*
X19421Y17840D02*
X19521Y17940D01*
X19721D01*
X19821Y17840D01*
Y17440D01*
X19721Y17340D01*
X19521D01*
X19421Y17440D01*
Y17840D01*
X20020Y17340D02*
Y17740D01*
X20120D01*
X20220Y17640D01*
Y17340D01*
Y17640D01*
X20320Y17740D01*
X20420Y17640D01*
Y17340D01*
X20620D02*
Y17740D01*
X20720D01*
X20820Y17640D01*
Y17340D01*
Y17640D01*
X20920Y17740D01*
X21020Y17640D01*
Y17340D01*
X21220D02*
X21420Y17540D01*
Y17740D01*
X21220Y17940D01*
X11423Y15840D02*
X11023D01*
X11423Y16240D01*
Y16340D01*
X11323Y16440D01*
X11123D01*
X11023Y16340D01*
X11623Y16440D02*
X12023D01*
Y16340D01*
X11623Y15940D01*
Y15840D01*
X12223D02*
Y15940D01*
X12323D01*
Y15840D01*
X12223D01*
X13123Y16440D02*
X12723D01*
Y16140D01*
X12923Y16240D01*
X13023D01*
X13123Y16140D01*
Y15940D01*
X13023Y15840D01*
X12823D01*
X12723Y15940D01*
X13722Y16440D02*
X13523Y16340D01*
X13323Y16140D01*
Y15940D01*
X13423Y15840D01*
X13623D01*
X13722Y15940D01*
Y16040D01*
X13623Y16140D01*
X13323D01*
X13922Y15840D02*
Y16240D01*
X14022D01*
X14122Y16140D01*
Y15840D01*
Y16140D01*
X14222Y16240D01*
X14322Y16140D01*
Y15840D01*
X14522D02*
X14722D01*
X14622D01*
Y16240D01*
X14522D01*
X15022Y15840D02*
X15222D01*
X15122D01*
Y16440D01*
X15022D01*
X16322Y15840D02*
X16122Y16040D01*
Y16240D01*
X16322Y16440D01*
X16622Y16340D02*
X16722Y16440D01*
X16921D01*
X17021Y16340D01*
Y15940D01*
X16921Y15840D01*
X16722D01*
X16622Y15940D01*
Y16340D01*
X17221Y15840D02*
Y15940D01*
X17321D01*
Y15840D01*
X17221D01*
X17721Y16440D02*
X18121D01*
Y16340D01*
X17721Y15940D01*
Y15840D01*
X18321Y16340D02*
X18421Y16440D01*
X18621D01*
X18721Y16340D01*
Y15940D01*
X18621Y15840D01*
X18421D01*
X18321Y15940D01*
Y16340D01*
X18921D02*
X19021Y16440D01*
X19221D01*
X19321Y16340D01*
Y15940D01*
X19221Y15840D01*
X19021D01*
X18921Y15940D01*
Y16340D01*
X19521Y15840D02*
Y16240D01*
X19621D01*
X19721Y16140D01*
Y15840D01*
Y16140D01*
X19821Y16240D01*
X19920Y16140D01*
Y15840D01*
X20120D02*
Y16240D01*
X20220D01*
X20320Y16140D01*
Y15840D01*
Y16140D01*
X20420Y16240D01*
X20520Y16140D01*
Y15840D01*
X20720D02*
X20920Y16040D01*
Y16240D01*
X20720Y16440D01*
X11023Y14840D02*
X11123Y14940D01*
X11323D01*
X11423Y14840D01*
Y14740D01*
X11323Y14640D01*
X11223D01*
X11323D01*
X11423Y14540D01*
Y14440D01*
X11323Y14340D01*
X11123D01*
X11023Y14440D01*
X12023Y14940D02*
X11623D01*
Y14640D01*
X11823Y14740D01*
X11923D01*
X12023Y14640D01*
Y14440D01*
X11923Y14340D01*
X11723D01*
X11623Y14440D01*
X12223Y14340D02*
Y14440D01*
X12323D01*
Y14340D01*
X12223D01*
X13023D02*
Y14940D01*
X12723Y14640D01*
X13123D01*
X13323Y14840D02*
X13423Y14940D01*
X13623D01*
X13722Y14840D01*
Y14740D01*
X13623Y14640D01*
X13523D01*
X13623D01*
X13722Y14540D01*
Y14440D01*
X13623Y14340D01*
X13423D01*
X13323Y14440D01*
X13922Y14340D02*
Y14740D01*
X14022D01*
X14122Y14640D01*
Y14340D01*
Y14640D01*
X14222Y14740D01*
X14322Y14640D01*
Y14340D01*
X14522D02*
X14722D01*
X14622D01*
Y14740D01*
X14522D01*
X15022Y14340D02*
X15222D01*
X15122D01*
Y14940D01*
X15022D01*
X16322Y14340D02*
X16122Y14540D01*
Y14740D01*
X16322Y14940D01*
X16622Y14840D02*
X16722Y14940D01*
X16921D01*
X17021Y14840D01*
Y14440D01*
X16921Y14340D01*
X16722D01*
X16622Y14440D01*
Y14840D01*
X17221Y14340D02*
Y14440D01*
X17321D01*
Y14340D01*
X17221D01*
X17721Y14440D02*
X17821Y14340D01*
X18021D01*
X18121Y14440D01*
Y14840D01*
X18021Y14940D01*
X17821D01*
X17721Y14840D01*
Y14740D01*
X17821Y14640D01*
X18121D01*
X18321Y14840D02*
X18421Y14940D01*
X18621D01*
X18721Y14840D01*
Y14440D01*
X18621Y14340D01*
X18421D01*
X18321Y14440D01*
Y14840D01*
X18921D02*
X19021Y14940D01*
X19221D01*
X19321Y14840D01*
Y14440D01*
X19221Y14340D01*
X19021D01*
X18921Y14440D01*
Y14840D01*
X19521Y14340D02*
Y14740D01*
X19621D01*
X19721Y14640D01*
Y14340D01*
Y14640D01*
X19821Y14740D01*
X19920Y14640D01*
Y14340D01*
X20120D02*
Y14740D01*
X20220D01*
X20320Y14640D01*
Y14340D01*
Y14640D01*
X20420Y14740D01*
X20520Y14640D01*
Y14340D01*
X20720D02*
X20920Y14540D01*
Y14740D01*
X20720Y14940D01*
X11023Y12840D02*
X11223D01*
X11123D01*
Y13440D01*
X11023Y13340D01*
X11523D02*
X11623Y13440D01*
X11823D01*
X11923Y13340D01*
Y12940D01*
X11823Y12840D01*
X11623D01*
X11523Y12940D01*
Y13340D01*
X12123Y12840D02*
Y12940D01*
X12223D01*
Y12840D01*
X12123D01*
X12623Y13340D02*
X12723Y13440D01*
X12923D01*
X13023Y13340D01*
Y12940D01*
X12923Y12840D01*
X12723D01*
X12623Y12940D01*
Y13340D01*
X13223D02*
X13323Y13440D01*
X13523D01*
X13623Y13340D01*
Y12940D01*
X13523Y12840D01*
X13323D01*
X13223Y12940D01*
Y13340D01*
X13822Y12840D02*
Y13240D01*
X13922D01*
X14022Y13140D01*
Y12840D01*
Y13140D01*
X14122Y13240D01*
X14222Y13140D01*
Y12840D01*
X14422D02*
X14622D01*
X14522D01*
Y13240D01*
X14422D01*
X14922Y12840D02*
X15122D01*
X15022D01*
Y13440D01*
X14922D01*
X16222Y12840D02*
X16022Y13040D01*
Y13240D01*
X16222Y13440D01*
X16522Y13340D02*
X16622Y13440D01*
X16821D01*
X16921Y13340D01*
Y12940D01*
X16821Y12840D01*
X16622D01*
X16522Y12940D01*
Y13340D01*
X17121Y12840D02*
Y12940D01*
X17221D01*
Y12840D01*
X17121D01*
X18021D02*
X17621D01*
X18021Y13240D01*
Y13340D01*
X17921Y13440D01*
X17721D01*
X17621Y13340D01*
X18621Y13440D02*
X18221D01*
Y13140D01*
X18421Y13240D01*
X18521D01*
X18621Y13140D01*
Y12940D01*
X18521Y12840D01*
X18321D01*
X18221Y12940D01*
X19121Y12840D02*
Y13440D01*
X18821Y13140D01*
X19221D01*
X19421Y12840D02*
Y13240D01*
X19521D01*
X19621Y13140D01*
Y12840D01*
Y13140D01*
X19721Y13240D01*
X19821Y13140D01*
Y12840D01*
X20020D02*
Y13240D01*
X20120D01*
X20220Y13140D01*
Y12840D01*
Y13140D01*
X20320Y13240D01*
X20420Y13140D01*
Y12840D01*
X20620D02*
X20820Y13040D01*
Y13240D01*
X20620Y13440D01*
X5125Y11340D02*
X5325D01*
X5225D01*
Y11940D01*
X5125Y11840D01*
X5625Y11940D02*
X6025D01*
Y11840D01*
X5625Y11440D01*
Y11340D01*
X6624Y11940D02*
X6424Y11840D01*
X6225Y11640D01*
Y11440D01*
X6325Y11340D01*
X6524D01*
X6624Y11440D01*
Y11540D01*
X6524Y11640D01*
X6225D01*
X7424Y11940D02*
X7824D01*
X7624D01*
Y11340D01*
X8124D02*
X8324D01*
X8424Y11440D01*
Y11640D01*
X8324Y11740D01*
X8124D01*
X8024Y11640D01*
Y11440D01*
X8124Y11340D01*
X8724Y11840D02*
Y11740D01*
X8624D01*
X8824D01*
X8724D01*
Y11440D01*
X8824Y11340D01*
X9224Y11740D02*
X9424D01*
X9524Y11640D01*
Y11340D01*
X9224D01*
X9124Y11440D01*
X9224Y11540D01*
X9524D01*
X9723Y11340D02*
X9923D01*
X9823D01*
Y11940D01*
X9723D01*
X5525Y21840D02*
X5125D01*
X5525Y22240D01*
Y22340D01*
X5425Y22440D01*
X5225D01*
X5125Y22340D01*
X5525Y20340D02*
X5125D01*
X5525Y20740D01*
Y20840D01*
X5425Y20940D01*
X5225D01*
X5125Y20840D01*
X5525Y18840D02*
X5125D01*
X5525Y19240D01*
Y19340D01*
X5425Y19440D01*
X5225D01*
X5125Y19340D01*
X5525Y17340D02*
X5125D01*
X5525Y17740D01*
Y17840D01*
X5425Y17940D01*
X5225D01*
X5125Y17840D01*
Y15840D02*
X5325D01*
X5225D01*
Y16440D01*
X5125Y16340D01*
X5625D02*
X5725Y16440D01*
X5925D01*
X6025Y16340D01*
Y15940D01*
X5925Y15840D01*
X5725D01*
X5625Y15940D01*
Y16340D01*
X5525Y14340D02*
X5125D01*
X5525Y14740D01*
Y14840D01*
X5425Y14940D01*
X5225D01*
X5125Y14840D01*
X5725D02*
X5825Y14940D01*
X6025D01*
X6125Y14840D01*
Y14740D01*
X6025Y14640D01*
X6125Y14540D01*
Y14440D01*
X6025Y14340D01*
X5825D01*
X5725Y14440D01*
Y14540D01*
X5825Y14640D01*
X5725Y14740D01*
Y14840D01*
X5825Y14640D02*
X6025D01*
X5125Y12840D02*
X5325D01*
X5225D01*
Y13440D01*
X5125Y13340D01*
X5625D02*
X5725Y13440D01*
X5925D01*
X6025Y13340D01*
Y13240D01*
X5925Y13140D01*
X5825D01*
X5925D01*
X6025Y13040D01*
Y12940D01*
X5925Y12840D01*
X5725D01*
X5625Y12940D01*
X6225Y13340D02*
X6325Y13440D01*
X6524D01*
X6624Y13340D01*
Y12940D01*
X6524Y12840D01*
X6325D01*
X6225Y12940D01*
Y13340D01*
X17921Y9090D02*
X18321D01*
X17921Y9290D02*
X18321D01*
X19120Y8891D02*
Y9490D01*
X19420D01*
X19520Y9390D01*
Y9190D01*
X19420Y9090D01*
X19120D01*
X19320D02*
X19520Y8891D01*
X19820D02*
X20020D01*
X20120Y8990D01*
Y9190D01*
X20020Y9290D01*
X19820D01*
X19720Y9190D01*
Y8990D01*
X19820Y8891D01*
X20320Y9290D02*
Y8990D01*
X20420Y8891D01*
X20720D01*
Y9290D01*
X21020Y9390D02*
Y9290D01*
X20920D01*
X21120D01*
X21020D01*
Y8990D01*
X21120Y8891D01*
X21720D02*
X21520D01*
X21420Y8990D01*
Y9190D01*
X21520Y9290D01*
X21720D01*
X21820Y9190D01*
Y9090D01*
X21420D01*
X22419Y9490D02*
Y8891D01*
X22120D01*
X22020Y8990D01*
Y9190D01*
X22120Y9290D01*
X22419D01*
X23219Y8891D02*
Y9490D01*
X23519D01*
X23619Y9390D01*
Y9190D01*
X23519Y9090D01*
X23219D01*
X23919Y9290D02*
X24119D01*
X24219Y9190D01*
Y8891D01*
X23919D01*
X23819Y8990D01*
X23919Y9090D01*
X24219D01*
X24519Y9390D02*
Y9290D01*
X24419D01*
X24619D01*
X24519D01*
Y8990D01*
X24619Y8891D01*
X24919Y9490D02*
Y8891D01*
Y9190D01*
X25019Y9290D01*
X25218D01*
X25318Y9190D01*
Y8891D01*
X26118Y9490D02*
Y8891D01*
X26518D01*
X27018D02*
X26818D01*
X26718Y8990D01*
Y9190D01*
X26818Y9290D01*
X27018D01*
X27118Y9190D01*
Y9090D01*
X26718D01*
X27318Y8891D02*
Y9290D01*
X27618D01*
X27718Y9190D01*
Y8891D01*
X28118Y8691D02*
X28218D01*
X28317Y8791D01*
Y9290D01*
X28018D01*
X27918Y9190D01*
Y8990D01*
X28018Y8891D01*
X28317D01*
X28617Y9390D02*
Y9290D01*
X28517D01*
X28717D01*
X28617D01*
Y8990D01*
X28717Y8891D01*
X29017Y9490D02*
Y8891D01*
Y9190D01*
X29117Y9290D01*
X29317D01*
X29417Y9190D01*
Y8891D01*
X30217Y9190D02*
X30617D01*
X30417Y9390D02*
Y8990D01*
X31416Y9490D02*
X31816D01*
X31616D01*
Y8891D01*
X32116D02*
X32316D01*
X32416Y8990D01*
Y9190D01*
X32316Y9290D01*
X32116D01*
X32016Y9190D01*
Y8990D01*
X32116Y8891D01*
X32716D02*
X32916D01*
X33016Y8990D01*
Y9190D01*
X32916Y9290D01*
X32716D01*
X32616Y9190D01*
Y8990D01*
X32716Y8891D01*
X33216D02*
X33416D01*
X33316D01*
Y9490D01*
X33216D01*
X34715Y9390D02*
X34615Y9490D01*
X34416D01*
X34316Y9390D01*
Y9290D01*
X34416Y9190D01*
X34615D01*
X34715Y9090D01*
Y8990D01*
X34615Y8891D01*
X34416D01*
X34316Y8990D01*
X34915Y8891D02*
X35115D01*
X35015D01*
Y9290D01*
X34915D01*
X35415D02*
X35815D01*
X35415Y8891D01*
X35815D01*
X36315D02*
X36115D01*
X36015Y8990D01*
Y9190D01*
X36115Y9290D01*
X36315D01*
X36415Y9190D01*
Y9090D01*
X36015D01*
X37215D02*
X37614D01*
X37215Y9290D02*
X37614D01*
X38814Y9390D02*
X38714Y9490D01*
X38514D01*
X38414Y9390D01*
Y9290D01*
X38514Y9190D01*
X38714D01*
X38814Y9090D01*
Y8990D01*
X38714Y8891D01*
X38514D01*
X38414Y8990D01*
X39014Y8891D02*
X39214D01*
X39114D01*
Y9490D01*
X39014D01*
X39614Y8891D02*
X39814D01*
X39914Y8990D01*
Y9190D01*
X39814Y9290D01*
X39614D01*
X39514Y9190D01*
Y8990D01*
X39614Y8891D01*
X40214Y9390D02*
Y9290D01*
X40114D01*
X40314D01*
X40214D01*
Y8990D01*
X40314Y8891D01*
X41213D02*
X41413D01*
X41313D01*
Y9490D01*
X41213D01*
X42013Y8891D02*
X41813D01*
X41713Y8990D01*
Y9190D01*
X41813Y9290D01*
X42013D01*
X42113Y9190D01*
Y9090D01*
X41713D01*
X42313Y8891D02*
Y9290D01*
X42613D01*
X42713Y9190D01*
Y8891D01*
X43113Y8691D02*
X43213D01*
X43313Y8791D01*
Y9290D01*
X43013D01*
X42913Y9190D01*
Y8990D01*
X43013Y8891D01*
X43313D01*
X43613Y9390D02*
Y9290D01*
X43513D01*
X43713D01*
X43613D01*
Y8990D01*
X43713Y8891D01*
X44012Y9490D02*
Y8891D01*
Y9190D01*
X44112Y9290D01*
X44312D01*
X44412Y9190D01*
Y8891D01*
X45312Y9290D02*
X45512D01*
X45612Y9190D01*
Y8891D01*
X45312D01*
X45212Y8990D01*
X45312Y9090D01*
X45612D01*
X45812Y8891D02*
X46112D01*
X46212Y8990D01*
X46112Y9090D01*
X45912D01*
X45812Y9190D01*
X45912Y9290D01*
X46212D01*
X47411Y9490D02*
Y8891D01*
X47111D01*
X47011Y8990D01*
Y9190D01*
X47111Y9290D01*
X47411D01*
X47911Y8891D02*
X47711D01*
X47611Y8990D01*
Y9190D01*
X47711Y9290D01*
X47911D01*
X48011Y9190D01*
Y9090D01*
X47611D01*
X48311Y8891D02*
Y9390D01*
Y9190D01*
X48211D01*
X48411D01*
X48311D01*
Y9390D01*
X48411Y9490D01*
X48711Y8891D02*
X48911D01*
X48811D01*
Y9290D01*
X48711D01*
X49211Y8891D02*
Y9290D01*
X49511D01*
X49611Y9190D01*
Y8891D01*
X50110D02*
X49911D01*
X49811Y8990D01*
Y9190D01*
X49911Y9290D01*
X50110D01*
X50210Y9190D01*
Y9090D01*
X49811D01*
X50810Y9490D02*
Y8891D01*
X50510D01*
X50410Y8990D01*
Y9190D01*
X50510Y9290D01*
X50810D01*
X51610Y8891D02*
X51810D01*
X51710D01*
Y9290D01*
X51610D01*
X52110Y8891D02*
Y9290D01*
X52410D01*
X52510Y9190D01*
Y8891D01*
X53409Y9390D02*
Y9290D01*
X53309D01*
X53509D01*
X53409D01*
Y8990D01*
X53509Y8891D01*
X53809Y9490D02*
Y8891D01*
Y9190D01*
X53909Y9290D01*
X54109D01*
X54209Y9190D01*
Y8891D01*
X54709D02*
X54509D01*
X54409Y8990D01*
Y9190D01*
X54509Y9290D01*
X54709D01*
X54809Y9190D01*
Y9090D01*
X54409D01*
X55609Y8891D02*
Y9490D01*
X55909D01*
X56009Y9390D01*
Y9190D01*
X55909Y9090D01*
X55609D01*
X56608Y9390D02*
X56508Y9490D01*
X56308D01*
X56208Y9390D01*
Y8990D01*
X56308Y8891D01*
X56508D01*
X56608Y8990D01*
X56808Y9490D02*
Y8891D01*
X57108D01*
X57208Y8990D01*
Y9090D01*
X57108Y9190D01*
X56808D01*
X57108D01*
X57208Y9290D01*
Y9390D01*
X57108Y9490D01*
X56808D01*
X58008Y8891D02*
X58208D01*
X58108D01*
Y9490D01*
X58008D01*
X58608Y9290D02*
X58808D01*
X58908Y9190D01*
Y8891D01*
X58608D01*
X58508Y8990D01*
X58608Y9090D01*
X58908D01*
X59108Y9290D02*
Y8990D01*
X59208Y8891D01*
X59507D01*
Y8791D01*
X59407Y8691D01*
X59307D01*
X59507Y8891D02*
Y9290D01*
X59807Y8891D02*
X60007D01*
X60107Y8990D01*
Y9190D01*
X60007Y9290D01*
X59807D01*
X59707Y9190D01*
Y8990D01*
X59807Y8891D01*
X60307Y9290D02*
Y8990D01*
X60407Y8891D01*
X60707D01*
Y9290D01*
X61007Y9390D02*
Y9290D01*
X60907D01*
X61107D01*
X61007D01*
Y8990D01*
X61107Y8891D01*
X21420Y10090D02*
X21820D01*
X21420Y10290D02*
X21820D01*
X23019Y10390D02*
X22919Y10490D01*
X22719D01*
X22619Y10390D01*
Y9990D01*
X22719Y9890D01*
X22919D01*
X23019Y9990D01*
X23319Y10290D02*
X23519D01*
X23619Y10190D01*
Y9890D01*
X23319D01*
X23219Y9990D01*
X23319Y10090D01*
X23619D01*
X23819Y9890D02*
X24019D01*
X23919D01*
Y10490D01*
X23819D01*
X24719Y10290D02*
X24419D01*
X24319Y10190D01*
Y9990D01*
X24419Y9890D01*
X24719D01*
X24919Y10290D02*
Y9990D01*
X25019Y9890D01*
X25318D01*
Y10290D01*
X25518Y9890D02*
X25718D01*
X25618D01*
Y10490D01*
X25518D01*
X26118Y10290D02*
X26318D01*
X26418Y10190D01*
Y9890D01*
X26118D01*
X26018Y9990D01*
X26118Y10090D01*
X26418D01*
X26718Y10390D02*
Y10290D01*
X26618D01*
X26818D01*
X26718D01*
Y9990D01*
X26818Y9890D01*
X27418D02*
X27218D01*
X27118Y9990D01*
Y10190D01*
X27218Y10290D01*
X27418D01*
X27518Y10190D01*
Y10090D01*
X27118D01*
X28118Y10490D02*
Y9890D01*
X27818D01*
X27718Y9990D01*
Y10190D01*
X27818Y10290D01*
X28118D01*
X29017Y9890D02*
Y10390D01*
Y10190D01*
X28917D01*
X29117D01*
X29017D01*
Y10390D01*
X29117Y10490D01*
X29417Y10290D02*
Y9890D01*
Y10090D01*
X29517Y10190D01*
X29617Y10290D01*
X29717D01*
X30117Y9890D02*
X30317D01*
X30417Y9990D01*
Y10190D01*
X30317Y10290D01*
X30117D01*
X30017Y10190D01*
Y9990D01*
X30117Y9890D01*
X30617D02*
Y10290D01*
X30717D01*
X30817Y10190D01*
Y9890D01*
Y10190D01*
X30917Y10290D01*
X31017Y10190D01*
Y9890D01*
X31916Y10390D02*
Y10290D01*
X31816D01*
X32016D01*
X31916D01*
Y9990D01*
X32016Y9890D01*
X32416D02*
X32616D01*
X32716Y9990D01*
Y10190D01*
X32616Y10290D01*
X32416D01*
X32316Y10190D01*
Y9990D01*
X32416Y9890D01*
X33016D02*
X33216D01*
X33316Y9990D01*
Y10190D01*
X33216Y10290D01*
X33016D01*
X32916Y10190D01*
Y9990D01*
X33016Y9890D01*
X33516D02*
X33716D01*
X33616D01*
Y10490D01*
X33516D01*
X34615Y9890D02*
X34915D01*
X35015Y9990D01*
X34915Y10090D01*
X34715D01*
X34615Y10190D01*
X34715Y10290D01*
X35015D01*
X35315Y10390D02*
Y10290D01*
X35215D01*
X35415D01*
X35315D01*
Y9990D01*
X35415Y9890D01*
X35815Y10290D02*
X36015D01*
X36115Y10190D01*
Y9890D01*
X35815D01*
X35715Y9990D01*
X35815Y10090D01*
X36115D01*
X36315Y10290D02*
Y9890D01*
Y10090D01*
X36415Y10190D01*
X36515Y10290D01*
X36615D01*
X37015Y10390D02*
Y10290D01*
X36915D01*
X37115D01*
X37015D01*
Y9990D01*
X37115Y9890D01*
X38414Y10290D02*
X38114D01*
X38014Y10190D01*
Y9990D01*
X38114Y9890D01*
X38414D01*
X38914D02*
X38714D01*
X38614Y9990D01*
Y10190D01*
X38714Y10290D01*
X38914D01*
X39014Y10190D01*
Y10090D01*
X38614D01*
X39214Y9890D02*
Y10290D01*
X39514D01*
X39614Y10190D01*
Y9890D01*
X39914Y10390D02*
Y10290D01*
X39814D01*
X40014D01*
X39914D01*
Y9990D01*
X40014Y9890D01*
X40314Y10290D02*
Y9890D01*
Y10090D01*
X40414Y10190D01*
X40514Y10290D01*
X40614D01*
X41213Y9890D02*
X41013D01*
X40913Y9990D01*
Y10190D01*
X41013Y10290D01*
X41213D01*
X41313Y10190D01*
Y10090D01*
X40913D01*
X42113Y9690D02*
Y10290D01*
X42413D01*
X42513Y10190D01*
Y9990D01*
X42413Y9890D01*
X42113D01*
X42813D02*
X43013D01*
X43113Y9990D01*
Y10190D01*
X43013Y10290D01*
X42813D01*
X42713Y10190D01*
Y9990D01*
X42813Y9890D01*
X43313D02*
X43613D01*
X43713Y9990D01*
X43613Y10090D01*
X43413D01*
X43313Y10190D01*
X43413Y10290D01*
X43713D01*
X43912Y9890D02*
X44112D01*
X44012D01*
Y10290D01*
X43912D01*
X44512Y10390D02*
Y10290D01*
X44412D01*
X44612D01*
X44512D01*
Y9990D01*
X44612Y9890D01*
X44912D02*
X45112D01*
X45012D01*
Y10290D01*
X44912D01*
X45512Y9890D02*
X45712D01*
X45812Y9990D01*
Y10190D01*
X45712Y10290D01*
X45512D01*
X45412Y10190D01*
Y9990D01*
X45512Y9890D01*
X46012D02*
Y10290D01*
X46312D01*
X46412Y10190D01*
Y9890D01*
X47311Y10390D02*
Y10290D01*
X47211D01*
X47411D01*
X47311D01*
Y9990D01*
X47411Y9890D01*
X47811D02*
X48011D01*
X48111Y9990D01*
Y10190D01*
X48011Y10290D01*
X47811D01*
X47711Y10190D01*
Y9990D01*
X47811Y9890D01*
X49011Y10390D02*
Y10290D01*
X48911D01*
X49111D01*
X49011D01*
Y9990D01*
X49111Y9890D01*
X49511D02*
X49711D01*
X49811Y9990D01*
Y10190D01*
X49711Y10290D01*
X49511D01*
X49411Y10190D01*
Y9990D01*
X49511Y9890D01*
X50110D02*
X50310D01*
X50410Y9990D01*
Y10190D01*
X50310Y10290D01*
X50110D01*
X50010Y10190D01*
Y9990D01*
X50110Y9890D01*
X50610D02*
X50810D01*
X50710D01*
Y10490D01*
X50610D01*
X52010Y9890D02*
X51810D01*
X51710Y9990D01*
Y10190D01*
X51810Y10290D01*
X52010D01*
X52110Y10190D01*
Y10090D01*
X51710D01*
X52310Y9890D02*
Y10290D01*
X52610D01*
X52710Y10190D01*
Y9890D01*
X53309Y10490D02*
Y9890D01*
X53010D01*
X52910Y9990D01*
Y10190D01*
X53010Y10290D01*
X53309D01*
X54509D02*
X54209D01*
X54109Y10190D01*
Y9990D01*
X54209Y9890D01*
X54509D01*
X55009D02*
X54809D01*
X54709Y9990D01*
Y10190D01*
X54809Y10290D01*
X55009D01*
X55109Y10190D01*
Y10090D01*
X54709D01*
X55309Y9890D02*
Y10290D01*
X55609D01*
X55709Y10190D01*
Y9890D01*
X56009Y10390D02*
Y10290D01*
X55909D01*
X56108D01*
X56009D01*
Y9990D01*
X56108Y9890D01*
X56408Y10290D02*
Y9890D01*
Y10090D01*
X56508Y10190D01*
X56608Y10290D01*
X56708D01*
X57308Y9890D02*
X57108D01*
X57008Y9990D01*
Y10190D01*
X57108Y10290D01*
X57308D01*
X57408Y10190D01*
Y10090D01*
X57008D01*
X58208Y9690D02*
Y10290D01*
X58508D01*
X58608Y10190D01*
Y9990D01*
X58508Y9890D01*
X58208D01*
X58908D02*
X59108D01*
X59208Y9990D01*
Y10190D01*
X59108Y10290D01*
X58908D01*
X58808Y10190D01*
Y9990D01*
X58908Y9890D01*
X59407D02*
X59707D01*
X59807Y9990D01*
X59707Y10090D01*
X59507D01*
X59407Y10190D01*
X59507Y10290D01*
X59807D01*
X60007Y9890D02*
X60207D01*
X60107D01*
Y10290D01*
X60007D01*
X60607Y10390D02*
Y10290D01*
X60507D01*
X60707D01*
X60607D01*
Y9990D01*
X60707Y9890D01*
X61007D02*
X61207D01*
X61107D01*
Y10290D01*
X61007D01*
X61607Y9890D02*
X61807D01*
X61907Y9990D01*
Y10190D01*
X61807Y10290D01*
X61607D01*
X61507Y10190D01*
Y9990D01*
X61607Y9890D01*
X62107D02*
Y10290D01*
X62406D01*
X62506Y10190D01*
Y9890D01*
X62706D02*
Y9990D01*
X62806D01*
Y9890D01*
X62706D01*
D41*
X97039Y24060D02*
Y23340D01*
Y23700D01*
X97519D01*
Y24060D01*
Y23340D01*
X97879D02*
X98119D01*
X98239Y23460D01*
Y23700D01*
X98119Y23820D01*
X97879D01*
X97759Y23700D01*
Y23460D01*
X97879Y23340D01*
X98478D02*
X98718D01*
X98598D01*
Y24060D01*
X98478D01*
X99438Y23340D02*
X99198D01*
X99078Y23460D01*
Y23700D01*
X99198Y23820D01*
X99438D01*
X99558Y23700D01*
Y23580D01*
X99078D01*
X100518Y24060D02*
X100998D01*
X100758D01*
Y23340D01*
X101358D02*
X101597D01*
X101717Y23460D01*
Y23700D01*
X101597Y23820D01*
X101358D01*
X101238Y23700D01*
Y23460D01*
X101358Y23340D01*
X101957D02*
X102197D01*
X102077D01*
Y24060D01*
X101957D01*
X102917Y23340D02*
X102677D01*
X102557Y23460D01*
Y23700D01*
X102677Y23820D01*
X102917D01*
X103037Y23700D01*
Y23580D01*
X102557D01*
X103277Y23820D02*
Y23340D01*
Y23580D01*
X103397Y23700D01*
X103517Y23820D01*
X103637D01*
X104117D02*
X104357D01*
X104477Y23700D01*
Y23340D01*
X104117D01*
X103997Y23460D01*
X104117Y23580D01*
X104477D01*
X104716Y23340D02*
Y23820D01*
X105076D01*
X105196Y23700D01*
Y23340D01*
X105916Y23820D02*
X105556D01*
X105436Y23700D01*
Y23460D01*
X105556Y23340D01*
X105916D01*
X106516D02*
X106276D01*
X106156Y23460D01*
Y23700D01*
X106276Y23820D01*
X106516D01*
X106636Y23700D01*
Y23580D01*
X106156D01*
X107835Y23340D02*
X107596Y23580D01*
Y23820D01*
X107835Y24060D01*
X108195Y23700D02*
X108675D01*
X108915Y23340D02*
X109155Y23580D01*
Y23820D01*
X108915Y24060D01*
X83703D02*
Y23340D01*
Y23700D01*
X84183D01*
Y24060D01*
Y23340D01*
X84543D02*
X84783D01*
X84902Y23460D01*
Y23700D01*
X84783Y23820D01*
X84543D01*
X84423Y23700D01*
Y23460D01*
X84543Y23340D01*
X85142D02*
X85382D01*
X85262D01*
Y24060D01*
X85142D01*
X86102Y23340D02*
X85862D01*
X85742Y23460D01*
Y23700D01*
X85862Y23820D01*
X86102D01*
X86222Y23700D01*
Y23580D01*
X85742D01*
X87182Y24060D02*
X87662D01*
X87422D01*
Y23340D01*
X88021D02*
X88261D01*
X88381Y23460D01*
Y23700D01*
X88261Y23820D01*
X88021D01*
X87902Y23700D01*
Y23460D01*
X88021Y23340D01*
X88621D02*
X88861D01*
X88741D01*
Y24060D01*
X88621D01*
X89581Y23340D02*
X89341D01*
X89221Y23460D01*
Y23700D01*
X89341Y23820D01*
X89581D01*
X89701Y23700D01*
Y23580D01*
X89221D01*
X89941Y23820D02*
Y23340D01*
Y23580D01*
X90061Y23700D01*
X90181Y23820D01*
X90301D01*
X90781D02*
X91021D01*
X91140Y23700D01*
Y23340D01*
X90781D01*
X90661Y23460D01*
X90781Y23580D01*
X91140D01*
X91380Y23340D02*
Y23820D01*
X91740D01*
X91860Y23700D01*
Y23340D01*
X92580Y23820D02*
X92220D01*
X92100Y23700D01*
Y23460D01*
X92220Y23340D01*
X92580D01*
X93180D02*
X92940D01*
X92820Y23460D01*
Y23700D01*
X92940Y23820D01*
X93180D01*
X93300Y23700D01*
Y23580D01*
X92820D01*
X94499Y23340D02*
X94259Y23580D01*
Y23820D01*
X94499Y24060D01*
X94859Y23700D02*
X95339D01*
X95099Y23940D02*
Y23460D01*
X95579Y23340D02*
X95819Y23580D01*
Y23820D01*
X95579Y24060D01*
X75165D02*
Y23340D01*
X75525D01*
X75645Y23460D01*
Y23940D01*
X75525Y24060D01*
X75165D01*
X76245Y23340D02*
X76005D01*
X75885Y23460D01*
Y23700D01*
X76005Y23820D01*
X76245D01*
X76365Y23700D01*
Y23580D01*
X75885D01*
X76605Y23340D02*
X76965D01*
X77085Y23460D01*
X76965Y23580D01*
X76725D01*
X76605Y23700D01*
X76725Y23820D01*
X77085D01*
X77804D02*
X77445D01*
X77325Y23700D01*
Y23460D01*
X77445Y23340D01*
X77804D01*
X78044Y23820D02*
Y23340D01*
Y23580D01*
X78164Y23700D01*
X78284Y23820D01*
X78404D01*
X78764Y23340D02*
X79004D01*
X78884D01*
Y23820D01*
X78764D01*
X79364Y23100D02*
Y23820D01*
X79724D01*
X79844Y23700D01*
Y23460D01*
X79724Y23340D01*
X79364D01*
X80204Y23940D02*
Y23820D01*
X80084D01*
X80324D01*
X80204D01*
Y23460D01*
X80324Y23340D01*
X80683D02*
X80923D01*
X80803D01*
Y23820D01*
X80683D01*
X81403Y23340D02*
X81643D01*
X81763Y23460D01*
Y23700D01*
X81643Y23820D01*
X81403D01*
X81283Y23700D01*
Y23460D01*
X81403Y23340D01*
X82003D02*
Y23820D01*
X82363D01*
X82483Y23700D01*
Y23340D01*
X63269Y24060D02*
X63749D01*
X63509D01*
Y23340D01*
X64348D02*
X64108D01*
X63989Y23460D01*
Y23700D01*
X64108Y23820D01*
X64348D01*
X64468Y23700D01*
Y23580D01*
X63989D01*
X64708Y23340D02*
Y23820D01*
X64828D01*
X64948Y23700D01*
Y23340D01*
Y23700D01*
X65068Y23820D01*
X65188Y23700D01*
Y23340D01*
X65428Y23100D02*
Y23820D01*
X65788D01*
X65908Y23700D01*
Y23460D01*
X65788Y23340D01*
X65428D01*
X66148D02*
X66388D01*
X66268D01*
Y24060D01*
X66148D01*
X66868Y23820D02*
X67108D01*
X67227Y23700D01*
Y23340D01*
X66868D01*
X66748Y23460D01*
X66868Y23580D01*
X67227D01*
X67587Y23940D02*
Y23820D01*
X67467D01*
X67707D01*
X67587D01*
Y23460D01*
X67707Y23340D01*
X68427D02*
X68187D01*
X68067Y23460D01*
Y23700D01*
X68187Y23820D01*
X68427D01*
X68547Y23700D01*
Y23580D01*
X68067D01*
X55811Y23340D02*
Y24060D01*
X56171D01*
X56291Y23940D01*
Y23700D01*
X56171Y23580D01*
X55811D01*
X56651Y23820D02*
X56890D01*
X57010Y23700D01*
Y23340D01*
X56651D01*
X56531Y23460D01*
X56651Y23580D01*
X57010D01*
X57730Y24060D02*
Y23340D01*
X57370D01*
X57250Y23460D01*
Y23700D01*
X57370Y23820D01*
X57730D01*
X59170Y23940D02*
X59050Y24060D01*
X58810D01*
X58690Y23940D01*
Y23820D01*
X58810Y23700D01*
X59050D01*
X59170Y23580D01*
Y23460D01*
X59050Y23340D01*
X58810D01*
X58690Y23460D01*
X59410Y24060D02*
Y23340D01*
Y23700D01*
X59530Y23820D01*
X59769D01*
X59889Y23700D01*
Y23340D01*
X60249Y23820D02*
X60489D01*
X60609Y23700D01*
Y23340D01*
X60249D01*
X60129Y23460D01*
X60249Y23580D01*
X60609D01*
X60849Y23100D02*
Y23820D01*
X61209D01*
X61329Y23700D01*
Y23460D01*
X61209Y23340D01*
X60849D01*
X61929D02*
X61689D01*
X61569Y23460D01*
Y23700D01*
X61689Y23820D01*
X61929D01*
X62049Y23700D01*
Y23580D01*
X61569D01*
X49912Y24060D02*
Y23580D01*
X50152Y23340D01*
X50392Y23580D01*
Y24060D01*
X50632Y23340D02*
X50872D01*
X50752D01*
Y23820D01*
X50632D01*
X51352D02*
X51592D01*
X51712Y23700D01*
Y23340D01*
X51352D01*
X51232Y23460D01*
X51352Y23580D01*
X51712D01*
X51952Y23340D02*
X52431Y23820D01*
X52671Y23340D02*
Y24060D01*
X53031D01*
X53151Y23940D01*
Y23700D01*
X53031Y23580D01*
X52671D01*
X53511Y23820D02*
X53751D01*
X53871Y23700D01*
Y23340D01*
X53511D01*
X53391Y23460D01*
X53511Y23580D01*
X53871D01*
X54591Y24060D02*
Y23340D01*
X54231D01*
X54111Y23460D01*
Y23700D01*
X54231Y23820D01*
X54591D01*
X34917Y24060D02*
Y23340D01*
X35277D01*
X35397Y23460D01*
Y23940D01*
X35277Y24060D01*
X34917D01*
X35637Y23820D02*
Y23340D01*
Y23580D01*
X35757Y23700D01*
X35876Y23820D01*
X35996D01*
X36356Y23340D02*
X36596D01*
X36476D01*
Y23820D01*
X36356D01*
X36956Y23340D02*
X37196D01*
X37076D01*
Y24060D01*
X36956D01*
X37556Y23340D02*
X37796D01*
X37676D01*
Y24060D01*
X37556D01*
X38876D02*
Y23340D01*
X39355D01*
X39715Y23820D02*
X39955D01*
X40075Y23700D01*
Y23340D01*
X39715D01*
X39595Y23460D01*
X39715Y23580D01*
X40075D01*
X40315Y23820D02*
Y23460D01*
X40435Y23340D01*
X40795D01*
Y23220D01*
X40675Y23100D01*
X40555D01*
X40795Y23340D02*
Y23820D01*
X41395Y23340D02*
X41155D01*
X41035Y23460D01*
Y23700D01*
X41155Y23820D01*
X41395D01*
X41515Y23700D01*
Y23580D01*
X41035D01*
X41755Y23820D02*
Y23340D01*
Y23580D01*
X41875Y23700D01*
X41994Y23820D01*
X42114D01*
X43194Y23340D02*
Y24060D01*
X43554D01*
X43674Y23940D01*
Y23700D01*
X43554Y23580D01*
X43194D01*
X44034Y23820D02*
X44274D01*
X44394Y23700D01*
Y23340D01*
X44034D01*
X43914Y23460D01*
X44034Y23580D01*
X44394D01*
X44634Y23340D02*
X44874D01*
X44754D01*
Y23820D01*
X44634D01*
X45233D02*
Y23340D01*
Y23580D01*
X45353Y23700D01*
X45473Y23820D01*
X45593D01*
X27579Y24060D02*
Y23340D01*
Y23700D01*
X28059D01*
Y24060D01*
Y23340D01*
X28418D02*
X28658D01*
X28778Y23460D01*
Y23700D01*
X28658Y23820D01*
X28418D01*
X28299Y23700D01*
Y23460D01*
X28418Y23340D01*
X29018D02*
X29258D01*
X29138D01*
Y24060D01*
X29018D01*
X29978Y23340D02*
X29738D01*
X29618Y23460D01*
Y23700D01*
X29738Y23820D01*
X29978D01*
X30098Y23700D01*
Y23580D01*
X29618D01*
X31058Y24060D02*
X31537D01*
X31298D01*
Y23340D01*
X31777Y23820D02*
Y23460D01*
X31897Y23340D01*
X32257D01*
Y23220D01*
X32137Y23100D01*
X32017D01*
X32257Y23340D02*
Y23820D01*
X32497Y23100D02*
Y23820D01*
X32857D01*
X32977Y23700D01*
Y23460D01*
X32857Y23340D01*
X32497D01*
X33577D02*
X33337D01*
X33217Y23460D01*
Y23700D01*
X33337Y23820D01*
X33577D01*
X33697Y23700D01*
Y23580D01*
X33217D01*
X22520Y23340D02*
Y24060D01*
X22880D01*
X23000Y23940D01*
Y23700D01*
X22880Y23580D01*
X22520D01*
X23240Y23340D02*
X23480D01*
X23360D01*
Y24060D01*
X23240D01*
X23960Y23820D02*
X24199D01*
X24319Y23700D01*
Y23340D01*
X23960D01*
X23840Y23460D01*
X23960Y23580D01*
X24319D01*
X24679Y23940D02*
Y23820D01*
X24559D01*
X24799D01*
X24679D01*
Y23460D01*
X24799Y23340D01*
X25519D02*
X25279D01*
X25159Y23460D01*
Y23700D01*
X25279Y23820D01*
X25519D01*
X25639Y23700D01*
Y23580D01*
X25159D01*
X26359Y24060D02*
Y23340D01*
X25999D01*
X25879Y23460D01*
Y23700D01*
X25999Y23820D01*
X26359D01*
X11023Y24060D02*
Y23340D01*
Y23700D01*
X11503D01*
Y24060D01*
Y23340D01*
X11863D02*
X12103D01*
X12223Y23460D01*
Y23700D01*
X12103Y23820D01*
X11863D01*
X11743Y23700D01*
Y23460D01*
X11863Y23340D01*
X12463D02*
X12703D01*
X12583D01*
Y24060D01*
X12463D01*
X13423Y23340D02*
X13183D01*
X13063Y23460D01*
Y23700D01*
X13183Y23820D01*
X13423D01*
X13543Y23700D01*
Y23580D01*
X13063D01*
X14982Y23940D02*
X14862Y24060D01*
X14622D01*
X14502Y23940D01*
Y23820D01*
X14622Y23700D01*
X14862D01*
X14982Y23580D01*
Y23460D01*
X14862Y23340D01*
X14622D01*
X14502Y23460D01*
X15222Y23340D02*
X15462D01*
X15342D01*
Y23820D01*
X15222D01*
X15822D02*
X16302D01*
X15822Y23340D01*
X16302D01*
X16901D02*
X16662D01*
X16542Y23460D01*
Y23700D01*
X16662Y23820D01*
X16901D01*
X17021Y23700D01*
Y23580D01*
X16542D01*
X5605Y23940D02*
X5485Y24060D01*
X5245D01*
X5125Y23940D01*
Y23460D01*
X5245Y23340D01*
X5485D01*
X5605Y23460D01*
X5965Y23340D02*
X6205D01*
X6325Y23460D01*
Y23700D01*
X6205Y23820D01*
X5965D01*
X5845Y23700D01*
Y23460D01*
X5965Y23340D01*
X6564Y23820D02*
Y23460D01*
X6684Y23340D01*
X7044D01*
Y23820D01*
X7284Y23340D02*
Y23820D01*
X7644D01*
X7764Y23700D01*
Y23340D01*
X8124Y23940D02*
Y23820D01*
X8004D01*
X8244D01*
X8124D01*
Y23460D01*
X8244Y23340D01*
X546Y23940D02*
X426Y24060D01*
X186D01*
X66Y23940D01*
Y23820D01*
X186Y23700D01*
X426D01*
X546Y23580D01*
Y23460D01*
X426Y23340D01*
X186D01*
X66Y23460D01*
X786Y23820D02*
Y23460D01*
X906Y23340D01*
X1266D01*
Y23220D01*
X1146Y23100D01*
X1026D01*
X1266Y23340D02*
Y23820D01*
X1506Y23340D02*
Y23820D01*
X1626D01*
X1746Y23700D01*
Y23340D01*
Y23700D01*
X1866Y23820D01*
X1986Y23700D01*
Y23340D01*
X2225Y24060D02*
Y23340D01*
X2585D01*
X2705Y23460D01*
Y23580D01*
Y23700D01*
X2585Y23820D01*
X2225D01*
X3065Y23340D02*
X3305D01*
X3425Y23460D01*
Y23700D01*
X3305Y23820D01*
X3065D01*
X2945Y23700D01*
Y23460D01*
X3065Y23340D01*
X3665D02*
X3905D01*
X3785D01*
Y24060D01*
X3665D01*
D42*
X10393Y9490D02*
Y8891D01*
Y9190D01*
X10793D01*
Y9490D01*
Y8891D01*
X11093D02*
X11293D01*
X11393Y8990D01*
Y9190D01*
X11293Y9290D01*
X11093D01*
X10993Y9190D01*
Y8990D01*
X11093Y8891D01*
X11593D02*
X11793D01*
X11693D01*
Y9490D01*
X11593D01*
X12392Y8891D02*
X12192D01*
X12093Y8990D01*
Y9190D01*
X12192Y9290D01*
X12392D01*
X12492Y9190D01*
Y9090D01*
X12093D01*
X13292Y9490D02*
Y8891D01*
X13692D01*
X14192D02*
X13992D01*
X13892Y8990D01*
Y9190D01*
X13992Y9290D01*
X14192D01*
X14292Y9190D01*
Y9090D01*
X13892D01*
X14492Y8891D02*
Y9290D01*
X14792D01*
X14892Y9190D01*
Y8891D01*
X15291Y8691D02*
X15391D01*
X15491Y8791D01*
Y9290D01*
X15192D01*
X15092Y9190D01*
Y8990D01*
X15192Y8891D01*
X15491D01*
X15791Y9390D02*
Y9290D01*
X15691D01*
X15891D01*
X15791D01*
Y8990D01*
X15891Y8891D01*
X16191Y9490D02*
Y8891D01*
Y9190D01*
X16291Y9290D01*
X16491D01*
X16591Y9190D01*
Y8891D01*
X10393Y9890D02*
Y10490D01*
X10693D01*
X10793Y10390D01*
Y10190D01*
X10693Y10090D01*
X10393D01*
X10593D02*
X10793Y9890D01*
X11093D02*
X11293D01*
X11393Y9990D01*
Y10190D01*
X11293Y10290D01*
X11093D01*
X10993Y10190D01*
Y9990D01*
X11093Y9890D01*
X11593Y10290D02*
Y9990D01*
X11693Y9890D01*
X11993D01*
Y10290D01*
X12292Y10390D02*
Y10290D01*
X12192D01*
X12392D01*
X12292D01*
Y9990D01*
X12392Y9890D01*
X12992D02*
X12792D01*
X12692Y9990D01*
Y10190D01*
X12792Y10290D01*
X12992D01*
X13092Y10190D01*
Y10090D01*
X12692D01*
X13692Y10490D02*
Y9890D01*
X13392D01*
X13292Y9990D01*
Y10190D01*
X13392Y10290D01*
X13692D01*
X14492Y9890D02*
Y10490D01*
X14792D01*
X14892Y10390D01*
Y10190D01*
X14792Y10090D01*
X14492D01*
X15192Y10290D02*
X15391D01*
X15491Y10190D01*
Y9890D01*
X15192D01*
X15092Y9990D01*
X15192Y10090D01*
X15491D01*
X15791Y10390D02*
Y10290D01*
X15691D01*
X15891D01*
X15791D01*
Y9990D01*
X15891Y9890D01*
X16191Y10490D02*
Y9890D01*
Y10190D01*
X16291Y10290D01*
X16491D01*
X16591Y10190D01*
Y9890D01*
X17391Y10490D02*
Y9890D01*
X17791D01*
X18290D02*
X18091D01*
X17991Y9990D01*
Y10190D01*
X18091Y10290D01*
X18290D01*
X18390Y10190D01*
Y10090D01*
X17991D01*
X18590Y9890D02*
Y10290D01*
X18890D01*
X18990Y10190D01*
Y9890D01*
X19390Y9690D02*
X19490D01*
X19590Y9790D01*
Y10290D01*
X19290D01*
X19190Y10190D01*
Y9990D01*
X19290Y9890D01*
X19590D01*
X19890Y10390D02*
Y10290D01*
X19790D01*
X19990D01*
X19890D01*
Y9990D01*
X19990Y9890D01*
X20290Y10490D02*
Y9890D01*
Y10190D01*
X20390Y10290D01*
X20590D01*
X20690Y10190D01*
Y9890D01*
X466Y10390D02*
X366Y10490D01*
X166D01*
X66Y10390D01*
Y10290D01*
X166Y10190D01*
X366D01*
X466Y10090D01*
Y9990D01*
X366Y9890D01*
X166D01*
X66Y9990D01*
X666Y9890D02*
X866D01*
X766D01*
Y10490D01*
X666D01*
X1266Y9890D02*
X1466D01*
X1566Y9990D01*
Y10190D01*
X1466Y10290D01*
X1266D01*
X1166Y10190D01*
Y9990D01*
X1266Y9890D01*
X1866Y10390D02*
Y10290D01*
X1766D01*
X1966D01*
X1866D01*
Y9990D01*
X1966Y9890D01*
X3265Y10490D02*
Y9890D01*
X2965D01*
X2865Y9990D01*
Y10190D01*
X2965Y10290D01*
X3265D01*
X3765Y9890D02*
X3565D01*
X3465Y9990D01*
Y10190D01*
X3565Y10290D01*
X3765D01*
X3865Y10190D01*
Y10090D01*
X3465D01*
X4165Y9890D02*
Y10390D01*
Y10190D01*
X4065D01*
X4265D01*
X4165D01*
Y10390D01*
X4265Y10490D01*
X4565Y9890D02*
X4765D01*
X4665D01*
Y10290D01*
X4565D01*
X5065Y9890D02*
Y10290D01*
X5364D01*
X5464Y10190D01*
Y9890D01*
X5664D02*
X5864D01*
X5764D01*
Y10290D01*
X5664D01*
X6264Y10390D02*
Y10290D01*
X6164D01*
X6364D01*
X6264D01*
Y9990D01*
X6364Y9890D01*
X6664D02*
X6864D01*
X6764D01*
Y10290D01*
X6664D01*
X7264Y9890D02*
X7464D01*
X7564Y9990D01*
Y10190D01*
X7464Y10290D01*
X7264D01*
X7164Y10190D01*
Y9990D01*
X7264Y9890D01*
X7764D02*
Y10290D01*
X8064D01*
X8164Y10190D01*
Y9890D01*
X8363D02*
X8663D01*
X8763Y9990D01*
X8663Y10090D01*
X8463D01*
X8363Y10190D01*
X8463Y10290D01*
X8763D01*
X9563D02*
X9663D01*
Y10190D01*
X9563D01*
Y10290D01*
Y9990D02*
X9663D01*
Y9890D01*
X9563D01*
Y9990D01*
D98*
X-834Y22890D02*
X110375D01*
X-834Y12390D02*
X110375D01*
X-834Y10890D02*
X110375D01*
Y24390D01*
X-834D02*
X110375D01*
X-834Y10890D02*
Y24390D01*
X96589Y10890D02*
Y24390D01*
X83253Y10890D02*
Y24390D01*
X74715Y10890D02*
Y24390D01*
X62819Y10890D02*
Y24390D01*
X55361Y10890D02*
Y24390D01*
X49462Y10890D02*
Y24390D01*
X34467Y10890D02*
Y24390D01*
X27129Y10890D02*
Y24390D01*
X22070Y10890D02*
Y24390D01*
X10573Y10890D02*
Y24390D01*
X4675Y10890D02*
Y24390D01*
D103*
X773Y1073D02*
G03*
X773Y1073I-100J0D01*
G01*
Y-1073D02*
G03*
X773Y-1073I-100J0D01*
G01*
X2223Y4013D02*
Y4063D01*
X2273Y4113D01*
X2223Y4163D02*
X2273Y4113D01*
X2223Y4163D02*
Y4213D01*
X2273D01*
X2323Y4163D01*
X2373Y4213D01*
X2423D01*
Y4163D02*
Y4213D01*
X2373Y4113D02*
X2423Y4163D01*
X2373Y4113D02*
X2423Y4063D01*
Y4013D02*
Y4063D01*
X2373Y4013D02*
X2423D01*
X2323Y4063D02*
X2373Y4013D01*
X2273D02*
X2323Y4063D01*
X2223Y4013D02*
X2273D01*
X8542Y552D02*
Y602D01*
X8592Y652D01*
X8542Y702D02*
X8592Y652D01*
X8542Y702D02*
Y752D01*
X8592D01*
X8642Y702D01*
X8692Y752D01*
X8742D01*
Y702D02*
Y752D01*
X8692Y652D02*
X8742Y702D01*
X8692Y652D02*
X8742Y602D01*
Y552D02*
Y602D01*
X8692Y552D02*
X8742D01*
X8642Y602D02*
X8692Y552D01*
X8592D02*
X8642Y602D01*
X8542Y552D02*
X8592D01*
X13468Y-2920D02*
Y-2870D01*
X13518Y-2820D01*
X13468Y-2770D02*
X13518Y-2820D01*
X13468Y-2770D02*
Y-2720D01*
X13518D01*
X13568Y-2770D01*
X13618Y-2720D01*
X13668D01*
Y-2770D02*
Y-2720D01*
X13618Y-2820D02*
X13668Y-2770D01*
X13618Y-2820D02*
X13668Y-2870D01*
Y-2920D02*
Y-2870D01*
X13618Y-2920D02*
X13668D01*
X13568Y-2870D02*
X13618Y-2920D01*
X13518D02*
X13568Y-2870D01*
X13468Y-2920D02*
X13518D01*
X14946Y-3100D02*
Y-3050D01*
X14996Y-3000D01*
X14946Y-2950D02*
X14996Y-3000D01*
X14946Y-2950D02*
Y-2900D01*
X14996D01*
X15046Y-2950D01*
X15096Y-2900D01*
X15146D01*
Y-2950D02*
Y-2900D01*
X15096Y-3000D02*
X15146Y-2950D01*
X15096Y-3000D02*
X15146Y-3050D01*
Y-3100D02*
Y-3050D01*
X15096Y-3100D02*
X15146D01*
X15046Y-3050D02*
X15096Y-3100D01*
X14996D02*
X15046Y-3050D01*
X14946Y-3100D02*
X14996D01*
X11963Y-3050D02*
Y-3000D01*
X12013Y-2950D01*
X11963Y-2900D02*
X12013Y-2950D01*
X11963Y-2900D02*
Y-2850D01*
X12013D01*
X12063Y-2900D01*
X12113Y-2850D01*
X12163D01*
Y-2900D02*
Y-2850D01*
X12113Y-2950D02*
X12163Y-2900D01*
X12113Y-2950D02*
X12163Y-3000D01*
Y-3050D02*
Y-3000D01*
X12113Y-3050D02*
X12163D01*
X12063Y-3000D02*
X12113Y-3050D01*
X12013D02*
X12063Y-3000D01*
X11963Y-3050D02*
X12013D01*
X11960Y-2750D02*
Y-2700D01*
X12010Y-2650D01*
X11960Y-2600D02*
X12010Y-2650D01*
X11960Y-2600D02*
Y-2550D01*
X12010D01*
X12060Y-2600D01*
X12110Y-2550D01*
X12160D01*
Y-2600D02*
Y-2550D01*
X12110Y-2650D02*
X12160Y-2600D01*
X12110Y-2650D02*
X12160Y-2700D01*
Y-2750D02*
Y-2700D01*
X12110Y-2750D02*
X12160D01*
X12060Y-2700D02*
X12110Y-2750D01*
X12010D02*
X12060Y-2700D01*
X11960Y-2750D02*
X12010D01*
X11963Y1120D02*
Y1170D01*
X12013Y1220D01*
X11963Y1270D02*
X12013Y1220D01*
X11963Y1270D02*
Y1320D01*
X12013D01*
X12063Y1270D01*
X12113Y1320D01*
X12163D01*
Y1270D02*
Y1320D01*
X12113Y1220D02*
X12163Y1270D01*
X12113Y1220D02*
X12163Y1170D01*
Y1120D02*
Y1170D01*
X12113Y1120D02*
X12163D01*
X12063Y1170D02*
X12113Y1120D01*
X12013D02*
X12063Y1170D01*
X11963Y1120D02*
X12013D01*
X11660Y-3060D02*
Y-3010D01*
X11710Y-2960D01*
X11660Y-2910D02*
X11710Y-2960D01*
X11660Y-2910D02*
Y-2860D01*
X11710D01*
X11760Y-2910D01*
X11810Y-2860D01*
X11860D01*
Y-2910D02*
Y-2860D01*
X11810Y-2960D02*
X11860Y-2910D01*
X11810Y-2960D02*
X11860Y-3010D01*
Y-3060D02*
Y-3010D01*
X11810Y-3060D02*
X11860D01*
X11760Y-3010D02*
X11810Y-3060D01*
X11710D02*
X11760Y-3010D01*
X11660Y-3060D02*
X11710D01*
X11410Y-3100D02*
Y-3050D01*
X11460Y-3000D01*
X11410Y-2950D02*
X11460Y-3000D01*
X11410Y-2950D02*
Y-2900D01*
X11460D01*
X11510Y-2950D01*
X11560Y-2900D01*
X11610D01*
Y-2950D02*
Y-2900D01*
X11560Y-3000D02*
X11610Y-2950D01*
X11560Y-3000D02*
X11610Y-3050D01*
Y-3100D02*
Y-3050D01*
X11560Y-3100D02*
X11610D01*
X11510Y-3050D02*
X11560Y-3100D01*
X11460D02*
X11510Y-3050D01*
X11410Y-3100D02*
X11460D01*
X10650Y-2561D02*
Y-2511D01*
X10700Y-2461D01*
X10650Y-2411D02*
X10700Y-2461D01*
X10650Y-2411D02*
Y-2361D01*
X10700D01*
X10750Y-2411D01*
X10800Y-2361D01*
X10850D01*
Y-2411D02*
Y-2361D01*
X10800Y-2461D02*
X10850Y-2411D01*
X10800Y-2461D02*
X10850Y-2511D01*
Y-2561D02*
Y-2511D01*
X10800Y-2561D02*
X10850D01*
X10750Y-2511D02*
X10800Y-2561D01*
X10700D02*
X10750Y-2511D01*
X10650Y-2561D02*
X10700D01*
X10850Y-2376D02*
Y-2326D01*
X10900Y-2276D01*
X10850Y-2226D02*
X10900Y-2276D01*
X10850Y-2226D02*
Y-2176D01*
X10900D01*
X10950Y-2226D01*
X11000Y-2176D01*
X11050D01*
Y-2226D02*
Y-2176D01*
X11000Y-2276D02*
X11050Y-2226D01*
X11000Y-2276D02*
X11050Y-2326D01*
Y-2376D02*
Y-2326D01*
X11000Y-2376D02*
X11050D01*
X10950Y-2326D02*
X11000Y-2376D01*
X10900D02*
X10950Y-2326D01*
X10850Y-2376D02*
X10900D01*
X16400Y-3054D02*
Y-3004D01*
X16450Y-2954D01*
X16400Y-2904D02*
X16450Y-2954D01*
X16400Y-2904D02*
Y-2854D01*
X16450D01*
X16500Y-2904D01*
X16550Y-2854D01*
X16600D01*
Y-2904D02*
Y-2854D01*
X16550Y-2954D02*
X16600Y-2904D01*
X16550Y-2954D02*
X16600Y-3004D01*
Y-3054D02*
Y-3004D01*
X16550Y-3054D02*
X16600D01*
X16500Y-3004D02*
X16550Y-3054D01*
X16450D02*
X16500Y-3004D01*
X16400Y-3054D02*
X16450D01*
X15368Y-3050D02*
Y-3000D01*
X15418Y-2950D01*
X15368Y-2900D02*
X15418Y-2950D01*
X15368Y-2900D02*
Y-2850D01*
X15418D01*
X15468Y-2900D01*
X15518Y-2850D01*
X15568D01*
Y-2900D02*
Y-2850D01*
X15518Y-2950D02*
X15568Y-2900D01*
X15518Y-2950D02*
X15568Y-3000D01*
Y-3050D02*
Y-3000D01*
X15518Y-3050D02*
X15568D01*
X15468Y-3000D02*
X15518Y-3050D01*
X15418D02*
X15468Y-3000D01*
X15368Y-3050D02*
X15418D01*
X12421Y-2556D02*
Y-2506D01*
X12471Y-2456D01*
X12421Y-2406D02*
X12471Y-2456D01*
X12421Y-2406D02*
Y-2356D01*
X12471D01*
X12522Y-2406D01*
X12572Y-2356D01*
X12622D01*
Y-2406D02*
Y-2356D01*
X12572Y-2456D02*
X12622Y-2406D01*
X12572Y-2456D02*
X12622Y-2506D01*
Y-2556D02*
Y-2506D01*
X12572Y-2556D02*
X12622D01*
X12522Y-2506D02*
X12572Y-2556D01*
X12471D02*
X12522Y-2506D01*
X12421Y-2556D02*
X12471D01*
X12750Y-2179D02*
Y-2129D01*
X12800Y-2079D01*
X12750Y-2029D02*
X12800Y-2079D01*
X12750Y-2029D02*
Y-1979D01*
X12800D01*
X12850Y-2029D01*
X12900Y-1979D01*
X12950D01*
Y-2029D02*
Y-1979D01*
X12900Y-2079D02*
X12950Y-2029D01*
X12900Y-2079D02*
X12950Y-2129D01*
Y-2179D02*
Y-2129D01*
X12900Y-2179D02*
X12950D01*
X12850Y-2129D02*
X12900Y-2179D01*
X12800D02*
X12850Y-2129D01*
X12750Y-2179D02*
X12800D01*
X5423Y2781D02*
Y2831D01*
X5473Y2881D01*
X5423Y2931D02*
X5473Y2881D01*
X5423Y2931D02*
Y2981D01*
X5473D01*
X5523Y2931D01*
X5573Y2981D01*
X5623D01*
Y2931D02*
Y2981D01*
X5573Y2881D02*
X5623Y2931D01*
X5573Y2881D02*
X5623Y2831D01*
Y2781D02*
Y2831D01*
X5573Y2781D02*
X5623D01*
X5523Y2831D02*
X5573Y2781D01*
X5473D02*
X5523Y2831D01*
X5423Y2781D02*
X5473D01*
X13800Y3583D02*
Y3633D01*
X13850Y3683D01*
X13800Y3733D02*
X13850Y3683D01*
X13800Y3733D02*
Y3783D01*
X13850D01*
X13900Y3733D01*
X13950Y3783D01*
X14000D01*
Y3733D02*
Y3783D01*
X13950Y3683D02*
X14000Y3733D01*
X13950Y3683D02*
X14000Y3633D01*
Y3583D02*
Y3633D01*
X13950Y3583D02*
X14000D01*
X13900Y3633D02*
X13950Y3583D01*
X13850D02*
X13900Y3633D01*
X13800Y3583D02*
X13850D01*
X8584Y2050D02*
Y2100D01*
X8634Y2150D01*
X8584Y2200D02*
X8634Y2150D01*
X8584Y2200D02*
Y2250D01*
X8634D01*
X8684Y2200D01*
X8734Y2250D01*
X8784D01*
Y2200D02*
Y2250D01*
X8734Y2150D02*
X8784Y2200D01*
X8734Y2150D02*
X8784Y2100D01*
Y2050D02*
Y2100D01*
X8734Y2050D02*
X8784D01*
X8684Y2100D02*
X8734Y2050D01*
X8634D02*
X8684Y2100D01*
X8584Y2050D02*
X8634D01*
X9879Y-3880D02*
Y-3830D01*
X9929Y-3780D01*
X9879Y-3730D02*
X9929Y-3780D01*
X9879Y-3730D02*
Y-3680D01*
X9929D01*
X9979Y-3730D01*
X10029Y-3680D01*
X10079D01*
Y-3730D02*
Y-3680D01*
X10029Y-3780D02*
X10079Y-3730D01*
X10029Y-3780D02*
X10079Y-3830D01*
Y-3880D02*
Y-3830D01*
X10029Y-3880D02*
X10079D01*
X9979Y-3830D02*
X10029Y-3880D01*
X9929D02*
X9979Y-3830D01*
X9879Y-3880D02*
X9929D01*
X1881Y-2877D02*
Y-2827D01*
X1931Y-2777D01*
X1881Y-2727D02*
X1931Y-2777D01*
X1881Y-2727D02*
Y-2677D01*
X1931D01*
X1981Y-2727D01*
X2031Y-2677D01*
X2081D01*
Y-2727D02*
Y-2677D01*
X2031Y-2777D02*
X2081Y-2727D01*
X2031Y-2777D02*
X2081Y-2827D01*
Y-2877D02*
Y-2827D01*
X2031Y-2877D02*
X2081D01*
X1981Y-2827D02*
X2031Y-2877D01*
X1931D02*
X1981Y-2827D01*
X1881Y-2877D02*
X1931D01*
X11900Y3670D02*
Y3720D01*
X11950Y3770D01*
X11900Y3820D02*
X11950Y3770D01*
X11900Y3820D02*
Y3870D01*
X11950D01*
X12000Y3820D01*
X12050Y3870D01*
X12100D01*
Y3820D02*
Y3870D01*
X12050Y3770D02*
X12100Y3820D01*
X12050Y3770D02*
X12100Y3720D01*
Y3670D02*
Y3720D01*
X12050Y3670D02*
X12100D01*
X12000Y3720D02*
X12050Y3670D01*
X11950D02*
X12000Y3720D01*
X11900Y3670D02*
X11950D01*
X9457Y3494D02*
Y3544D01*
X9507Y3594D01*
X9457Y3644D02*
X9507Y3594D01*
X9457Y3644D02*
Y3694D01*
X9507D01*
X9557Y3644D01*
X9607Y3694D01*
X9657D01*
Y3644D02*
Y3694D01*
X9607Y3594D02*
X9657Y3644D01*
X9607Y3594D02*
X9657Y3544D01*
Y3494D02*
Y3544D01*
X9607Y3494D02*
X9657D01*
X9557Y3544D02*
X9607Y3494D01*
X9507D02*
X9557Y3544D01*
X9457Y3494D02*
X9507D01*
X7312Y2250D02*
Y2300D01*
X7362Y2350D01*
X7312Y2400D02*
X7362Y2350D01*
X7312Y2400D02*
Y2450D01*
X7362D01*
X7412Y2400D01*
X7462Y2450D01*
X7512D01*
Y2400D02*
Y2450D01*
X7462Y2350D02*
X7512Y2400D01*
X7462Y2350D02*
X7512Y2300D01*
Y2250D02*
Y2300D01*
X7462Y2250D02*
X7512D01*
X7412Y2300D02*
X7462Y2250D01*
X7362D02*
X7412Y2300D01*
X7312Y2250D02*
X7362D01*
X5800Y316D02*
Y366D01*
X5850Y416D01*
X5800Y466D02*
X5850Y416D01*
X5800Y466D02*
Y516D01*
X5850D01*
X5900Y466D01*
X5950Y516D01*
X6000D01*
Y466D02*
Y516D01*
X5950Y416D02*
X6000Y466D01*
X5950Y416D02*
X6000Y366D01*
Y316D02*
Y366D01*
X5950Y316D02*
X6000D01*
X5900Y366D02*
X5950Y316D01*
X5850D02*
X5900Y366D01*
X5800Y316D02*
X5850D01*
X2550Y2950D02*
Y3000D01*
X2600Y3050D01*
X2550Y3100D02*
X2600Y3050D01*
X2550Y3100D02*
Y3150D01*
X2600D01*
X2650Y3100D01*
X2700Y3150D01*
X2750D01*
Y3100D02*
Y3150D01*
X2700Y3050D02*
X2750Y3100D01*
X2700Y3050D02*
X2750Y3000D01*
Y2950D02*
Y3000D01*
X2700Y2950D02*
X2750D01*
X2650Y3000D02*
X2700Y2950D01*
X2600D02*
X2650Y3000D01*
X2550Y2950D02*
X2600D01*
X2050Y-2269D02*
Y-2219D01*
X2100Y-2169D01*
X2050Y-2119D02*
X2100Y-2169D01*
X2050Y-2119D02*
Y-2069D01*
X2100D01*
X2150Y-2119D01*
X2200Y-2069D01*
X2250D01*
Y-2119D02*
Y-2069D01*
X2200Y-2169D02*
X2250Y-2119D01*
X2200Y-2169D02*
X2250Y-2219D01*
Y-2269D02*
Y-2219D01*
X2200Y-2269D02*
X2250D01*
X2150Y-2219D02*
X2200Y-2269D01*
X2100D02*
X2150Y-2219D01*
X2050Y-2269D02*
X2100D01*
X8400Y3494D02*
Y3544D01*
X8450Y3594D01*
X8400Y3644D02*
X8450Y3594D01*
X8400Y3644D02*
Y3694D01*
X8450D01*
X8500Y3644D01*
X8550Y3694D01*
X8600D01*
Y3644D02*
Y3694D01*
X8550Y3594D02*
X8600Y3644D01*
X8550Y3594D02*
X8600Y3544D01*
Y3494D02*
Y3544D01*
X8550Y3494D02*
X8600D01*
X8500Y3544D02*
X8550Y3494D01*
X8450D02*
X8500Y3544D01*
X8400Y3494D02*
X8450D01*
X8600Y3201D02*
Y3251D01*
X8650Y3301D01*
X8600Y3351D02*
X8650Y3301D01*
X8600Y3351D02*
Y3401D01*
X8650D01*
X8700Y3351D01*
X8750Y3401D01*
X8800D01*
Y3351D02*
Y3401D01*
X8750Y3301D02*
X8800Y3351D01*
X8750Y3301D02*
X8800Y3251D01*
Y3201D02*
Y3251D01*
X8750Y3201D02*
X8800D01*
X8700Y3251D02*
X8750Y3201D01*
X8650D02*
X8700Y3251D01*
X8600Y3201D02*
X8650D01*
X9533Y3150D02*
Y3200D01*
X9583Y3250D01*
X9533Y3300D02*
X9583Y3250D01*
X9533Y3300D02*
Y3350D01*
X9583D01*
X9633Y3300D01*
X9683Y3350D01*
X9733D01*
Y3300D02*
Y3350D01*
X9683Y3250D02*
X9733Y3300D01*
X9683Y3250D02*
X9733Y3200D01*
Y3150D02*
Y3200D01*
X9683Y3150D02*
X9733D01*
X9633Y3200D02*
X9683Y3150D01*
X9583D02*
X9633Y3200D01*
X9533Y3150D02*
X9583D01*
X8600Y2821D02*
Y2871D01*
X8650Y2921D01*
X8600Y2971D02*
X8650Y2921D01*
X8600Y2971D02*
Y3021D01*
X8650D01*
X8700Y2971D01*
X8750Y3021D01*
X8800D01*
Y2971D02*
Y3021D01*
X8750Y2921D02*
X8800Y2971D01*
X8750Y2921D02*
X8800Y2871D01*
Y2821D02*
Y2871D01*
X8750Y2821D02*
X8800D01*
X8700Y2871D02*
X8750Y2821D01*
X8650D02*
X8700Y2871D01*
X8600Y2821D02*
X8650D01*
X9533Y2039D02*
Y2089D01*
X9583Y2139D01*
X9533Y2189D02*
X9583Y2139D01*
X9533Y2189D02*
Y2239D01*
X9583D01*
X9633Y2189D01*
X9683Y2239D01*
X9733D01*
Y2189D02*
Y2239D01*
X9683Y2139D02*
X9733Y2189D01*
X9683Y2139D02*
X9733Y2089D01*
Y2039D02*
Y2089D01*
X9683Y2039D02*
X9733D01*
X9633Y2089D02*
X9683Y2039D01*
X9583D02*
X9633Y2089D01*
X9533Y2039D02*
X9583D01*
X8400Y2450D02*
Y2500D01*
X8450Y2550D01*
X8400Y2600D02*
X8450Y2550D01*
X8400Y2600D02*
Y2650D01*
X8450D01*
X8500Y2600D01*
X8550Y2650D01*
X8600D01*
Y2600D02*
Y2650D01*
X8550Y2550D02*
X8600Y2600D01*
X8550Y2550D02*
X8600Y2500D01*
Y2450D02*
Y2500D01*
X8550Y2450D02*
X8600D01*
X8500Y2500D02*
X8550Y2450D01*
X8450D02*
X8500Y2500D01*
X8400Y2450D02*
X8450D01*
X8200Y-2030D02*
Y-1980D01*
X8250Y-1930D01*
X8200Y-1880D02*
X8250Y-1930D01*
X8200Y-1880D02*
Y-1830D01*
X8250D01*
X8300Y-1880D01*
X8350Y-1830D01*
X8400D01*
Y-1880D02*
Y-1830D01*
X8350Y-1930D02*
X8400Y-1880D01*
X8350Y-1930D02*
X8400Y-1980D01*
Y-2030D02*
Y-1980D01*
X8350Y-2030D02*
X8400D01*
X8300Y-1980D02*
X8350Y-2030D01*
X8250D02*
X8300Y-1980D01*
X8200Y-2030D02*
X8250D01*
X5900Y937D02*
Y987D01*
X5950Y1037D01*
X5900Y1087D02*
X5950Y1037D01*
X5900Y1087D02*
Y1137D01*
X5950D01*
X6000Y1087D01*
X6050Y1137D01*
X6100D01*
Y1087D02*
Y1137D01*
X6050Y1037D02*
X6100Y1087D01*
X6050Y1037D02*
X6100Y987D01*
Y937D02*
Y987D01*
X6050Y937D02*
X6100D01*
X6000Y987D02*
X6050Y937D01*
X5950D02*
X6000Y987D01*
X5900Y937D02*
X5950D01*
X10137Y-3329D02*
Y-3279D01*
X10187Y-3229D01*
X10137Y-3179D02*
X10187Y-3229D01*
X10137Y-3179D02*
Y-3129D01*
X10187D01*
X10237Y-3179D01*
X10287Y-3129D01*
X10338D01*
Y-3179D02*
Y-3129D01*
X10287Y-3229D02*
X10338Y-3179D01*
X10287Y-3229D02*
X10338Y-3279D01*
Y-3329D02*
Y-3279D01*
X10287Y-3329D02*
X10338D01*
X10237Y-3279D02*
X10287Y-3329D01*
X10187D02*
X10237Y-3279D01*
X10137Y-3329D02*
X10187D01*
X8727Y-1595D02*
Y-1545D01*
X8777Y-1495D01*
X8727Y-1445D02*
X8777Y-1495D01*
X8727Y-1445D02*
Y-1395D01*
X8777D01*
X8827Y-1445D01*
X8877Y-1395D01*
X8927D01*
Y-1445D02*
Y-1395D01*
X8877Y-1495D02*
X8927Y-1445D01*
X8877Y-1495D02*
X8927Y-1545D01*
Y-1595D02*
Y-1545D01*
X8877Y-1595D02*
X8927D01*
X8827Y-1545D02*
X8877Y-1595D01*
X8777D02*
X8827Y-1545D01*
X8727Y-1595D02*
X8777D01*
X9464Y-1798D02*
Y-1748D01*
X9514Y-1698D01*
X9464Y-1648D02*
X9514Y-1698D01*
X9464Y-1648D02*
Y-1598D01*
X9514D01*
X9564Y-1648D01*
X9614Y-1598D01*
X9664D01*
Y-1648D02*
Y-1598D01*
X9614Y-1698D02*
X9664Y-1648D01*
X9614Y-1698D02*
X9664Y-1748D01*
Y-1798D02*
Y-1748D01*
X9614Y-1798D02*
X9664D01*
X9564Y-1748D02*
X9614Y-1798D01*
X9514D02*
X9564Y-1748D01*
X9464Y-1798D02*
X9514D01*
X5500Y1606D02*
Y1656D01*
X5550Y1706D01*
X5500Y1756D02*
X5550Y1706D01*
X5500Y1756D02*
Y1806D01*
X5550D01*
X5600Y1756D01*
X5650Y1806D01*
X5700D01*
Y1756D02*
Y1806D01*
X5650Y1706D02*
X5700Y1756D01*
X5650Y1706D02*
X5700Y1656D01*
Y1606D02*
Y1656D01*
X5650Y1606D02*
X5700D01*
X5600Y1656D02*
X5650Y1606D01*
X5550D02*
X5600Y1656D01*
X5500Y1606D02*
X5550D01*
X600Y-2520D02*
Y-2470D01*
X650Y-2420D01*
X600Y-2370D02*
X650Y-2420D01*
X600Y-2370D02*
Y-2320D01*
X650D01*
X700Y-2370D01*
X750Y-2320D01*
X800D01*
Y-2370D02*
Y-2320D01*
X750Y-2420D02*
X800Y-2370D01*
X750Y-2420D02*
X800Y-2470D01*
Y-2520D02*
Y-2470D01*
X750Y-2520D02*
X800D01*
X700Y-2470D02*
X750Y-2520D01*
X650D02*
X700Y-2470D01*
X600Y-2520D02*
X650D01*
X8750Y-2888D02*
Y-2838D01*
X8800Y-2788D01*
X8750Y-2738D02*
X8800Y-2788D01*
X8750Y-2738D02*
Y-2688D01*
X8800D01*
X8850Y-2738D01*
X8900Y-2688D01*
X8950D01*
Y-2738D02*
Y-2688D01*
X8900Y-2788D02*
X8950Y-2738D01*
X8900Y-2788D02*
X8950Y-2838D01*
Y-2888D02*
Y-2838D01*
X8900Y-2888D02*
X8950D01*
X8850Y-2838D02*
X8900Y-2888D01*
X8800D02*
X8850Y-2838D01*
X8750Y-2888D02*
X8800D01*
X9448Y-1455D02*
Y-1405D01*
X9498Y-1355D01*
X9448Y-1305D02*
X9498Y-1355D01*
X9448Y-1305D02*
Y-1255D01*
X9498D01*
X9548Y-1305D01*
X9598Y-1255D01*
X9648D01*
Y-1305D02*
Y-1255D01*
X9598Y-1355D02*
X9648Y-1305D01*
X9598Y-1355D02*
X9648Y-1405D01*
Y-1455D02*
Y-1405D01*
X9598Y-1455D02*
X9648D01*
X9548Y-1405D02*
X9598Y-1455D01*
X9498D02*
X9548Y-1405D01*
X9448Y-1455D02*
X9498D01*
X10400Y-1670D02*
Y-1620D01*
X10450Y-1570D01*
X10400Y-1520D02*
X10450Y-1570D01*
X10400Y-1520D02*
Y-1470D01*
X10450D01*
X10500Y-1520D01*
X10550Y-1470D01*
X10600D01*
Y-1520D02*
Y-1470D01*
X10550Y-1570D02*
X10600Y-1520D01*
X10550Y-1570D02*
X10600Y-1620D01*
Y-1670D02*
Y-1620D01*
X10550Y-1670D02*
X10600D01*
X10500Y-1620D02*
X10550Y-1670D01*
X10450D02*
X10500Y-1620D01*
X10400Y-1670D02*
X10450D01*
X10950Y2650D02*
Y2700D01*
X11000Y2750D01*
X10950Y2800D02*
X11000Y2750D01*
X10950Y2800D02*
Y2850D01*
X11000D01*
X11050Y2800D01*
X11100Y2850D01*
X11150D01*
Y2800D02*
Y2850D01*
X11100Y2750D02*
X11150Y2800D01*
X11100Y2750D02*
X11150Y2700D01*
Y2650D02*
Y2700D01*
X11100Y2650D02*
X11150D01*
X11050Y2700D02*
X11100Y2650D01*
X11000D02*
X11050Y2700D01*
X10950Y2650D02*
X11000D01*
X12140D02*
Y2700D01*
X12190Y2750D01*
X12140Y2800D02*
X12190Y2750D01*
X12140Y2800D02*
Y2850D01*
X12190D01*
X12240Y2800D01*
X12290Y2850D01*
X12340D01*
Y2800D02*
Y2850D01*
X12290Y2750D02*
X12340Y2800D01*
X12290Y2750D02*
X12340Y2700D01*
Y2650D02*
Y2700D01*
X12290Y2650D02*
X12340D01*
X12240Y2700D02*
X12290Y2650D01*
X12190D02*
X12240Y2700D01*
X12140Y2650D02*
X12190D01*
X7365Y-848D02*
Y-798D01*
X7415Y-748D01*
X7365Y-698D02*
X7415Y-748D01*
X7365Y-698D02*
Y-648D01*
X7415D01*
X7465Y-698D01*
X7515Y-648D01*
X7565D01*
Y-698D02*
Y-648D01*
X7515Y-748D02*
X7565Y-698D01*
X7515Y-748D02*
X7565Y-798D01*
Y-848D02*
Y-798D01*
X7515Y-848D02*
X7565D01*
X7465Y-798D02*
X7515Y-848D01*
X7415D02*
X7465Y-798D01*
X7365Y-848D02*
X7415D01*
X11410Y350D02*
Y400D01*
X11460Y450D01*
X11410Y500D02*
X11460Y450D01*
X11410Y500D02*
Y550D01*
X11460D01*
X11510Y500D01*
X11560Y550D01*
X11610D01*
Y500D02*
Y550D01*
X11560Y450D02*
X11610Y500D01*
X11560Y450D02*
X11610Y400D01*
Y350D02*
Y400D01*
X11560Y350D02*
X11610D01*
X11510Y400D02*
X11560Y350D01*
X11460D02*
X11510Y400D01*
X11410Y350D02*
X11460D01*
X16446Y1738D02*
Y1788D01*
X16496Y1838D01*
X16446Y1888D02*
X16496Y1838D01*
X16446Y1888D02*
Y1938D01*
X16496D01*
X16546Y1888D01*
X16596Y1938D01*
X16646D01*
Y1888D02*
Y1938D01*
X16596Y1838D02*
X16646Y1888D01*
X16596Y1838D02*
X16646Y1788D01*
Y1738D02*
Y1788D01*
X16596Y1738D02*
X16646D01*
X16546Y1788D02*
X16596Y1738D01*
X16496D02*
X16546Y1788D01*
X16446Y1738D02*
X16496D01*
X14420Y-2376D02*
Y-2326D01*
X14470Y-2276D01*
X14420Y-2226D02*
X14470Y-2276D01*
X14420Y-2226D02*
Y-2176D01*
X14470D01*
X14520Y-2226D01*
X14570Y-2176D01*
X14620D01*
Y-2226D02*
Y-2176D01*
X14570Y-2276D02*
X14620Y-2226D01*
X14570Y-2276D02*
X14620Y-2326D01*
Y-2376D02*
Y-2326D01*
X14570Y-2376D02*
X14620D01*
X14520Y-2326D02*
X14570Y-2376D01*
X14470D02*
X14520Y-2326D01*
X14420Y-2376D02*
X14470D01*
X11658Y2820D02*
Y2870D01*
X11708Y2920D01*
X11658Y2970D02*
X11708Y2920D01*
X11658Y2970D02*
Y3020D01*
X11708D01*
X11758Y2970D01*
X11808Y3020D01*
X11858D01*
Y2970D02*
Y3020D01*
X11808Y2920D02*
X11858Y2970D01*
X11808Y2920D02*
X11858Y2870D01*
Y2820D02*
Y2870D01*
X11808Y2820D02*
X11858D01*
X11758Y2870D02*
X11808Y2820D01*
X11708D02*
X11758Y2870D01*
X11658Y2820D02*
X11708D01*
X12832Y2850D02*
Y2900D01*
X12882Y2950D01*
X12832Y3000D02*
X12882Y2950D01*
X12832Y3000D02*
Y3050D01*
X12882D01*
X12932Y3000D01*
X12982Y3050D01*
X13032D01*
Y3000D02*
Y3050D01*
X12982Y2950D02*
X13032Y3000D01*
X12982Y2950D02*
X13032Y2900D01*
Y2850D02*
Y2900D01*
X12982Y2850D02*
X13032D01*
X12932Y2900D02*
X12982Y2850D01*
X12882D02*
X12932Y2900D01*
X12832Y2850D02*
X12882D01*
X10862Y-2949D02*
Y-2899D01*
X10912Y-2849D01*
X10862Y-2799D02*
X10912Y-2849D01*
X10862Y-2799D02*
Y-2749D01*
X10912D01*
X10962Y-2799D01*
X11012Y-2749D01*
X11062D01*
Y-2799D02*
Y-2749D01*
X11012Y-2849D02*
X11062Y-2799D01*
X11012Y-2849D02*
X11062Y-2899D01*
Y-2949D02*
Y-2899D01*
X11012Y-2949D02*
X11062D01*
X10962Y-2899D02*
X11012Y-2949D01*
X10912D02*
X10962Y-2899D01*
X10862Y-2949D02*
X10912D01*
X7650Y2250D02*
Y2300D01*
X7700Y2350D01*
X7650Y2400D02*
X7700Y2350D01*
X7650Y2400D02*
Y2450D01*
X7700D01*
X7750Y2400D01*
X7800Y2450D01*
X7850D01*
Y2400D02*
Y2450D01*
X7800Y2350D02*
X7850Y2400D01*
X7800Y2350D02*
X7850Y2300D01*
Y2250D02*
Y2300D01*
X7800Y2250D02*
X7850D01*
X7750Y2300D02*
X7800Y2250D01*
X7700D02*
X7750Y2300D01*
X7650Y2250D02*
X7700D01*
X15350Y2768D02*
Y2818D01*
X15400Y2868D01*
X15350Y2918D02*
X15400Y2868D01*
X15350Y2918D02*
Y2968D01*
X15400D01*
X15450Y2918D01*
X15500Y2968D01*
X15550D01*
Y2918D02*
Y2968D01*
X15500Y2868D02*
X15550Y2918D01*
X15500Y2868D02*
X15550Y2818D01*
Y2768D02*
Y2818D01*
X15500Y2768D02*
X15550D01*
X15450Y2818D02*
X15500Y2768D01*
X15400D02*
X15450Y2818D01*
X15350Y2768D02*
X15400D01*
X14450Y2800D02*
Y2850D01*
X14500Y2900D01*
X14450Y2950D02*
X14500Y2900D01*
X14450Y2950D02*
Y3000D01*
X14500D01*
X14550Y2950D01*
X14600Y3000D01*
X14650D01*
Y2950D02*
Y3000D01*
X14600Y2900D02*
X14650Y2950D01*
X14600Y2900D02*
X14650Y2850D01*
Y2800D02*
Y2850D01*
X14600Y2800D02*
X14650D01*
X14550Y2850D02*
X14600Y2800D01*
X14500D02*
X14550Y2850D01*
X14450Y2800D02*
X14500D01*
X16450Y2650D02*
Y2700D01*
X16500Y2750D01*
X16450Y2800D02*
X16500Y2750D01*
X16450Y2800D02*
Y2850D01*
X16500D01*
X16550Y2800D01*
X16600Y2850D01*
X16650D01*
Y2800D02*
Y2850D01*
X16600Y2750D02*
X16650Y2800D01*
X16600Y2750D02*
X16650Y2700D01*
Y2650D02*
Y2700D01*
X16600Y2650D02*
X16650D01*
X16550Y2700D02*
X16600Y2650D01*
X16500D02*
X16550Y2700D01*
X16450Y2650D02*
X16500D01*
X16450Y2850D02*
Y2900D01*
X16500Y2950D01*
X16450Y3000D02*
X16500Y2950D01*
X16450Y3000D02*
Y3050D01*
X16500D01*
X16550Y3000D01*
X16600Y3050D01*
X16650D01*
Y3000D02*
Y3050D01*
X16600Y2950D02*
X16650Y3000D01*
X16600Y2950D02*
X16650Y2900D01*
Y2850D02*
Y2900D01*
X16600Y2850D02*
X16650D01*
X16550Y2900D02*
X16600Y2850D01*
X16500D02*
X16550Y2900D01*
X16450Y2850D02*
X16500D01*
X15900Y2750D02*
Y2800D01*
X15950Y2850D01*
X15900Y2900D02*
X15950Y2850D01*
X15900Y2900D02*
Y2950D01*
X15950D01*
X16000Y2900D01*
X16050Y2950D01*
X16100D01*
Y2900D02*
Y2950D01*
X16050Y2850D02*
X16100Y2900D01*
X16050Y2850D02*
X16100Y2800D01*
Y2750D02*
Y2800D01*
X16050Y2750D02*
X16100D01*
X16000Y2800D02*
X16050Y2750D01*
X15950D02*
X16000Y2800D01*
X15900Y2750D02*
X15950D01*
X11800Y2212D02*
Y2262D01*
X11850Y2312D01*
X11800Y2362D02*
X11850Y2312D01*
X11800Y2362D02*
Y2412D01*
X11850D01*
X11900Y2362D01*
X11950Y2412D01*
X12000D01*
Y2362D02*
Y2412D01*
X11950Y2312D02*
X12000Y2362D01*
X11950Y2312D02*
X12000Y2262D01*
Y2212D02*
Y2262D01*
X11950Y2212D02*
X12000D01*
X11900Y2262D02*
X11950Y2212D01*
X11850D02*
X11900Y2262D01*
X11800Y2212D02*
X11850D01*
X13900Y450D02*
Y500D01*
X13950Y550D01*
X13900Y600D02*
X13950Y550D01*
X13900Y600D02*
Y650D01*
X13950D01*
X14000Y600D01*
X14050Y650D01*
X14100D01*
Y600D02*
Y650D01*
X14050Y550D02*
X14100Y600D01*
X14050Y550D02*
X14100Y500D01*
Y450D02*
Y500D01*
X14050Y450D02*
X14100D01*
X14000Y500D02*
X14050Y450D01*
X13950D02*
X14000Y500D01*
X13900Y450D02*
X13950D01*
X14650Y-300D02*
Y-250D01*
X14700Y-200D01*
X14650Y-150D02*
X14700Y-200D01*
X14650Y-150D02*
Y-100D01*
X14700D01*
X14750Y-150D01*
X14800Y-100D01*
X14850D01*
Y-150D02*
Y-100D01*
X14800Y-200D02*
X14850Y-150D01*
X14800Y-200D02*
X14850Y-250D01*
Y-300D02*
Y-250D01*
X14800Y-300D02*
X14850D01*
X14750Y-250D02*
X14800Y-300D01*
X14700D02*
X14750Y-250D01*
X14650Y-300D02*
X14700D01*
X13150D02*
Y-250D01*
X13200Y-200D01*
X13150Y-150D02*
X13200Y-200D01*
X13150Y-150D02*
Y-100D01*
X13200D01*
X13250Y-150D01*
X13300Y-100D01*
X13350D01*
Y-150D02*
Y-100D01*
X13300Y-200D02*
X13350Y-150D01*
X13300Y-200D02*
X13350Y-250D01*
Y-300D02*
Y-250D01*
X13300Y-300D02*
X13350D01*
X13250Y-250D02*
X13300Y-300D01*
X13200D02*
X13250Y-250D01*
X13150Y-300D02*
X13200D01*
X14650Y1270D02*
Y1320D01*
X14700Y1370D01*
X14650Y1420D02*
X14700Y1370D01*
X14650Y1420D02*
Y1470D01*
X14700D01*
X14750Y1420D01*
X14800Y1470D01*
X14850D01*
Y1420D02*
Y1470D01*
X14800Y1370D02*
X14850Y1420D01*
X14800Y1370D02*
X14850Y1320D01*
Y1270D02*
Y1320D01*
X14800Y1270D02*
X14850D01*
X14750Y1320D02*
X14800Y1270D01*
X14700D02*
X14750Y1320D01*
X14650Y1270D02*
X14700D01*
X13150Y1250D02*
Y1300D01*
X13200Y1350D01*
X13150Y1400D02*
X13200Y1350D01*
X13150Y1400D02*
Y1450D01*
X13200D01*
X13250Y1400D01*
X13300Y1450D01*
X13350D01*
Y1400D02*
Y1450D01*
X13300Y1350D02*
X13350Y1400D01*
X13300Y1350D02*
X13350Y1300D01*
Y1250D02*
Y1300D01*
X13300Y1250D02*
X13350D01*
X13250Y1300D02*
X13300Y1250D01*
X13200D02*
X13250Y1300D01*
X13150Y1250D02*
X13200D01*
X10050Y-3562D02*
Y-3512D01*
X10100Y-3462D01*
X10050Y-3412D02*
X10100Y-3462D01*
X10050Y-3412D02*
Y-3362D01*
X10100D01*
X10150Y-3412D01*
X10200Y-3362D01*
X10250D01*
Y-3412D02*
Y-3362D01*
X10200Y-3462D02*
X10250Y-3412D01*
X10200Y-3462D02*
X10250Y-3512D01*
Y-3562D02*
Y-3512D01*
X10200Y-3562D02*
X10250D01*
X10150Y-3512D02*
X10200Y-3562D01*
X10100D02*
X10150Y-3512D01*
X10050Y-3562D02*
X10100D01*
X12510Y1913D02*
Y1963D01*
X12560Y2013D01*
X12510Y2063D02*
X12560Y2013D01*
X12510Y2063D02*
Y2113D01*
X12560D01*
X12610Y2063D01*
X12660Y2113D01*
X12710D01*
Y2063D02*
Y2113D01*
X12660Y2013D02*
X12710Y2063D01*
X12660Y2013D02*
X12710Y1963D01*
Y1913D02*
Y1963D01*
X12660Y1913D02*
X12710D01*
X12610Y1963D02*
X12660Y1913D01*
X12560D02*
X12610Y1963D01*
X12510Y1913D02*
X12560D01*
X10400Y2023D02*
Y2073D01*
X10450Y2123D01*
X10400Y2173D02*
X10450Y2123D01*
X10400Y2173D02*
Y2223D01*
X10450D01*
X10500Y2173D01*
X10550Y2223D01*
X10600D01*
Y2173D02*
Y2223D01*
X10550Y2123D02*
X10600Y2173D01*
X10550Y2123D02*
X10600Y2073D01*
Y2023D02*
Y2073D01*
X10550Y2023D02*
X10600D01*
X10500Y2073D02*
X10550Y2023D01*
X10450D02*
X10500Y2073D01*
X10400Y2023D02*
X10450D01*
X4150Y-1429D02*
Y-1379D01*
X4200Y-1329D01*
X4150Y-1279D02*
X4200Y-1329D01*
X4150Y-1279D02*
Y-1229D01*
X4200D01*
X4250Y-1279D01*
X4300Y-1229D01*
X4350D01*
Y-1279D02*
Y-1229D01*
X4300Y-1329D02*
X4350Y-1279D01*
X4300Y-1329D02*
X4350Y-1379D01*
Y-1429D02*
Y-1379D01*
X4300Y-1429D02*
X4350D01*
X4250Y-1379D02*
X4300Y-1429D01*
X4200D02*
X4250Y-1379D01*
X4150Y-1429D02*
X4200D01*
X5423Y2550D02*
Y2600D01*
X5473Y2650D01*
X5423Y2700D02*
X5473Y2650D01*
X5423Y2700D02*
Y2750D01*
X5473D01*
X5523Y2700D01*
X5573Y2750D01*
X5623D01*
Y2700D02*
Y2750D01*
X5573Y2650D02*
X5623Y2700D01*
X5573Y2650D02*
X5623Y2600D01*
Y2550D02*
Y2600D01*
X5573Y2550D02*
X5623D01*
X5523Y2600D02*
X5573Y2550D01*
X5473D02*
X5523Y2600D01*
X5423Y2550D02*
X5473D01*
X3231Y400D02*
Y450D01*
X3281Y500D01*
X3231Y550D02*
X3281Y500D01*
X3231Y550D02*
Y600D01*
X3281D01*
X3331Y550D01*
X3381Y600D01*
X3431D01*
Y550D02*
Y600D01*
X3381Y500D02*
X3431Y550D01*
X3381Y500D02*
X3431Y450D01*
Y400D02*
Y450D01*
X3381Y400D02*
X3431D01*
X3331Y450D02*
X3381Y400D01*
X3281D02*
X3331Y450D01*
X3231Y400D02*
X3281D01*
X6400Y2850D02*
Y2900D01*
X6450Y2950D01*
X6400Y3000D02*
X6450Y2950D01*
X6400Y3000D02*
Y3050D01*
X6450D01*
X6500Y3000D01*
X6550Y3050D01*
X6600D01*
Y3000D02*
Y3050D01*
X6550Y2950D02*
X6600Y3000D01*
X6550Y2950D02*
X6600Y2900D01*
Y2850D02*
Y2900D01*
X6550Y2850D02*
X6600D01*
X6500Y2900D02*
X6550Y2850D01*
X6450D02*
X6500Y2900D01*
X6400Y2850D02*
X6450D01*
X7300D02*
Y2900D01*
X7350Y2950D01*
X7300Y3000D02*
X7350Y2950D01*
X7300Y3000D02*
Y3050D01*
X7350D01*
X7400Y3000D01*
X7450Y3050D01*
X7500D01*
Y3000D02*
Y3050D01*
X7450Y2950D02*
X7500Y3000D01*
X7450Y2950D02*
X7500Y2900D01*
Y2850D02*
Y2900D01*
X7450Y2850D02*
X7500D01*
X7400Y2900D02*
X7450Y2850D01*
X7350D02*
X7400Y2900D01*
X7300Y2850D02*
X7350D01*
X7300Y3250D02*
Y3300D01*
X7350Y3350D01*
X7300Y3400D02*
X7350Y3350D01*
X7300Y3400D02*
Y3450D01*
X7350D01*
X7400Y3400D01*
X7450Y3450D01*
X7500D01*
Y3400D02*
Y3450D01*
X7450Y3350D02*
X7500Y3400D01*
X7450Y3350D02*
X7500Y3300D01*
Y3250D02*
Y3300D01*
X7450Y3250D02*
X7500D01*
X7400Y3300D02*
X7450Y3250D01*
X7350D02*
X7400Y3300D01*
X7300Y3250D02*
X7350D01*
X3750Y-1781D02*
Y-1731D01*
X3800Y-1681D01*
X3750Y-1631D02*
X3800Y-1681D01*
X3750Y-1631D02*
Y-1581D01*
X3800D01*
X3850Y-1631D01*
X3900Y-1581D01*
X3950D01*
Y-1631D02*
Y-1581D01*
X3900Y-1681D02*
X3950Y-1631D01*
X3900Y-1681D02*
X3950Y-1731D01*
Y-1781D02*
Y-1731D01*
X3900Y-1781D02*
X3950D01*
X3850Y-1731D02*
X3900Y-1781D01*
X3800D02*
X3850Y-1731D01*
X3750Y-1781D02*
X3800D01*
X650Y2538D02*
Y2588D01*
X700Y2638D01*
X650Y2688D02*
X700Y2638D01*
X650Y2688D02*
Y2738D01*
X700D01*
X750Y2688D01*
X800Y2738D01*
X850D01*
Y2688D02*
Y2738D01*
X800Y2638D02*
X850Y2688D01*
X800Y2638D02*
X850Y2588D01*
Y2538D02*
Y2588D01*
X800Y2538D02*
X850D01*
X750Y2588D02*
X800Y2538D01*
X700D02*
X750Y2588D01*
X650Y2538D02*
X700D01*
X3107Y2250D02*
Y2300D01*
X3157Y2350D01*
X3107Y2400D02*
X3157Y2350D01*
X3107Y2400D02*
Y2450D01*
X3157D01*
X3207Y2400D01*
X3257Y2450D01*
X3307D01*
Y2400D02*
Y2450D01*
X3257Y2350D02*
X3307Y2400D01*
X3257Y2350D02*
X3307Y2300D01*
Y2250D02*
Y2300D01*
X3257Y2250D02*
X3307D01*
X3207Y2300D02*
X3257Y2250D01*
X3157D02*
X3207Y2300D01*
X3107Y2250D02*
X3157D01*
X2050Y1876D02*
Y1926D01*
X2100Y1976D01*
X2050Y2026D02*
X2100Y1976D01*
X2050Y2026D02*
Y2076D01*
X2100D01*
X2150Y2026D01*
X2200Y2076D01*
X2250D01*
Y2026D02*
Y2076D01*
X2200Y1976D02*
X2250Y2026D01*
X2200Y1976D02*
X2250Y1926D01*
Y1876D02*
Y1926D01*
X2200Y1876D02*
X2250D01*
X2150Y1926D02*
X2200Y1876D01*
X2100D02*
X2150Y1926D01*
X2050Y1876D02*
X2100D01*
X5300Y3522D02*
Y3572D01*
X5350Y3622D01*
X5300Y3672D02*
X5350Y3622D01*
X5300Y3672D02*
Y3722D01*
X5350D01*
X5400Y3672D01*
X5450Y3722D01*
X5500D01*
Y3672D02*
Y3722D01*
X5450Y3622D02*
X5500Y3672D01*
X5450Y3622D02*
X5500Y3572D01*
Y3522D02*
Y3572D01*
X5450Y3522D02*
X5500D01*
X5400Y3572D02*
X5450Y3522D01*
X5350D02*
X5400Y3572D01*
X5300Y3522D02*
X5350D01*
X5400Y3900D02*
Y3950D01*
X5450Y4000D01*
X5400Y4050D02*
X5450Y4000D01*
X5400Y4050D02*
Y4100D01*
X5450D01*
X5500Y4050D01*
X5550Y4100D01*
X5600D01*
Y4050D02*
Y4100D01*
X5550Y4000D02*
X5600Y4050D01*
X5550Y4000D02*
X5600Y3950D01*
Y3900D02*
Y3950D01*
X5550Y3900D02*
X5600D01*
X5500Y3950D02*
X5550Y3900D01*
X5450D02*
X5500Y3950D01*
X5400Y3900D02*
X5450D01*
X5200D02*
Y3950D01*
X5250Y4000D01*
X5200Y4050D02*
X5250Y4000D01*
X5200Y4050D02*
Y4100D01*
X5250D01*
X5300Y4050D01*
X5350Y4100D01*
X5400D01*
Y4050D02*
Y4100D01*
X5350Y4000D02*
X5400Y4050D01*
X5350Y4000D02*
X5400Y3950D01*
Y3900D02*
Y3950D01*
X5350Y3900D02*
X5400D01*
X5300Y3950D02*
X5350Y3900D01*
X5250D02*
X5300Y3950D01*
X5200Y3900D02*
X5250D01*
X3400Y2250D02*
Y2300D01*
X3450Y2350D01*
X3400Y2400D02*
X3450Y2350D01*
X3400Y2400D02*
Y2450D01*
X3450D01*
X3500Y2400D01*
X3550Y2450D01*
X3600D01*
Y2400D02*
Y2450D01*
X3550Y2350D02*
X3600Y2400D01*
X3550Y2350D02*
X3600Y2300D01*
Y2250D02*
Y2300D01*
X3550Y2250D02*
X3600D01*
X3500Y2300D02*
X3550Y2250D01*
X3450D02*
X3500Y2300D01*
X3400Y2250D02*
X3450D01*
X2818D02*
Y2300D01*
X2868Y2350D01*
X2818Y2400D02*
X2868Y2350D01*
X2818Y2400D02*
Y2450D01*
X2868D01*
X2918Y2400D01*
X2968Y2450D01*
X3018D01*
Y2400D02*
Y2450D01*
X2968Y2350D02*
X3018Y2400D01*
X2968Y2350D02*
X3018Y2300D01*
Y2250D02*
Y2300D01*
X2968Y2250D02*
X3018D01*
X2918Y2300D02*
X2968Y2250D01*
X2868D02*
X2918Y2300D01*
X2818Y2250D02*
X2868D01*
X4500Y1450D02*
Y1500D01*
X4550Y1550D01*
X4500Y1600D02*
X4550Y1550D01*
X4500Y1600D02*
Y1650D01*
X4550D01*
X4600Y1600D01*
X4650Y1650D01*
X4700D01*
Y1600D02*
Y1650D01*
X4650Y1550D02*
X4700Y1600D01*
X4650Y1550D02*
X4700Y1500D01*
Y1450D02*
Y1500D01*
X4650Y1450D02*
X4700D01*
X4600Y1500D02*
X4650Y1450D01*
X4550D02*
X4600Y1500D01*
X4500Y1450D02*
X4550D01*
X2750Y2950D02*
Y3000D01*
X2800Y3050D01*
X2750Y3100D02*
X2800Y3050D01*
X2750Y3100D02*
Y3150D01*
X2800D01*
X2850Y3100D01*
X2900Y3150D01*
X2950D01*
Y3100D02*
Y3150D01*
X2900Y3050D02*
X2950Y3100D01*
X2900Y3050D02*
X2950Y3000D01*
Y2950D02*
Y3000D01*
X2900Y2950D02*
X2950D01*
X2850Y3000D02*
X2900Y2950D01*
X2800D02*
X2850Y3000D01*
X2750Y2950D02*
X2800D01*
X4500Y1650D02*
Y1700D01*
X4550Y1750D01*
X4500Y1800D02*
X4550Y1750D01*
X4500Y1800D02*
Y1850D01*
X4550D01*
X4600Y1800D01*
X4650Y1850D01*
X4700D01*
Y1800D02*
Y1850D01*
X4650Y1750D02*
X4700Y1800D01*
X4650Y1750D02*
X4700Y1700D01*
Y1650D02*
Y1700D01*
X4650Y1650D02*
X4700D01*
X4600Y1700D02*
X4650Y1650D01*
X4550D02*
X4600Y1700D01*
X4500Y1650D02*
X4550D01*
X4050Y3000D02*
Y3050D01*
X4100Y3100D01*
X4050Y3150D02*
X4100Y3100D01*
X4050Y3150D02*
Y3200D01*
X4100D01*
X4150Y3150D01*
X4200Y3200D01*
X4250D01*
Y3150D02*
Y3200D01*
X4200Y3100D02*
X4250Y3150D01*
X4200Y3100D02*
X4250Y3050D01*
Y3000D02*
Y3050D01*
X4200Y3000D02*
X4250D01*
X4150Y3050D02*
X4200Y3000D01*
X4100D02*
X4150Y3050D01*
X4050Y3000D02*
X4100D01*
X3850D02*
Y3050D01*
X3900Y3100D01*
X3850Y3150D02*
X3900Y3100D01*
X3850Y3150D02*
Y3200D01*
X3900D01*
X3950Y3150D01*
X4000Y3200D01*
X4050D01*
Y3150D02*
Y3200D01*
X4000Y3100D02*
X4050Y3150D01*
X4000Y3100D02*
X4050Y3050D01*
Y3000D02*
Y3050D01*
X4000Y3000D02*
X4050D01*
X3950Y3050D02*
X4000Y3000D01*
X3900D02*
X3950Y3050D01*
X3850Y3000D02*
X3900D01*
X16900Y2400D02*
Y2450D01*
X16950Y2500D01*
X16900Y2550D02*
X16950Y2500D01*
X16900Y2550D02*
Y2600D01*
X16950D01*
X17000Y2550D01*
X17050Y2600D01*
X17100D01*
Y2550D02*
Y2600D01*
X17050Y2500D02*
X17100Y2550D01*
X17050Y2500D02*
X17100Y2450D01*
Y2400D02*
Y2450D01*
X17050Y2400D02*
X17100D01*
X17000Y2450D02*
X17050Y2400D01*
X16950D02*
X17000Y2450D01*
X16900Y2400D02*
X16950D01*
X16900Y1900D02*
Y1950D01*
X16950Y2000D01*
X16900Y2050D02*
X16950Y2000D01*
X16900Y2050D02*
Y2100D01*
X16950D01*
X17000Y2050D01*
X17050Y2100D01*
X17100D01*
Y2050D02*
Y2100D01*
X17050Y2000D02*
X17100Y2050D01*
X17050Y2000D02*
X17100Y1950D01*
Y1900D02*
Y1950D01*
X17050Y1900D02*
X17100D01*
X17000Y1950D02*
X17050Y1900D01*
X16950D02*
X17000Y1950D01*
X16900Y1900D02*
X16950D01*
X16900Y1400D02*
Y1450D01*
X16950Y1500D01*
X16900Y1550D02*
X16950Y1500D01*
X16900Y1550D02*
Y1600D01*
X16950D01*
X17000Y1550D01*
X17050Y1600D01*
X17100D01*
Y1550D02*
Y1600D01*
X17050Y1500D02*
X17100Y1550D01*
X17050Y1500D02*
X17100Y1450D01*
Y1400D02*
Y1450D01*
X17050Y1400D02*
X17100D01*
X17000Y1450D02*
X17050Y1400D01*
X16950D02*
X17000Y1450D01*
X16900Y1400D02*
X16950D01*
X16900Y900D02*
Y950D01*
X16950Y1000D01*
X16900Y1050D02*
X16950Y1000D01*
X16900Y1050D02*
Y1100D01*
X16950D01*
X17000Y1050D01*
X17050Y1100D01*
X17100D01*
Y1050D02*
Y1100D01*
X17050Y1000D02*
X17100Y1050D01*
X17050Y1000D02*
X17100Y950D01*
Y900D02*
Y950D01*
X17050Y900D02*
X17100D01*
X17000Y950D02*
X17050Y900D01*
X16950D02*
X17000Y950D01*
X16900Y900D02*
X16950D01*
X16900Y400D02*
Y450D01*
X16950Y500D01*
X16900Y550D02*
X16950Y500D01*
X16900Y550D02*
Y600D01*
X16950D01*
X17000Y550D01*
X17050Y600D01*
X17100D01*
Y550D02*
Y600D01*
X17050Y500D02*
X17100Y550D01*
X17050Y500D02*
X17100Y450D01*
Y400D02*
Y450D01*
X17050Y400D02*
X17100D01*
X17000Y450D02*
X17050Y400D01*
X16950D02*
X17000Y450D01*
X16900Y400D02*
X16950D01*
X16900Y-100D02*
Y-50D01*
X16950Y0D01*
X16900Y50D02*
X16950Y0D01*
X16900Y50D02*
Y100D01*
X16950D01*
X17000Y50D01*
X17050Y100D01*
X17100D01*
Y50D02*
Y100D01*
X17050Y0D02*
X17100Y50D01*
X17050Y0D02*
X17100Y-50D01*
Y-100D02*
Y-50D01*
X17050Y-100D02*
X17100D01*
X17000Y-50D02*
X17050Y-100D01*
X16950D02*
X17000Y-50D01*
X16900Y-100D02*
X16950D01*
X16900Y-600D02*
Y-550D01*
X16950Y-500D01*
X16900Y-450D02*
X16950Y-500D01*
X16900Y-450D02*
Y-400D01*
X16950D01*
X17000Y-450D01*
X17050Y-400D01*
X17100D01*
Y-450D02*
Y-400D01*
X17050Y-500D02*
X17100Y-450D01*
X17050Y-500D02*
X17100Y-550D01*
Y-600D02*
Y-550D01*
X17050Y-600D02*
X17100D01*
X17000Y-550D02*
X17050Y-600D01*
X16950D02*
X17000Y-550D01*
X16900Y-600D02*
X16950D01*
X16900Y-1100D02*
Y-1050D01*
X16950Y-1000D01*
X16900Y-950D02*
X16950Y-1000D01*
X16900Y-950D02*
Y-900D01*
X16950D01*
X17000Y-950D01*
X17050Y-900D01*
X17100D01*
Y-950D02*
Y-900D01*
X17050Y-1000D02*
X17100Y-950D01*
X17050Y-1000D02*
X17100Y-1050D01*
Y-1100D02*
Y-1050D01*
X17050Y-1100D02*
X17100D01*
X17000Y-1050D02*
X17050Y-1100D01*
X16950D02*
X17000Y-1050D01*
X16900Y-1100D02*
X16950D01*
X16900Y-1600D02*
Y-1550D01*
X16950Y-1500D01*
X16900Y-1450D02*
X16950Y-1500D01*
X16900Y-1450D02*
Y-1400D01*
X16950D01*
X17000Y-1450D01*
X17050Y-1400D01*
X17100D01*
Y-1450D02*
Y-1400D01*
X17050Y-1500D02*
X17100Y-1450D01*
X17050Y-1500D02*
X17100Y-1550D01*
Y-1600D02*
Y-1550D01*
X17050Y-1600D02*
X17100D01*
X17000Y-1550D02*
X17050Y-1600D01*
X16950D02*
X17000Y-1550D01*
X16900Y-1600D02*
X16950D01*
X16900Y-2100D02*
Y-2050D01*
X16950Y-2000D01*
X16900Y-1950D02*
X16950Y-2000D01*
X16900Y-1950D02*
Y-1900D01*
X16950D01*
X17000Y-1950D01*
X17050Y-1900D01*
X17100D01*
Y-1950D02*
Y-1900D01*
X17050Y-2000D02*
X17100Y-1950D01*
X17050Y-2000D02*
X17100Y-2050D01*
Y-2100D02*
Y-2050D01*
X17050Y-2100D02*
X17100D01*
X17000Y-2050D02*
X17050Y-2100D01*
X16950D02*
X17000Y-2050D01*
X16900Y-2100D02*
X16950D01*
X16900Y-2600D02*
Y-2550D01*
X16950Y-2500D01*
X16900Y-2450D02*
X16950Y-2500D01*
X16900Y-2450D02*
Y-2400D01*
X16950D01*
X17000Y-2450D01*
X17050Y-2400D01*
X17100D01*
Y-2450D02*
Y-2400D01*
X17050Y-2500D02*
X17100Y-2450D01*
X17050Y-2500D02*
X17100Y-2550D01*
Y-2600D02*
Y-2550D01*
X17050Y-2600D02*
X17100D01*
X17000Y-2550D02*
X17050Y-2600D01*
X16950D02*
X17000Y-2550D01*
X16900Y-2600D02*
X16950D01*
X16900Y-3100D02*
Y-3050D01*
X16950Y-3000D01*
X16900Y-2950D02*
X16950Y-3000D01*
X16900Y-2950D02*
Y-2900D01*
X16950D01*
X17000Y-2950D01*
X17050Y-2900D01*
X17100D01*
Y-2950D02*
Y-2900D01*
X17050Y-3000D02*
X17100Y-2950D01*
X17050Y-3000D02*
X17100Y-3050D01*
Y-3100D02*
Y-3050D01*
X17050Y-3100D02*
X17100D01*
X17000Y-3050D02*
X17050Y-3100D01*
X16950D02*
X17000Y-3050D01*
X16900Y-3100D02*
X16950D01*
X16900Y2900D02*
Y2950D01*
X16950Y3000D01*
X16900Y3050D02*
X16950Y3000D01*
X16900Y3050D02*
Y3100D01*
X16950D01*
X17000Y3050D01*
X17050Y3100D01*
X17100D01*
Y3050D02*
Y3100D01*
X17050Y3000D02*
X17100Y3050D01*
X17050Y3000D02*
X17100Y2950D01*
Y2900D02*
Y2950D01*
X17050Y2900D02*
X17100D01*
X17000Y2950D02*
X17050Y2900D01*
X16950D02*
X17000Y2950D01*
X16900Y2900D02*
X16950D01*
X2100Y150D02*
Y200D01*
X2150Y250D01*
X2100Y300D02*
X2150Y250D01*
X2100Y300D02*
Y350D01*
X2150D01*
X2200Y300D01*
X2250Y350D01*
X2300D01*
Y300D02*
Y350D01*
X2250Y250D02*
X2300Y300D01*
X2250Y250D02*
X2300Y200D01*
Y150D02*
Y200D01*
X2250Y150D02*
X2300D01*
X2200Y200D02*
X2250Y150D01*
X2150D02*
X2200Y200D01*
X2100Y150D02*
X2150D01*
X2250Y-218D02*
Y-168D01*
X2300Y-118D01*
X2250Y-68D02*
X2300Y-118D01*
X2250Y-68D02*
Y-18D01*
X2300D01*
X2350Y-68D01*
X2400Y-18D01*
X2450D01*
Y-68D02*
Y-18D01*
X2400Y-118D02*
X2450Y-68D01*
X2400Y-118D02*
X2450Y-168D01*
Y-218D02*
Y-168D01*
X2400Y-218D02*
X2450D01*
X2350Y-168D02*
X2400Y-218D01*
X2300D02*
X2350Y-168D01*
X2250Y-218D02*
X2300D01*
X1250Y412D02*
Y462D01*
X1300Y512D01*
X1250Y562D02*
X1300Y512D01*
X1250Y562D02*
Y612D01*
X1300D01*
X1350Y562D01*
X1400Y612D01*
X1450D01*
Y562D02*
Y612D01*
X1400Y512D02*
X1450Y562D01*
X1400Y512D02*
X1450Y462D01*
Y412D02*
Y462D01*
X1400Y412D02*
X1450D01*
X1350Y462D02*
X1400Y412D01*
X1300D02*
X1350Y462D01*
X1250Y412D02*
X1300D01*
X246Y1600D02*
Y1650D01*
X296Y1700D01*
X246Y1750D02*
X296Y1700D01*
X246Y1750D02*
Y1800D01*
X296D01*
X346Y1750D01*
X396Y1800D01*
X446D01*
Y1750D02*
Y1800D01*
X396Y1700D02*
X446Y1750D01*
X396Y1700D02*
X446Y1650D01*
Y1600D02*
Y1650D01*
X396Y1600D02*
X446D01*
X346Y1650D02*
X396Y1600D01*
X296D02*
X346Y1650D01*
X246Y1600D02*
X296D01*
X2350Y-2004D02*
Y-1954D01*
X2400Y-1904D01*
X2350Y-1854D02*
X2400Y-1904D01*
X2350Y-1854D02*
Y-1804D01*
X2400D01*
X2450Y-1854D01*
X2500Y-1804D01*
X2550D01*
Y-1854D02*
Y-1804D01*
X2500Y-1904D02*
X2550Y-1854D01*
X2500Y-1904D02*
X2550Y-1954D01*
Y-2004D02*
Y-1954D01*
X2500Y-2004D02*
X2550D01*
X2450Y-1954D02*
X2500Y-2004D01*
X2400D02*
X2450Y-1954D01*
X2350Y-2004D02*
X2400D01*
X5856Y-2931D02*
Y-2881D01*
X5906Y-2831D01*
X5856Y-2781D02*
X5906Y-2831D01*
X5856Y-2781D02*
Y-2731D01*
X5906D01*
X5956Y-2781D01*
X6006Y-2731D01*
X6056D01*
Y-2781D02*
Y-2731D01*
X6006Y-2831D02*
X6056Y-2781D01*
X6006Y-2831D02*
X6056Y-2881D01*
Y-2931D02*
Y-2881D01*
X6006Y-2931D02*
X6056D01*
X5956Y-2881D02*
X6006Y-2931D01*
X5906D02*
X5956Y-2881D01*
X5856Y-2931D02*
X5906D01*
X8650Y-3595D02*
Y-3545D01*
X8700Y-3495D01*
X8650Y-3445D02*
X8700Y-3495D01*
X8650Y-3445D02*
Y-3395D01*
X8700D01*
X8750Y-3445D01*
X8800Y-3395D01*
X8850D01*
Y-3445D02*
Y-3395D01*
X8800Y-3495D02*
X8850Y-3445D01*
X8800Y-3495D02*
X8850Y-3545D01*
Y-3595D02*
Y-3545D01*
X8800Y-3595D02*
X8850D01*
X8750Y-3545D02*
X8800Y-3595D01*
X8700D02*
X8750Y-3545D01*
X8650Y-3595D02*
X8700D01*
X2750Y-2004D02*
Y-1954D01*
X2800Y-1904D01*
X2750Y-1854D02*
X2800Y-1904D01*
X2750Y-1854D02*
Y-1804D01*
X2800D01*
X2850Y-1854D01*
X2900Y-1804D01*
X2950D01*
Y-1854D02*
Y-1804D01*
X2900Y-1904D02*
X2950Y-1854D01*
X2900Y-1904D02*
X2950Y-1954D01*
Y-2004D02*
Y-1954D01*
X2900Y-2004D02*
X2950D01*
X2850Y-1954D02*
X2900Y-2004D01*
X2800D02*
X2850Y-1954D01*
X2750Y-2004D02*
X2800D01*
X7752Y3050D02*
Y3100D01*
X7802Y3150D01*
X7752Y3200D02*
X7802Y3150D01*
X7752Y3200D02*
Y3250D01*
X7802D01*
X7852Y3200D01*
X7902Y3250D01*
X7952D01*
Y3200D02*
Y3250D01*
X7902Y3150D02*
X7952Y3200D01*
X7902Y3150D02*
X7952Y3100D01*
Y3050D02*
Y3100D01*
X7902Y3050D02*
X7952D01*
X7852Y3100D02*
X7902Y3050D01*
X7802D02*
X7852Y3100D01*
X7752Y3050D02*
X7802D01*
X8496Y1650D02*
Y1700D01*
X8546Y1750D01*
X8496Y1800D02*
X8546Y1750D01*
X8496Y1800D02*
Y1850D01*
X8546D01*
X8596Y1800D01*
X8646Y1850D01*
X8696D01*
Y1800D02*
Y1850D01*
X8646Y1750D02*
X8696Y1800D01*
X8646Y1750D02*
X8696Y1700D01*
Y1650D02*
Y1700D01*
X8646Y1650D02*
X8696D01*
X8596Y1700D02*
X8646Y1650D01*
X8546D02*
X8596Y1700D01*
X8496Y1650D02*
X8546D01*
X10250Y2631D02*
Y2681D01*
X10300Y2731D01*
X10250Y2781D02*
X10300Y2731D01*
X10250Y2781D02*
Y2831D01*
X10300D01*
X10350Y2781D01*
X10400Y2831D01*
X10450D01*
Y2781D02*
Y2831D01*
X10400Y2731D02*
X10450Y2781D01*
X10400Y2731D02*
X10450Y2681D01*
Y2631D02*
Y2681D01*
X10400Y2631D02*
X10450D01*
X10350Y2681D02*
X10400Y2631D01*
X10300D02*
X10350Y2681D01*
X10250Y2631D02*
X10300D01*
X6550Y-3150D02*
Y-3100D01*
X6600Y-3050D01*
X6550Y-3000D02*
X6600Y-3050D01*
X6550Y-3000D02*
Y-2950D01*
X6600D01*
X6650Y-3000D01*
X6700Y-2950D01*
X6750D01*
Y-3000D02*
Y-2950D01*
X6700Y-3050D02*
X6750Y-3000D01*
X6700Y-3050D02*
X6750Y-3100D01*
Y-3150D02*
Y-3100D01*
X6700Y-3150D02*
X6750D01*
X6650Y-3100D02*
X6700Y-3150D01*
X6600D02*
X6650Y-3100D01*
X6550Y-3150D02*
X6600D01*
X3650Y990D02*
Y1040D01*
X3700Y1090D01*
X3650Y1140D02*
X3700Y1090D01*
X3650Y1140D02*
Y1190D01*
X3700D01*
X3750Y1140D01*
X3800Y1190D01*
X3850D01*
Y1140D02*
Y1190D01*
X3800Y1090D02*
X3850Y1140D01*
X3800Y1090D02*
X3850Y1040D01*
Y990D02*
Y1040D01*
X3800Y990D02*
X3850D01*
X3750Y1040D02*
X3800Y990D01*
X3700D02*
X3750Y1040D01*
X3650Y990D02*
X3700D01*
X4600Y2250D02*
Y2300D01*
X4650Y2350D01*
X4600Y2400D02*
X4650Y2350D01*
X4600Y2400D02*
Y2450D01*
X4650D01*
X4700Y2400D01*
X4750Y2450D01*
X4800D01*
Y2400D02*
Y2450D01*
X4750Y2350D02*
X4800Y2400D01*
X4750Y2350D02*
X4800Y2300D01*
Y2250D02*
Y2300D01*
X4750Y2250D02*
X4800D01*
X4700Y2300D02*
X4750Y2250D01*
X4650D02*
X4700Y2300D01*
X4600Y2250D02*
X4650D01*
X4660Y-1080D02*
Y-1030D01*
X4710Y-980D01*
X4660Y-930D02*
X4710Y-980D01*
X4660Y-930D02*
Y-880D01*
X4710D01*
X4760Y-930D01*
X4810Y-880D01*
X4860D01*
Y-930D02*
Y-880D01*
X4810Y-980D02*
X4860Y-930D01*
X4810Y-980D02*
X4860Y-1030D01*
Y-1080D02*
Y-1030D01*
X4810Y-1080D02*
X4860D01*
X4760Y-1030D02*
X4810Y-1080D01*
X4710D02*
X4760Y-1030D01*
X4660Y-1080D02*
X4710D01*
X7400Y-2700D02*
Y-2650D01*
X7450Y-2600D01*
X7400Y-2550D02*
X7450Y-2600D01*
X7400Y-2550D02*
Y-2500D01*
X7450D01*
X7500Y-2550D01*
X7550Y-2500D01*
X7600D01*
Y-2550D02*
Y-2500D01*
X7550Y-2600D02*
X7600Y-2550D01*
X7550Y-2600D02*
X7600Y-2650D01*
Y-2700D02*
Y-2650D01*
X7550Y-2700D02*
X7600D01*
X7500Y-2650D02*
X7550Y-2700D01*
X7450D02*
X7500Y-2650D01*
X7400Y-2700D02*
X7450D01*
X8600Y-2250D02*
Y-2200D01*
X8650Y-2150D01*
X8600Y-2100D02*
X8650Y-2150D01*
X8600Y-2100D02*
Y-2050D01*
X8650D01*
X8700Y-2100D01*
X8750Y-2050D01*
X8800D01*
Y-2100D02*
Y-2050D01*
X8750Y-2150D02*
X8800Y-2100D01*
X8750Y-2150D02*
X8800Y-2200D01*
Y-2250D02*
Y-2200D01*
X8750Y-2250D02*
X8800D01*
X8700Y-2200D02*
X8750Y-2250D01*
X8650D02*
X8700Y-2200D01*
X8600Y-2250D02*
X8650D01*
X6500Y244D02*
Y294D01*
X6550Y344D01*
X6500Y394D02*
X6550Y344D01*
X6500Y394D02*
Y444D01*
X6550D01*
X6600Y394D01*
X6650Y444D01*
X6700D01*
Y394D02*
Y444D01*
X6650Y344D02*
X6700Y394D01*
X6650Y344D02*
X6700Y294D01*
Y244D02*
Y294D01*
X6650Y244D02*
X6700D01*
X6600Y294D02*
X6650Y244D01*
X6550D02*
X6600Y294D01*
X6500Y244D02*
X6550D01*
X5500Y1850D02*
Y1900D01*
X5550Y1950D01*
X5500Y2000D02*
X5550Y1950D01*
X5500Y2000D02*
Y2050D01*
X5550D01*
X5600Y2000D01*
X5650Y2050D01*
X5700D01*
Y2000D02*
Y2050D01*
X5650Y1950D02*
X5700Y2000D01*
X5650Y1950D02*
X5700Y1900D01*
Y1850D02*
Y1900D01*
X5650Y1850D02*
X5700D01*
X5600Y1900D02*
X5650Y1850D01*
X5550D02*
X5600Y1900D01*
X5500Y1850D02*
X5550D01*
X5600Y-1850D02*
Y-1800D01*
X5650Y-1750D01*
X5600Y-1700D02*
X5650Y-1750D01*
X5600Y-1700D02*
Y-1650D01*
X5650D01*
X5700Y-1700D01*
X5750Y-1650D01*
X5800D01*
Y-1700D02*
Y-1650D01*
X5750Y-1750D02*
X5800Y-1700D01*
X5750Y-1750D02*
X5800Y-1800D01*
Y-1850D02*
Y-1800D01*
X5750Y-1850D02*
X5800D01*
X5700Y-1800D02*
X5750Y-1850D01*
X5650D02*
X5700Y-1800D01*
X5600Y-1850D02*
X5650D01*
X5500Y900D02*
Y950D01*
X5550Y1000D01*
X5500Y1050D02*
X5550Y1000D01*
X5500Y1050D02*
Y1100D01*
X5550D01*
X5600Y1050D01*
X5650Y1100D01*
X5700D01*
Y1050D02*
Y1100D01*
X5650Y1000D02*
X5700Y1050D01*
X5650Y1000D02*
X5700Y950D01*
Y900D02*
Y950D01*
X5650Y900D02*
X5700D01*
X5600Y950D02*
X5650Y900D01*
X5550D02*
X5600Y950D01*
X5500Y900D02*
X5550D01*
Y-300D02*
Y-250D01*
X5600Y-200D01*
X5550Y-150D02*
X5600Y-200D01*
X5550Y-150D02*
Y-100D01*
X5600D01*
X5650Y-150D01*
X5700Y-100D01*
X5750D01*
Y-150D02*
Y-100D01*
X5700Y-200D02*
X5750Y-150D01*
X5700Y-200D02*
X5750Y-250D01*
Y-300D02*
Y-250D01*
X5700Y-300D02*
X5750D01*
X5650Y-250D02*
X5700Y-300D01*
X5600D02*
X5650Y-250D01*
X5550Y-300D02*
X5600D01*
X9450Y-500D02*
Y-450D01*
X9500Y-400D01*
X9450Y-350D02*
X9500Y-400D01*
X9450Y-350D02*
Y-300D01*
X9500D01*
X9550Y-350D01*
X9600Y-300D01*
X9650D01*
Y-350D02*
Y-300D01*
X9600Y-400D02*
X9650Y-350D01*
X9600Y-400D02*
X9650Y-450D01*
Y-500D02*
Y-450D01*
X9600Y-500D02*
X9650D01*
X9550Y-450D02*
X9600Y-500D01*
X9500D02*
X9550Y-450D01*
X9450Y-500D02*
X9500D01*
X7573Y350D02*
Y400D01*
X7623Y450D01*
X7573Y500D02*
X7623Y450D01*
X7573Y500D02*
Y550D01*
X7623D01*
X7673Y500D01*
X7723Y550D01*
X7773D01*
Y500D02*
Y550D01*
X7723Y450D02*
X7773Y500D01*
X7723Y450D02*
X7773Y400D01*
Y350D02*
Y400D01*
X7723Y350D02*
X7773D01*
X7673Y400D02*
X7723Y350D01*
X7623D02*
X7673Y400D01*
X7573Y350D02*
X7623D01*
X9208Y1450D02*
Y1500D01*
X9258Y1550D01*
X9208Y1600D02*
X9258Y1550D01*
X9208Y1600D02*
Y1650D01*
X9258D01*
X9308Y1600D01*
X9358Y1650D01*
X9408D01*
Y1600D02*
Y1650D01*
X9358Y1550D02*
X9408Y1600D01*
X9358Y1550D02*
X9408Y1500D01*
Y1450D02*
Y1500D01*
X9358Y1450D02*
X9408D01*
X9308Y1500D02*
X9358Y1450D01*
X9258D02*
X9308Y1500D01*
X9208Y1450D02*
X9258D01*
X13850Y1932D02*
Y1982D01*
X13900Y2032D01*
X13850Y2082D02*
X13900Y2032D01*
X13850Y2082D02*
Y2132D01*
X13900D01*
X13950Y2082D01*
X14000Y2132D01*
X14050D01*
Y2082D02*
Y2132D01*
X14000Y2032D02*
X14050Y2082D01*
X14000Y2032D02*
X14050Y1982D01*
Y1932D02*
Y1982D01*
X14000Y1932D02*
X14050D01*
X13950Y1982D02*
X14000Y1932D01*
X13900D02*
X13950Y1982D01*
X13850Y1932D02*
X13900D01*
X11650Y1270D02*
Y1320D01*
X11700Y1370D01*
X11650Y1420D02*
X11700Y1370D01*
X11650Y1420D02*
Y1470D01*
X11700D01*
X11750Y1420D01*
X11800Y1470D01*
X11850D01*
Y1420D02*
Y1470D01*
X11800Y1370D02*
X11850Y1420D01*
X11800Y1370D02*
X11850Y1320D01*
Y1270D02*
Y1320D01*
X11800Y1270D02*
X11850D01*
X11750Y1320D02*
X11800Y1270D01*
X11700D02*
X11750Y1320D01*
X11650Y1270D02*
X11700D01*
X11590Y-550D02*
Y-500D01*
X11640Y-450D01*
X11590Y-400D02*
X11640Y-450D01*
X11590Y-400D02*
Y-350D01*
X11640D01*
X11690Y-400D01*
X11740Y-350D01*
X11790D01*
Y-400D02*
Y-350D01*
X11740Y-450D02*
X11790Y-400D01*
X11740Y-450D02*
X11790Y-500D01*
Y-550D02*
Y-500D01*
X11740Y-550D02*
X11790D01*
X11690Y-500D02*
X11740Y-550D01*
X11640D02*
X11690Y-500D01*
X11590Y-550D02*
X11640D01*
X13600Y-2100D02*
Y-2050D01*
X13650Y-2000D01*
X13600Y-1950D02*
X13650Y-2000D01*
X13600Y-1950D02*
Y-1900D01*
X13650D01*
X13700Y-1950D01*
X13750Y-1900D01*
X13800D01*
Y-1950D02*
Y-1900D01*
X13750Y-2000D02*
X13800Y-1950D01*
X13750Y-2000D02*
X13800Y-2050D01*
Y-2100D02*
Y-2050D01*
X13750Y-2100D02*
X13800D01*
X13700Y-2050D02*
X13750Y-2100D01*
X13650D02*
X13700Y-2050D01*
X13600Y-2100D02*
X13650D01*
X13530Y2850D02*
Y2900D01*
X13580Y2950D01*
X13530Y3000D02*
X13580Y2950D01*
X13530Y3000D02*
Y3050D01*
X13580D01*
X13630Y3000D01*
X13680Y3050D01*
X13730D01*
Y3000D02*
Y3050D01*
X13680Y2950D02*
X13730Y3000D01*
X13680Y2950D02*
X13730Y2900D01*
Y2850D02*
Y2900D01*
X13680Y2850D02*
X13730D01*
X13630Y2900D02*
X13680Y2850D01*
X13580D02*
X13630Y2900D01*
X13530Y2850D02*
X13580D01*
X13170D02*
Y2900D01*
X13220Y2950D01*
X13170Y3000D02*
X13220Y2950D01*
X13170Y3000D02*
Y3050D01*
X13220D01*
X13270Y3000D01*
X13320Y3050D01*
X13370D01*
Y3000D02*
Y3050D01*
X13320Y2950D02*
X13370Y3000D01*
X13320Y2950D02*
X13370Y2900D01*
Y2850D02*
Y2900D01*
X13320Y2850D02*
X13370D01*
X13270Y2900D02*
X13320Y2850D01*
X13220D02*
X13270Y2900D01*
X13170Y2850D02*
X13220D01*
X18900Y3700D02*
X18950D01*
X18900D02*
Y3800D01*
X18950D01*
Y3850D01*
X19050D01*
Y3800D02*
Y3850D01*
Y3800D02*
X19100D01*
Y3700D02*
Y3800D01*
X19050Y3700D02*
X19100D01*
X19050Y3650D02*
Y3700D01*
X18950Y3650D02*
X19050D01*
X18950D02*
Y3700D01*
X900Y-3600D02*
X1000Y-3550D01*
X1100Y-3600D01*
X1050Y-3500D02*
X1100Y-3600D01*
X1050Y-3500D02*
X1100Y-3400D01*
X1000Y-3450D02*
X1100Y-3400D01*
X900D02*
X1000Y-3450D01*
X900Y-3400D02*
X950Y-3500D01*
X900Y-3600D02*
X950Y-3500D01*
X900Y3400D02*
X1000Y3450D01*
X1100Y3400D01*
X1050Y3500D02*
X1100Y3400D01*
X1050Y3500D02*
X1100Y3600D01*
X1000Y3550D02*
X1100Y3600D01*
X900D02*
X1000Y3550D01*
X900Y3600D02*
X950Y3500D01*
X900Y3400D02*
X950Y3500D01*
X18900Y-3800D02*
X18950D01*
X18900D02*
Y-3700D01*
X18950D01*
Y-3650D01*
X19050D01*
Y-3700D02*
Y-3650D01*
Y-3700D02*
X19100D01*
Y-3800D02*
Y-3700D01*
X19050Y-3800D02*
X19100D01*
X19050Y-3850D02*
Y-3800D01*
X18950Y-3850D02*
X19050D01*
X18950D02*
Y-3800D01*
X1866Y855D02*
X1966Y1055D01*
X1766D02*
X1966D01*
X1766D02*
X1866Y855D01*
Y-1055D02*
X1966Y-855D01*
X1766D02*
X1966D01*
X1766D02*
X1866Y-1055D01*
X3250Y-2950D02*
X3350Y-3050D01*
X3450Y-2950D01*
X3350Y-2850D02*
X3450Y-2950D01*
X3250D02*
X3350Y-2850D01*
X3250Y-2450D02*
X3350Y-2550D01*
X3450Y-2450D01*
X3350Y-2350D02*
X3450Y-2450D01*
X3250D02*
X3350Y-2350D01*
X3750Y-2950D02*
X3850Y-3050D01*
X3950Y-2950D01*
X3850Y-2850D02*
X3950Y-2950D01*
X3750D02*
X3850Y-2850D01*
X3750Y-2450D02*
X3850Y-2550D01*
X3950Y-2450D01*
X3850Y-2350D02*
X3950Y-2450D01*
X3750D02*
X3850Y-2350D01*
X4250Y-2950D02*
X4350Y-3050D01*
X4450Y-2950D01*
X4350Y-2850D02*
X4450Y-2950D01*
X4250D02*
X4350Y-2850D01*
X4250Y-2450D02*
X4350Y-2550D01*
X4450Y-2450D01*
X4350Y-2350D02*
X4450Y-2450D01*
X4250D02*
X4350Y-2350D01*
X4750Y-2950D02*
X4850Y-3050D01*
X4950Y-2950D01*
X4850Y-2850D02*
X4950Y-2950D01*
X4750D02*
X4850Y-2850D01*
X4750Y-2450D02*
X4850Y-2550D01*
X4950Y-2450D01*
X4850Y-2350D02*
X4950Y-2450D01*
X4750D02*
X4850Y-2350D01*
X5250Y-2950D02*
X5350Y-3050D01*
X5450Y-2950D01*
X5350Y-2850D02*
X5450Y-2950D01*
X5250D02*
X5350Y-2850D01*
X5250Y-2450D02*
X5350Y-2550D01*
X5450Y-2450D01*
X5350Y-2350D02*
X5450Y-2450D01*
X5250D02*
X5350Y-2350D01*
X17400Y-4100D02*
X17600D01*
Y-3900D01*
X17400D02*
X17600D01*
X17400Y-4100D02*
Y-3900D01*
X16400Y-4100D02*
X16600D01*
Y-3900D01*
X16400D02*
X16600D01*
X16400Y-4100D02*
Y-3900D01*
X15400Y-4100D02*
X15600D01*
Y-3900D01*
X15400D02*
X15600D01*
X15400Y-4100D02*
Y-3900D01*
X14400Y-4100D02*
X14600D01*
Y-3900D01*
X14400D02*
X14600D01*
X14400Y-4100D02*
Y-3900D01*
X13400Y-4100D02*
X13600D01*
Y-3900D01*
X13400D02*
X13600D01*
X13400Y-4100D02*
Y-3900D01*
X12400Y-4100D02*
X12600D01*
Y-3900D01*
X12400D02*
X12600D01*
X12400Y-4100D02*
Y-3900D01*
X11400Y-4100D02*
X11600D01*
Y-3900D01*
X11400D02*
X11600D01*
X11400Y-4100D02*
Y-3900D01*
X10400Y-4100D02*
X10600D01*
Y-3900D01*
X10400D02*
X10600D01*
X10400Y-4100D02*
Y-3900D01*
X9400Y-4100D02*
X9600D01*
Y-3900D01*
X9400D02*
X9600D01*
X9400Y-4100D02*
Y-3900D01*
X8400Y-4100D02*
X8600D01*
Y-3900D01*
X8400D02*
X8600D01*
X8400Y-4100D02*
Y-3900D01*
X7400Y-4100D02*
X7600D01*
Y-3900D01*
X7400D02*
X7600D01*
X7400Y-4100D02*
Y-3900D01*
X6400Y-4100D02*
X6600D01*
Y-3900D01*
X6400D02*
X6600D01*
X6400Y-4100D02*
Y-3900D01*
X5400Y-4100D02*
X5600D01*
Y-3900D01*
X5400D02*
X5600D01*
X5400Y-4100D02*
Y-3900D01*
X4400Y-4100D02*
X4600D01*
Y-3900D01*
X4400D02*
X4600D01*
X4400Y-4100D02*
Y-3900D01*
X3400Y-4100D02*
X3600D01*
Y-3900D01*
X3400D02*
X3600D01*
X3400Y-4100D02*
Y-3900D01*
X2400Y-4100D02*
X2600D01*
Y-3900D01*
X2400D02*
X2600D01*
X2400Y-4100D02*
Y-3900D01*
X17400Y3900D02*
X17600D01*
Y4100D01*
X17400D02*
X17600D01*
X17400Y3900D02*
Y4100D01*
X16400Y3900D02*
X16600D01*
Y4100D01*
X16400D02*
X16600D01*
X16400Y3900D02*
Y4100D01*
X15400Y3900D02*
X15600D01*
Y4100D01*
X15400D02*
X15600D01*
X15400Y3900D02*
Y4100D01*
X14400Y3900D02*
X14600D01*
Y4100D01*
X14400D02*
X14600D01*
X14400Y3900D02*
Y4100D01*
X13400Y3900D02*
X13600D01*
Y4100D01*
X13400D02*
X13600D01*
X13400Y3900D02*
Y4100D01*
X12400Y3900D02*
X12600D01*
Y4100D01*
X12400D02*
X12600D01*
X12400Y3900D02*
Y4100D01*
X11400Y3900D02*
X11600D01*
Y4100D01*
X11400D02*
X11600D01*
X11400Y3900D02*
Y4100D01*
X10400Y3900D02*
X10600D01*
Y4100D01*
X10400D02*
X10600D01*
X10400Y3900D02*
Y4100D01*
X9400Y3900D02*
X9600D01*
Y4100D01*
X9400D02*
X9600D01*
X9400Y3900D02*
Y4100D01*
X8400Y3900D02*
X8600D01*
Y4100D01*
X8400D02*
X8600D01*
X8400Y3900D02*
Y4100D01*
X7400Y3900D02*
X7600D01*
Y4100D01*
X7400D02*
X7600D01*
X7400Y3900D02*
Y4100D01*
X6400Y3900D02*
X6600D01*
Y4100D01*
X6400D02*
X6600D01*
X6400Y3900D02*
Y4100D01*
M02*
