G04 Layer_Color=8388736*
%FSLAX24Y24*%
%MOIN*%
G70*
G01*
G75*
%ADD38C,0.0240*%
%ADD60R,0.0277X0.0316*%
%ADD61R,0.0395X0.0178*%
%ADD62R,0.0336X0.0208*%
%ADD63R,0.0395X0.0395*%
%ADD64R,0.0237X0.0454*%
%ADD65R,0.0769X0.0237*%
%ADD66R,0.1064X0.0641*%
%ADD67R,0.0395X0.1143*%
%ADD68C,0.0159*%
%ADD69R,0.0474X0.0434*%
%ADD70R,0.0493X0.0316*%
%ADD71R,0.2049X0.2049*%
%ADD72R,0.0552X0.0434*%
%ADD73R,0.0434X0.0552*%
%ADD74R,0.0380X0.0380*%
%ADD75R,0.0293X0.0332*%
%ADD76R,0.0356X0.0356*%
%ADD77O,0.0572X0.0316*%
%ADD78O,0.0395X0.0178*%
%ADD79O,0.0178X0.0395*%
%ADD80R,0.1135X0.1135*%
%ADD81R,0.0297X0.0297*%
%ADD82R,0.0332X0.0293*%
%ADD83R,0.0380X0.0380*%
%ADD84R,0.0316X0.0277*%
%ADD85R,0.0297X0.0297*%
%ADD86R,0.0655X0.0867*%
%ADD87O,0.0789X0.0513*%
%ADD88C,0.0474*%
%ADD89O,0.0749X0.0552*%
%ADD90O,0.0631X0.0474*%
%ADD91C,0.0013*%
%ADD92C,0.1330*%
G36*
X1485Y-777D02*
X1490Y-778D01*
X1495Y-780D01*
X1500Y-782D01*
X1504Y-785D01*
X1508Y-789D01*
X1512Y-793D01*
X1515Y-797D01*
X1517Y-802D01*
X1519Y-807D01*
X1520Y-812D01*
X1520Y-817D01*
Y-1535D01*
X1520Y-1541D01*
X1519Y-1546D01*
X1517Y-1551D01*
X1515Y-1555D01*
X1512Y-1560D01*
X1508Y-1564D01*
X1504Y-1567D01*
X1500Y-1570D01*
X1495Y-1572D01*
X1490Y-1574D01*
X1485Y-1575D01*
X1480Y-1576D01*
X1204D01*
X1199Y-1575D01*
X1194Y-1574D01*
X1189Y-1572D01*
X1184Y-1570D01*
X1180Y-1567D01*
X1176Y-1564D01*
X1172Y-1560D01*
X1170Y-1555D01*
X1167Y-1551D01*
X1166Y-1546D01*
X1165Y-1541D01*
X1164Y-1535D01*
Y-1369D01*
X397D01*
X396Y-1369D01*
X395Y-1369D01*
X380Y-1368D01*
X379Y-1368D01*
X378Y-1368D01*
X363Y-1366D01*
X362Y-1366D01*
X362Y-1366D01*
X360Y-1366D01*
X357Y-1365D01*
X357Y-1365D01*
X357Y-1365D01*
X350Y-1364D01*
X349Y-1363D01*
X348Y-1363D01*
X341Y-1361D01*
X341Y-1361D01*
X327Y-1356D01*
X326Y-1356D01*
X325Y-1356D01*
X324Y-1355D01*
X322Y-1355D01*
X321Y-1354D01*
X321Y-1354D01*
X306Y-1346D01*
X304Y-1346D01*
X303Y-1345D01*
X289Y-1337D01*
X287Y-1336D01*
X286Y-1334D01*
X273Y-1325D01*
X272Y-1324D01*
X271Y-1323D01*
X259Y-1313D01*
X259Y-1313D01*
X259Y-1313D01*
X257Y-1311D01*
X255Y-1309D01*
X255Y-1309D01*
X255Y-1309D01*
X245Y-1297D01*
X244Y-1296D01*
X243Y-1295D01*
X233Y-1282D01*
X233Y-1282D01*
X233Y-1281D01*
X231Y-1279D01*
X230Y-1277D01*
X230Y-1277D01*
X230Y-1277D01*
X222Y-1263D01*
X222Y-1262D01*
X221Y-1261D01*
X214Y-1246D01*
X214Y-1246D01*
X214Y-1246D01*
X213Y-1244D01*
X212Y-1241D01*
X212Y-1241D01*
X212Y-1241D01*
X207Y-1225D01*
X206Y-1222D01*
X205Y-1220D01*
X203Y-1208D01*
X203Y-1207D01*
X203Y-1206D01*
X201Y-1191D01*
X201Y-1190D01*
X200Y-1188D01*
X200Y-1173D01*
X200Y-1172D01*
X200Y-1171D01*
Y-974D01*
X200Y-973D01*
X200Y-973D01*
X200Y-956D01*
X201Y-953D01*
X201Y-951D01*
X203Y-935D01*
X204Y-933D01*
X204Y-931D01*
X208Y-915D01*
X209Y-913D01*
X210Y-911D01*
X216Y-896D01*
X217Y-894D01*
X218Y-891D01*
X224Y-879D01*
X225Y-878D01*
X225Y-878D01*
X232Y-865D01*
X234Y-863D01*
X235Y-861D01*
X244Y-849D01*
X245Y-848D01*
X245Y-848D01*
X246Y-846D01*
X248Y-845D01*
X248Y-844D01*
X248Y-844D01*
X259Y-834D01*
X259Y-833D01*
X260Y-833D01*
X271Y-823D01*
X271Y-823D01*
X271Y-822D01*
X273Y-821D01*
X275Y-819D01*
X275Y-819D01*
X275Y-819D01*
X287Y-811D01*
X288Y-810D01*
X288Y-810D01*
X302Y-801D01*
X302Y-801D01*
X303Y-801D01*
X305Y-800D01*
X307Y-799D01*
X307Y-799D01*
X307Y-798D01*
X321Y-792D01*
X323Y-792D01*
X324Y-791D01*
X336Y-786D01*
X338Y-786D01*
X339Y-786D01*
X346Y-784D01*
X347Y-783D01*
X348Y-783D01*
X355Y-781D01*
X355Y-781D01*
X356Y-781D01*
X364Y-780D01*
X364Y-780D01*
X364Y-780D01*
X372Y-778D01*
X373Y-778D01*
X373Y-778D01*
X375Y-778D01*
X378Y-777D01*
X378Y-777D01*
X378Y-777D01*
X387Y-777D01*
X388Y-777D01*
X388Y-777D01*
X1480D01*
X1485Y-777D01*
D02*
G37*
G36*
X1485Y1575D02*
X1490Y1574D01*
X1495Y1572D01*
X1500Y1570D01*
X1504Y1567D01*
X1508Y1564D01*
X1512Y1560D01*
X1515Y1555D01*
X1517Y1551D01*
X1519Y1546D01*
X1520Y1541D01*
X1520Y1535D01*
Y817D01*
X1520Y812D01*
X1519Y807D01*
X1517Y802D01*
X1515Y797D01*
X1512Y793D01*
X1508Y789D01*
X1504Y785D01*
X1500Y782D01*
X1495Y780D01*
X1490Y778D01*
X1485Y777D01*
X1480Y777D01*
X388D01*
X388Y777D01*
X387Y777D01*
X378Y777D01*
X378Y777D01*
X378Y777D01*
X375Y778D01*
X373Y778D01*
X373Y778D01*
X372Y778D01*
X364Y780D01*
X364Y780D01*
X364Y780D01*
X356Y781D01*
X355Y781D01*
X355Y781D01*
X348Y783D01*
X347Y783D01*
X346Y784D01*
X339Y786D01*
X338Y786D01*
X336Y786D01*
X324Y791D01*
X323Y792D01*
X321Y792D01*
X307Y798D01*
X307Y799D01*
X307Y799D01*
X305Y800D01*
X303Y801D01*
X302Y801D01*
X302Y801D01*
X288Y810D01*
X288Y810D01*
X287Y811D01*
X275Y819D01*
X275Y819D01*
X275Y819D01*
X273Y821D01*
X271Y822D01*
X271Y823D01*
X271Y823D01*
X260Y833D01*
X259Y833D01*
X259Y834D01*
X248Y844D01*
X248Y844D01*
X248Y845D01*
X246Y846D01*
X245Y848D01*
X245Y848D01*
X244Y849D01*
X235Y861D01*
X234Y863D01*
X232Y865D01*
X225Y878D01*
X225Y878D01*
X224Y879D01*
X218Y891D01*
X217Y894D01*
X216Y896D01*
X210Y911D01*
X209Y913D01*
X208Y915D01*
X204Y931D01*
X204Y933D01*
X203Y935D01*
X201Y951D01*
X201Y953D01*
X200Y956D01*
X200Y973D01*
X200Y973D01*
X200Y974D01*
Y1171D01*
X200Y1172D01*
X200Y1173D01*
X200Y1188D01*
X201Y1190D01*
X201Y1191D01*
X203Y1206D01*
X203Y1207D01*
X203Y1208D01*
X205Y1220D01*
X206Y1222D01*
X207Y1225D01*
X212Y1241D01*
X212Y1241D01*
X212Y1241D01*
X213Y1244D01*
X214Y1246D01*
X214Y1246D01*
X214Y1246D01*
X221Y1261D01*
X222Y1262D01*
X222Y1263D01*
X230Y1277D01*
X230Y1277D01*
X230Y1277D01*
X231Y1279D01*
X233Y1281D01*
X233Y1282D01*
X233Y1282D01*
X243Y1295D01*
X244Y1296D01*
X245Y1297D01*
X255Y1309D01*
X255Y1309D01*
X255Y1309D01*
X257Y1311D01*
X259Y1313D01*
X259Y1313D01*
X259Y1313D01*
X271Y1323D01*
X272Y1324D01*
X273Y1325D01*
X286Y1334D01*
X287Y1336D01*
X289Y1337D01*
X303Y1345D01*
X304Y1346D01*
X306Y1346D01*
X321Y1354D01*
X321Y1354D01*
X322Y1355D01*
X324Y1355D01*
X325Y1356D01*
X326Y1356D01*
X327Y1356D01*
X341Y1361D01*
X341Y1361D01*
X348Y1363D01*
X349Y1363D01*
X350Y1364D01*
X357Y1365D01*
X357Y1365D01*
X357Y1365D01*
X360Y1366D01*
X362Y1366D01*
X362Y1366D01*
X363Y1366D01*
X378Y1368D01*
X379Y1368D01*
X380Y1368D01*
X395Y1369D01*
X396Y1369D01*
X397Y1369D01*
X1164D01*
Y1535D01*
X1165Y1541D01*
X1166Y1546D01*
X1167Y1551D01*
X1170Y1555D01*
X1172Y1560D01*
X1176Y1564D01*
X1180Y1567D01*
X1184Y1570D01*
X1189Y1572D01*
X1194Y1574D01*
X1199Y1575D01*
X1204Y1576D01*
X1480D01*
X1485Y1575D01*
D02*
G37*
D38*
X4611Y3584D02*
G03*
X4611Y3584I-110J0D01*
G01*
Y3562D02*
G03*
X4611Y3562I-110J0D01*
G01*
D60*
X9330Y3570D02*
D03*
X8936D02*
D03*
X7852Y2950D02*
D03*
X8246D02*
D03*
X5956Y-3050D02*
D03*
X6350D02*
D03*
X7852Y2150D02*
D03*
X8246D02*
D03*
X5956Y-3500D02*
D03*
X6350D02*
D03*
X8246Y3350D02*
D03*
X7852D02*
D03*
Y1750D02*
D03*
X8246D02*
D03*
Y2550D02*
D03*
X7852D02*
D03*
D61*
X8483Y-2905D02*
D03*
Y-3102D02*
D03*
Y-3298D02*
D03*
Y-3495D02*
D03*
X9617Y-2905D02*
D03*
Y-3102D02*
D03*
Y-3298D02*
D03*
Y-3495D02*
D03*
D62*
X5750Y3878D02*
D03*
Y3622D02*
D03*
D63*
X400Y-2200D02*
D03*
X991D02*
D03*
D64*
X1180Y1916D02*
D03*
Y2388D02*
D03*
D65*
X1785Y0D02*
D03*
Y256D02*
D03*
Y512D02*
D03*
Y-256D02*
D03*
Y-512D02*
D03*
D66*
X574Y379D02*
D03*
Y-379D02*
D03*
D67*
X4056Y3750D02*
D03*
X3190D02*
D03*
D68*
X4501Y3706D02*
D03*
Y3440D02*
D03*
D69*
X7185Y-1893D02*
D03*
X7815D02*
D03*
X7185Y-3507D02*
D03*
X7815D02*
D03*
D70*
X3500Y2724D02*
D03*
Y1976D02*
D03*
X2457D02*
D03*
Y2350D02*
D03*
Y2724D02*
D03*
D71*
X14015Y591D02*
D03*
D72*
X10153Y-2250D02*
D03*
Y-1750D02*
D03*
Y-1250D02*
D03*
Y-750D02*
D03*
Y-250D02*
D03*
Y250D02*
D03*
Y750D02*
D03*
Y1250D02*
D03*
Y1750D02*
D03*
Y2250D02*
D03*
D73*
X17046Y-3346D02*
D03*
X16546D02*
D03*
X16046D02*
D03*
X15546D02*
D03*
X15046D02*
D03*
X14546D02*
D03*
X14046D02*
D03*
X13546D02*
D03*
X13046D02*
D03*
X12546D02*
D03*
X12046D02*
D03*
X11546D02*
D03*
X11046D02*
D03*
X10546D02*
D03*
Y3346D02*
D03*
X11046D02*
D03*
X11546D02*
D03*
X12046D02*
D03*
X12546D02*
D03*
X13046D02*
D03*
X13546D02*
D03*
X14046D02*
D03*
X14546D02*
D03*
X15046D02*
D03*
X15546D02*
D03*
X16046D02*
D03*
X16546D02*
D03*
X17046D02*
D03*
D74*
X5800Y100D02*
D03*
X6350D02*
D03*
D75*
X3650Y-1681D02*
D03*
Y-1319D02*
D03*
X2300Y3758D02*
D03*
Y3396D02*
D03*
X1978Y2338D02*
D03*
Y1976D02*
D03*
X4900Y2369D02*
D03*
Y2731D02*
D03*
X2850Y-1685D02*
D03*
Y-1323D02*
D03*
X4050Y-1681D02*
D03*
Y-1319D02*
D03*
X5250Y2369D02*
D03*
Y2731D02*
D03*
D76*
X5650Y650D02*
D03*
X6400D02*
D03*
X6030Y1550D02*
D03*
X6020Y-1350D02*
D03*
X5650Y-450D02*
D03*
X6400D02*
D03*
X2730Y-2450D02*
D03*
X1980D02*
D03*
X2350Y-3350D02*
D03*
D77*
X9123Y-800D02*
D03*
Y-300D02*
D03*
Y200D02*
D03*
Y700D02*
D03*
X6977Y-800D02*
D03*
Y-300D02*
D03*
Y200D02*
D03*
Y700D02*
D03*
D78*
X3700Y591D02*
D03*
Y394D02*
D03*
Y197D02*
D03*
Y0D02*
D03*
Y-197D02*
D03*
Y-394D02*
D03*
X5216D02*
D03*
Y-197D02*
D03*
Y0D02*
D03*
Y197D02*
D03*
Y394D02*
D03*
Y591D02*
D03*
D79*
X3966Y-659D02*
D03*
X4163D02*
D03*
X4359D02*
D03*
X4556D02*
D03*
X4753D02*
D03*
X4950D02*
D03*
Y856D02*
D03*
X4753D02*
D03*
X4556D02*
D03*
X4359D02*
D03*
X4163D02*
D03*
X3966D02*
D03*
D80*
X4458Y98D02*
D03*
D81*
X6227Y2050D02*
D03*
X5873D02*
D03*
X8923Y-1750D02*
D03*
X9277D02*
D03*
X9277Y-2150D02*
D03*
X8923D02*
D03*
X7127Y2550D02*
D03*
X6773D02*
D03*
X7127Y3350D02*
D03*
X6773D02*
D03*
X4333Y1400D02*
D03*
X3978D02*
D03*
X3433D02*
D03*
X3078D02*
D03*
X5973Y-2150D02*
D03*
X6327D02*
D03*
X6773Y2950D02*
D03*
X7127D02*
D03*
X6773Y2150D02*
D03*
X7127D02*
D03*
X9297Y2120D02*
D03*
X8943D02*
D03*
X9297Y2810D02*
D03*
X8943D02*
D03*
X9297Y3220D02*
D03*
X8943D02*
D03*
X9297Y2470D02*
D03*
X8943D02*
D03*
X6773Y1750D02*
D03*
X7127D02*
D03*
X5327Y-1193D02*
D03*
X4973D02*
D03*
X9300Y-1288D02*
D03*
X8946D02*
D03*
D82*
X8919Y-2550D02*
D03*
X9281D02*
D03*
X6331Y-2600D02*
D03*
X5969D02*
D03*
X3978Y1800D02*
D03*
X4341D02*
D03*
X5969Y-1750D02*
D03*
X6331D02*
D03*
X9301Y1750D02*
D03*
X8939D02*
D03*
X9301Y1350D02*
D03*
X8939D02*
D03*
D83*
X4478Y2850D02*
D03*
Y2300D02*
D03*
X2704Y3396D02*
D03*
Y3946D02*
D03*
X353Y1960D02*
D03*
Y2510D02*
D03*
X4024Y2850D02*
D03*
Y2300D02*
D03*
D84*
X2550Y300D02*
D03*
Y694D02*
D03*
Y-494D02*
D03*
Y-100D02*
D03*
X750Y2355D02*
D03*
Y1961D02*
D03*
D85*
X1578Y1926D02*
D03*
Y2280D02*
D03*
X3350Y-627D02*
D03*
Y-273D02*
D03*
X2450Y-1327D02*
D03*
Y-1681D02*
D03*
X1500Y-1923D02*
D03*
Y-2277D02*
D03*
X4900Y1373D02*
D03*
Y1727D02*
D03*
X5250Y1373D02*
D03*
Y1727D02*
D03*
X3250Y-1327D02*
D03*
Y-1681D02*
D03*
D86*
X1866Y-1142D02*
D03*
Y1142D02*
D03*
D87*
X6500Y4000D02*
D03*
X7500D02*
D03*
X8500D02*
D03*
X9500D02*
D03*
X10500D02*
D03*
X11500D02*
D03*
X12500D02*
D03*
X13500D02*
D03*
X14500D02*
D03*
X15500D02*
D03*
X16500D02*
D03*
X17500D02*
D03*
X2500Y-4000D02*
D03*
X3500D02*
D03*
X4500D02*
D03*
X5500D02*
D03*
X6500D02*
D03*
X7500D02*
D03*
X8500D02*
D03*
X9500D02*
D03*
X10500D02*
D03*
X11500D02*
D03*
X12500D02*
D03*
X13500D02*
D03*
X14500D02*
D03*
X15500D02*
D03*
X16500D02*
D03*
X17500D02*
D03*
D88*
X5350Y-2450D02*
D03*
Y-2950D02*
D03*
X4850Y-2450D02*
D03*
Y-2950D02*
D03*
X4350Y-2450D02*
D03*
Y-2950D02*
D03*
X3850Y-2450D02*
D03*
Y-2950D02*
D03*
X3350Y-2450D02*
D03*
Y-2950D02*
D03*
D89*
X673Y-1073D02*
D03*
Y1073D02*
D03*
D90*
X1866Y-955D02*
D03*
Y955D02*
D03*
D91*
X19000Y-3750D02*
D03*
Y3750D02*
D03*
D92*
X1000Y3500D02*
D03*
Y-3500D02*
D03*
M02*
