G04 Layer_Color=16711935*
%FSLAX24Y24*%
%MOIN*%
G70*
G01*
G75*
%ADD38C,0.0240*%
%ADD68C,0.0159*%
%ADD75R,0.0293X0.0332*%
%ADD87O,0.0789X0.0513*%
%ADD88C,0.0474*%
%ADD89O,0.0749X0.0552*%
%ADD90O,0.0631X0.0474*%
%ADD91C,0.0013*%
%ADD92C,0.1330*%
%ADD93R,0.0474X0.0474*%
%ADD94R,0.0375X0.0631*%
D38*
X9610Y-2687D02*
G03*
X9610Y-2687I-110J0D01*
G01*
Y-2665D02*
G03*
X9610Y-2665I-110J0D01*
G01*
X14610Y-3496D02*
G03*
X14610Y-3496I-110J0D01*
G01*
Y-3518D02*
G03*
X14610Y-3518I-110J0D01*
G01*
X15610Y-3496D02*
G03*
X15610Y-3496I-110J0D01*
G01*
Y-3518D02*
G03*
X15610Y-3518I-110J0D01*
G01*
X16610Y-3496D02*
G03*
X16610Y-3496I-110J0D01*
G01*
Y-3518D02*
G03*
X16610Y-3518I-110J0D01*
G01*
X1321Y-2169D02*
G03*
X1321Y-2169I-110J0D01*
G01*
X1299D02*
G03*
X1299Y-2169I-110J0D01*
G01*
X13610Y-3496D02*
G03*
X13610Y-3496I-110J0D01*
G01*
Y-3518D02*
G03*
X13610Y-3518I-110J0D01*
G01*
D68*
X9500Y-2809D02*
D03*
Y-2543D02*
D03*
X14500Y-3374D02*
D03*
Y-3640D02*
D03*
X15500Y-3374D02*
D03*
Y-3640D02*
D03*
X16500Y-3374D02*
D03*
Y-3640D02*
D03*
X1333Y-2169D02*
D03*
X1067D02*
D03*
X13500Y-3374D02*
D03*
Y-3640D02*
D03*
D75*
X13930Y2661D02*
D03*
Y2299D02*
D03*
X12610Y2661D02*
D03*
Y2299D02*
D03*
D87*
X6500Y4000D02*
D03*
X7500D02*
D03*
X8500D02*
D03*
X9500D02*
D03*
X10500D02*
D03*
X11500D02*
D03*
X12500D02*
D03*
X13500D02*
D03*
X14500D02*
D03*
X15500D02*
D03*
X16500D02*
D03*
X17500D02*
D03*
X2500Y-4000D02*
D03*
X3500D02*
D03*
X4500D02*
D03*
X5500D02*
D03*
X6500D02*
D03*
X7500D02*
D03*
X8500D02*
D03*
X9500D02*
D03*
X10500D02*
D03*
X11500D02*
D03*
X12500D02*
D03*
X13500D02*
D03*
X14500D02*
D03*
X15500D02*
D03*
X16500D02*
D03*
X17500D02*
D03*
D88*
X5350Y-2450D02*
D03*
Y-2950D02*
D03*
X4850Y-2450D02*
D03*
Y-2950D02*
D03*
X4350Y-2450D02*
D03*
Y-2950D02*
D03*
X3850Y-2450D02*
D03*
Y-2950D02*
D03*
X3350Y-2450D02*
D03*
Y-2950D02*
D03*
D89*
X673Y-1073D02*
D03*
Y1073D02*
D03*
D90*
X1866Y-955D02*
D03*
Y955D02*
D03*
D91*
X19000Y-3750D02*
D03*
Y3750D02*
D03*
D92*
X1000Y3500D02*
D03*
Y-3500D02*
D03*
D93*
X10080Y-2710D02*
D03*
X16450Y-2580D02*
D03*
X8100Y2400D02*
D03*
X10000D02*
D03*
X13150Y-2580D02*
D03*
X16500Y2380D02*
D03*
X14950Y-2580D02*
D03*
X15700D02*
D03*
X15200Y2380D02*
D03*
X9050Y2400D02*
D03*
X15850Y2380D02*
D03*
X14550D02*
D03*
X14100Y-2580D02*
D03*
D94*
X12983Y2500D02*
D03*
X13554D02*
D03*
M02*
