M48
;Layer_Color=9474304
;FILE_FORMAT=2:4
INCH,TZ
;TYPE=PLATED
T1F00S00C0.0100
T3F00S00C0.0276
T5F00S00C0.0354
T6F00S00C0.1000
;TYPE=NON_PLATED
T7F00S00C0.0800
%
T01
X8750Y-3495
X8850Y-2788
X8700Y-2150
X8300Y-1930
X8827Y-1495
X9548Y-1355
X9564Y-1698
X10500Y-1570
X10750Y-2461
X10950Y-2276
X10962Y-2849
X11510Y-3000
X11760Y-2960
X12063Y-2950
X12060Y-2650
X12522Y-2456
X12850Y-2079
X13700Y-2000
X13568Y-2820
X14520Y-2276
X15046Y-3000
X15468Y-2950
X16500Y-2954
X17000Y-3000
Y-2500
Y-2000
Y-1500
Y-1000
Y-500
Y0
Y500
Y1000
X14750Y-200
X13250
X14000Y550
X11510Y450
X11690Y-450
X12063Y1220
X8642Y652
X7673Y450
X9550Y-400
X10237Y-3229
X10150Y-3462
X9979Y-3780
X7500Y-2600
X6650Y-3050
X5956Y-2831
X5700Y-1750
X5650Y-200
X5900Y416
X6000Y1037
X5600Y1000
X6600Y344
X7465Y-748
X4760Y-980
X4250Y-1329
X3850Y-1681
X2850Y-1904
X2450
X2150Y-2169
X1981Y-2777
X700Y-2420
X1350Y512
X2200Y250
X2350Y-118
X3331Y500
X3750Y1090
X4600Y1550
Y1750
X4700Y2350
X5523Y2650
Y2881
X5400Y3622
X5300Y4000
X5500
X6500Y2950
X7400
Y3350
X7412Y2350
X5600Y1950
Y1706
X3500Y2350
X3207
X2918
X2850Y3050
X2650
X3950Y3100
X4150
X2323Y4113
X2150Y1976
X750Y2638
X346Y1700
X7750Y2350
X7852Y3150
X8700Y3301
Y2921
X8500Y2550
X8684Y2150
X8596Y1750
X9308Y1550
X9633Y2139
X10500Y2123
X10350Y2731
X11050Y2750
X11758Y2920
X12240Y2750
X11900Y2312
X12610Y2013
X12932Y2950
X13270
X13630
X14550Y2900
X15450Y2868
X16000Y2850
X16550Y2950
Y2750
X17000Y3000
Y2500
Y2000
Y1500
X16546Y1838
X14750Y1370
X13950Y2032
X13250Y1350
X11750Y1370
X12000Y3770
X13900Y3683
X9557Y3594
X9633Y3250
X8500Y3594
T03
X3350Y-2950
X3850
X4350
X4850
X5350
Y-2450
X4850
X4350
X3850
X3350
T05
X8500Y-4000
X9500
X10500
X11500
X12500
X13500
X14500
X15500
X16500
X17500
X7500
X6500
X5500
X4500
X3500
X2500
X6500Y4000
X7500
X8500
X9500
X10500
X11500
X12500
X13500
X14500
X15500
X16500
X17500
T06
X1000Y-3500
Y3500
T07
X19000Y-3750
Y3750
M30
