G04 Layer_Color=16711935*
%FSLAX24Y24*%
%MOIN*%
G70*
G01*
G75*
%ADD10C,0.0060*%
%ADD40C,0.0100*%
%ADD54C,0.0039*%
%ADD98C,0.0150*%
%ADD99C,0.0010*%
%ADD100C,0.0090*%
G36*
X204Y-2153D02*
X189D01*
Y-2079D01*
X150D01*
Y-2149D01*
X136D01*
Y-2079D01*
X93D01*
Y-2156D01*
X78D01*
Y-2063D01*
X204D01*
Y-2153D01*
D02*
G37*
G36*
Y-1943D02*
Y-1943D01*
Y-1944D01*
Y-1945D01*
X204Y-1945D01*
Y-1947D01*
X203Y-1948D01*
X203Y-1950D01*
X203Y-1951D01*
X203Y-1955D01*
X202Y-1959D01*
X201Y-1963D01*
X200Y-1964D01*
X200Y-1966D01*
Y-1966D01*
X200Y-1967D01*
X199Y-1967D01*
X199Y-1968D01*
X199Y-1968D01*
X198Y-1969D01*
X197Y-1971D01*
X195Y-1973D01*
X193Y-1976D01*
X191Y-1978D01*
X188Y-1980D01*
X188Y-1980D01*
X188Y-1980D01*
X187Y-1980D01*
X187Y-1981D01*
X186Y-1981D01*
X185Y-1981D01*
X184Y-1982D01*
X183Y-1982D01*
X181Y-1983D01*
X178Y-1984D01*
X175Y-1985D01*
X173Y-1985D01*
X171Y-1985D01*
X171D01*
X170Y-1985D01*
X169D01*
X169Y-1985D01*
X168Y-1984D01*
X167Y-1984D01*
X164Y-1984D01*
X162Y-1983D01*
X159Y-1982D01*
X158Y-1981D01*
X156Y-1980D01*
X156D01*
X156Y-1980D01*
X156Y-1980D01*
X155Y-1980D01*
X155Y-1979D01*
X154Y-1979D01*
X153Y-1978D01*
X152Y-1977D01*
X151Y-1976D01*
X150Y-1975D01*
X149Y-1974D01*
X149Y-1973D01*
X148Y-1972D01*
X147Y-1970D01*
X146Y-1969D01*
X145Y-1967D01*
Y-1967D01*
X145Y-1968D01*
X145Y-1968D01*
X144Y-1969D01*
X144Y-1970D01*
X143Y-1971D01*
X143Y-1972D01*
X142Y-1974D01*
X141Y-1976D01*
X140Y-1978D01*
X139Y-1979D01*
X138Y-1981D01*
X136Y-1982D01*
X135Y-1983D01*
X134Y-1985D01*
X133Y-1985D01*
X133Y-1985D01*
X133Y-1985D01*
X132Y-1986D01*
X131Y-1986D01*
X130Y-1987D01*
X129Y-1987D01*
X128Y-1988D01*
X127Y-1988D01*
X125Y-1989D01*
X124Y-1989D01*
X122Y-1990D01*
X120Y-1990D01*
X119Y-1991D01*
X117Y-1991D01*
X115Y-1991D01*
X114D01*
X113Y-1991D01*
X112D01*
X111Y-1991D01*
X110Y-1991D01*
X109Y-1990D01*
X107Y-1990D01*
X104Y-1989D01*
X101Y-1988D01*
X98Y-1987D01*
X98D01*
X98Y-1987D01*
X97Y-1987D01*
X97Y-1986D01*
X96Y-1986D01*
X96Y-1986D01*
X94Y-1985D01*
X92Y-1983D01*
X90Y-1982D01*
X88Y-1980D01*
X87Y-1978D01*
Y-1978D01*
X86Y-1978D01*
X86Y-1977D01*
X86Y-1977D01*
X86Y-1976D01*
X85Y-1976D01*
X85Y-1975D01*
X84Y-1974D01*
X83Y-1972D01*
X82Y-1970D01*
X81Y-1967D01*
X80Y-1964D01*
Y-1964D01*
X80Y-1964D01*
X80Y-1963D01*
X80Y-1963D01*
X80Y-1962D01*
X80Y-1961D01*
X79Y-1960D01*
X79Y-1959D01*
X79Y-1957D01*
X79Y-1956D01*
X79Y-1954D01*
X79Y-1952D01*
X78Y-1950D01*
X78Y-1948D01*
X78Y-1944D01*
Y-1896D01*
X204D01*
Y-1943D01*
D02*
G37*
G36*
X126Y-2172D02*
X127D01*
X128Y-2172D01*
X130Y-2172D01*
X132Y-2172D01*
X134Y-2172D01*
X136Y-2173D01*
X140Y-2174D01*
X144Y-2175D01*
X146Y-2175D01*
X148Y-2176D01*
X148Y-2176D01*
X149Y-2176D01*
X149Y-2177D01*
X150Y-2177D01*
X151Y-2177D01*
X152Y-2178D01*
X153Y-2179D01*
X155Y-2179D01*
X156Y-2180D01*
X157Y-2181D01*
X159Y-2183D01*
X160Y-2184D01*
X161Y-2185D01*
X163Y-2186D01*
X164Y-2188D01*
X165Y-2190D01*
X165Y-2190D01*
X166Y-2190D01*
X166Y-2191D01*
X166Y-2191D01*
X167Y-2192D01*
X167Y-2193D01*
X168Y-2194D01*
X168Y-2196D01*
X169Y-2197D01*
X169Y-2199D01*
X170Y-2200D01*
X170Y-2202D01*
X171Y-2204D01*
X171Y-2206D01*
X171Y-2208D01*
X171Y-2210D01*
Y-2210D01*
Y-2210D01*
Y-2211D01*
Y-2211D01*
X171Y-2212D01*
X171Y-2213D01*
X171Y-2214D01*
X171Y-2215D01*
X170Y-2217D01*
X170Y-2220D01*
X169Y-2222D01*
X168Y-2224D01*
Y-2225D01*
X168Y-2225D01*
X167Y-2225D01*
X167Y-2226D01*
X166Y-2227D01*
X165Y-2228D01*
X164Y-2230D01*
X162Y-2232D01*
X161Y-2233D01*
X159Y-2235D01*
X204D01*
Y-2250D01*
X78D01*
Y-2236D01*
X90D01*
X90Y-2236D01*
X89Y-2236D01*
X88Y-2235D01*
X88Y-2234D01*
X87Y-2234D01*
X85Y-2232D01*
X84Y-2231D01*
X83Y-2230D01*
X82Y-2228D01*
X81Y-2226D01*
X79Y-2224D01*
X78Y-2222D01*
X77Y-2219D01*
X77Y-2217D01*
X76Y-2214D01*
X76Y-2211D01*
Y-2211D01*
Y-2210D01*
Y-2210D01*
X76Y-2209D01*
X76Y-2208D01*
X77Y-2207D01*
X77Y-2205D01*
X77Y-2204D01*
X77Y-2203D01*
X78Y-2201D01*
X78Y-2199D01*
X79Y-2198D01*
X79Y-2196D01*
X80Y-2194D01*
X81Y-2192D01*
X82Y-2191D01*
X82Y-2191D01*
X82Y-2190D01*
X83Y-2190D01*
X83Y-2189D01*
X84Y-2188D01*
X85Y-2188D01*
X86Y-2187D01*
X87Y-2185D01*
X88Y-2184D01*
X89Y-2183D01*
X90Y-2182D01*
X92Y-2181D01*
X93Y-2180D01*
X95Y-2179D01*
X97Y-2178D01*
X99Y-2177D01*
X99Y-2176D01*
X99Y-2176D01*
X100Y-2176D01*
X101Y-2176D01*
X102Y-2175D01*
X103Y-2175D01*
X104Y-2175D01*
X106Y-2174D01*
X108Y-2174D01*
X110Y-2173D01*
X112Y-2173D01*
X114Y-2172D01*
X116Y-2172D01*
X118Y-2172D01*
X121Y-2172D01*
X124Y-2172D01*
X125D01*
X126Y-2172D01*
D02*
G37*
G36*
X125Y-2367D02*
X127Y-2367D01*
X129Y-2367D01*
X131Y-2367D01*
X133Y-2368D01*
X136Y-2368D01*
X139Y-2369D01*
X142Y-2370D01*
X145Y-2371D01*
X148Y-2372D01*
X150Y-2373D01*
X153Y-2375D01*
X156Y-2377D01*
X158Y-2379D01*
X159Y-2379D01*
X159Y-2379D01*
X160Y-2380D01*
X160Y-2381D01*
X161Y-2382D01*
X163Y-2383D01*
X164Y-2385D01*
X165Y-2387D01*
X166Y-2389D01*
X167Y-2391D01*
X168Y-2394D01*
X169Y-2397D01*
X170Y-2399D01*
X171Y-2402D01*
X171Y-2406D01*
X171Y-2409D01*
Y-2409D01*
Y-2409D01*
Y-2410D01*
X171Y-2411D01*
X171Y-2412D01*
X171Y-2414D01*
X171Y-2416D01*
X170Y-2418D01*
X170Y-2420D01*
X169Y-2422D01*
X168Y-2424D01*
X167Y-2427D01*
X166Y-2429D01*
X165Y-2432D01*
X163Y-2434D01*
X161Y-2437D01*
X159Y-2439D01*
X159Y-2439D01*
X158Y-2439D01*
X157Y-2440D01*
X157Y-2441D01*
X155Y-2442D01*
X154Y-2443D01*
X152Y-2444D01*
X150Y-2445D01*
X147Y-2446D01*
X145Y-2447D01*
X142Y-2448D01*
X139Y-2449D01*
X135Y-2450D01*
X132Y-2450D01*
X128Y-2450D01*
X124Y-2451D01*
X122D01*
X121Y-2450D01*
X120D01*
Y-2383D01*
X120D01*
X119Y-2383D01*
X118D01*
X117Y-2383D01*
X116Y-2383D01*
X115Y-2383D01*
X113Y-2384D01*
X111Y-2384D01*
X109Y-2384D01*
X108Y-2385D01*
X106Y-2386D01*
X104Y-2387D01*
X102Y-2388D01*
X100Y-2389D01*
X98Y-2390D01*
X97Y-2391D01*
X97Y-2391D01*
X97Y-2391D01*
X96Y-2392D01*
X96Y-2392D01*
X95Y-2393D01*
X94Y-2394D01*
X94Y-2395D01*
X93Y-2396D01*
X92Y-2398D01*
X91Y-2399D01*
X91Y-2401D01*
X90Y-2402D01*
X90Y-2404D01*
X89Y-2406D01*
X89Y-2408D01*
X89Y-2410D01*
Y-2410D01*
Y-2410D01*
Y-2411D01*
X89Y-2412D01*
Y-2412D01*
X89Y-2413D01*
X89Y-2414D01*
X89Y-2415D01*
X90Y-2417D01*
X91Y-2420D01*
X92Y-2422D01*
X92Y-2423D01*
X93Y-2425D01*
X93Y-2425D01*
X93Y-2425D01*
X94Y-2425D01*
X94Y-2426D01*
X95Y-2426D01*
X95Y-2427D01*
X96Y-2427D01*
X97Y-2428D01*
X98Y-2429D01*
X99Y-2430D01*
X100Y-2430D01*
X101Y-2431D01*
X103Y-2432D01*
X104Y-2433D01*
X106Y-2433D01*
X108Y-2434D01*
X106Y-2450D01*
X105D01*
X105Y-2450D01*
X104Y-2450D01*
X103Y-2449D01*
X102Y-2449D01*
X101Y-2448D01*
X99Y-2448D01*
X98Y-2447D01*
X96Y-2446D01*
X94Y-2445D01*
X92Y-2444D01*
X91Y-2443D01*
X89Y-2441D01*
X87Y-2440D01*
X85Y-2438D01*
X84Y-2436D01*
X84Y-2436D01*
X84Y-2436D01*
X83Y-2435D01*
X83Y-2434D01*
X82Y-2433D01*
X81Y-2432D01*
X81Y-2431D01*
X80Y-2429D01*
X79Y-2427D01*
X79Y-2425D01*
X78Y-2423D01*
X77Y-2421D01*
X77Y-2418D01*
X77Y-2416D01*
X76Y-2413D01*
X76Y-2410D01*
Y-2410D01*
Y-2410D01*
Y-2410D01*
Y-2409D01*
X76Y-2408D01*
X76Y-2407D01*
X77Y-2405D01*
X77Y-2403D01*
X77Y-2401D01*
X78Y-2399D01*
X78Y-2396D01*
X79Y-2394D01*
X80Y-2391D01*
X81Y-2388D01*
X83Y-2386D01*
X84Y-2383D01*
X86Y-2381D01*
X88Y-2378D01*
X89Y-2378D01*
X89Y-2378D01*
X90Y-2377D01*
X91Y-2377D01*
X92Y-2376D01*
X93Y-2375D01*
X95Y-2374D01*
X97Y-2373D01*
X100Y-2372D01*
X102Y-2370D01*
X105Y-2369D01*
X108Y-2369D01*
X111Y-2368D01*
X115Y-2367D01*
X119Y-2367D01*
X123Y-2367D01*
X124D01*
X125Y-2367D01*
D02*
G37*
G36*
X126Y-2269D02*
X128D01*
X129Y-2269D01*
X130Y-2269D01*
X132Y-2269D01*
X134Y-2269D01*
X136Y-2270D01*
X140Y-2271D01*
X144Y-2272D01*
X146Y-2272D01*
X148Y-2273D01*
X148Y-2273D01*
X149Y-2273D01*
X149Y-2274D01*
X150Y-2274D01*
X151Y-2275D01*
X152Y-2275D01*
X153Y-2276D01*
X154Y-2277D01*
X156Y-2278D01*
X157Y-2279D01*
X159Y-2280D01*
X160Y-2281D01*
X161Y-2282D01*
X163Y-2284D01*
X164Y-2285D01*
X165Y-2287D01*
X165Y-2287D01*
X165Y-2287D01*
X166Y-2288D01*
X166Y-2289D01*
X167Y-2289D01*
X167Y-2290D01*
X168Y-2292D01*
X168Y-2293D01*
X169Y-2294D01*
X169Y-2296D01*
X170Y-2298D01*
X170Y-2300D01*
X171Y-2302D01*
X171Y-2304D01*
X171Y-2306D01*
X171Y-2308D01*
Y-2308D01*
Y-2309D01*
X171Y-2310D01*
X171Y-2311D01*
X171Y-2312D01*
X170Y-2314D01*
X170Y-2315D01*
X170Y-2317D01*
X169Y-2319D01*
X168Y-2322D01*
X167Y-2324D01*
X166Y-2326D01*
X164Y-2328D01*
X163Y-2330D01*
X160Y-2332D01*
X158Y-2334D01*
X169D01*
Y-2349D01*
X89D01*
X87Y-2349D01*
X85D01*
X83Y-2348D01*
X81Y-2348D01*
X79Y-2348D01*
X77Y-2348D01*
X74Y-2348D01*
X69Y-2347D01*
X67Y-2346D01*
X65Y-2346D01*
X62Y-2345D01*
X61Y-2344D01*
X61D01*
X60Y-2344D01*
X60Y-2344D01*
X59Y-2343D01*
X58Y-2343D01*
X58Y-2342D01*
X57Y-2342D01*
X56Y-2341D01*
X55Y-2340D01*
X53Y-2339D01*
X52Y-2338D01*
X51Y-2337D01*
X50Y-2335D01*
X49Y-2334D01*
X48Y-2332D01*
X47Y-2331D01*
X47Y-2331D01*
X46Y-2330D01*
X46Y-2330D01*
X46Y-2329D01*
X45Y-2328D01*
X45Y-2327D01*
X45Y-2326D01*
X44Y-2324D01*
X44Y-2323D01*
X43Y-2321D01*
X43Y-2319D01*
X42Y-2317D01*
X42Y-2315D01*
X42Y-2313D01*
X42Y-2310D01*
X41Y-2308D01*
Y-2307D01*
Y-2307D01*
X42Y-2306D01*
Y-2305D01*
X42Y-2303D01*
X42Y-2302D01*
X42Y-2300D01*
X42Y-2298D01*
X43Y-2296D01*
X43Y-2294D01*
X44Y-2292D01*
X45Y-2290D01*
X45Y-2287D01*
X46Y-2285D01*
X47Y-2283D01*
X49Y-2281D01*
X49Y-2281D01*
X49Y-2281D01*
X50Y-2280D01*
X50Y-2280D01*
X51Y-2279D01*
X52Y-2278D01*
X53Y-2277D01*
X54Y-2276D01*
X56Y-2275D01*
X57Y-2275D01*
X59Y-2274D01*
X61Y-2273D01*
X63Y-2272D01*
X66Y-2272D01*
X68Y-2272D01*
X71Y-2272D01*
X69Y-2287D01*
X68D01*
X68Y-2287D01*
X68D01*
X67Y-2287D01*
X66Y-2287D01*
X65Y-2288D01*
X63Y-2288D01*
X61Y-2289D01*
X60Y-2290D01*
X58Y-2292D01*
Y-2292D01*
X58Y-2292D01*
X58Y-2292D01*
X58Y-2293D01*
X57Y-2293D01*
X57Y-2294D01*
X57Y-2295D01*
X56Y-2296D01*
X56Y-2297D01*
X56Y-2298D01*
X55Y-2300D01*
X55Y-2301D01*
X55Y-2302D01*
X54Y-2304D01*
X54Y-2306D01*
X54Y-2308D01*
Y-2308D01*
Y-2308D01*
Y-2309D01*
X54Y-2309D01*
Y-2310D01*
X54Y-2311D01*
X55Y-2312D01*
X55Y-2314D01*
X55Y-2316D01*
X56Y-2319D01*
X57Y-2322D01*
X58Y-2323D01*
X58Y-2324D01*
X59Y-2324D01*
X59Y-2324D01*
X59Y-2325D01*
X59Y-2325D01*
X60Y-2326D01*
X62Y-2327D01*
X63Y-2329D01*
X65Y-2330D01*
X68Y-2331D01*
X71Y-2332D01*
X71D01*
X71Y-2332D01*
X71D01*
X72Y-2332D01*
X72Y-2332D01*
X73Y-2332D01*
X74Y-2332D01*
X75Y-2333D01*
X76Y-2333D01*
X77Y-2333D01*
X79Y-2333D01*
X81Y-2333D01*
X83D01*
X85Y-2333D01*
X90D01*
X90Y-2333D01*
X90Y-2333D01*
X89Y-2332D01*
X88Y-2331D01*
X87Y-2330D01*
X86Y-2329D01*
X85Y-2328D01*
X84Y-2326D01*
X83Y-2324D01*
X82Y-2322D01*
X81Y-2320D01*
X80Y-2318D01*
X79Y-2316D01*
X79Y-2313D01*
X78Y-2311D01*
X78Y-2308D01*
Y-2308D01*
Y-2307D01*
X78Y-2306D01*
X78Y-2305D01*
X79Y-2303D01*
X79Y-2301D01*
X79Y-2299D01*
X80Y-2297D01*
X81Y-2295D01*
X82Y-2293D01*
X83Y-2290D01*
X84Y-2288D01*
X86Y-2285D01*
X87Y-2283D01*
X89Y-2281D01*
X92Y-2279D01*
X92Y-2279D01*
X92Y-2278D01*
X93Y-2278D01*
X94Y-2277D01*
X96Y-2276D01*
X97Y-2276D01*
X99Y-2275D01*
X101Y-2274D01*
X103Y-2273D01*
X106Y-2272D01*
X108Y-2271D01*
X111Y-2270D01*
X114Y-2270D01*
X117Y-2269D01*
X121Y-2269D01*
X124Y-2269D01*
X125D01*
X126Y-2269D01*
D02*
G37*
G36*
X144Y-1766D02*
X145D01*
X147Y-1766D01*
X149Y-1766D01*
X151Y-1766D01*
X154Y-1767D01*
X156Y-1767D01*
X159Y-1767D01*
X162Y-1768D01*
X165Y-1769D01*
X168Y-1770D01*
X170Y-1771D01*
X173Y-1772D01*
X176Y-1773D01*
X176Y-1773D01*
X177Y-1773D01*
X178Y-1774D01*
X179Y-1775D01*
X180Y-1775D01*
X181Y-1776D01*
X183Y-1777D01*
X184Y-1778D01*
X186Y-1780D01*
X188Y-1782D01*
X190Y-1783D01*
X192Y-1785D01*
X193Y-1787D01*
X195Y-1789D01*
X197Y-1792D01*
X198Y-1794D01*
X198Y-1795D01*
X199Y-1795D01*
X199Y-1796D01*
X199Y-1797D01*
X200Y-1798D01*
X201Y-1800D01*
X201Y-1801D01*
X202Y-1803D01*
X203Y-1806D01*
X203Y-1808D01*
X204Y-1810D01*
X205Y-1813D01*
X205Y-1816D01*
X206Y-1819D01*
X206Y-1822D01*
X206Y-1825D01*
Y-1825D01*
Y-1825D01*
Y-1826D01*
X206Y-1827D01*
Y-1828D01*
X206Y-1829D01*
X205Y-1831D01*
X205Y-1833D01*
X205Y-1836D01*
X204Y-1838D01*
X204Y-1841D01*
X203Y-1843D01*
X202Y-1846D01*
X201Y-1849D01*
X199Y-1851D01*
X198Y-1854D01*
X196Y-1856D01*
X196Y-1856D01*
X196Y-1857D01*
X195Y-1858D01*
X195Y-1858D01*
X194Y-1859D01*
X192Y-1861D01*
X191Y-1862D01*
X189Y-1863D01*
X188Y-1865D01*
X185Y-1866D01*
X183Y-1868D01*
X181Y-1869D01*
X178Y-1871D01*
X175Y-1872D01*
X172Y-1873D01*
X169Y-1874D01*
X165Y-1858D01*
X166D01*
X166Y-1858D01*
X167Y-1858D01*
X168Y-1857D01*
X169Y-1857D01*
X170Y-1856D01*
X172Y-1856D01*
X173Y-1855D01*
X176Y-1853D01*
X180Y-1851D01*
X181Y-1849D01*
X183Y-1848D01*
X184Y-1847D01*
X185Y-1845D01*
X185Y-1845D01*
X186Y-1845D01*
X186Y-1844D01*
X186Y-1844D01*
X187Y-1843D01*
X187Y-1842D01*
X188Y-1841D01*
X189Y-1839D01*
X189Y-1838D01*
X190Y-1837D01*
X190Y-1835D01*
X191Y-1833D01*
X191Y-1831D01*
X191Y-1829D01*
X192Y-1827D01*
X192Y-1824D01*
Y-1824D01*
Y-1824D01*
Y-1823D01*
X192Y-1822D01*
X191Y-1821D01*
X191Y-1819D01*
X191Y-1818D01*
X191Y-1816D01*
X190Y-1814D01*
X190Y-1812D01*
X189Y-1810D01*
X189Y-1808D01*
X188Y-1806D01*
X187Y-1804D01*
X186Y-1802D01*
X185Y-1800D01*
X185Y-1800D01*
X184Y-1800D01*
X184Y-1799D01*
X184Y-1799D01*
X183Y-1798D01*
X182Y-1797D01*
X181Y-1796D01*
X180Y-1795D01*
X179Y-1794D01*
X177Y-1793D01*
X176Y-1792D01*
X174Y-1790D01*
X172Y-1789D01*
X170Y-1788D01*
X168Y-1787D01*
X166Y-1787D01*
X166D01*
X166Y-1786D01*
X165Y-1786D01*
X164Y-1786D01*
X163Y-1786D01*
X162Y-1785D01*
X160Y-1785D01*
X159Y-1785D01*
X157Y-1784D01*
X155Y-1784D01*
X153Y-1784D01*
X151Y-1783D01*
X147Y-1783D01*
X142Y-1783D01*
X140D01*
X139Y-1783D01*
X138D01*
X136Y-1783D01*
X134Y-1783D01*
X133Y-1783D01*
X130Y-1784D01*
X128Y-1784D01*
X123Y-1785D01*
X119Y-1786D01*
X116Y-1787D01*
X114Y-1787D01*
X114Y-1787D01*
X113Y-1788D01*
X113Y-1788D01*
X112Y-1788D01*
X111Y-1789D01*
X110Y-1789D01*
X109Y-1790D01*
X107Y-1791D01*
X106Y-1792D01*
X104Y-1793D01*
X103Y-1794D01*
X101Y-1795D01*
X100Y-1797D01*
X99Y-1798D01*
X97Y-1800D01*
X96Y-1802D01*
X96Y-1802D01*
X96Y-1802D01*
X96Y-1803D01*
X95Y-1804D01*
X95Y-1805D01*
X94Y-1806D01*
X94Y-1807D01*
X93Y-1808D01*
X93Y-1810D01*
X92Y-1811D01*
X92Y-1813D01*
X91Y-1815D01*
X91Y-1817D01*
X91Y-1819D01*
X90Y-1821D01*
X90Y-1823D01*
Y-1823D01*
Y-1824D01*
X90Y-1824D01*
Y-1825D01*
X91Y-1827D01*
X91Y-1828D01*
X91Y-1830D01*
X91Y-1831D01*
X92Y-1833D01*
X92Y-1835D01*
X93Y-1837D01*
X94Y-1839D01*
X95Y-1841D01*
X96Y-1843D01*
X97Y-1845D01*
X98Y-1847D01*
X98Y-1847D01*
X99Y-1847D01*
X99Y-1848D01*
X100Y-1848D01*
X101Y-1849D01*
X102Y-1850D01*
X103Y-1851D01*
X104Y-1852D01*
X106Y-1853D01*
X108Y-1854D01*
X110Y-1855D01*
X112Y-1856D01*
X114Y-1857D01*
X117Y-1858D01*
X119Y-1859D01*
X122Y-1860D01*
X118Y-1876D01*
X118D01*
X118Y-1876D01*
X118D01*
X117Y-1876D01*
X116Y-1876D01*
X115Y-1875D01*
X113Y-1875D01*
X111Y-1874D01*
X109Y-1873D01*
X106Y-1872D01*
X104Y-1871D01*
X101Y-1869D01*
X99Y-1868D01*
X96Y-1866D01*
X94Y-1864D01*
X91Y-1862D01*
X89Y-1860D01*
X87Y-1858D01*
X87Y-1857D01*
X86Y-1857D01*
X86Y-1856D01*
X85Y-1855D01*
X84Y-1854D01*
X83Y-1852D01*
X82Y-1850D01*
X82Y-1848D01*
X81Y-1846D01*
X79Y-1844D01*
X79Y-1841D01*
X78Y-1838D01*
X77Y-1835D01*
X77Y-1832D01*
X76Y-1828D01*
X76Y-1824D01*
Y-1824D01*
Y-1824D01*
Y-1824D01*
Y-1824D01*
X76Y-1823D01*
Y-1821D01*
X76Y-1819D01*
X77Y-1817D01*
X77Y-1815D01*
X77Y-1813D01*
X78Y-1810D01*
X78Y-1807D01*
X79Y-1805D01*
X80Y-1802D01*
X81Y-1799D01*
X82Y-1797D01*
X83Y-1794D01*
X84Y-1791D01*
X84Y-1791D01*
X85Y-1791D01*
X85Y-1790D01*
X86Y-1789D01*
X87Y-1788D01*
X88Y-1787D01*
X89Y-1786D01*
X90Y-1784D01*
X92Y-1783D01*
X94Y-1781D01*
X96Y-1780D01*
X98Y-1778D01*
X100Y-1776D01*
X103Y-1775D01*
X105Y-1773D01*
X108Y-1772D01*
X108Y-1772D01*
X109Y-1772D01*
X110Y-1772D01*
X111Y-1771D01*
X112Y-1771D01*
X114Y-1770D01*
X116Y-1770D01*
X118Y-1769D01*
X121Y-1768D01*
X123Y-1768D01*
X126Y-1767D01*
X129Y-1767D01*
X132Y-1766D01*
X135Y-1766D01*
X139Y-1766D01*
X142Y-1766D01*
X143D01*
X144Y-1766D01*
D02*
G37*
G36*
X204Y-1701D02*
Y-1701D01*
Y-1701D01*
Y-1702D01*
Y-1703D01*
Y-1704D01*
X204Y-1705D01*
Y-1706D01*
Y-1708D01*
X203Y-1711D01*
X203Y-1714D01*
X203Y-1717D01*
X203Y-1719D01*
X202Y-1720D01*
Y-1720D01*
X202Y-1720D01*
X202Y-1721D01*
X202Y-1721D01*
X202Y-1722D01*
X202Y-1723D01*
X201Y-1724D01*
X201Y-1725D01*
X200Y-1728D01*
X199Y-1730D01*
X198Y-1733D01*
X196Y-1735D01*
Y-1735D01*
X196Y-1736D01*
X196Y-1736D01*
X196Y-1736D01*
X195Y-1737D01*
X193Y-1739D01*
X192Y-1741D01*
X190Y-1742D01*
X187Y-1744D01*
X184Y-1745D01*
X184D01*
X184Y-1746D01*
X184Y-1746D01*
X183Y-1746D01*
X182Y-1746D01*
X181Y-1747D01*
X180Y-1747D01*
X179Y-1747D01*
X178Y-1748D01*
X177Y-1748D01*
X174Y-1749D01*
X171Y-1749D01*
X167Y-1749D01*
X167D01*
X166Y-1749D01*
X165Y-1749D01*
X163Y-1749D01*
X162Y-1749D01*
X160Y-1748D01*
X158Y-1748D01*
X156Y-1747D01*
X154Y-1747D01*
X152Y-1746D01*
X149Y-1745D01*
X147Y-1744D01*
X145Y-1742D01*
X142Y-1741D01*
X140Y-1739D01*
X140Y-1739D01*
X140Y-1739D01*
X139Y-1738D01*
X139Y-1737D01*
X138Y-1736D01*
X137Y-1734D01*
X136Y-1733D01*
X135Y-1731D01*
X134Y-1728D01*
X133Y-1726D01*
X132Y-1723D01*
X131Y-1719D01*
X130Y-1716D01*
X130Y-1711D01*
X129Y-1707D01*
X129Y-1702D01*
Y-1670D01*
X78D01*
Y-1654D01*
X204D01*
Y-1701D01*
D02*
G37*
%LPC*%
G36*
X189Y-1913D02*
X151D01*
Y-1940D01*
Y-1940D01*
Y-1940D01*
Y-1941D01*
Y-1942D01*
Y-1943D01*
X151Y-1944D01*
Y-1945D01*
X151Y-1946D01*
X151Y-1949D01*
X152Y-1951D01*
X152Y-1954D01*
X152Y-1955D01*
X152Y-1956D01*
Y-1956D01*
X153Y-1956D01*
X153Y-1956D01*
X153Y-1957D01*
X153Y-1958D01*
X154Y-1959D01*
X155Y-1961D01*
X156Y-1962D01*
X157Y-1964D01*
X159Y-1965D01*
X159D01*
X159Y-1965D01*
X159Y-1966D01*
X160Y-1966D01*
X162Y-1967D01*
X163Y-1967D01*
X165Y-1968D01*
X167Y-1968D01*
X170Y-1968D01*
X171D01*
X172Y-1968D01*
X173Y-1968D01*
X175Y-1968D01*
X177Y-1967D01*
X179Y-1966D01*
X180Y-1965D01*
X181D01*
X181Y-1965D01*
X181Y-1965D01*
X182Y-1964D01*
X183Y-1963D01*
X184Y-1962D01*
X185Y-1960D01*
X186Y-1959D01*
X187Y-1957D01*
Y-1957D01*
X187Y-1956D01*
X187Y-1956D01*
X187Y-1956D01*
X187Y-1955D01*
X188Y-1954D01*
X188Y-1953D01*
X188Y-1952D01*
X188Y-1951D01*
X188Y-1950D01*
X188Y-1948D01*
X189Y-1946D01*
X189Y-1945D01*
X189Y-1943D01*
X189Y-1940D01*
Y-1938D01*
Y-1913D01*
D02*
G37*
G36*
X136D02*
X93D01*
Y-1944D01*
Y-1944D01*
Y-1944D01*
Y-1945D01*
Y-1945D01*
Y-1946D01*
Y-1947D01*
X93Y-1948D01*
Y-1950D01*
X93Y-1952D01*
X93Y-1954D01*
X93Y-1955D01*
X94Y-1955D01*
Y-1955D01*
X94Y-1956D01*
Y-1956D01*
X94Y-1956D01*
X94Y-1957D01*
X94Y-1959D01*
X95Y-1960D01*
X95Y-1962D01*
X96Y-1963D01*
X97Y-1965D01*
X97Y-1965D01*
X97Y-1965D01*
X98Y-1966D01*
X99Y-1967D01*
X100Y-1968D01*
X101Y-1969D01*
X102Y-1970D01*
X104Y-1971D01*
X104D01*
X104Y-1971D01*
X105Y-1972D01*
X106Y-1972D01*
X107Y-1972D01*
X109Y-1973D01*
X110Y-1973D01*
X112Y-1974D01*
X115Y-1974D01*
X115D01*
X116Y-1974D01*
X116D01*
X117Y-1974D01*
X119Y-1973D01*
X121Y-1973D01*
X123Y-1972D01*
X125Y-1971D01*
X127Y-1970D01*
X127D01*
X127Y-1970D01*
X128Y-1969D01*
X128Y-1969D01*
X130Y-1967D01*
X131Y-1966D01*
X132Y-1964D01*
X133Y-1962D01*
X134Y-1960D01*
Y-1960D01*
X134Y-1960D01*
X134Y-1959D01*
X134Y-1959D01*
X135Y-1958D01*
X135Y-1957D01*
X135Y-1956D01*
X135Y-1955D01*
X135Y-1954D01*
X135Y-1953D01*
X136Y-1951D01*
X136Y-1950D01*
X136Y-1948D01*
X136Y-1946D01*
X136Y-1944D01*
Y-1942D01*
Y-1913D01*
D02*
G37*
G36*
X124Y-2187D02*
X123D01*
X122Y-2188D01*
X121D01*
X119Y-2188D01*
X118Y-2188D01*
X116Y-2188D01*
X114Y-2188D01*
X112Y-2189D01*
X109Y-2189D01*
X107Y-2190D01*
X105Y-2190D01*
X103Y-2191D01*
X101Y-2192D01*
X99Y-2193D01*
X97Y-2195D01*
X97Y-2195D01*
X97Y-2195D01*
X97Y-2195D01*
X96Y-2196D01*
X96Y-2197D01*
X95Y-2198D01*
X94Y-2199D01*
X93Y-2200D01*
X92Y-2201D01*
X92Y-2202D01*
X91Y-2204D01*
X90Y-2205D01*
X90Y-2207D01*
X89Y-2209D01*
X89Y-2210D01*
X89Y-2212D01*
Y-2212D01*
Y-2212D01*
X89Y-2213D01*
Y-2214D01*
X89Y-2215D01*
X89Y-2216D01*
X90Y-2217D01*
X90Y-2218D01*
X90Y-2219D01*
X91Y-2221D01*
X92Y-2222D01*
X92Y-2224D01*
X93Y-2225D01*
X94Y-2226D01*
X96Y-2228D01*
X97Y-2229D01*
X97Y-2229D01*
X97Y-2230D01*
X98Y-2230D01*
X99Y-2230D01*
X99Y-2231D01*
X100Y-2231D01*
X102Y-2232D01*
X103Y-2233D01*
X105Y-2234D01*
X107Y-2234D01*
X109Y-2235D01*
X111Y-2235D01*
X114Y-2236D01*
X116Y-2236D01*
X119Y-2236D01*
X122Y-2236D01*
X124D01*
X125Y-2236D01*
X127Y-2236D01*
X129Y-2236D01*
X131Y-2236D01*
X133Y-2235D01*
X135Y-2235D01*
X137Y-2235D01*
X139Y-2234D01*
X142Y-2233D01*
X144Y-2233D01*
X146Y-2231D01*
X148Y-2230D01*
X150Y-2229D01*
X150Y-2229D01*
X150Y-2229D01*
X150Y-2228D01*
X151Y-2228D01*
X152Y-2227D01*
X152Y-2226D01*
X153Y-2225D01*
X154Y-2224D01*
X155Y-2223D01*
X156Y-2222D01*
X156Y-2220D01*
X157Y-2219D01*
X158Y-2217D01*
X158Y-2215D01*
X158Y-2213D01*
X158Y-2211D01*
Y-2211D01*
Y-2211D01*
X158Y-2210D01*
Y-2210D01*
X158Y-2209D01*
X158Y-2208D01*
X158Y-2207D01*
X157Y-2205D01*
X157Y-2204D01*
X156Y-2203D01*
X156Y-2201D01*
X155Y-2200D01*
X154Y-2198D01*
X153Y-2197D01*
X152Y-2196D01*
X150Y-2194D01*
X150Y-2194D01*
X150Y-2194D01*
X149Y-2194D01*
X148Y-2193D01*
X148Y-2193D01*
X146Y-2192D01*
X145Y-2191D01*
X144Y-2191D01*
X142Y-2190D01*
X140Y-2190D01*
X138Y-2189D01*
X135Y-2189D01*
X133Y-2188D01*
X130Y-2188D01*
X127Y-2188D01*
X124Y-2187D01*
D02*
G37*
G36*
X132Y-2383D02*
Y-2434D01*
X133D01*
X133Y-2434D01*
X134D01*
X134Y-2434D01*
X135Y-2434D01*
X136Y-2434D01*
X138Y-2434D01*
X139Y-2433D01*
X142Y-2432D01*
X144Y-2431D01*
X147Y-2430D01*
X148Y-2429D01*
X150Y-2428D01*
X150Y-2428D01*
X150Y-2428D01*
X150Y-2428D01*
X151Y-2427D01*
X152Y-2426D01*
X152Y-2425D01*
X153Y-2424D01*
X154Y-2423D01*
X155Y-2422D01*
X156Y-2421D01*
X157Y-2419D01*
X157Y-2417D01*
X158Y-2415D01*
X158Y-2414D01*
X158Y-2412D01*
X159Y-2409D01*
Y-2409D01*
Y-2409D01*
Y-2408D01*
X158Y-2408D01*
X158Y-2407D01*
X158Y-2406D01*
X158Y-2404D01*
X158Y-2403D01*
X157Y-2402D01*
X157Y-2400D01*
X156Y-2399D01*
X156Y-2397D01*
X155Y-2396D01*
X154Y-2394D01*
X153Y-2393D01*
X151Y-2391D01*
X151Y-2391D01*
X151Y-2391D01*
X151Y-2391D01*
X150Y-2390D01*
X149Y-2390D01*
X149Y-2389D01*
X148Y-2388D01*
X146Y-2388D01*
X145Y-2387D01*
X144Y-2386D01*
X142Y-2386D01*
X140Y-2385D01*
X139Y-2384D01*
X137Y-2384D01*
X135Y-2384D01*
X132Y-2383D01*
D02*
G37*
G36*
X125Y-2284D02*
X124D01*
X122Y-2285D01*
X121Y-2285D01*
X119Y-2285D01*
X117Y-2285D01*
X115Y-2285D01*
X113Y-2286D01*
X111Y-2286D01*
X109Y-2287D01*
X107Y-2287D01*
X105Y-2288D01*
X103Y-2289D01*
X101Y-2290D01*
X99Y-2292D01*
X99Y-2292D01*
X99Y-2292D01*
X98Y-2292D01*
X98Y-2293D01*
X97Y-2293D01*
X97Y-2294D01*
X96Y-2295D01*
X95Y-2296D01*
X94Y-2298D01*
X94Y-2299D01*
X93Y-2301D01*
X92Y-2302D01*
X92Y-2304D01*
X91Y-2306D01*
X91Y-2307D01*
X91Y-2309D01*
Y-2310D01*
Y-2310D01*
X91Y-2310D01*
Y-2311D01*
X91Y-2312D01*
X91Y-2313D01*
X92Y-2314D01*
X92Y-2316D01*
X92Y-2317D01*
X93Y-2318D01*
X94Y-2320D01*
X94Y-2321D01*
X95Y-2323D01*
X97Y-2324D01*
X98Y-2326D01*
X99Y-2327D01*
X99Y-2327D01*
X100Y-2327D01*
X100Y-2328D01*
X101Y-2328D01*
X102Y-2329D01*
X103Y-2329D01*
X104Y-2330D01*
X105Y-2331D01*
X107Y-2331D01*
X109Y-2332D01*
X111Y-2333D01*
X113Y-2333D01*
X116Y-2334D01*
X119Y-2334D01*
X122Y-2334D01*
X125Y-2334D01*
X126D01*
X128Y-2334D01*
X129Y-2334D01*
X130Y-2334D01*
X132Y-2334D01*
X134Y-2333D01*
X136Y-2333D01*
X138Y-2333D01*
X140Y-2332D01*
X142Y-2331D01*
X144Y-2330D01*
X146Y-2329D01*
X148Y-2328D01*
X150Y-2327D01*
X150Y-2327D01*
X150Y-2327D01*
X151Y-2326D01*
X151Y-2326D01*
X152Y-2325D01*
X153Y-2324D01*
X153Y-2323D01*
X154Y-2322D01*
X155Y-2321D01*
X156Y-2319D01*
X157Y-2318D01*
X157Y-2316D01*
X158Y-2315D01*
X158Y-2313D01*
X158Y-2311D01*
X158Y-2309D01*
Y-2309D01*
Y-2309D01*
X158Y-2308D01*
Y-2307D01*
X158Y-2306D01*
X158Y-2305D01*
X158Y-2304D01*
X157Y-2303D01*
X157Y-2302D01*
X156Y-2300D01*
X156Y-2299D01*
X155Y-2297D01*
X154Y-2296D01*
X153Y-2294D01*
X152Y-2293D01*
X150Y-2292D01*
X150Y-2291D01*
X150Y-2291D01*
X149Y-2291D01*
X149Y-2290D01*
X148Y-2290D01*
X147Y-2289D01*
X145Y-2289D01*
X144Y-2288D01*
X142Y-2287D01*
X140Y-2287D01*
X138Y-2286D01*
X136Y-2286D01*
X134Y-2285D01*
X131Y-2285D01*
X128Y-2285D01*
X125Y-2284D01*
D02*
G37*
G36*
X189Y-1670D02*
X144D01*
Y-1702D01*
Y-1703D01*
Y-1703D01*
Y-1704D01*
X144Y-1705D01*
X144Y-1706D01*
X144Y-1708D01*
X145Y-1710D01*
X145Y-1711D01*
X145Y-1715D01*
X146Y-1717D01*
X147Y-1719D01*
X147Y-1721D01*
X148Y-1722D01*
X149Y-1724D01*
X150Y-1725D01*
X150Y-1725D01*
X150Y-1726D01*
X151Y-1726D01*
X151Y-1726D01*
X152Y-1727D01*
X152Y-1727D01*
X153Y-1728D01*
X154Y-1729D01*
X155Y-1729D01*
X157Y-1730D01*
X158Y-1730D01*
X160Y-1731D01*
X161Y-1731D01*
X163Y-1732D01*
X165Y-1732D01*
X167Y-1732D01*
X168D01*
X168Y-1732D01*
X169D01*
X170Y-1732D01*
X171Y-1732D01*
X174Y-1731D01*
X176Y-1730D01*
X178Y-1729D01*
X180Y-1728D01*
X180D01*
X180Y-1728D01*
X181Y-1728D01*
X181Y-1727D01*
X182Y-1726D01*
X183Y-1725D01*
X185Y-1724D01*
X186Y-1722D01*
X187Y-1720D01*
X188Y-1718D01*
X188Y-1717D01*
Y-1717D01*
X188Y-1717D01*
X188Y-1716D01*
X188Y-1716D01*
X188Y-1715D01*
X188Y-1714D01*
X188Y-1713D01*
X189Y-1712D01*
Y-1711D01*
X189Y-1709D01*
X189Y-1708D01*
X189Y-1706D01*
Y-1704D01*
Y-1702D01*
Y-1670D01*
D02*
G37*
%LPD*%
D10*
X-1900Y-2559D02*
X-1800Y-2459D01*
Y-2259D01*
X-1900Y-2159D01*
X-2300D01*
X-2400Y-2259D01*
Y-2459D01*
X-2300Y-2559D01*
X-2200D01*
X-2100Y-2459D01*
Y-2159D01*
X-2300Y-1959D02*
X-2400Y-1859D01*
Y-1660D01*
X-2300Y-1560D01*
X-1900D01*
X-1800Y-1660D01*
Y-1859D01*
X-1900Y-1959D01*
X-2300D01*
Y-1360D02*
X-2400Y-1260D01*
Y-1060D01*
X-2300Y-960D01*
X-1900D01*
X-1800Y-1060D01*
Y-1260D01*
X-1900Y-1360D01*
X-2300D01*
X-1800Y-760D02*
X-1900D01*
Y-660D01*
X-1800D01*
Y-760D01*
X-2300Y-260D02*
X-2400Y-160D01*
Y40D01*
X-2300Y140D01*
X-1900D01*
X-1800Y40D01*
Y-160D01*
X-1900Y-260D01*
X-2300D01*
Y340D02*
X-2400Y440D01*
Y640D01*
X-2300Y740D01*
X-1900D01*
X-1800Y640D01*
Y440D01*
X-1900Y340D01*
X-2300D01*
X-1800Y940D02*
X-2200D01*
Y1040D01*
X-2100Y1140D01*
X-1800D01*
X-2100D01*
X-2200Y1240D01*
X-2100Y1340D01*
X-1800D01*
Y1539D02*
Y1739D01*
Y1639D01*
X-2200D01*
Y1539D01*
X-1800Y2039D02*
Y2239D01*
Y2139D01*
X-2400D01*
Y2039D01*
X7541Y6330D02*
X7141D01*
X7541Y6730D01*
Y6830D01*
X7441Y6930D01*
X7241D01*
X7141Y6830D01*
X7741D02*
X7841Y6930D01*
X8041D01*
X8141Y6830D01*
Y6430D01*
X8041Y6330D01*
X7841D01*
X7741Y6430D01*
Y6830D01*
X8340D02*
X8440Y6930D01*
X8640D01*
X8740Y6830D01*
Y6430D01*
X8640Y6330D01*
X8440D01*
X8340Y6430D01*
Y6830D01*
X8940D02*
X9040Y6930D01*
X9240D01*
X9340Y6830D01*
Y6430D01*
X9240Y6330D01*
X9040D01*
X8940Y6430D01*
Y6830D01*
X9540Y6330D02*
Y6430D01*
X9640D01*
Y6330D01*
X9540D01*
X10040Y6830D02*
X10140Y6930D01*
X10340D01*
X10440Y6830D01*
Y6430D01*
X10340Y6330D01*
X10140D01*
X10040Y6430D01*
Y6830D01*
X10640D02*
X10740Y6930D01*
X10940D01*
X11040Y6830D01*
Y6430D01*
X10940Y6330D01*
X10740D01*
X10640Y6430D01*
Y6830D01*
X11240Y6330D02*
Y6730D01*
X11340D01*
X11439Y6630D01*
Y6330D01*
Y6630D01*
X11539Y6730D01*
X11639Y6630D01*
Y6330D01*
X11839D02*
X12039D01*
X11939D01*
Y6730D01*
X11839D01*
X12339Y6330D02*
X12539D01*
X12439D01*
Y6930D01*
X12339D01*
D40*
X-2260Y-4500D02*
X400D01*
X-2260Y4500D02*
X400D01*
X-2160Y-4500D02*
Y-2719D01*
Y2399D02*
Y4500D01*
Y-4500D02*
X-1960Y-3900D01*
X-2360D02*
X-2160Y-4500D01*
X-2360Y3900D02*
X-2160Y4500D01*
X-1960Y3900D01*
X20000Y4100D02*
Y6790D01*
X0Y4100D02*
Y6790D01*
X12699Y6690D02*
X20000D01*
X0D02*
X6981D01*
X19400Y6890D02*
X20000Y6690D01*
X19400Y6490D02*
X20000Y6690D01*
X0D02*
X600Y6490D01*
X0Y6690D02*
X600Y6890D01*
X34197Y40370D02*
Y39770D01*
X34497D01*
X34597Y39870D01*
Y39970D01*
X34497Y40070D01*
X34197D01*
X34497D01*
X34597Y40170D01*
Y40270D01*
X34497Y40370D01*
X34197D01*
X34897Y39770D02*
X35097D01*
X35197Y39870D01*
Y40070D01*
X35097Y40170D01*
X34897D01*
X34797Y40070D01*
Y39870D01*
X34897Y39770D01*
X35497Y40170D02*
X35696D01*
X35796Y40070D01*
Y39770D01*
X35497D01*
X35397Y39870D01*
X35497Y39970D01*
X35796D01*
X35996Y40170D02*
Y39770D01*
Y39970D01*
X36096Y40070D01*
X36196Y40170D01*
X36296D01*
X36996Y40370D02*
Y39770D01*
X36696D01*
X36596Y39870D01*
Y40070D01*
X36696Y40170D01*
X36996D01*
X37796Y40370D02*
Y39770D01*
X38196D01*
X38496Y40170D02*
X38695D01*
X38795Y40070D01*
Y39770D01*
X38496D01*
X38396Y39870D01*
X38496Y39970D01*
X38795D01*
X38995Y40170D02*
Y39870D01*
X39095Y39770D01*
X39395D01*
Y39670D01*
X39295Y39570D01*
X39195D01*
X39395Y39770D02*
Y40170D01*
X39895Y39770D02*
X39695D01*
X39595Y39870D01*
Y40070D01*
X39695Y40170D01*
X39895D01*
X39995Y40070D01*
Y39970D01*
X39595D01*
X40195Y40170D02*
Y39770D01*
Y39970D01*
X40295Y40070D01*
X40395Y40170D01*
X40495D01*
X41795Y40270D02*
X41695Y40370D01*
X41495D01*
X41395Y40270D01*
Y40170D01*
X41495Y40070D01*
X41695D01*
X41795Y39970D01*
Y39870D01*
X41695Y39770D01*
X41495D01*
X41395Y39870D01*
X42094Y40270D02*
Y40170D01*
X41994D01*
X42194D01*
X42094D01*
Y39870D01*
X42194Y39770D01*
X42594Y40170D02*
X42794D01*
X42894Y40070D01*
Y39770D01*
X42594D01*
X42494Y39870D01*
X42594Y39970D01*
X42894D01*
X43494Y40170D02*
X43194D01*
X43094Y40070D01*
Y39870D01*
X43194Y39770D01*
X43494D01*
X43694D02*
Y40370D01*
Y39970D02*
X43994Y40170D01*
X43694Y39970D02*
X43994Y39770D01*
X28498Y37870D02*
X28598Y37970D01*
X28798D01*
X28898Y37870D01*
Y37770D01*
X28798Y37670D01*
X28698D01*
X28798D01*
X28898Y37570D01*
Y37470D01*
X28798Y37370D01*
X28598D01*
X28498Y37470D01*
X29098Y37370D02*
Y37470D01*
X29198D01*
Y37370D01*
X29098D01*
X29998Y37970D02*
X29598D01*
Y37670D01*
X29798Y37770D01*
X29898D01*
X29998Y37670D01*
Y37470D01*
X29898Y37370D01*
X29698D01*
X29598Y37470D01*
X28798Y34970D02*
Y35570D01*
X28498Y35270D01*
X28898D01*
X29098Y34970D02*
Y35070D01*
X29198D01*
Y34970D01*
X29098D01*
X29998D02*
X29598D01*
X29998Y35370D01*
Y35470D01*
X29898Y35570D01*
X29698D01*
X29598Y35470D01*
X28798Y32570D02*
Y33170D01*
X28498Y32870D01*
X28898D01*
X29098Y32570D02*
Y32670D01*
X29198D01*
Y32570D01*
X29098D01*
X29998D02*
X29598D01*
X29998Y32970D01*
Y33070D01*
X29898Y33170D01*
X29698D01*
X29598Y33070D01*
X28798Y30170D02*
Y30770D01*
X28498Y30470D01*
X28898D01*
X29098Y30170D02*
Y30270D01*
X29198D01*
Y30170D01*
X29098D01*
X29998D02*
X29598D01*
X29998Y30570D01*
Y30670D01*
X29898Y30770D01*
X29698D01*
X29598Y30670D01*
X28498Y28270D02*
X28598Y28370D01*
X28798D01*
X28898Y28270D01*
Y28170D01*
X28798Y28070D01*
X28698D01*
X28798D01*
X28898Y27970D01*
Y27870D01*
X28798Y27770D01*
X28598D01*
X28498Y27870D01*
X29098Y27770D02*
Y27870D01*
X29198D01*
Y27770D01*
X29098D01*
X29998Y28370D02*
X29598D01*
Y28070D01*
X29798Y28170D01*
X29898D01*
X29998Y28070D01*
Y27870D01*
X29898Y27770D01*
X29698D01*
X29598Y27870D01*
X28898Y40270D02*
X28798Y40370D01*
X28598D01*
X28498Y40270D01*
Y39870D01*
X28598Y39770D01*
X28798D01*
X28898Y39870D01*
X29198Y39770D02*
X29398D01*
X29498Y39870D01*
Y40070D01*
X29398Y40170D01*
X29198D01*
X29098Y40070D01*
Y39870D01*
X29198Y39770D01*
X29698D02*
Y40170D01*
X29998D01*
X30098Y40070D01*
Y39770D01*
X30298D02*
X30598D01*
X30698Y39870D01*
X30598Y39970D01*
X30398D01*
X30298Y40070D01*
X30398Y40170D01*
X30698D01*
X30998Y40270D02*
Y40170D01*
X30898D01*
X31098D01*
X30998D01*
Y39870D01*
X31098Y39770D01*
X31497Y40170D02*
X31697D01*
X31797Y40070D01*
Y39770D01*
X31497D01*
X31397Y39870D01*
X31497Y39970D01*
X31797D01*
X31997Y39770D02*
Y40170D01*
X32297D01*
X32397Y40070D01*
Y39770D01*
X32697Y40270D02*
Y40170D01*
X32597D01*
X32797D01*
X32697D01*
Y39870D01*
X32797Y39770D01*
X22000Y37870D02*
X22100Y37970D01*
X22300D01*
X22400Y37870D01*
Y37470D01*
X22300Y37370D01*
X22100D01*
X22000Y37470D01*
Y37870D01*
X22600Y37370D02*
Y37470D01*
X22700D01*
Y37370D01*
X22600D01*
X23400D02*
Y37970D01*
X23100Y37670D01*
X23500D01*
X23699Y37870D02*
X23799Y37970D01*
X23999D01*
X24099Y37870D01*
Y37470D01*
X23999Y37370D01*
X23799D01*
X23699Y37470D01*
Y37870D01*
X24299Y37370D02*
Y37770D01*
X24399D01*
X24499Y37670D01*
Y37370D01*
Y37670D01*
X24599Y37770D01*
X24699Y37670D01*
Y37370D01*
X24899D02*
X25099D01*
X24999D01*
Y37770D01*
X24899D01*
X25399Y37370D02*
X25599D01*
X25499D01*
Y37970D01*
X25399D01*
X22000Y36170D02*
X22200D01*
X22100D01*
Y36770D01*
X22000Y36670D01*
X22500Y36170D02*
Y36270D01*
X22600D01*
Y36170D01*
X22500D01*
X23300D02*
Y36770D01*
X23000Y36470D01*
X23400D01*
X23599Y36670D02*
X23699Y36770D01*
X23899D01*
X23999Y36670D01*
Y36270D01*
X23899Y36170D01*
X23699D01*
X23599Y36270D01*
Y36670D01*
X24199Y36170D02*
Y36570D01*
X24299D01*
X24399Y36470D01*
Y36170D01*
Y36470D01*
X24499Y36570D01*
X24599Y36470D01*
Y36170D01*
X24799D02*
X24999D01*
X24899D01*
Y36570D01*
X24799D01*
X25299Y36170D02*
X25499D01*
X25399D01*
Y36770D01*
X25299D01*
X22400Y35570D02*
X22200Y35470D01*
X22000Y35270D01*
Y35070D01*
X22100Y34970D01*
X22300D01*
X22400Y35070D01*
Y35170D01*
X22300Y35270D01*
X22000D01*
X22600Y34970D02*
Y35070D01*
X22700D01*
Y34970D01*
X22600D01*
X23100Y35570D02*
X23500D01*
Y35470D01*
X23100Y35070D01*
Y34970D01*
X23699Y35470D02*
X23799Y35570D01*
X23999D01*
X24099Y35470D01*
Y35070D01*
X23999Y34970D01*
X23799D01*
X23699Y35070D01*
Y35470D01*
X24299Y34970D02*
Y35370D01*
X24399D01*
X24499Y35270D01*
Y34970D01*
Y35270D01*
X24599Y35370D01*
X24699Y35270D01*
Y34970D01*
X24899D02*
X25099D01*
X24999D01*
Y35370D01*
X24899D01*
X25399Y34970D02*
X25599D01*
X25499D01*
Y35570D01*
X25399D01*
X22000Y34270D02*
X22100Y34370D01*
X22300D01*
X22400Y34270D01*
Y33870D01*
X22300Y33770D01*
X22100D01*
X22000Y33870D01*
Y34270D01*
X22600Y33770D02*
Y33870D01*
X22700D01*
Y33770D01*
X22600D01*
X23100Y34370D02*
X23500D01*
Y34270D01*
X23100Y33870D01*
Y33770D01*
X23699D02*
X23899D01*
X23799D01*
Y34370D01*
X23699Y34270D01*
X24199Y33770D02*
Y34170D01*
X24299D01*
X24399Y34070D01*
Y33770D01*
Y34070D01*
X24499Y34170D01*
X24599Y34070D01*
Y33770D01*
X24799D02*
X24999D01*
X24899D01*
Y34170D01*
X24799D01*
X25299Y33770D02*
X25499D01*
X25399D01*
Y34370D01*
X25299D01*
X22300Y32570D02*
Y33170D01*
X22000Y32870D01*
X22400D01*
X22600Y33170D02*
X23000D01*
Y33070D01*
X22600Y32670D01*
Y32570D01*
X23200D02*
Y32670D01*
X23300D01*
Y32570D01*
X23200D01*
X23699Y33070D02*
X23799Y33170D01*
X23999D01*
X24099Y33070D01*
Y32670D01*
X23999Y32570D01*
X23799D01*
X23699Y32670D01*
Y33070D01*
X24299D02*
X24399Y33170D01*
X24599D01*
X24699Y33070D01*
Y32670D01*
X24599Y32570D01*
X24399D01*
X24299Y32670D01*
Y33070D01*
X24899Y32570D02*
Y32970D01*
X24999D01*
X25099Y32870D01*
Y32570D01*
Y32870D01*
X25199Y32970D01*
X25299Y32870D01*
Y32570D01*
X25499D02*
X25699D01*
X25599D01*
Y32970D01*
X25499D01*
X25999Y32570D02*
X26199D01*
X26099D01*
Y33170D01*
X25999D01*
X22000Y31870D02*
X22100Y31970D01*
X22300D01*
X22400Y31870D01*
Y31470D01*
X22300Y31370D01*
X22100D01*
X22000Y31470D01*
Y31870D01*
X22600Y31370D02*
Y31470D01*
X22700D01*
Y31370D01*
X22600D01*
X23100Y31970D02*
X23500D01*
Y31870D01*
X23100Y31470D01*
Y31370D01*
X23699D02*
X23899D01*
X23799D01*
Y31970D01*
X23699Y31870D01*
X24199Y31370D02*
Y31770D01*
X24299D01*
X24399Y31670D01*
Y31370D01*
Y31670D01*
X24499Y31770D01*
X24599Y31670D01*
Y31370D01*
X24799D02*
X24999D01*
X24899D01*
Y31770D01*
X24799D01*
X25299Y31370D02*
X25499D01*
X25399D01*
Y31970D01*
X25299D01*
X22400Y30770D02*
X22200Y30670D01*
X22000Y30470D01*
Y30270D01*
X22100Y30170D01*
X22300D01*
X22400Y30270D01*
Y30370D01*
X22300Y30470D01*
X22000D01*
X22600Y30170D02*
Y30270D01*
X22700D01*
Y30170D01*
X22600D01*
X23100Y30770D02*
X23500D01*
Y30670D01*
X23100Y30270D01*
Y30170D01*
X23699Y30670D02*
X23799Y30770D01*
X23999D01*
X24099Y30670D01*
Y30270D01*
X23999Y30170D01*
X23799D01*
X23699Y30270D01*
Y30670D01*
X24299Y30170D02*
Y30570D01*
X24399D01*
X24499Y30470D01*
Y30170D01*
Y30470D01*
X24599Y30570D01*
X24699Y30470D01*
Y30170D01*
X24899D02*
X25099D01*
X24999D01*
Y30570D01*
X24899D01*
X25399Y30170D02*
X25599D01*
X25499D01*
Y30770D01*
X25399D01*
X22000Y28970D02*
X22200D01*
X22100D01*
Y29570D01*
X22000Y29470D01*
X22500Y28970D02*
Y29070D01*
X22600D01*
Y28970D01*
X22500D01*
X23300D02*
Y29570D01*
X23000Y29270D01*
X23400D01*
X23599Y29470D02*
X23699Y29570D01*
X23899D01*
X23999Y29470D01*
Y29070D01*
X23899Y28970D01*
X23699D01*
X23599Y29070D01*
Y29470D01*
X24199Y28970D02*
Y29370D01*
X24299D01*
X24399Y29270D01*
Y28970D01*
Y29270D01*
X24499Y29370D01*
X24599Y29270D01*
Y28970D01*
X24799D02*
X24999D01*
X24899D01*
Y29370D01*
X24799D01*
X25299Y28970D02*
X25499D01*
X25399D01*
Y29570D01*
X25299D01*
X22000Y28270D02*
X22100Y28370D01*
X22300D01*
X22400Y28270D01*
Y27870D01*
X22300Y27770D01*
X22100D01*
X22000Y27870D01*
Y28270D01*
X22600Y27770D02*
Y27870D01*
X22700D01*
Y27770D01*
X22600D01*
X23400D02*
Y28370D01*
X23100Y28070D01*
X23500D01*
X23699Y28270D02*
X23799Y28370D01*
X23999D01*
X24099Y28270D01*
Y27870D01*
X23999Y27770D01*
X23799D01*
X23699Y27870D01*
Y28270D01*
X24299Y27770D02*
Y28170D01*
X24399D01*
X24499Y28070D01*
Y27770D01*
Y28070D01*
X24599Y28170D01*
X24699Y28070D01*
Y27770D01*
X24899D02*
X25099D01*
X24999D01*
Y28170D01*
X24899D01*
X25399Y27770D02*
X25599D01*
X25499D01*
Y28370D01*
X25399D01*
X22000Y40370D02*
X22400D01*
X22200D01*
Y39770D01*
X22600Y40370D02*
Y39770D01*
Y40070D01*
X22700Y40170D01*
X22900D01*
X23000Y40070D01*
Y39770D01*
X23200D02*
X23400D01*
X23300D01*
Y40170D01*
X23200D01*
X24099D02*
X23799D01*
X23699Y40070D01*
Y39870D01*
X23799Y39770D01*
X24099D01*
X24299D02*
Y40370D01*
Y39970D02*
X24599Y40170D01*
X24299Y39970D02*
X24599Y39770D01*
X24899D02*
Y40170D01*
X25199D01*
X25299Y40070D01*
Y39770D01*
X25799D02*
X25599D01*
X25499Y39870D01*
Y40070D01*
X25599Y40170D01*
X25799D01*
X25899Y40070D01*
Y39970D01*
X25499D01*
X26099Y39770D02*
X26399D01*
X26499Y39870D01*
X26399Y39970D01*
X26199D01*
X26099Y40070D01*
X26199Y40170D01*
X26499D01*
X26698Y39770D02*
X26998D01*
X27098Y39870D01*
X26998Y39970D01*
X26798D01*
X26698Y40070D01*
X26798Y40170D01*
X27098D01*
X13802Y37870D02*
X13702Y37970D01*
X13502D01*
X13402Y37870D01*
Y37770D01*
X13502Y37670D01*
X13702D01*
X13802Y37570D01*
Y37470D01*
X13702Y37370D01*
X13502D01*
X13402Y37470D01*
X14102Y37370D02*
X14302D01*
X14402Y37470D01*
Y37670D01*
X14302Y37770D01*
X14102D01*
X14002Y37670D01*
Y37470D01*
X14102Y37370D01*
X14602D02*
X14802D01*
X14702D01*
Y37970D01*
X14602D01*
X15502D02*
Y37370D01*
X15202D01*
X15102Y37470D01*
Y37670D01*
X15202Y37770D01*
X15502D01*
X16001Y37370D02*
X15802D01*
X15702Y37470D01*
Y37670D01*
X15802Y37770D01*
X16001D01*
X16101Y37670D01*
Y37570D01*
X15702D01*
X16301Y37770D02*
Y37370D01*
Y37570D01*
X16401Y37670D01*
X16501Y37770D01*
X16601D01*
X17501Y37370D02*
Y37970D01*
X17801D01*
X17901Y37870D01*
Y37670D01*
X17801Y37570D01*
X17501D01*
X17701D02*
X17901Y37370D01*
X18401D02*
X18201D01*
X18101Y37470D01*
Y37670D01*
X18201Y37770D01*
X18401D01*
X18501Y37670D01*
Y37570D01*
X18101D01*
X18701Y37370D02*
X19001D01*
X19100Y37470D01*
X19001Y37570D01*
X18801D01*
X18701Y37670D01*
X18801Y37770D01*
X19100D01*
X19300Y37370D02*
X19500D01*
X19400D01*
Y37770D01*
X19300D01*
X19800Y37370D02*
X20100D01*
X20200Y37470D01*
X20100Y37570D01*
X19900D01*
X19800Y37670D01*
X19900Y37770D01*
X20200D01*
X20500Y37870D02*
Y37770D01*
X20400D01*
X20600D01*
X20500D01*
Y37470D01*
X20600Y37370D01*
X13802Y36670D02*
X13702Y36770D01*
X13502D01*
X13402Y36670D01*
Y36270D01*
X13502Y36170D01*
X13702D01*
X13802Y36270D01*
X14102Y36170D02*
X14302D01*
X14402Y36270D01*
Y36470D01*
X14302Y36570D01*
X14102D01*
X14002Y36470D01*
Y36270D01*
X14102Y36170D01*
X14602Y35970D02*
Y36570D01*
X14902D01*
X15002Y36470D01*
Y36270D01*
X14902Y36170D01*
X14602D01*
X15202Y35970D02*
Y36570D01*
X15502D01*
X15602Y36470D01*
Y36270D01*
X15502Y36170D01*
X15202D01*
X16101D02*
X15902D01*
X15802Y36270D01*
Y36470D01*
X15902Y36570D01*
X16101D01*
X16201Y36470D01*
Y36370D01*
X15802D01*
X16401Y36570D02*
Y36170D01*
Y36370D01*
X16501Y36470D01*
X16601Y36570D01*
X16701D01*
X13802Y35570D02*
X13402D01*
Y35270D01*
X13602D01*
X13402D01*
Y34970D01*
X14002D02*
Y35570D01*
X14302D01*
X14402Y35470D01*
Y35270D01*
X14302Y35170D01*
X14002D01*
X14202D02*
X14402Y34970D01*
X14902D02*
Y35570D01*
X14602Y35270D01*
X15002D01*
X15202Y35470D02*
X15302Y35570D01*
X15502D01*
X15602Y35470D01*
Y35070D01*
X15502Y34970D01*
X15302D01*
X15202Y35070D01*
Y35470D01*
X15802D02*
X15902Y35570D01*
X16101D01*
X16201Y35470D01*
Y35370D01*
X16101Y35270D01*
X16201Y35170D01*
Y35070D01*
X16101Y34970D01*
X15902D01*
X15802Y35070D01*
Y35170D01*
X15902Y35270D01*
X15802Y35370D01*
Y35470D01*
X15902Y35270D02*
X16101D01*
X13802Y34270D02*
X13702Y34370D01*
X13502D01*
X13402Y34270D01*
Y33870D01*
X13502Y33770D01*
X13702D01*
X13802Y33870D01*
X14102Y33770D02*
X14302D01*
X14402Y33870D01*
Y34070D01*
X14302Y34170D01*
X14102D01*
X14002Y34070D01*
Y33870D01*
X14102Y33770D01*
X14602Y33570D02*
Y34170D01*
X14902D01*
X15002Y34070D01*
Y33870D01*
X14902Y33770D01*
X14602D01*
X15202Y33570D02*
Y34170D01*
X15502D01*
X15602Y34070D01*
Y33870D01*
X15502Y33770D01*
X15202D01*
X16101D02*
X15902D01*
X15802Y33870D01*
Y34070D01*
X15902Y34170D01*
X16101D01*
X16201Y34070D01*
Y33970D01*
X15802D01*
X16401Y34170D02*
Y33770D01*
Y33970D01*
X16501Y34070D01*
X16601Y34170D01*
X16701D01*
X13802Y33170D02*
X13402D01*
Y32870D01*
X13602D01*
X13402D01*
Y32570D01*
X14002D02*
Y33170D01*
X14302D01*
X14402Y33070D01*
Y32870D01*
X14302Y32770D01*
X14002D01*
X14202D02*
X14402Y32570D01*
X14902D02*
Y33170D01*
X14602Y32870D01*
X15002D01*
X15202Y33070D02*
X15302Y33170D01*
X15502D01*
X15602Y33070D01*
Y32670D01*
X15502Y32570D01*
X15302D01*
X15202Y32670D01*
Y33070D01*
X15802D02*
X15902Y33170D01*
X16101D01*
X16201Y33070D01*
Y32970D01*
X16101Y32870D01*
X16201Y32770D01*
Y32670D01*
X16101Y32570D01*
X15902D01*
X15802Y32670D01*
Y32770D01*
X15902Y32870D01*
X15802Y32970D01*
Y33070D01*
X15902Y32870D02*
X16101D01*
X13802Y31870D02*
X13702Y31970D01*
X13502D01*
X13402Y31870D01*
Y31470D01*
X13502Y31370D01*
X13702D01*
X13802Y31470D01*
X14102Y31370D02*
X14302D01*
X14402Y31470D01*
Y31670D01*
X14302Y31770D01*
X14102D01*
X14002Y31670D01*
Y31470D01*
X14102Y31370D01*
X14602Y31170D02*
Y31770D01*
X14902D01*
X15002Y31670D01*
Y31470D01*
X14902Y31370D01*
X14602D01*
X15202Y31170D02*
Y31770D01*
X15502D01*
X15602Y31670D01*
Y31470D01*
X15502Y31370D01*
X15202D01*
X16101D02*
X15902D01*
X15802Y31470D01*
Y31670D01*
X15902Y31770D01*
X16101D01*
X16201Y31670D01*
Y31570D01*
X15802D01*
X16401Y31770D02*
Y31370D01*
Y31570D01*
X16501Y31670D01*
X16601Y31770D01*
X16701D01*
X13802Y30770D02*
X13402D01*
Y30470D01*
X13602D01*
X13402D01*
Y30170D01*
X14002D02*
Y30770D01*
X14302D01*
X14402Y30670D01*
Y30470D01*
X14302Y30370D01*
X14002D01*
X14202D02*
X14402Y30170D01*
X14902D02*
Y30770D01*
X14602Y30470D01*
X15002D01*
X15202Y30670D02*
X15302Y30770D01*
X15502D01*
X15602Y30670D01*
Y30270D01*
X15502Y30170D01*
X15302D01*
X15202Y30270D01*
Y30670D01*
X15802D02*
X15902Y30770D01*
X16101D01*
X16201Y30670D01*
Y30570D01*
X16101Y30470D01*
X16201Y30370D01*
Y30270D01*
X16101Y30170D01*
X15902D01*
X15802Y30270D01*
Y30370D01*
X15902Y30470D01*
X15802Y30570D01*
Y30670D01*
X15902Y30470D02*
X16101D01*
X13802Y29470D02*
X13702Y29570D01*
X13502D01*
X13402Y29470D01*
Y29070D01*
X13502Y28970D01*
X13702D01*
X13802Y29070D01*
X14102Y28970D02*
X14302D01*
X14402Y29070D01*
Y29270D01*
X14302Y29370D01*
X14102D01*
X14002Y29270D01*
Y29070D01*
X14102Y28970D01*
X14602Y28770D02*
Y29370D01*
X14902D01*
X15002Y29270D01*
Y29070D01*
X14902Y28970D01*
X14602D01*
X15202Y28770D02*
Y29370D01*
X15502D01*
X15602Y29270D01*
Y29070D01*
X15502Y28970D01*
X15202D01*
X16101D02*
X15902D01*
X15802Y29070D01*
Y29270D01*
X15902Y29370D01*
X16101D01*
X16201Y29270D01*
Y29170D01*
X15802D01*
X16401Y29370D02*
Y28970D01*
Y29170D01*
X16501Y29270D01*
X16601Y29370D01*
X16701D01*
X13802Y28270D02*
X13702Y28370D01*
X13502D01*
X13402Y28270D01*
Y28170D01*
X13502Y28070D01*
X13702D01*
X13802Y27970D01*
Y27870D01*
X13702Y27770D01*
X13502D01*
X13402Y27870D01*
X14102Y27770D02*
X14302D01*
X14402Y27870D01*
Y28070D01*
X14302Y28170D01*
X14102D01*
X14002Y28070D01*
Y27870D01*
X14102Y27770D01*
X14602D02*
X14802D01*
X14702D01*
Y28370D01*
X14602D01*
X15502D02*
Y27770D01*
X15202D01*
X15102Y27870D01*
Y28070D01*
X15202Y28170D01*
X15502D01*
X16001Y27770D02*
X15802D01*
X15702Y27870D01*
Y28070D01*
X15802Y28170D01*
X16001D01*
X16101Y28070D01*
Y27970D01*
X15702D01*
X16301Y28170D02*
Y27770D01*
Y27970D01*
X16401Y28070D01*
X16501Y28170D01*
X16601D01*
X17501Y27770D02*
Y28370D01*
X17801D01*
X17901Y28270D01*
Y28070D01*
X17801Y27970D01*
X17501D01*
X17701D02*
X17901Y27770D01*
X18401D02*
X18201D01*
X18101Y27870D01*
Y28070D01*
X18201Y28170D01*
X18401D01*
X18501Y28070D01*
Y27970D01*
X18101D01*
X18701Y27770D02*
X19001D01*
X19100Y27870D01*
X19001Y27970D01*
X18801D01*
X18701Y28070D01*
X18801Y28170D01*
X19100D01*
X19300Y27770D02*
X19500D01*
X19400D01*
Y28170D01*
X19300D01*
X19800Y27770D02*
X20100D01*
X20200Y27870D01*
X20100Y27970D01*
X19900D01*
X19800Y28070D01*
X19900Y28170D01*
X20200D01*
X20500Y28270D02*
Y28170D01*
X20400D01*
X20600D01*
X20500D01*
Y27870D01*
X20600Y27770D01*
X13402Y39770D02*
Y40370D01*
X13602Y40170D01*
X13802Y40370D01*
Y39770D01*
X14102Y40170D02*
X14302D01*
X14402Y40070D01*
Y39770D01*
X14102D01*
X14002Y39870D01*
X14102Y39970D01*
X14402D01*
X14702Y40270D02*
Y40170D01*
X14602D01*
X14802D01*
X14702D01*
Y39870D01*
X14802Y39770D01*
X15402D02*
X15202D01*
X15102Y39870D01*
Y40070D01*
X15202Y40170D01*
X15402D01*
X15502Y40070D01*
Y39970D01*
X15102D01*
X15702Y40170D02*
Y39770D01*
Y39970D01*
X15802Y40070D01*
X15902Y40170D01*
X16001D01*
X16301Y39770D02*
X16501D01*
X16401D01*
Y40170D01*
X16301D01*
X16901D02*
X17101D01*
X17201Y40070D01*
Y39770D01*
X16901D01*
X16801Y39870D01*
X16901Y39970D01*
X17201D01*
X17401Y39770D02*
X17601D01*
X17501D01*
Y40370D01*
X17401D01*
X4005Y39170D02*
X4405D01*
X4205D01*
Y38570D01*
X4705D02*
X4905D01*
X5005Y38670D01*
Y38870D01*
X4905Y38970D01*
X4705D01*
X4605Y38870D01*
Y38670D01*
X4705Y38570D01*
X5205Y38370D02*
Y38970D01*
X5504D01*
X5604Y38870D01*
Y38670D01*
X5504Y38570D01*
X5205D01*
X6704Y39170D02*
X6504D01*
X6404Y39070D01*
Y38670D01*
X6504Y38570D01*
X6704D01*
X6804Y38670D01*
Y39070D01*
X6704Y39170D01*
X7004Y38970D02*
X7204Y38570D01*
X7404Y38970D01*
X7904Y38570D02*
X7704D01*
X7604Y38670D01*
Y38870D01*
X7704Y38970D01*
X7904D01*
X8004Y38870D01*
Y38770D01*
X7604D01*
X8204Y38970D02*
Y38570D01*
Y38770D01*
X8304Y38870D01*
X8403Y38970D01*
X8503D01*
X8803Y38570D02*
X9003D01*
X8903D01*
Y39170D01*
X8803D01*
X9403Y38970D02*
X9603D01*
X9703Y38870D01*
Y38570D01*
X9403D01*
X9303Y38670D01*
X9403Y38770D01*
X9703D01*
X9903Y38970D02*
Y38670D01*
X10003Y38570D01*
X10303D01*
Y38470D01*
X10203Y38370D01*
X10103D01*
X10303Y38570D02*
Y38970D01*
X4005Y37970D02*
X4405D01*
X4205D01*
Y37370D01*
X4705D02*
X4905D01*
X5005Y37470D01*
Y37670D01*
X4905Y37770D01*
X4705D01*
X4605Y37670D01*
Y37470D01*
X4705Y37370D01*
X5205Y37170D02*
Y37770D01*
X5504D01*
X5604Y37670D01*
Y37470D01*
X5504Y37370D01*
X5205D01*
X6804Y37870D02*
X6704Y37970D01*
X6504D01*
X6404Y37870D01*
Y37770D01*
X6504Y37670D01*
X6704D01*
X6804Y37570D01*
Y37470D01*
X6704Y37370D01*
X6504D01*
X6404Y37470D01*
X7104Y37370D02*
X7304D01*
X7404Y37470D01*
Y37670D01*
X7304Y37770D01*
X7104D01*
X7004Y37670D01*
Y37470D01*
X7104Y37370D01*
X7604D02*
X7804D01*
X7704D01*
Y37970D01*
X7604D01*
X8503D02*
Y37370D01*
X8204D01*
X8104Y37470D01*
Y37670D01*
X8204Y37770D01*
X8503D01*
X9003Y37370D02*
X8803D01*
X8703Y37470D01*
Y37670D01*
X8803Y37770D01*
X9003D01*
X9103Y37670D01*
Y37570D01*
X8703D01*
X9303Y37770D02*
Y37370D01*
Y37570D01*
X9403Y37670D01*
X9503Y37770D01*
X9603D01*
X4005Y36770D02*
X4405D01*
X4205D01*
Y36170D01*
X4705D02*
X4905D01*
X5005Y36270D01*
Y36470D01*
X4905Y36570D01*
X4705D01*
X4605Y36470D01*
Y36270D01*
X4705Y36170D01*
X5205Y35970D02*
Y36570D01*
X5504D01*
X5604Y36470D01*
Y36270D01*
X5504Y36170D01*
X5205D01*
X6404Y36770D02*
Y36170D01*
X6804D01*
X7104Y36570D02*
X7304D01*
X7404Y36470D01*
Y36170D01*
X7104D01*
X7004Y36270D01*
X7104Y36370D01*
X7404D01*
X7604Y36570D02*
Y36270D01*
X7704Y36170D01*
X8004D01*
Y36070D01*
X7904Y35970D01*
X7804D01*
X8004Y36170D02*
Y36570D01*
X8503Y36170D02*
X8304D01*
X8204Y36270D01*
Y36470D01*
X8304Y36570D01*
X8503D01*
X8603Y36470D01*
Y36370D01*
X8204D01*
X8803Y36570D02*
Y36170D01*
Y36370D01*
X8903Y36470D01*
X9003Y36570D01*
X9103D01*
X4005Y35570D02*
Y34970D01*
X4305D01*
X4405Y35070D01*
Y35470D01*
X4305Y35570D01*
X4005D01*
X4605Y34970D02*
X4805D01*
X4705D01*
Y35370D01*
X4605D01*
X5404Y34970D02*
X5205D01*
X5105Y35070D01*
Y35270D01*
X5205Y35370D01*
X5404D01*
X5504Y35270D01*
Y35170D01*
X5105D01*
X5704Y34970D02*
X5904D01*
X5804D01*
Y35570D01*
X5704D01*
X6504Y34970D02*
X6304D01*
X6204Y35070D01*
Y35270D01*
X6304Y35370D01*
X6504D01*
X6604Y35270D01*
Y35170D01*
X6204D01*
X7204Y35370D02*
X6904D01*
X6804Y35270D01*
Y35070D01*
X6904Y34970D01*
X7204D01*
X7504Y35470D02*
Y35370D01*
X7404D01*
X7604D01*
X7504D01*
Y35070D01*
X7604Y34970D01*
X7904Y35370D02*
Y34970D01*
Y35170D01*
X8004Y35270D01*
X8104Y35370D01*
X8204D01*
X8503Y34970D02*
X8703D01*
X8603D01*
Y35370D01*
X8503D01*
X9403D02*
X9103D01*
X9003Y35270D01*
Y35070D01*
X9103Y34970D01*
X9403D01*
X10203D02*
X10403D01*
X10303D01*
Y35570D01*
X10203Y35470D01*
X4405Y34270D02*
X4305Y34370D01*
X4105D01*
X4005Y34270D01*
Y34170D01*
X4105Y34070D01*
X4305D01*
X4405Y33970D01*
Y33870D01*
X4305Y33770D01*
X4105D01*
X4005Y33870D01*
X4605Y33770D02*
X4805D01*
X4705D01*
Y34170D01*
X4605D01*
X5304Y33570D02*
X5404D01*
X5504Y33670D01*
Y34170D01*
X5205D01*
X5105Y34070D01*
Y33870D01*
X5205Y33770D01*
X5504D01*
X5704D02*
Y34170D01*
X6004D01*
X6104Y34070D01*
Y33770D01*
X6404Y34170D02*
X6604D01*
X6704Y34070D01*
Y33770D01*
X6404D01*
X6304Y33870D01*
X6404Y33970D01*
X6704D01*
X6904Y33770D02*
X7104D01*
X7004D01*
Y34370D01*
X6904D01*
X8004D02*
Y33770D01*
X8403D01*
X8703Y34170D02*
X8903D01*
X9003Y34070D01*
Y33770D01*
X8703D01*
X8603Y33870D01*
X8703Y33970D01*
X9003D01*
X9203Y34170D02*
Y33870D01*
X9303Y33770D01*
X9603D01*
Y33670D01*
X9503Y33570D01*
X9403D01*
X9603Y33770D02*
Y34170D01*
X10103Y33770D02*
X9903D01*
X9803Y33870D01*
Y34070D01*
X9903Y34170D01*
X10103D01*
X10203Y34070D01*
Y33970D01*
X9803D01*
X10403Y34170D02*
Y33770D01*
Y33970D01*
X10503Y34070D01*
X10603Y34170D01*
X10703D01*
X11602Y33770D02*
X11802D01*
X11702D01*
Y34370D01*
X11602Y34270D01*
X4005Y33170D02*
Y32570D01*
X4305D01*
X4405Y32670D01*
Y33070D01*
X4305Y33170D01*
X4005D01*
X4605Y32570D02*
X4805D01*
X4705D01*
Y32970D01*
X4605D01*
X5404Y32570D02*
X5205D01*
X5105Y32670D01*
Y32870D01*
X5205Y32970D01*
X5404D01*
X5504Y32870D01*
Y32770D01*
X5105D01*
X5704Y32570D02*
X5904D01*
X5804D01*
Y33170D01*
X5704D01*
X6504Y32570D02*
X6304D01*
X6204Y32670D01*
Y32870D01*
X6304Y32970D01*
X6504D01*
X6604Y32870D01*
Y32770D01*
X6204D01*
X7204Y32970D02*
X6904D01*
X6804Y32870D01*
Y32670D01*
X6904Y32570D01*
X7204D01*
X7504Y33070D02*
Y32970D01*
X7404D01*
X7604D01*
X7504D01*
Y32670D01*
X7604Y32570D01*
X7904Y32970D02*
Y32570D01*
Y32770D01*
X8004Y32870D01*
X8104Y32970D01*
X8204D01*
X8503Y32570D02*
X8703D01*
X8603D01*
Y32970D01*
X8503D01*
X9403D02*
X9103D01*
X9003Y32870D01*
Y32670D01*
X9103Y32570D01*
X9403D01*
X10203Y33070D02*
X10303Y33170D01*
X10503D01*
X10603Y33070D01*
Y32970D01*
X10503Y32870D01*
X10403D01*
X10503D01*
X10603Y32770D01*
Y32670D01*
X10503Y32570D01*
X10303D01*
X10203Y32670D01*
X4405Y31870D02*
X4305Y31970D01*
X4105D01*
X4005Y31870D01*
Y31770D01*
X4105Y31670D01*
X4305D01*
X4405Y31570D01*
Y31470D01*
X4305Y31370D01*
X4105D01*
X4005Y31470D01*
X4605Y31370D02*
X4805D01*
X4705D01*
Y31770D01*
X4605D01*
X5304Y31170D02*
X5404D01*
X5504Y31270D01*
Y31770D01*
X5205D01*
X5105Y31670D01*
Y31470D01*
X5205Y31370D01*
X5504D01*
X5704D02*
Y31770D01*
X6004D01*
X6104Y31670D01*
Y31370D01*
X6404Y31770D02*
X6604D01*
X6704Y31670D01*
Y31370D01*
X6404D01*
X6304Y31470D01*
X6404Y31570D01*
X6704D01*
X6904Y31370D02*
X7104D01*
X7004D01*
Y31970D01*
X6904D01*
X8004D02*
Y31370D01*
X8403D01*
X8703Y31770D02*
X8903D01*
X9003Y31670D01*
Y31370D01*
X8703D01*
X8603Y31470D01*
X8703Y31570D01*
X9003D01*
X9203Y31770D02*
Y31470D01*
X9303Y31370D01*
X9603D01*
Y31270D01*
X9503Y31170D01*
X9403D01*
X9603Y31370D02*
Y31770D01*
X10103Y31370D02*
X9903D01*
X9803Y31470D01*
Y31670D01*
X9903Y31770D01*
X10103D01*
X10203Y31670D01*
Y31570D01*
X9803D01*
X10403Y31770D02*
Y31370D01*
Y31570D01*
X10503Y31670D01*
X10603Y31770D01*
X10703D01*
X12002Y31370D02*
X11602D01*
X12002Y31770D01*
Y31870D01*
X11902Y31970D01*
X11702D01*
X11602Y31870D01*
X4005Y30770D02*
Y30170D01*
X4305D01*
X4405Y30270D01*
Y30670D01*
X4305Y30770D01*
X4005D01*
X4605Y30170D02*
X4805D01*
X4705D01*
Y30570D01*
X4605D01*
X5404Y30170D02*
X5205D01*
X5105Y30270D01*
Y30470D01*
X5205Y30570D01*
X5404D01*
X5504Y30470D01*
Y30370D01*
X5105D01*
X5704Y30170D02*
X5904D01*
X5804D01*
Y30770D01*
X5704D01*
X6504Y30170D02*
X6304D01*
X6204Y30270D01*
Y30470D01*
X6304Y30570D01*
X6504D01*
X6604Y30470D01*
Y30370D01*
X6204D01*
X7204Y30570D02*
X6904D01*
X6804Y30470D01*
Y30270D01*
X6904Y30170D01*
X7204D01*
X7504Y30670D02*
Y30570D01*
X7404D01*
X7604D01*
X7504D01*
Y30270D01*
X7604Y30170D01*
X7904Y30570D02*
Y30170D01*
Y30370D01*
X8004Y30470D01*
X8104Y30570D01*
X8204D01*
X8503Y30170D02*
X8703D01*
X8603D01*
Y30570D01*
X8503D01*
X9403D02*
X9103D01*
X9003Y30470D01*
Y30270D01*
X9103Y30170D01*
X9403D01*
X10603D02*
X10203D01*
X10603Y30570D01*
Y30670D01*
X10503Y30770D01*
X10303D01*
X10203Y30670D01*
X4005Y29570D02*
Y28970D01*
X4305D01*
X4405Y29070D01*
Y29170D01*
X4305Y29270D01*
X4005D01*
X4305D01*
X4405Y29370D01*
Y29470D01*
X4305Y29570D01*
X4005D01*
X4705Y28970D02*
X4905D01*
X5005Y29070D01*
Y29270D01*
X4905Y29370D01*
X4705D01*
X4605Y29270D01*
Y29070D01*
X4705Y28970D01*
X5304Y29470D02*
Y29370D01*
X5205D01*
X5404D01*
X5304D01*
Y29070D01*
X5404Y28970D01*
X5804Y29470D02*
Y29370D01*
X5704D01*
X5904D01*
X5804D01*
Y29070D01*
X5904Y28970D01*
X6304D02*
X6504D01*
X6604Y29070D01*
Y29270D01*
X6504Y29370D01*
X6304D01*
X6204Y29270D01*
Y29070D01*
X6304Y28970D01*
X6804D02*
Y29370D01*
X6904D01*
X7004Y29270D01*
Y28970D01*
Y29270D01*
X7104Y29370D01*
X7204Y29270D01*
Y28970D01*
X8004Y29570D02*
Y28970D01*
X8403D01*
X8703Y29370D02*
X8903D01*
X9003Y29270D01*
Y28970D01*
X8703D01*
X8603Y29070D01*
X8703Y29170D01*
X9003D01*
X9203Y29370D02*
Y29070D01*
X9303Y28970D01*
X9603D01*
Y28870D01*
X9503Y28770D01*
X9403D01*
X9603Y28970D02*
Y29370D01*
X10103Y28970D02*
X9903D01*
X9803Y29070D01*
Y29270D01*
X9903Y29370D01*
X10103D01*
X10203Y29270D01*
Y29170D01*
X9803D01*
X10403Y29370D02*
Y28970D01*
Y29170D01*
X10503Y29270D01*
X10603Y29370D01*
X10703D01*
X4005Y28370D02*
Y27770D01*
X4305D01*
X4405Y27870D01*
Y27970D01*
X4305Y28070D01*
X4005D01*
X4305D01*
X4405Y28170D01*
Y28270D01*
X4305Y28370D01*
X4005D01*
X4705Y27770D02*
X4905D01*
X5005Y27870D01*
Y28070D01*
X4905Y28170D01*
X4705D01*
X4605Y28070D01*
Y27870D01*
X4705Y27770D01*
X5304Y28270D02*
Y28170D01*
X5205D01*
X5404D01*
X5304D01*
Y27870D01*
X5404Y27770D01*
X5804Y28270D02*
Y28170D01*
X5704D01*
X5904D01*
X5804D01*
Y27870D01*
X5904Y27770D01*
X6304D02*
X6504D01*
X6604Y27870D01*
Y28070D01*
X6504Y28170D01*
X6304D01*
X6204Y28070D01*
Y27870D01*
X6304Y27770D01*
X6804D02*
Y28170D01*
X6904D01*
X7004Y28070D01*
Y27770D01*
Y28070D01*
X7104Y28170D01*
X7204Y28070D01*
Y27770D01*
X8403Y28270D02*
X8304Y28370D01*
X8104D01*
X8004Y28270D01*
Y28170D01*
X8104Y28070D01*
X8304D01*
X8403Y27970D01*
Y27870D01*
X8304Y27770D01*
X8104D01*
X8004Y27870D01*
X8703Y27770D02*
X8903D01*
X9003Y27870D01*
Y28070D01*
X8903Y28170D01*
X8703D01*
X8603Y28070D01*
Y27870D01*
X8703Y27770D01*
X9203D02*
X9403D01*
X9303D01*
Y28370D01*
X9203D01*
X10103D02*
Y27770D01*
X9803D01*
X9703Y27870D01*
Y28070D01*
X9803Y28170D01*
X10103D01*
X10603Y27770D02*
X10403D01*
X10303Y27870D01*
Y28070D01*
X10403Y28170D01*
X10603D01*
X10703Y28070D01*
Y27970D01*
X10303D01*
X10903Y28170D02*
Y27770D01*
Y27970D01*
X11003Y28070D01*
X11103Y28170D01*
X11203D01*
X4005Y27170D02*
Y26570D01*
X4305D01*
X4405Y26670D01*
Y26770D01*
X4305Y26870D01*
X4005D01*
X4305D01*
X4405Y26970D01*
Y27070D01*
X4305Y27170D01*
X4005D01*
X4705Y26570D02*
X4905D01*
X5005Y26670D01*
Y26870D01*
X4905Y26970D01*
X4705D01*
X4605Y26870D01*
Y26670D01*
X4705Y26570D01*
X5304Y27070D02*
Y26970D01*
X5205D01*
X5404D01*
X5304D01*
Y26670D01*
X5404Y26570D01*
X5804Y27070D02*
Y26970D01*
X5704D01*
X5904D01*
X5804D01*
Y26670D01*
X5904Y26570D01*
X6304D02*
X6504D01*
X6604Y26670D01*
Y26870D01*
X6504Y26970D01*
X6304D01*
X6204Y26870D01*
Y26670D01*
X6304Y26570D01*
X6804D02*
Y26970D01*
X6904D01*
X7004Y26870D01*
Y26570D01*
Y26870D01*
X7104Y26970D01*
X7204Y26870D01*
Y26570D01*
X8304Y27170D02*
X8104D01*
X8004Y27070D01*
Y26670D01*
X8104Y26570D01*
X8304D01*
X8403Y26670D01*
Y27070D01*
X8304Y27170D01*
X8603Y26970D02*
X8803Y26570D01*
X9003Y26970D01*
X9503Y26570D02*
X9303D01*
X9203Y26670D01*
Y26870D01*
X9303Y26970D01*
X9503D01*
X9603Y26870D01*
Y26770D01*
X9203D01*
X9803Y26970D02*
Y26570D01*
Y26770D01*
X9903Y26870D01*
X10003Y26970D01*
X10103D01*
X10403Y26570D02*
X10603D01*
X10503D01*
Y27170D01*
X10403D01*
X11003Y26970D02*
X11203D01*
X11303Y26870D01*
Y26570D01*
X11003D01*
X10903Y26670D01*
X11003Y26770D01*
X11303D01*
X11502Y26970D02*
Y26670D01*
X11602Y26570D01*
X11902D01*
Y26470D01*
X11802Y26370D01*
X11702D01*
X11902Y26570D02*
Y26970D01*
X4005Y39770D02*
Y40370D01*
X4405Y39770D01*
Y40370D01*
X4705Y40170D02*
X4905D01*
X5005Y40070D01*
Y39770D01*
X4705D01*
X4605Y39870D01*
X4705Y39970D01*
X5005D01*
X5205Y39770D02*
Y40170D01*
X5304D01*
X5404Y40070D01*
Y39770D01*
Y40070D01*
X5504Y40170D01*
X5604Y40070D01*
Y39770D01*
X6104D02*
X5904D01*
X5804Y39870D01*
Y40070D01*
X5904Y40170D01*
X6104D01*
X6204Y40070D01*
Y39970D01*
X5804D01*
X-94Y38570D02*
X106D01*
X6D01*
Y39170D01*
X-94Y39070D01*
X306Y37370D02*
X-94D01*
X306Y37770D01*
Y37870D01*
X206Y37970D01*
X6D01*
X-94Y37870D01*
Y36670D02*
X6Y36770D01*
X206D01*
X306Y36670D01*
Y36570D01*
X206Y36470D01*
X106D01*
X206D01*
X306Y36370D01*
Y36270D01*
X206Y36170D01*
X6D01*
X-94Y36270D01*
X206Y34970D02*
Y35570D01*
X-94Y35270D01*
X306D01*
Y34370D02*
X-94D01*
Y34070D01*
X106Y34170D01*
X206D01*
X306Y34070D01*
Y33870D01*
X206Y33770D01*
X6D01*
X-94Y33870D01*
X306Y33170D02*
X106Y33070D01*
X-94Y32870D01*
Y32670D01*
X6Y32570D01*
X206D01*
X306Y32670D01*
Y32770D01*
X206Y32870D01*
X-94D01*
Y31970D02*
X306D01*
Y31870D01*
X-94Y31470D01*
Y31370D01*
Y30670D02*
X6Y30770D01*
X206D01*
X306Y30670D01*
Y30570D01*
X206Y30470D01*
X306Y30370D01*
Y30270D01*
X206Y30170D01*
X6D01*
X-94Y30270D01*
Y30370D01*
X6Y30470D01*
X-94Y30570D01*
Y30670D01*
X6Y30470D02*
X206D01*
X-94Y29070D02*
X6Y28970D01*
X206D01*
X306Y29070D01*
Y29470D01*
X206Y29570D01*
X6D01*
X-94Y29470D01*
Y29370D01*
X6Y29270D01*
X306D01*
X-94Y27770D02*
X106D01*
X6D01*
Y28370D01*
X-94Y28270D01*
X406D02*
X506Y28370D01*
X706D01*
X806Y28270D01*
Y27870D01*
X706Y27770D01*
X506D01*
X406Y27870D01*
Y28270D01*
X-94Y26570D02*
X106D01*
X6D01*
Y27170D01*
X-94Y27070D01*
X406Y26570D02*
X606D01*
X506D01*
Y27170D01*
X406Y27070D01*
X-94Y40370D02*
Y39770D01*
X306D01*
X606Y40170D02*
X806D01*
X905Y40070D01*
Y39770D01*
X606D01*
X506Y39870D01*
X606Y39970D01*
X905D01*
X1105Y40170D02*
Y39870D01*
X1205Y39770D01*
X1505D01*
Y39670D01*
X1405Y39570D01*
X1305D01*
X1505Y39770D02*
Y40170D01*
X2005Y39770D02*
X1805D01*
X1705Y39870D01*
Y40070D01*
X1805Y40170D01*
X2005D01*
X2105Y40070D01*
Y39970D01*
X1705D01*
X2305Y40170D02*
Y39770D01*
Y39970D01*
X2405Y40070D01*
X2505Y40170D01*
X2605D01*
D54*
X3Y-2411D02*
Y2274D01*
D98*
X44794Y26270D02*
Y40670D01*
X33597Y38270D02*
X44794D01*
X33597Y37070D02*
X44794D01*
X33597Y35870D02*
X44794D01*
X33597Y34670D02*
X44794D01*
X33597Y33470D02*
X44794D01*
X33597Y32270D02*
X44794D01*
X33597Y31070D02*
X44794D01*
X33597Y29870D02*
X44794D01*
X33597Y28670D02*
X44794D01*
X33597Y27470D02*
X44794D01*
X33597Y26270D02*
X44794D01*
X33597D02*
Y40670D01*
X27898Y38270D02*
X33597D01*
X27898Y37070D02*
X33597D01*
X27898Y35870D02*
X33597D01*
X27898Y34670D02*
X33597D01*
X27898Y33470D02*
X33597D01*
X27898Y32270D02*
X33597D01*
X27898Y31070D02*
X33597D01*
X27898Y29870D02*
X33597D01*
X27898Y28670D02*
X33597D01*
X27898Y27470D02*
X33597D01*
X27898Y26270D02*
X33597D01*
X27898D02*
Y40670D01*
X21400Y38270D02*
X27898D01*
X21400Y37070D02*
X27898D01*
X21400Y35870D02*
X27898D01*
X21400Y34670D02*
X27898D01*
X21400Y33470D02*
X27898D01*
X21400Y32270D02*
X27898D01*
X21400Y31070D02*
X27898D01*
X21400Y29870D02*
X27898D01*
X21400Y28670D02*
X27898D01*
X21400Y27470D02*
X27898D01*
X21400Y26270D02*
X27898D01*
X21400D02*
Y40670D01*
X12802Y38270D02*
X21400D01*
X12802Y37070D02*
X21400D01*
X12802Y35870D02*
X21400D01*
X12802Y34670D02*
X21400D01*
X12802Y33470D02*
X21400D01*
X12802Y32270D02*
X21400D01*
X12802Y31070D02*
X21400D01*
X12802Y29870D02*
X21400D01*
X12802Y28670D02*
X21400D01*
X12802Y27470D02*
X21400D01*
X12802Y26270D02*
X21400D01*
X12802D02*
Y40670D01*
X3405Y38270D02*
X12802D01*
X3405Y37070D02*
X12802D01*
X3405Y35870D02*
X12802D01*
X3405Y34670D02*
X12802D01*
X3405Y33470D02*
X12802D01*
X3405Y32270D02*
X12802D01*
X3405Y31070D02*
X12802D01*
X3405Y29870D02*
X12802D01*
X3405Y28670D02*
X12802D01*
X3405Y27470D02*
X12802D01*
X3405Y26270D02*
X12802D01*
X3405D02*
Y40670D01*
X-694Y38270D02*
X3405D01*
X-694Y37070D02*
X3405D01*
X-694Y35870D02*
X3405D01*
X-694Y34670D02*
X3405D01*
X-694Y33470D02*
X3405D01*
X-694Y32270D02*
X3405D01*
X-694Y31070D02*
X3405D01*
X-694Y29870D02*
X3405D01*
X-694Y28670D02*
X3405D01*
X-694Y27470D02*
X3405D01*
X-694Y26270D02*
X3405D01*
X-694D02*
Y40670D01*
X44794D01*
X-694Y39470D02*
X44794D01*
D99*
X33597Y39073D02*
X33994Y39470D01*
X33597Y38473D02*
X34594Y39470D01*
X33994Y38270D02*
X35194Y39470D01*
X34594Y38270D02*
X35794Y39470D01*
X35194Y38270D02*
X36394Y39470D01*
X35794Y38270D02*
X36994Y39470D01*
X36394Y38270D02*
X37594Y39470D01*
X36994Y38270D02*
X38194Y39470D01*
X37594Y38270D02*
X38794Y39470D01*
X38194Y38270D02*
X39394Y39470D01*
X38794Y38270D02*
X39994Y39470D01*
X39394Y38270D02*
X40594Y39470D01*
X39994Y38270D02*
X41194Y39470D01*
X40594Y38270D02*
X41794Y39470D01*
X41194Y38270D02*
X42394Y39470D01*
X41794Y38270D02*
X42994Y39470D01*
X42394Y38270D02*
X43594Y39470D01*
X42994Y38270D02*
X44194Y39470D01*
X43594Y38270D02*
X44794Y39470D01*
X44194Y38270D02*
X44794Y38870D01*
X33597Y37873D02*
X33994Y38270D01*
X33597Y37273D02*
X34594Y38270D01*
X33994Y37070D02*
X35194Y38270D01*
X34594Y37070D02*
X35794Y38270D01*
X35194Y37070D02*
X36394Y38270D01*
X35794Y37070D02*
X36994Y38270D01*
X36394Y37070D02*
X37594Y38270D01*
X36994Y37070D02*
X38194Y38270D01*
X37594Y37070D02*
X38794Y38270D01*
X38194Y37070D02*
X39394Y38270D01*
X38794Y37070D02*
X39994Y38270D01*
X39394Y37070D02*
X40594Y38270D01*
X39994Y37070D02*
X41194Y38270D01*
X40594Y37070D02*
X41794Y38270D01*
X41194Y37070D02*
X42394Y38270D01*
X41794Y37070D02*
X42994Y38270D01*
X42394Y37070D02*
X43594Y38270D01*
X42994Y37070D02*
X44194Y38270D01*
X43594Y37070D02*
X44794Y38270D01*
X44194Y37070D02*
X44794Y37670D01*
X33597Y36673D02*
X33994Y37070D01*
X33597Y36073D02*
X34594Y37070D01*
X33994Y35870D02*
X35194Y37070D01*
X34594Y35870D02*
X35794Y37070D01*
X35194Y35870D02*
X36394Y37070D01*
X35794Y35870D02*
X36994Y37070D01*
X36394Y35870D02*
X37594Y37070D01*
X36994Y35870D02*
X38194Y37070D01*
X37594Y35870D02*
X38794Y37070D01*
X38194Y35870D02*
X39394Y37070D01*
X38794Y35870D02*
X39994Y37070D01*
X39394Y35870D02*
X40594Y37070D01*
X39994Y35870D02*
X41194Y37070D01*
X40594Y35870D02*
X41794Y37070D01*
X41194Y35870D02*
X42394Y37070D01*
X41794Y35870D02*
X42994Y37070D01*
X42394Y35870D02*
X43594Y37070D01*
X42994Y35870D02*
X44194Y37070D01*
X43594Y35870D02*
X44794Y37070D01*
X44194Y35870D02*
X44794Y36470D01*
X33597Y35473D02*
X33994Y35870D01*
X33597Y34873D02*
X34594Y35870D01*
X33994Y34670D02*
X35194Y35870D01*
X34594Y34670D02*
X35794Y35870D01*
X35194Y34670D02*
X36394Y35870D01*
X35794Y34670D02*
X36994Y35870D01*
X36394Y34670D02*
X37594Y35870D01*
X36994Y34670D02*
X38194Y35870D01*
X37594Y34670D02*
X38794Y35870D01*
X38194Y34670D02*
X39394Y35870D01*
X38794Y34670D02*
X39994Y35870D01*
X39394Y34670D02*
X40594Y35870D01*
X39994Y34670D02*
X41194Y35870D01*
X40594Y34670D02*
X41794Y35870D01*
X41194Y34670D02*
X42394Y35870D01*
X41794Y34670D02*
X42994Y35870D01*
X42394Y34670D02*
X43594Y35870D01*
X42994Y34670D02*
X44194Y35870D01*
X43594Y34670D02*
X44794Y35870D01*
X44194Y34670D02*
X44794Y35270D01*
X33597Y34273D02*
X33994Y34670D01*
X33597Y33673D02*
X34594Y34670D01*
X33994Y33470D02*
X35194Y34670D01*
X34594Y33470D02*
X35794Y34670D01*
X35194Y33470D02*
X36394Y34670D01*
X35794Y33470D02*
X36994Y34670D01*
X36394Y33470D02*
X37594Y34670D01*
X36994Y33470D02*
X38194Y34670D01*
X37594Y33470D02*
X38794Y34670D01*
X38194Y33470D02*
X39394Y34670D01*
X38794Y33470D02*
X39994Y34670D01*
X39394Y33470D02*
X40594Y34670D01*
X39994Y33470D02*
X41194Y34670D01*
X40594Y33470D02*
X41794Y34670D01*
X41194Y33470D02*
X42394Y34670D01*
X41794Y33470D02*
X42994Y34670D01*
X42394Y33470D02*
X43594Y34670D01*
X42994Y33470D02*
X44194Y34670D01*
X43594Y33470D02*
X44794Y34670D01*
X44194Y33470D02*
X44794Y34070D01*
X33597Y33073D02*
X33994Y33470D01*
X33597Y32473D02*
X34594Y33470D01*
X33994Y32270D02*
X35194Y33470D01*
X34594Y32270D02*
X35794Y33470D01*
X35194Y32270D02*
X36394Y33470D01*
X35794Y32270D02*
X36994Y33470D01*
X36394Y32270D02*
X37594Y33470D01*
X36994Y32270D02*
X38194Y33470D01*
X37594Y32270D02*
X38794Y33470D01*
X38194Y32270D02*
X39394Y33470D01*
X38794Y32270D02*
X39994Y33470D01*
X39394Y32270D02*
X40594Y33470D01*
X39994Y32270D02*
X41194Y33470D01*
X40594Y32270D02*
X41794Y33470D01*
X41194Y32270D02*
X42394Y33470D01*
X41794Y32270D02*
X42994Y33470D01*
X42394Y32270D02*
X43594Y33470D01*
X42994Y32270D02*
X44194Y33470D01*
X43594Y32270D02*
X44794Y33470D01*
X44194Y32270D02*
X44794Y32870D01*
X33597Y31873D02*
X33994Y32270D01*
X33597Y31273D02*
X34594Y32270D01*
X33994Y31070D02*
X35194Y32270D01*
X34594Y31070D02*
X35794Y32270D01*
X35194Y31070D02*
X36394Y32270D01*
X35794Y31070D02*
X36994Y32270D01*
X36394Y31070D02*
X37594Y32270D01*
X36994Y31070D02*
X38194Y32270D01*
X37594Y31070D02*
X38794Y32270D01*
X38194Y31070D02*
X39394Y32270D01*
X38794Y31070D02*
X39994Y32270D01*
X39394Y31070D02*
X40594Y32270D01*
X39994Y31070D02*
X41194Y32270D01*
X40594Y31070D02*
X41794Y32270D01*
X41194Y31070D02*
X42394Y32270D01*
X41794Y31070D02*
X42994Y32270D01*
X42394Y31070D02*
X43594Y32270D01*
X42994Y31070D02*
X44194Y32270D01*
X43594Y31070D02*
X44794Y32270D01*
X44194Y31070D02*
X44794Y31670D01*
X33597Y30673D02*
X33994Y31070D01*
X33597Y30073D02*
X34594Y31070D01*
X33994Y29870D02*
X35194Y31070D01*
X34594Y29870D02*
X35794Y31070D01*
X35194Y29870D02*
X36394Y31070D01*
X35794Y29870D02*
X36994Y31070D01*
X36394Y29870D02*
X37594Y31070D01*
X36994Y29870D02*
X38194Y31070D01*
X37594Y29870D02*
X38794Y31070D01*
X38194Y29870D02*
X39394Y31070D01*
X38794Y29870D02*
X39994Y31070D01*
X39394Y29870D02*
X40594Y31070D01*
X39994Y29870D02*
X41194Y31070D01*
X40594Y29870D02*
X41794Y31070D01*
X41194Y29870D02*
X42394Y31070D01*
X41794Y29870D02*
X42994Y31070D01*
X42394Y29870D02*
X43594Y31070D01*
X42994Y29870D02*
X44194Y31070D01*
X43594Y29870D02*
X44794Y31070D01*
X44194Y29870D02*
X44794Y30470D01*
X33597Y29473D02*
X33994Y29870D01*
X33597Y28873D02*
X34594Y29870D01*
X33994Y28670D02*
X35194Y29870D01*
X34594Y28670D02*
X35794Y29870D01*
X35194Y28670D02*
X36394Y29870D01*
X35794Y28670D02*
X36994Y29870D01*
X36394Y28670D02*
X37594Y29870D01*
X36994Y28670D02*
X38194Y29870D01*
X37594Y28670D02*
X38794Y29870D01*
X38194Y28670D02*
X39394Y29870D01*
X38794Y28670D02*
X39994Y29870D01*
X39394Y28670D02*
X40594Y29870D01*
X39994Y28670D02*
X41194Y29870D01*
X40594Y28670D02*
X41794Y29870D01*
X41194Y28670D02*
X42394Y29870D01*
X41794Y28670D02*
X42994Y29870D01*
X42394Y28670D02*
X43594Y29870D01*
X42994Y28670D02*
X44194Y29870D01*
X43594Y28670D02*
X44794Y29870D01*
X44194Y28670D02*
X44794Y29270D01*
X33597Y28273D02*
X33994Y28670D01*
X33597Y27673D02*
X34594Y28670D01*
X33994Y27470D02*
X35194Y28670D01*
X34594Y27470D02*
X35794Y28670D01*
X35194Y27470D02*
X36394Y28670D01*
X35794Y27470D02*
X36994Y28670D01*
X36394Y27470D02*
X37594Y28670D01*
X36994Y27470D02*
X38194Y28670D01*
X37594Y27470D02*
X38794Y28670D01*
X38194Y27470D02*
X39394Y28670D01*
X38794Y27470D02*
X39994Y28670D01*
X39394Y27470D02*
X40594Y28670D01*
X39994Y27470D02*
X41194Y28670D01*
X40594Y27470D02*
X41794Y28670D01*
X41194Y27470D02*
X42394Y28670D01*
X41794Y27470D02*
X42994Y28670D01*
X42394Y27470D02*
X43594Y28670D01*
X42994Y27470D02*
X44194Y28670D01*
X43594Y27470D02*
X44794Y28670D01*
X44194Y27470D02*
X44794Y28070D01*
X33597Y27073D02*
X33994Y27470D01*
X33597Y26473D02*
X34594Y27470D01*
X33994Y26270D02*
X35194Y27470D01*
X34594Y26270D02*
X35794Y27470D01*
X35194Y26270D02*
X36394Y27470D01*
X35794Y26270D02*
X36994Y27470D01*
X36394Y26270D02*
X37594Y27470D01*
X36994Y26270D02*
X38194Y27470D01*
X37594Y26270D02*
X38794Y27470D01*
X38194Y26270D02*
X39394Y27470D01*
X38794Y26270D02*
X39994Y27470D01*
X39394Y26270D02*
X40594Y27470D01*
X39994Y26270D02*
X41194Y27470D01*
X40594Y26270D02*
X41794Y27470D01*
X41194Y26270D02*
X42394Y27470D01*
X41794Y26270D02*
X42994Y27470D01*
X42394Y26270D02*
X43594Y27470D01*
X42994Y26270D02*
X44194Y27470D01*
X43594Y26270D02*
X44794Y27470D01*
X44194Y26270D02*
X44794Y26870D01*
D100*
X123Y-4995D02*
Y-5661D01*
X457Y-5994D01*
X790Y-5661D01*
Y-4995D01*
X1123Y-5994D02*
X1456D01*
X1290D01*
Y-5328D01*
X1123D01*
X2123D02*
X2456D01*
X2623Y-5495D01*
Y-5994D01*
X2123D01*
X1956Y-5828D01*
X2123Y-5661D01*
X2623D01*
X2956Y-5994D02*
X3456D01*
X3622Y-5828D01*
X3456Y-5661D01*
X3122D01*
X2956Y-5495D01*
X3122Y-5328D01*
X3622D01*
X5122D02*
X5455D01*
X5622Y-5495D01*
Y-5994D01*
X5122D01*
X4955Y-5828D01*
X5122Y-5661D01*
X5622D01*
X5955Y-5328D02*
Y-5994D01*
Y-5661D01*
X6121Y-5495D01*
X6288Y-5328D01*
X6455D01*
X7454Y-5994D02*
X7121D01*
X6954Y-5828D01*
Y-5495D01*
X7121Y-5328D01*
X7454D01*
X7621Y-5495D01*
Y-5661D01*
X6954D01*
X9120Y-5161D02*
Y-5328D01*
X8954D01*
X9287D01*
X9120D01*
Y-5828D01*
X9287Y-5994D01*
X9953D02*
X10287D01*
X10453Y-5828D01*
Y-5495D01*
X10287Y-5328D01*
X9953D01*
X9787Y-5495D01*
Y-5828D01*
X9953Y-5994D01*
X11786Y-4995D02*
Y-5994D01*
X12286D01*
X12453Y-5828D01*
Y-5661D01*
Y-5495D01*
X12286Y-5328D01*
X11786D01*
X13286Y-5994D02*
X12952D01*
X12786Y-5828D01*
Y-5495D01*
X12952Y-5328D01*
X13286D01*
X13452Y-5495D01*
Y-5661D01*
X12786D01*
X14952Y-5994D02*
Y-5161D01*
Y-5495D01*
X14785D01*
X15118D01*
X14952D01*
Y-5161D01*
X15118Y-4995D01*
X15618Y-5994D02*
X15952D01*
X15785D01*
Y-5328D01*
X15618D01*
X16451Y-5994D02*
X16785D01*
X16618D01*
Y-4995D01*
X16451D01*
X17284Y-5994D02*
X17618D01*
X17451D01*
Y-4995D01*
X17284D01*
X18617Y-5994D02*
X18284D01*
X18117Y-5828D01*
Y-5495D01*
X18284Y-5328D01*
X18617D01*
X18784Y-5495D01*
Y-5661D01*
X18117D01*
X19784Y-4995D02*
Y-5994D01*
X19284D01*
X19117Y-5828D01*
Y-5495D01*
X19284Y-5328D01*
X19784D01*
X20117Y-5994D02*
Y-5828D01*
X20283D01*
Y-5994D01*
X20117D01*
X40Y-6410D02*
Y-7410D01*
X706D01*
X1540D02*
X1206D01*
X1040Y-7243D01*
Y-6910D01*
X1206Y-6744D01*
X1540D01*
X1706Y-6910D01*
Y-7077D01*
X1040D01*
X2206Y-6744D02*
X2539D01*
X2706Y-6910D01*
Y-7410D01*
X2206D01*
X2039Y-7243D01*
X2206Y-7077D01*
X2706D01*
X3705Y-6410D02*
Y-7410D01*
X3206D01*
X3039Y-7243D01*
Y-6910D01*
X3206Y-6744D01*
X3705D01*
X5205Y-7410D02*
Y-6577D01*
Y-6910D01*
X5038D01*
X5372D01*
X5205D01*
Y-6577D01*
X5372Y-6410D01*
X5871Y-6744D02*
Y-7410D01*
Y-7077D01*
X6038Y-6910D01*
X6205Y-6744D01*
X6371D01*
X7371Y-7410D02*
X7038D01*
X6871Y-7243D01*
Y-6910D01*
X7038Y-6744D01*
X7371D01*
X7538Y-6910D01*
Y-7077D01*
X6871D01*
X8371Y-7410D02*
X8037D01*
X7871Y-7243D01*
Y-6910D01*
X8037Y-6744D01*
X8371D01*
X8537Y-6910D01*
Y-7077D01*
X7871D01*
X10537Y-6410D02*
X9870D01*
Y-7410D01*
X10537D01*
X9870Y-6910D02*
X10203D01*
X10870Y-7410D02*
Y-6410D01*
X11536Y-7410D01*
Y-6410D01*
X11870D02*
X12203D01*
X12036D01*
Y-7410D01*
X11870D01*
X12203D01*
X13369Y-6577D02*
X13202Y-6410D01*
X12869D01*
X12703Y-6577D01*
Y-7243D01*
X12869Y-7410D01*
X13202D01*
X13369Y-7243D01*
Y-6910D01*
X13036D01*
X14869Y-7410D02*
Y-6577D01*
Y-6910D01*
X14702D01*
X15035D01*
X14869D01*
Y-6577D01*
X15035Y-6410D01*
X15535Y-7410D02*
X15868D01*
X15702D01*
Y-6744D01*
X15535D01*
X16368Y-7410D02*
Y-6744D01*
X16868D01*
X17035Y-6910D01*
Y-7410D01*
X17368D02*
X17701D01*
X17534D01*
Y-6744D01*
X17368D01*
X18201Y-7410D02*
X18701D01*
X18867Y-7243D01*
X18701Y-7077D01*
X18367D01*
X18201Y-6910D01*
X18367Y-6744D01*
X18867D01*
X19200Y-6410D02*
Y-7410D01*
Y-6910D01*
X19367Y-6744D01*
X19700D01*
X19867Y-6910D01*
Y-7410D01*
X20200D02*
Y-7243D01*
X20367D01*
Y-7410D01*
X20200D01*
M02*
