G04 Layer_Color=32768*
%FSLAX24Y24*%
%MOIN*%
G70*
G01*
G75*
%ADD37C,0.0080*%
%ADD57C,0.0040*%
G36*
X13656Y-3401D02*
Y-3445D01*
X13474Y-3444D01*
X13343Y-3445D01*
X13343Y-3396D01*
X13396Y-3343D01*
X13430Y-3310D01*
X13452Y-3310D01*
X13565D01*
X13656Y-3401D01*
D02*
G37*
G36*
X14656D02*
Y-3445D01*
X14474Y-3444D01*
X14343Y-3445D01*
X14343Y-3396D01*
X14396Y-3343D01*
X14430Y-3310D01*
X14452Y-3310D01*
X14565D01*
X14656Y-3401D01*
D02*
G37*
G36*
X15656D02*
Y-3445D01*
X15474Y-3444D01*
X15343Y-3445D01*
X15343Y-3396D01*
X15396Y-3343D01*
X15430Y-3310D01*
X15452Y-3310D01*
X15565D01*
X15656Y-3401D01*
D02*
G37*
G36*
X16657Y-3618D02*
X16604Y-3671D01*
X16570Y-3704D01*
X16548Y-3704D01*
X16435D01*
X16344Y-3614D01*
Y-3569D01*
X16526Y-3570D01*
X16657Y-3569D01*
X16657Y-3618D01*
D02*
G37*
G36*
X13657D02*
X13604Y-3671D01*
X13570Y-3704D01*
X13548Y-3704D01*
X13435D01*
X13344Y-3614D01*
Y-3569D01*
X13526Y-3570D01*
X13657Y-3569D01*
X13657Y-3618D01*
D02*
G37*
G36*
X14657D02*
X14604Y-3671D01*
X14570Y-3704D01*
X14548Y-3704D01*
X14435D01*
X14344Y-3614D01*
Y-3569D01*
X14526Y-3570D01*
X14657Y-3569D01*
X14657Y-3618D01*
D02*
G37*
G36*
X15657D02*
X15604Y-3671D01*
X15570Y-3704D01*
X15548Y-3704D01*
X15435D01*
X15344Y-3614D01*
Y-3569D01*
X15526Y-3570D01*
X15657Y-3569D01*
X15657Y-3618D01*
D02*
G37*
G36*
X1364Y-2065D02*
X1397Y-2099D01*
X1397Y-2121D01*
Y-2235D01*
X1307Y-2325D01*
X1262D01*
X1263Y-2143D01*
X1262Y-2012D01*
X1311Y-2012D01*
X1364Y-2065D01*
D02*
G37*
G36*
X4657Y3466D02*
X4566Y3375D01*
X4453D01*
X4431Y3375D01*
X4397Y3409D01*
X4344Y3462D01*
X4344Y3511D01*
X4475Y3510D01*
X4657Y3511D01*
Y3466D01*
D02*
G37*
G36*
X4571Y3770D02*
X4605Y3737D01*
X4658Y3684D01*
X4658Y3635D01*
X4527Y3636D01*
X4345Y3635D01*
Y3679D01*
X4436Y3770D01*
X4549D01*
X4571Y3770D01*
D02*
G37*
G36*
X1137Y-2195D02*
X1138Y-2326D01*
X1089Y-2326D01*
X1036Y-2273D01*
X1003Y-2239D01*
X1003Y-2217D01*
Y-2104D01*
X1093Y-2013D01*
X1138D01*
X1137Y-2195D01*
D02*
G37*
G36*
X16656Y-3401D02*
Y-3445D01*
X16474Y-3444D01*
X16343Y-3445D01*
X16343Y-3396D01*
X16396Y-3343D01*
X16430Y-3310D01*
X16452Y-3310D01*
X16565D01*
X16656Y-3401D01*
D02*
G37*
G36*
X9657Y-2787D02*
X9604Y-2840D01*
X9570Y-2874D01*
X9548Y-2874D01*
X9435D01*
X9344Y-2783D01*
Y-2738D01*
X9526Y-2739D01*
X9657Y-2738D01*
X9657Y-2787D01*
D02*
G37*
G36*
X9656Y-2570D02*
Y-2615D01*
X9474Y-2613D01*
X9343Y-2615D01*
X9343Y-2566D01*
X9396Y-2513D01*
X9430Y-2479D01*
X9452Y-2479D01*
X9565D01*
X9656Y-2570D01*
D02*
G37*
D37*
X9500Y-2776D02*
Y-2676D01*
Y-2576D01*
X4501Y3573D02*
Y3673D01*
Y3473D02*
Y3573D01*
X14500Y-3507D02*
Y-3407D01*
Y-3607D02*
Y-3507D01*
X15500D02*
Y-3407D01*
Y-3607D02*
Y-3507D01*
X16500D02*
Y-3407D01*
Y-3607D02*
Y-3507D01*
X1200Y-2169D02*
X1300D01*
X1100D02*
X1200D01*
X13500Y-3507D02*
Y-3407D01*
Y-3607D02*
Y-3507D01*
D57*
X9335Y-2735D02*
G03*
X9665Y-2735I165J26D01*
G01*
Y-2618D02*
G03*
X9335Y-2618I-165J-26D01*
G01*
X4666Y3632D02*
G03*
X4336Y3632I-165J-26D01*
G01*
Y3514D02*
G03*
X4666Y3514I165J26D01*
G01*
X14665Y-3448D02*
G03*
X14335Y-3448I-165J-26D01*
G01*
Y-3566D02*
G03*
X14665Y-3566I165J26D01*
G01*
X15665Y-3448D02*
G03*
X15335Y-3448I-165J-26D01*
G01*
Y-3566D02*
G03*
X15665Y-3566I165J26D01*
G01*
X16665Y-3448D02*
G03*
X16335Y-3448I-165J-26D01*
G01*
Y-3566D02*
G03*
X16665Y-3566I165J26D01*
G01*
X1259Y-2334D02*
G03*
X1259Y-2004I-26J165D01*
G01*
X1141D02*
G03*
X1141Y-2334I26J-165D01*
G01*
X13665Y-3448D02*
G03*
X13335Y-3448I-165J-26D01*
G01*
Y-3566D02*
G03*
X13665Y-3566I165J26D01*
G01*
X9335Y-2735D02*
X9665D01*
X9335Y-2618D02*
X9665D01*
X4336Y3632D02*
X4666D01*
X4336Y3514D02*
X4666D01*
X14335Y-3448D02*
X14665D01*
X14335Y-3566D02*
X14665D01*
X15335Y-3448D02*
X15665D01*
X15335Y-3566D02*
X15665D01*
X16335Y-3448D02*
X16665D01*
X16335Y-3566D02*
X16665D01*
X1259Y-2334D02*
Y-2004D01*
X1141Y-2334D02*
Y-2004D01*
X13335Y-3448D02*
X13665D01*
X13335Y-3566D02*
X13665D01*
M02*
