G04 Layer_Color=32768*
%FSLAX24Y24*%
%MOIN*%
G70*
G01*
G75*
%ADD54C,0.0039*%
%ADD58C,0.0030*%
%ADD101C,0.0020*%
D54*
X13930Y2362D02*
Y2598D01*
X13812Y2480D02*
X14048D01*
X9103Y3373D02*
Y3767D01*
X8906Y3570D02*
X9300D01*
X8853Y-3200D02*
X9247D01*
X9050Y-3397D02*
Y-3003D01*
X5553Y3750D02*
X5947D01*
X5750Y3553D02*
Y3947D01*
X983Y2152D02*
X1377D01*
X1180Y1955D02*
Y2349D01*
X1023Y0D02*
X1417D01*
X1220Y-197D02*
Y197D01*
X2978Y2153D02*
Y2547D01*
X2781Y2350D02*
X3175D01*
X8078Y2753D02*
Y3147D01*
X7881Y2950D02*
X8275D01*
X3532Y-1500D02*
X3768D01*
X3650Y-1618D02*
Y-1382D01*
X8050Y-247D02*
Y147D01*
X7853Y-50D02*
X8247D01*
X4261Y98D02*
X4655D01*
X4458Y-98D02*
Y295D01*
X6050Y1942D02*
Y2158D01*
X5942Y2050D02*
X6158D01*
X9100Y-2668D02*
Y-2432D01*
X8982Y-2550D02*
X9218D01*
X6150Y-2718D02*
Y-2482D01*
X6032Y-2600D02*
X6268D01*
X4159Y1682D02*
Y1918D01*
X4041Y1800D02*
X4278D01*
X2182Y3577D02*
X2418D01*
X2300Y3459D02*
Y3695D01*
X1860Y2157D02*
X2096D01*
X1978Y2039D02*
Y2275D01*
X4782Y2550D02*
X5018D01*
X4900Y2432D02*
Y2668D01*
X6150Y-1868D02*
Y-1632D01*
X6032Y-1750D02*
X6268D01*
X2732Y-1504D02*
X2968D01*
X2850Y-1622D02*
Y-1386D01*
X5927Y-3050D02*
X6320D01*
X6124Y-3247D02*
Y-2853D01*
X8078Y1953D02*
Y2347D01*
X7881Y2150D02*
X8275D01*
X2550Y270D02*
Y664D01*
X2353Y467D02*
X2747D01*
X2353Y-267D02*
X2747D01*
X2550Y-464D02*
Y-70D01*
X5927Y-3500D02*
X6320D01*
X6124Y-3697D02*
Y-3303D01*
X553Y2129D02*
X947D01*
X750Y1932D02*
Y2325D01*
X7881Y3350D02*
X8275D01*
X8078Y3153D02*
Y3547D01*
Y1553D02*
Y1947D01*
X7881Y1750D02*
X8275D01*
X9100Y-1858D02*
Y-1642D01*
X8992Y-1750D02*
X9208D01*
X9100Y-2258D02*
Y-2042D01*
X8992Y-2150D02*
X9208D01*
X6950Y2442D02*
Y2658D01*
X6842Y2550D02*
X7058D01*
X6950Y3242D02*
Y3458D01*
X6842Y3350D02*
X7058D01*
X1470Y2103D02*
X1687D01*
X1578Y1995D02*
Y2211D01*
X4156Y1292D02*
Y1508D01*
X4047Y1400D02*
X4264D01*
X3256Y1292D02*
Y1508D01*
X3147Y1400D02*
X3364D01*
X6150Y-2258D02*
Y-2042D01*
X6042Y-2150D02*
X6258D01*
X3242Y-450D02*
X3458D01*
X3350Y-558D02*
Y-342D01*
X2342Y-1504D02*
X2558D01*
X2450Y-1612D02*
Y-1396D01*
X1392Y-2100D02*
X1608D01*
X1500Y-2208D02*
Y-1992D01*
X6950Y2842D02*
Y3058D01*
X6842Y2950D02*
X7058D01*
X9120Y1632D02*
Y1868D01*
X9002Y1750D02*
X9238D01*
X7881Y2550D02*
X8275D01*
X8078Y2353D02*
Y2747D01*
X6950Y2042D02*
Y2258D01*
X6842Y2150D02*
X7058D01*
X9120Y2012D02*
Y2228D01*
X9012Y2120D02*
X9228D01*
X9120Y2702D02*
Y2918D01*
X9012Y2810D02*
X9228D01*
X9120Y3112D02*
Y3328D01*
X9012Y3220D02*
X9228D01*
X9120Y2362D02*
Y2578D01*
X9012Y2470D02*
X9228D01*
X9120Y1232D02*
Y1468D01*
X9002Y1350D02*
X9238D01*
X3932Y-1500D02*
X4168D01*
X4050Y-1618D02*
Y-1382D01*
X6950Y1642D02*
Y1858D01*
X6842Y1750D02*
X7058D01*
X4792Y1550D02*
X5008D01*
X4900Y1442D02*
Y1658D01*
X5142Y1550D02*
X5358D01*
X5250Y1442D02*
Y1658D01*
X3142Y-1504D02*
X3358D01*
X3250Y-1612D02*
Y-1396D01*
X5150Y-1301D02*
Y-1085D01*
X5042Y-1193D02*
X5258D01*
X12610Y2362D02*
Y2598D01*
X12492Y2480D02*
X12728D01*
X5132Y2550D02*
X5368D01*
X5250Y2432D02*
Y2668D01*
X9123Y-1396D02*
Y-1180D01*
X9015Y-1288D02*
X9231D01*
D58*
X3050Y-2000D02*
X5650D01*
Y-3400D02*
Y-2000D01*
X3050Y-3400D02*
X5650D01*
X3050D02*
Y-2000D01*
D101*
X13773Y2834D02*
X14087D01*
X13773Y2126D02*
X14087D01*
X13773D02*
Y2834D01*
X14087Y2126D02*
Y2834D01*
X8739Y3334D02*
X9526D01*
X8739Y3806D02*
X9526D01*
Y3334D02*
Y3806D01*
X8739Y3334D02*
Y3806D01*
X8229Y-3692D02*
Y-2708D01*
X9871Y-3692D02*
Y-2708D01*
X8229D02*
X9871D01*
X8229Y-3692D02*
X9871D01*
X5514Y3435D02*
Y4065D01*
X5986Y3435D02*
Y4065D01*
X5514Y3435D02*
X5986D01*
X5514Y4065D02*
X5986D01*
X944Y1670D02*
Y2634D01*
X1416Y1670D02*
Y2634D01*
X944Y1670D02*
X1416D01*
X944Y2634D02*
X1416D01*
X-477Y1622D02*
X2192D01*
Y-1622D02*
Y1622D01*
X-477Y-1622D02*
X2192D01*
X-477D02*
Y1622D01*
X2152Y1641D02*
X3805D01*
X2152Y3059D02*
X3805D01*
Y1641D02*
Y3059D01*
X2152Y1641D02*
Y3059D01*
X7655Y3186D02*
X8443D01*
X7655Y2714D02*
X8443D01*
X7655D02*
Y3186D01*
X8443Y2714D02*
Y3186D01*
X3493Y-1854D02*
Y-1146D01*
X3807Y-1854D02*
Y-1146D01*
X3493Y-1854D02*
X3807D01*
X3493Y-1146D02*
X3807D01*
X6593Y-1152D02*
X9507D01*
X6593Y1052D02*
X9507D01*
Y-1152D02*
Y1052D01*
X6593Y-1152D02*
Y1052D01*
X3444Y-915D02*
Y1112D01*
X5472Y-915D02*
Y1112D01*
X3444D02*
X5472D01*
X3444Y-915D02*
X5472D01*
X5696Y1873D02*
X6404D01*
X5696Y2227D02*
X6404D01*
Y1873D02*
Y2227D01*
X5696Y1873D02*
Y2227D01*
X8746Y-2393D02*
X9454D01*
X8746Y-2707D02*
X9454D01*
X8746D02*
Y-2393D01*
X9454Y-2707D02*
Y-2393D01*
X5796Y-2757D02*
X6504D01*
X5796Y-2443D02*
X6504D01*
Y-2757D02*
Y-2443D01*
X5796Y-2757D02*
Y-2443D01*
X3805Y1957D02*
X4514D01*
X3805Y1643D02*
X4514D01*
X3805D02*
Y1957D01*
X4514Y1643D02*
Y1957D01*
X2457Y3222D02*
Y3931D01*
X2143Y3222D02*
Y3931D01*
X2457D01*
X2143Y3222D02*
X2457D01*
X2136Y1803D02*
Y2511D01*
X1821Y1803D02*
Y2511D01*
X2136D01*
X1821Y1803D02*
X2136D01*
X4743Y2196D02*
Y2904D01*
X5057Y2196D02*
Y2904D01*
X4743Y2196D02*
X5057D01*
X4743Y2904D02*
X5057D01*
X5796Y-1593D02*
X6504D01*
X5796Y-1907D02*
X6504D01*
X5796D02*
Y-1593D01*
X6504Y-1907D02*
Y-1593D01*
X2693Y-1858D02*
Y-1150D01*
X3007Y-1858D02*
Y-1150D01*
X2693Y-1858D02*
X3007D01*
X2693Y-1150D02*
X3007D01*
X5759Y-3286D02*
Y-2814D01*
X6547Y-3286D02*
Y-2814D01*
X5759D02*
X6547D01*
X5759Y-3286D02*
X6547D01*
X7655Y2386D02*
X8443D01*
X7655Y1914D02*
X8443D01*
X7655D02*
Y2386D01*
X8443Y1914D02*
Y2386D01*
X2314Y103D02*
X2786D01*
X2314Y891D02*
X2786D01*
X2314Y103D02*
Y891D01*
X2786Y103D02*
Y891D01*
X2314Y-691D02*
Y97D01*
X2786Y-691D02*
Y97D01*
X2314Y-691D02*
X2786D01*
X2314Y97D02*
X2786D01*
X5759Y-3736D02*
Y-3264D01*
X6547Y-3736D02*
Y-3264D01*
X5759D02*
X6547D01*
X5759Y-3736D02*
X6547D01*
X986Y1764D02*
Y2552D01*
X514Y1764D02*
Y2552D01*
X986D01*
X514Y1764D02*
X986D01*
X8443Y3114D02*
Y3586D01*
X7655Y3114D02*
Y3586D01*
Y3114D02*
X8443D01*
X7655Y3586D02*
X8443D01*
X7655Y1986D02*
X8443D01*
X7655Y1514D02*
X8443D01*
X7655D02*
Y1986D01*
X8443Y1514D02*
Y1986D01*
X8746Y-1573D02*
X9454D01*
X8746Y-1927D02*
X9454D01*
X8746D02*
Y-1573D01*
X9454Y-1927D02*
Y-1573D01*
X8746Y-2327D02*
X9454D01*
X8746Y-1973D02*
X9454D01*
Y-2327D02*
Y-1973D01*
X8746Y-2327D02*
Y-1973D01*
X6596Y2373D02*
X7304D01*
X6596Y2727D02*
X7304D01*
Y2373D02*
Y2727D01*
X6596Y2373D02*
Y2727D01*
X6596Y3173D02*
X7304D01*
X6596Y3527D02*
X7304D01*
Y3173D02*
Y3527D01*
X6596Y3173D02*
Y3527D01*
X1401Y1749D02*
Y2457D01*
X1756Y1749D02*
Y2457D01*
X1401Y1749D02*
X1756D01*
X1401Y2457D02*
X1756D01*
X3801Y1223D02*
X4510D01*
X3801Y1577D02*
X4510D01*
Y1223D02*
Y1577D01*
X3801Y1223D02*
Y1577D01*
X2901Y1223D02*
X3610D01*
X2901Y1577D02*
X3610D01*
Y1223D02*
Y1577D01*
X2901Y1223D02*
Y1577D01*
X5796Y-1973D02*
X6504D01*
X5796Y-2327D02*
X6504D01*
X5796D02*
Y-1973D01*
X6504Y-2327D02*
Y-1973D01*
X3173Y-804D02*
Y-96D01*
X3527Y-804D02*
Y-96D01*
X3173Y-804D02*
X3527D01*
X3173Y-96D02*
X3527D01*
X2627Y-1858D02*
Y-1150D01*
X2273Y-1858D02*
Y-1150D01*
X2627D01*
X2273Y-1858D02*
X2627D01*
X1677Y-2454D02*
Y-1746D01*
X1323Y-2454D02*
Y-1746D01*
X1677D01*
X1323Y-2454D02*
X1677D01*
X6596Y3127D02*
X7304D01*
X6596Y2773D02*
X7304D01*
X6596D02*
Y3127D01*
X7304Y2773D02*
Y3127D01*
X8766Y1593D02*
X9474D01*
X8766Y1907D02*
X9474D01*
Y1593D02*
Y1907D01*
X8766Y1593D02*
Y1907D01*
X8443Y2314D02*
Y2786D01*
X7655Y2314D02*
Y2786D01*
Y2314D02*
X8443D01*
X7655Y2786D02*
X8443D01*
X6596Y2327D02*
X7304D01*
X6596Y1973D02*
X7304D01*
X6596D02*
Y2327D01*
X7304Y1973D02*
Y2327D01*
X8766Y1943D02*
X9474D01*
X8766Y2297D02*
X9474D01*
Y1943D02*
Y2297D01*
X8766Y1943D02*
Y2297D01*
Y2633D02*
X9474D01*
X8766Y2987D02*
X9474D01*
Y2633D02*
Y2987D01*
X8766Y2633D02*
Y2987D01*
Y3043D02*
X9474D01*
X8766Y3397D02*
X9474D01*
Y3043D02*
Y3397D01*
X8766Y3043D02*
Y3397D01*
Y2293D02*
X9474D01*
X8766Y2647D02*
X9474D01*
Y2293D02*
Y2647D01*
X8766Y2293D02*
Y2647D01*
X8766Y1193D02*
X9474D01*
X8766Y1507D02*
X9474D01*
Y1193D02*
Y1507D01*
X8766Y1193D02*
Y1507D01*
X3893Y-1854D02*
Y-1146D01*
X4207Y-1854D02*
Y-1146D01*
X3893Y-1854D02*
X4207D01*
X3893Y-1146D02*
X4207D01*
X6596Y1927D02*
X7304D01*
X6596Y1573D02*
X7304D01*
X6596D02*
Y1927D01*
X7304Y1573D02*
Y1927D01*
X4723Y1196D02*
Y1904D01*
X5077Y1196D02*
Y1904D01*
X4723Y1196D02*
X5077D01*
X4723Y1904D02*
X5077D01*
X5073Y1196D02*
Y1904D01*
X5427Y1196D02*
Y1904D01*
X5073Y1196D02*
X5427D01*
X5073Y1904D02*
X5427D01*
X3427Y-1858D02*
Y-1150D01*
X3073Y-1858D02*
Y-1150D01*
X3427D01*
X3073Y-1858D02*
X3427D01*
X4796Y-1370D02*
X5504D01*
X4796Y-1016D02*
X5504D01*
Y-1370D02*
Y-1016D01*
X4796Y-1370D02*
Y-1016D01*
X12453Y2834D02*
X12767D01*
X12453Y2126D02*
X12767D01*
X12453D02*
Y2834D01*
X12767Y2126D02*
Y2834D01*
X5093Y2196D02*
Y2904D01*
X5407Y2196D02*
Y2904D01*
X5093Y2196D02*
X5407D01*
X5093Y2904D02*
X5407D01*
X8769Y-1465D02*
X9477D01*
X8769Y-1111D02*
X9477D01*
Y-1465D02*
Y-1111D01*
X8769Y-1465D02*
Y-1111D01*
M02*
