G04 Layer_Color=128*
%FSLAX24Y24*%
%MOIN*%
G70*
G01*
G75*
%ADD103C,0.0020*%
D103*
X6323Y4000D02*
X6677D01*
X6500Y3823D02*
Y4177D01*
X7323Y4000D02*
X7677D01*
X7500Y3823D02*
Y4177D01*
X8323Y4000D02*
X8677D01*
X8500Y3823D02*
Y4177D01*
X9323Y4000D02*
X9677D01*
X9500Y3823D02*
Y4177D01*
X10323Y4000D02*
X10677D01*
X10500Y3823D02*
Y4177D01*
X11323Y4000D02*
X11677D01*
X11500Y3823D02*
Y4177D01*
X12323Y4000D02*
X12677D01*
X12500Y3823D02*
Y4177D01*
X13323Y4000D02*
X13677D01*
X13500Y3823D02*
Y4177D01*
X14323Y4000D02*
X14677D01*
X14500Y3823D02*
Y4177D01*
X15323Y4000D02*
X15677D01*
X15500Y3823D02*
Y4177D01*
X16323Y4000D02*
X16677D01*
X16500Y3823D02*
Y4177D01*
X17323Y4000D02*
X17677D01*
X17500Y3823D02*
Y4177D01*
X2323Y-4000D02*
X2677D01*
X2500Y-4177D02*
Y-3823D01*
X3323Y-4000D02*
X3677D01*
X3500Y-4177D02*
Y-3823D01*
X4323Y-4000D02*
X4677D01*
X4500Y-4177D02*
Y-3823D01*
X5323Y-4000D02*
X5677D01*
X5500Y-4177D02*
Y-3823D01*
X6323Y-4000D02*
X6677D01*
X6500Y-4177D02*
Y-3823D01*
X7323Y-4000D02*
X7677D01*
X7500Y-4177D02*
Y-3823D01*
X8323Y-4000D02*
X8677D01*
X8500Y-4177D02*
Y-3823D01*
X9323Y-4000D02*
X9677D01*
X9500Y-4177D02*
Y-3823D01*
X10323Y-4000D02*
X10677D01*
X10500Y-4177D02*
Y-3823D01*
X11323Y-4000D02*
X11677D01*
X11500Y-4177D02*
Y-3823D01*
X12323Y-4000D02*
X12677D01*
X12500Y-4177D02*
Y-3823D01*
X13323Y-4000D02*
X13677D01*
X13500Y-4177D02*
Y-3823D01*
X14323Y-4000D02*
X14677D01*
X14500Y-4177D02*
Y-3823D01*
X15323Y-4000D02*
X15677D01*
X15500Y-4177D02*
Y-3823D01*
X16323Y-4000D02*
X16677D01*
X16500Y-4177D02*
Y-3823D01*
X17323Y-4000D02*
X17677D01*
X17500Y-4177D02*
Y-3823D01*
X5212Y-2450D02*
X5488D01*
X5350Y-2588D02*
Y-2312D01*
X5212Y-2950D02*
X5488D01*
X5350Y-3088D02*
Y-2812D01*
X4712Y-2450D02*
X4988D01*
X4850Y-2588D02*
Y-2312D01*
X4712Y-2950D02*
X4988D01*
X4850Y-3088D02*
Y-2812D01*
X4212Y-2450D02*
X4488D01*
X4350Y-2588D02*
Y-2312D01*
X4212Y-2950D02*
X4488D01*
X4350Y-3088D02*
Y-2812D01*
X3712Y-2450D02*
X3988D01*
X3850Y-2588D02*
Y-2312D01*
X3712Y-2950D02*
X3988D01*
X3850Y-3088D02*
Y-2812D01*
X3212Y-2450D02*
X3488D01*
X3350Y-2588D02*
Y-2312D01*
X3212Y-2950D02*
X3488D01*
X3350Y-3088D02*
Y-2812D01*
X535Y-1073D02*
X811D01*
X673Y-1211D02*
Y-935D01*
X1738Y-955D02*
X1994D01*
X1866Y-1083D02*
Y-827D01*
X1738Y955D02*
X1994D01*
X1866Y827D02*
Y1083D01*
X535Y1073D02*
X811D01*
X673Y935D02*
Y1211D01*
X18600Y-3750D02*
X19400D01*
X19000Y-4150D02*
Y-3350D01*
X500Y3500D02*
X1500D01*
X1000Y3000D02*
Y4000D01*
X500Y-3500D02*
X1500D01*
X1000Y-4000D02*
Y-3000D01*
X18600Y3750D02*
X19400D01*
X19000Y3350D02*
Y4150D01*
X13220Y2950D02*
X13320D01*
X13270Y2900D02*
Y3000D01*
X13580Y2950D02*
X13680D01*
X13630Y2900D02*
Y3000D01*
X13650Y-2000D02*
X13750D01*
X13700Y-2050D02*
Y-1950D01*
X11640Y-450D02*
X11740D01*
X11690Y-500D02*
Y-400D01*
X11700Y1370D02*
X11800D01*
X11750Y1320D02*
Y1420D01*
X13900Y2032D02*
X14000D01*
X13950Y1982D02*
Y2082D01*
X9258Y1550D02*
X9358D01*
X9308Y1500D02*
Y1600D01*
X7623Y450D02*
X7723D01*
X7673Y400D02*
Y500D01*
X9500Y-400D02*
X9600D01*
X9550Y-450D02*
Y-350D01*
X5600Y-200D02*
X5700D01*
X5650Y-250D02*
Y-150D01*
X5550Y1000D02*
X5650D01*
X5600Y950D02*
Y1050D01*
X5650Y-1750D02*
X5750D01*
X5700Y-1800D02*
Y-1700D01*
X5550Y1950D02*
X5650D01*
X5600Y1900D02*
Y2000D01*
X6550Y344D02*
X6650D01*
X6600Y294D02*
Y394D01*
X8650Y-2150D02*
X8750D01*
X8700Y-2200D02*
Y-2100D01*
X7450Y-2600D02*
X7550D01*
X7500Y-2650D02*
Y-2550D01*
X4710Y-980D02*
X4810D01*
X4760Y-1030D02*
Y-930D01*
X4650Y2350D02*
X4750D01*
X4700Y2300D02*
Y2400D01*
X3700Y1090D02*
X3800D01*
X3750Y1040D02*
Y1140D01*
X6600Y-3050D02*
X6700D01*
X6650Y-3100D02*
Y-3000D01*
X10300Y2731D02*
X10400D01*
X10350Y2681D02*
Y2781D01*
X8546Y1750D02*
X8646D01*
X8596Y1700D02*
Y1800D01*
X7802Y3150D02*
X7902D01*
X7852Y3100D02*
Y3200D01*
X2800Y-1904D02*
X2900D01*
X2850Y-1954D02*
Y-1854D01*
X8700Y-3495D02*
X8800D01*
X8750Y-3545D02*
Y-3445D01*
X5906Y-2831D02*
X6006D01*
X5956Y-2881D02*
Y-2781D01*
X2400Y-1904D02*
X2500D01*
X2450Y-1954D02*
Y-1854D01*
X296Y1700D02*
X396D01*
X346Y1650D02*
Y1750D01*
X1300Y512D02*
X1400D01*
X1350Y462D02*
Y562D01*
X2300Y-118D02*
X2400D01*
X2350Y-168D02*
Y-68D01*
X2150Y250D02*
X2250D01*
X2200Y200D02*
Y300D01*
X16950Y3000D02*
X17050D01*
X17000Y2950D02*
Y3050D01*
X16950Y-3000D02*
X17050D01*
X17000Y-3050D02*
Y-2950D01*
X16950Y-2500D02*
X17050D01*
X17000Y-2550D02*
Y-2450D01*
X16950Y-2000D02*
X17050D01*
X17000Y-2050D02*
Y-1950D01*
X16950Y-1500D02*
X17050D01*
X17000Y-1550D02*
Y-1450D01*
X16950Y-1000D02*
X17050D01*
X17000Y-1050D02*
Y-950D01*
X16950Y-500D02*
X17050D01*
X17000Y-550D02*
Y-450D01*
X16950Y0D02*
X17050D01*
X17000Y-50D02*
Y50D01*
X16950Y500D02*
X17050D01*
X17000Y450D02*
Y550D01*
X16950Y1000D02*
X17050D01*
X17000Y950D02*
Y1050D01*
X16950Y1500D02*
X17050D01*
X17000Y1450D02*
Y1550D01*
X16950Y2000D02*
X17050D01*
X17000Y1950D02*
Y2050D01*
X16950Y2500D02*
X17050D01*
X17000Y2450D02*
Y2550D01*
X3900Y3100D02*
X4000D01*
X3950Y3050D02*
Y3150D01*
X4100Y3100D02*
X4200D01*
X4150Y3050D02*
Y3150D01*
X4550Y1750D02*
X4650D01*
X4600Y1700D02*
Y1800D01*
X2800Y3050D02*
X2900D01*
X2850Y3000D02*
Y3100D01*
X4550Y1550D02*
X4650D01*
X4600Y1500D02*
Y1600D01*
X2868Y2350D02*
X2968D01*
X2918Y2300D02*
Y2400D01*
X3450Y2350D02*
X3550D01*
X3500Y2300D02*
Y2400D01*
X5250Y4000D02*
X5350D01*
X5300Y3950D02*
Y4050D01*
X5450Y4000D02*
X5550D01*
X5500Y3950D02*
Y4050D01*
X5350Y3622D02*
X5450D01*
X5400Y3572D02*
Y3672D01*
X2100Y1976D02*
X2200D01*
X2150Y1926D02*
Y2026D01*
X3157Y2350D02*
X3257D01*
X3207Y2300D02*
Y2400D01*
X700Y2638D02*
X800D01*
X750Y2588D02*
Y2688D01*
X3800Y-1681D02*
X3900D01*
X3850Y-1731D02*
Y-1631D01*
X7350Y3350D02*
X7450D01*
X7400Y3300D02*
Y3400D01*
X7350Y2950D02*
X7450D01*
X7400Y2900D02*
Y3000D01*
X6450Y2950D02*
X6550D01*
X6500Y2900D02*
Y3000D01*
X3281Y500D02*
X3381D01*
X3331Y450D02*
Y550D01*
X5473Y2650D02*
X5573D01*
X5523Y2600D02*
Y2700D01*
X4200Y-1329D02*
X4300D01*
X4250Y-1379D02*
Y-1279D01*
X10450Y2123D02*
X10550D01*
X10500Y2073D02*
Y2173D01*
X12560Y2013D02*
X12660D01*
X12610Y1963D02*
Y2063D01*
X10100Y-3462D02*
X10200D01*
X10150Y-3512D02*
Y-3412D01*
X13200Y1350D02*
X13300D01*
X13250Y1300D02*
Y1400D01*
X14700Y1370D02*
X14800D01*
X14750Y1320D02*
Y1420D01*
X13200Y-200D02*
X13300D01*
X13250Y-250D02*
Y-150D01*
X14700Y-200D02*
X14800D01*
X14750Y-250D02*
Y-150D01*
X13950Y550D02*
X14050D01*
X14000Y500D02*
Y600D01*
X11850Y2312D02*
X11950D01*
X11900Y2262D02*
Y2362D01*
X15950Y2850D02*
X16050D01*
X16000Y2800D02*
Y2900D01*
X16500Y2950D02*
X16600D01*
X16550Y2900D02*
Y3000D01*
X16500Y2750D02*
X16600D01*
X16550Y2700D02*
Y2800D01*
X14500Y2900D02*
X14600D01*
X14550Y2850D02*
Y2950D01*
X15400Y2868D02*
X15500D01*
X15450Y2818D02*
Y2918D01*
X7700Y2350D02*
X7800D01*
X7750Y2300D02*
Y2400D01*
X10912Y-2849D02*
X11012D01*
X10962Y-2899D02*
Y-2799D01*
X12882Y2950D02*
X12982D01*
X12932Y2900D02*
Y3000D01*
X11708Y2920D02*
X11808D01*
X11758Y2870D02*
Y2970D01*
X14470Y-2276D02*
X14570D01*
X14520Y-2326D02*
Y-2226D01*
X16496Y1838D02*
X16596D01*
X16546Y1788D02*
Y1888D01*
X11460Y450D02*
X11560D01*
X11510Y400D02*
Y500D01*
X7415Y-748D02*
X7515D01*
X7465Y-798D02*
Y-698D01*
X12190Y2750D02*
X12290D01*
X12240Y2700D02*
Y2800D01*
X11000Y2750D02*
X11100D01*
X11050Y2700D02*
Y2800D01*
X10450Y-1570D02*
X10550D01*
X10500Y-1620D02*
Y-1520D01*
X9498Y-1355D02*
X9598D01*
X9548Y-1405D02*
Y-1305D01*
X8800Y-2788D02*
X8900D01*
X8850Y-2838D02*
Y-2738D01*
X650Y-2420D02*
X750D01*
X700Y-2470D02*
Y-2370D01*
X5550Y1706D02*
X5650D01*
X5600Y1656D02*
Y1756D01*
X9514Y-1698D02*
X9614D01*
X9564Y-1748D02*
Y-1648D01*
X8777Y-1495D02*
X8877D01*
X8827Y-1545D02*
Y-1445D01*
X10187Y-3229D02*
X10287D01*
X10237Y-3279D02*
Y-3179D01*
X5950Y1037D02*
X6050D01*
X6000Y987D02*
Y1087D01*
X8250Y-1930D02*
X8350D01*
X8300Y-1980D02*
Y-1880D01*
X8450Y2550D02*
X8550D01*
X8500Y2500D02*
Y2600D01*
X9583Y2139D02*
X9683D01*
X9633Y2089D02*
Y2189D01*
X8650Y2921D02*
X8750D01*
X8700Y2871D02*
Y2971D01*
X9583Y3250D02*
X9683D01*
X9633Y3200D02*
Y3300D01*
X8650Y3301D02*
X8750D01*
X8700Y3251D02*
Y3351D01*
X8450Y3594D02*
X8550D01*
X8500Y3544D02*
Y3644D01*
X2100Y-2169D02*
X2200D01*
X2150Y-2219D02*
Y-2119D01*
X2600Y3050D02*
X2700D01*
X2650Y3000D02*
Y3100D01*
X5850Y416D02*
X5950D01*
X5900Y366D02*
Y466D01*
X7362Y2350D02*
X7462D01*
X7412Y2300D02*
Y2400D01*
X9507Y3594D02*
X9607D01*
X9557Y3544D02*
Y3644D01*
X11950Y3770D02*
X12050D01*
X12000Y3720D02*
Y3820D01*
X1931Y-2777D02*
X2031D01*
X1981Y-2827D02*
Y-2727D01*
X9929Y-3780D02*
X10029D01*
X9979Y-3830D02*
Y-3730D01*
X8634Y2150D02*
X8734D01*
X8684Y2100D02*
Y2200D01*
X13850Y3683D02*
X13950D01*
X13900Y3633D02*
Y3733D01*
X5473Y2881D02*
X5573D01*
X5523Y2831D02*
Y2931D01*
X12800Y-2079D02*
X12900D01*
X12850Y-2129D02*
Y-2029D01*
X12471Y-2456D02*
X12572D01*
X12522Y-2506D02*
Y-2406D01*
X15418Y-2950D02*
X15518D01*
X15468Y-3000D02*
Y-2900D01*
X16450Y-2954D02*
X16550D01*
X16500Y-3004D02*
Y-2904D01*
X10900Y-2276D02*
X11000D01*
X10950Y-2326D02*
Y-2226D01*
X10700Y-2461D02*
X10800D01*
X10750Y-2511D02*
Y-2411D01*
X11460Y-3000D02*
X11560D01*
X11510Y-3050D02*
Y-2950D01*
X11710Y-2960D02*
X11810D01*
X11760Y-3010D02*
Y-2910D01*
X12013Y1220D02*
X12113D01*
X12063Y1170D02*
Y1270D01*
X12010Y-2650D02*
X12110D01*
X12060Y-2700D02*
Y-2600D01*
X12013Y-2950D02*
X12113D01*
X12063Y-3000D02*
Y-2900D01*
X14996Y-3000D02*
X15096D01*
X15046Y-3050D02*
Y-2950D01*
X13518Y-2820D02*
X13618D01*
X13568Y-2870D02*
Y-2770D01*
X8592Y652D02*
X8692D01*
X8642Y602D02*
Y702D01*
X2273Y4113D02*
X2373D01*
X2323Y4063D02*
Y4163D01*
M02*
