G04 Layer_Color=8421504*
%FSLAX24Y24*%
%MOIN*%
G70*
G01*
G75*
%ADD11R,0.0197X0.0236*%
%ADD12R,0.0315X0.0098*%
%ADD13R,0.0256X0.0128*%
%ADD14R,0.0315X0.0315*%
%ADD15R,0.0157X0.0374*%
%ADD16R,0.0689X0.0157*%
%ADD17R,0.0984X0.0561*%
%ADD18R,0.0315X0.1063*%
%ADD20R,0.0394X0.0354*%
%ADD21R,0.0413X0.0236*%
%ADD22R,0.1968X0.1968*%
%ADD23R,0.0472X0.0354*%
%ADD24R,0.0354X0.0472*%
%ADD25R,0.0300X0.0300*%
%ADD26R,0.0213X0.0252*%
%ADD27R,0.0276X0.0276*%
%ADD28O,0.0492X0.0236*%
%ADD29O,0.0315X0.0098*%
%ADD30O,0.0098X0.0315*%
%ADD31R,0.1055X0.1055*%
%ADD32R,0.0217X0.0217*%
%ADD33R,0.0252X0.0213*%
%ADD34R,0.0300X0.0300*%
%ADD35R,0.0236X0.0197*%
%ADD36R,0.0217X0.0217*%
%ADD43R,0.0575X0.0787*%
G36*
X1480Y-1535D02*
X1204D01*
Y-1329D01*
X397D01*
X382Y-1328D01*
X367Y-1326D01*
X360Y-1325D01*
X353Y-1322D01*
X338Y-1318D01*
X324Y-1311D01*
X310Y-1302D01*
X297Y-1293D01*
X285Y-1283D01*
X275Y-1270D01*
X265Y-1257D01*
X257Y-1243D01*
X250Y-1229D01*
X245Y-1213D01*
X242Y-1200D01*
X240Y-1186D01*
X240Y-1171D01*
Y-974D01*
X240Y-957D01*
X243Y-941D01*
X247Y-926D01*
X253Y-910D01*
X260Y-898D01*
X267Y-885D01*
X277Y-873D01*
X287Y-862D01*
X298Y-852D01*
X310Y-844D01*
X324Y-835D01*
X338Y-829D01*
X350Y-824D01*
X357Y-822D01*
X364Y-820D01*
X372Y-819D01*
X380Y-817D01*
X388Y-817D01*
X1480D01*
Y-1535D01*
D02*
G37*
G36*
X1480Y817D02*
X388D01*
X380Y817D01*
X372Y819D01*
X364Y820D01*
X357Y822D01*
X350Y824D01*
X338Y829D01*
X324Y835D01*
X310Y844D01*
X298Y852D01*
X287Y862D01*
X277Y873D01*
X267Y885D01*
X260Y898D01*
X253Y910D01*
X247Y926D01*
X243Y941D01*
X240Y957D01*
X240Y974D01*
Y1171D01*
X240Y1186D01*
X242Y1200D01*
X245Y1213D01*
X250Y1229D01*
X257Y1243D01*
X265Y1257D01*
X275Y1270D01*
X285Y1283D01*
X297Y1293D01*
X310Y1302D01*
X324Y1311D01*
X338Y1318D01*
X353Y1322D01*
X360Y1325D01*
X367Y1326D01*
X382Y1328D01*
X397Y1329D01*
X1204D01*
Y1535D01*
X1480D01*
Y817D01*
D02*
G37*
D11*
X9330Y3570D02*
D03*
X8936D02*
D03*
X7852Y2950D02*
D03*
X8246D02*
D03*
X5956Y-3050D02*
D03*
X6350D02*
D03*
X7852Y2150D02*
D03*
X8246D02*
D03*
X5956Y-3500D02*
D03*
X6350D02*
D03*
X8246Y3350D02*
D03*
X7852D02*
D03*
Y1750D02*
D03*
X8246D02*
D03*
Y2550D02*
D03*
X7852D02*
D03*
D12*
X8483Y-2905D02*
D03*
Y-3102D02*
D03*
Y-3298D02*
D03*
Y-3495D02*
D03*
X9617Y-2905D02*
D03*
Y-3102D02*
D03*
Y-3298D02*
D03*
Y-3495D02*
D03*
D13*
X5750Y3878D02*
D03*
Y3622D02*
D03*
D14*
X400Y-2200D02*
D03*
X991D02*
D03*
D15*
X1180Y1916D02*
D03*
Y2388D02*
D03*
D16*
X1785Y0D02*
D03*
Y256D02*
D03*
Y512D02*
D03*
Y-256D02*
D03*
Y-512D02*
D03*
D17*
X574Y379D02*
D03*
Y-379D02*
D03*
D18*
X4056Y3750D02*
D03*
X3190D02*
D03*
D20*
X7185Y-1893D02*
D03*
X7815D02*
D03*
X7185Y-3507D02*
D03*
X7815D02*
D03*
D21*
X3500Y2724D02*
D03*
Y1976D02*
D03*
X2457D02*
D03*
Y2350D02*
D03*
Y2724D02*
D03*
D22*
X14015Y591D02*
D03*
D23*
X10153Y-2250D02*
D03*
Y-1750D02*
D03*
Y-1250D02*
D03*
Y-750D02*
D03*
Y-250D02*
D03*
Y250D02*
D03*
Y750D02*
D03*
Y1250D02*
D03*
Y1750D02*
D03*
Y2250D02*
D03*
D24*
X17046Y-3346D02*
D03*
X16546D02*
D03*
X16046D02*
D03*
X15546D02*
D03*
X15046D02*
D03*
X14546D02*
D03*
X14046D02*
D03*
X13546D02*
D03*
X13046D02*
D03*
X12546D02*
D03*
X12046D02*
D03*
X11546D02*
D03*
X11046D02*
D03*
X10546D02*
D03*
Y3346D02*
D03*
X11046D02*
D03*
X11546D02*
D03*
X12046D02*
D03*
X12546D02*
D03*
X13046D02*
D03*
X13546D02*
D03*
X14046D02*
D03*
X14546D02*
D03*
X15046D02*
D03*
X15546D02*
D03*
X16046D02*
D03*
X16546D02*
D03*
X17046D02*
D03*
D25*
X5800Y100D02*
D03*
X6350D02*
D03*
D26*
X3650Y-1681D02*
D03*
Y-1319D02*
D03*
X2300Y3758D02*
D03*
Y3396D02*
D03*
X1978Y2338D02*
D03*
Y1976D02*
D03*
X4900Y2369D02*
D03*
Y2731D02*
D03*
X2850Y-1685D02*
D03*
Y-1323D02*
D03*
X4050Y-1681D02*
D03*
Y-1319D02*
D03*
X5250Y2369D02*
D03*
Y2731D02*
D03*
D27*
X5650Y650D02*
D03*
X6400D02*
D03*
X6030Y1550D02*
D03*
X6020Y-1350D02*
D03*
X5650Y-450D02*
D03*
X6400D02*
D03*
X2730Y-2450D02*
D03*
X1980D02*
D03*
X2350Y-3350D02*
D03*
D28*
X9123Y-800D02*
D03*
Y-300D02*
D03*
Y200D02*
D03*
Y700D02*
D03*
X6977Y-800D02*
D03*
Y-300D02*
D03*
Y200D02*
D03*
Y700D02*
D03*
D29*
X3700Y591D02*
D03*
Y394D02*
D03*
Y197D02*
D03*
Y0D02*
D03*
Y-197D02*
D03*
Y-394D02*
D03*
X5216D02*
D03*
Y-197D02*
D03*
Y0D02*
D03*
Y197D02*
D03*
Y394D02*
D03*
Y591D02*
D03*
D30*
X3966Y-659D02*
D03*
X4163D02*
D03*
X4359D02*
D03*
X4556D02*
D03*
X4753D02*
D03*
X4950D02*
D03*
Y856D02*
D03*
X4753D02*
D03*
X4556D02*
D03*
X4359D02*
D03*
X4163D02*
D03*
X3966D02*
D03*
D31*
X4458Y98D02*
D03*
D32*
X6227Y2050D02*
D03*
X5873D02*
D03*
X8923Y-1750D02*
D03*
X9277D02*
D03*
X9277Y-2150D02*
D03*
X8923D02*
D03*
X7127Y2550D02*
D03*
X6773D02*
D03*
X7127Y3350D02*
D03*
X6773D02*
D03*
X4333Y1400D02*
D03*
X3978D02*
D03*
X3433D02*
D03*
X3078D02*
D03*
X5973Y-2150D02*
D03*
X6327D02*
D03*
X6773Y2950D02*
D03*
X7127D02*
D03*
X6773Y2150D02*
D03*
X7127D02*
D03*
X9297Y2120D02*
D03*
X8943D02*
D03*
X9297Y2810D02*
D03*
X8943D02*
D03*
X9297Y3220D02*
D03*
X8943D02*
D03*
X9297Y2470D02*
D03*
X8943D02*
D03*
X6773Y1750D02*
D03*
X7127D02*
D03*
X5327Y-1193D02*
D03*
X4973D02*
D03*
X9300Y-1288D02*
D03*
X8946D02*
D03*
D33*
X8919Y-2550D02*
D03*
X9281D02*
D03*
X6331Y-2600D02*
D03*
X5969D02*
D03*
X3978Y1800D02*
D03*
X4341D02*
D03*
X5969Y-1750D02*
D03*
X6331D02*
D03*
X9301Y1750D02*
D03*
X8939D02*
D03*
X9301Y1350D02*
D03*
X8939D02*
D03*
D34*
X4478Y2850D02*
D03*
Y2300D02*
D03*
X2704Y3396D02*
D03*
Y3946D02*
D03*
X353Y1960D02*
D03*
Y2510D02*
D03*
X4024Y2850D02*
D03*
Y2300D02*
D03*
D35*
X2550Y300D02*
D03*
Y694D02*
D03*
Y-494D02*
D03*
Y-100D02*
D03*
X750Y2355D02*
D03*
Y1961D02*
D03*
D36*
X1578Y1926D02*
D03*
Y2280D02*
D03*
X3350Y-627D02*
D03*
Y-273D02*
D03*
X2450Y-1327D02*
D03*
Y-1681D02*
D03*
X1500Y-1923D02*
D03*
Y-2277D02*
D03*
X4900Y1373D02*
D03*
Y1727D02*
D03*
X5250Y1373D02*
D03*
Y1727D02*
D03*
X3250Y-1327D02*
D03*
Y-1681D02*
D03*
D43*
X1866Y-1142D02*
D03*
Y1142D02*
D03*
M02*
